<svg id="Layer_1" data-name="Layer 1" xmlns="http://www.w3.org/2000/svg" viewBox="0 0 512 512"><defs><style>.cls-1{fill:#1d1e65;}.cls-2{fill:#fff;}.cls-3{fill:#48fb6f;}</style></defs><title>Web_SVG</title><polygon class="cls-1" points="455.55 475.57 455.55 475.57 455.55 475.57 455.55 475.57"/><path class="cls-2" d="M499.52,446.19h0C485.39,432,476.85,423.43,467,413.56c-6-6-12.46-12.43-21-21a36.94,36.94,0,0,0-21.53-10.87,5.7,5.7,0,0,1-1.89-.55,6.47,6.47,0,0,1-1.65-1.27h0l-4.45-4.5c-6.86-6.94-14-14.12-21.15-21a10.43,10.43,0,0,1-1.23-1.31,2.12,2.12,0,0,1-.2-.34l0-.18A1.4,1.4,0,0,1,394,352a9.49,9.49,0,0,1,.91-1.41c29.05-40,43.68-83.38,43.68-129.36a235.35,235.35,0,0,0-5.87-51.46A213.29,213.29,0,0,0,368.59,59.24,223.73,223.73,0,0,0,253.24,3c-9.49-1.58-21.31-2-30-2h-2.5a297.39,297.39,0,0,0-35.41,2C142,9.21,101.85,28.84,69.22,59.69A218.35,218.35,0,0,0,5.31,172.6C1.85,188.39.75,211.16.75,225.92c0,5.33.14,9.59.38,12.16C6,290.46,26.45,335.42,61.85,371.55c43.47,44.39,96.38,66.95,157,66.94,6.88,0,14-.29,21-.87,40.55-3.31,78.14-17.95,111.68-43.49h0a6.34,6.34,0,0,1,.94-.62l.2-.09a5.64,5.64,0,0,1,1.1.95c7.81,8.05,15.9,16.07,23.72,23.81l2.15,2.14a7.77,7.77,0,0,1,1.41,1.77,4.45,4.45,0,0,1,.52,1.7c.89,8.17,4.61,15.41,11.18,22l23.52,23.52c8.88,8.88,17.09,17.1,30.06,30A38.94,38.94,0,0,0,473.87,511,37.22,37.22,0,0,0,500,500.19,36.85,36.85,0,0,0,511.25,474v-.26A39.07,39.07,0,0,0,499.52,446.19ZM487.4,475a14.42,14.42,0,0,1-2.94,7.1,13.66,13.66,0,0,1-6.19,4.22,16.19,16.19,0,0,1-5.34,1,14,14,0,0,1-9.43-3.85c-2-1.75-3.89-3.71-5.76-5.62-.73-.74-1.45-1.48-2.19-2.21l-15.42-15.43c-9.6-9.6-16.57-16.58-30.5-30.45a19.27,19.27,0,0,1-3.86-5.09,16.76,16.76,0,0,1-1.67-7.74v-.05a12.55,12.55,0,0,1,2.28-6.69,14.7,14.7,0,0,1,5.84-4.78,15.21,15.21,0,0,1,6.5-1.58,13.27,13.27,0,0,1,8.93,3.68c3.16,2.78,6.21,5.89,9.17,8.91,1.18,1.2,2.35,2.41,3.55,3.6l15.26,15.26c8.12,8.12,14.19,14.2,26.66,26.61a19.94,19.94,0,0,1,4,5.42,12.54,12.54,0,0,1,1.27,5.53A13.7,13.7,0,0,1,487.4,475Zm-71.76-255.2h0c-.3,107.9-88.2,195.7-195.94,195.69h-.11a196.06,196.06,0,0,1-196-196v-.19c.09-108,88-195.86,195.9-195.86h.33A196,196,0,0,1,415.64,219.19C415.64,219.37,415.63,219.56,415.64,219.75ZM388.21,396.53Zm.26-.36c-1.69-1.69-3.36-3.38-5-5.08-4.11-4.15-8.36-8.46-12.7-12.57a3.94,3.94,0,0,1-.29-.29,7.19,7.19,0,0,1,.53-.49h0a34.82,34.82,0,0,0,3.52-3.79c.81-1,1.66-2,2.42-2.69a6.9,6.9,0,0,1,1-.83,1.29,1.29,0,0,1,.48-.22h0a1.4,1.4,0,0,1,.67.23,7.57,7.57,0,0,1,1.69,1.47c.63.67,1.29,1.49,1.95,2.31a33.14,33.14,0,0,0,3.15,3.6c1.74,1.64,3.46,3.39,5.13,5.1s3.54,3.61,5.41,5.37A26.13,26.13,0,0,0,388.47,396.17Z"/><polygon class="cls-1" points="5.31 172.6 5.32 172.6 5.32 172.6 5.31 172.6"/><path class="cls-2" d="M219.72,46.52h-.47A172.71,172.71,0,0,0,46.71,219.28h0v.11c0,95.14,77.34,172.66,172.48,172.85h.34A172.84,172.84,0,0,0,392.44,219.61v-.26A172.71,172.71,0,0,0,219.72,46.52Zm149.56,173c-.15,82.45-67.23,149.54-149.5,149.53h-.43A149.45,149.45,0,0,1,113,324.62,147.77,147.77,0,0,1,69.68,219.89v-.71h0c.39-82.53,67.51-149.69,149.59-149.68h.51c82.5.28,149.51,67.45,149.5,149.77Z"/><g id="Group_571" data-name="Group 571"><g id="Subtraction_13" data-name="Subtraction 13"><path class="cls-3" d="M218.85,260.72a29,29,0,0,1-20.6-8.52L124,177.92h24.72l59.86,59.86a14.58,14.58,0,0,0,20.6,0L289,177.92h24.72L239.45,252.2A29,29,0,0,1,218.85,260.72Z"/></g><g id="Subtraction_15" data-name="Subtraction 15"><path class="cls-3" d="M148.7,260.72H124l74.29-74.28a29.15,29.15,0,0,1,41.19,0l74.28,74.27H289l-59.87-59.86a14.57,14.57,0,0,0-20.59,0L148.7,260.72Z"/></g><g id="Ellipse_15" data-name="Ellipse 15"><circle class="cls-3" cx="125.64" cy="218.66" r="11.61"/></g><g id="Ellipse_16" data-name="Ellipse 16"><circle class="cls-3" cx="312.07" cy="218.66" r="11.61"/></g></g></svg>