<svg id="Layer_1" data-name="Layer 1" xmlns="http://www.w3.org/2000/svg" viewBox="0 0 512 512"><defs><style>.cls-1{fill:#fff;}.cls-2{fill:#48fb6f;}</style></defs><title>Web_SVG</title><path class="cls-1" d="M236.51,509.24c-51,0-85.67,0-103.06-.13-15.67-.09-29.51-11.67-32.92-27.55-1.25-5.79-1.06-11.62-.88-17.26,0-1.12,0-55.17,0-112.38,0-36.55,0-73.45,0-95.92V236.59c0-22.6,14.61-37.21,37.22-37.22l11.38,0h24.82c16.59,0,29.92,0,41.94.11h.11a3.84,3.84,0,0,0,2.26-.4,3.77,3.77,0,0,0,.31-2.27c-.2-5.87-.16-11.78-.12-17.5v-.78l0-5.85c0-19,11.29-30.29,30.15-30.3h15.14l21.77,0h76.88c16.23.25,28.11,12.12,28.26,28.2l0,3.65c.08,7.37.16,15-.13,22.44-.06,1.71.2,2.25.36,2.41s1.09.43,2.5.43h.14c14.21-.09,29-.13,44-.13,11.29,0,23.4,0,36,.08,14.8,0,27.45,9,33,23.26,2.57,6.58,2.83,102,2.85,131.06,0,47.49-.44,124.41-1.85,128.65-6.08,18.3-17.8,26.83-36.88,26.84H349.33c-.52,0-1,0-1.55,0C323.06,509.21,279.14,509.24,236.51,509.24Zm13.41-22.84c38.48,0,76.5,0,98,0,.51,0,1,0,1.52,0l1.27,0H469.42c11.51,0,15.59-4.11,15.59-15.71V332.17l-.37.08c-.33.08-.67.19-1,.3l-.65.2-88.82,25.81-38.21,11.1c-4.74,1.37-7.07,2.09-8.05,3.3s-1.11,3.69-1.32,8.17l0,.63c-.85,17.82-9.23,30.55-24.91,37.83a43.49,43.49,0,0,1-18.37,4.31c-9.12,0-17.91-3.25-26.14-9.66-11.69-9.1-17.13-21.95-16.16-38.2.17-2.93-.23-3.85-3.37-4.75-42.71-12.2-87.19-25.13-132.21-38.42a9.57,9.57,0,0,0-2.4-.49l-.31,0-.06.19a10,10,0,0,0-.21,2.59c.1,34.3.1,69.18.09,102.91v32.74c0,11.5,4.11,15.57,15.71,15.57Zm33.9-133.3a3.62,3.62,0,0,0-.2,1.68c.08,4.28.07,8.62.05,12.82v.29c0,4.37,0,8.9.06,13.37a19.89,19.89,0,0,0,19.84,19.61h.14a20,20,0,0,0,20-19.75c.08-4.13.06-8.34.05-12.41v-.29c0-4.26-.05-9.1.07-13.79a5.08,5.08,0,0,0-.1-1.29l.11-.15-.28-.16a2.91,2.91,0,0,0-1.33-.18h-.41c-2.23.07-4.61.1-7.49.1l-5.12,0h-5.1l-5.39,0h-.35l-5.06,0c-3,0-5.54,0-7.88-.12h-.34A4,4,0,0,0,284,353h-.17Zm19.71-23c10.65,0,21.32,0,31.71.1,6.31,0,10.95,4.61,11.31,11.11.11,2,.08,4,.05,6.13v1.24l.63-.15,34.21-9.95c31.37-9.13,66.94-19.48,101.28-29.37,2.14-.61,2.35-1.24,2.35-3.66-.06-14.47-.06-29.19-.05-43.43v-1.43q0-12,0-23.93c0-10.07-4.56-14.56-14.75-14.56H137.12c-10.12,0-14.64,4.52-14.65,14.66q0,9.94,0,19.89c0,15.8,0,32.13-.13,48.41,0,2.87.76,3.53,3.47,4.31,23.86,6.86,47.91,13.86,71.17,20.63l30,8.71c7.86,2.28,15.74,4.54,23.72,6.83l10.21,2.93v-1c0-2,0-4,0-5.87.27-6.86,4.86-11.49,11.42-11.53C282.55,330.1,293,330.07,303.53,330.07Zm-.23-164.93q-28.5,0-57,0c-4.17,0-5.82,1.69-5.85,6,0,3.19,0,6.44,0,9.58,0,5.23.06,10.64-.11,16a3.91,3.91,0,0,0,.32,2.28,3.82,3.82,0,0,0,2.2.38H243c8.63-.08,17.87-.11,30-.11h91.88c.32,0,.64,0,1,0H366l.6,0H367l0-.23a3.33,3.33,0,0,0,.06-.86c-.1-4.95-.09-10-.07-14.84v-.17c0-4.25,0-8.65-.05-13,0-2.21-.67-5.14-5.75-5.14Q332.26,165.14,303.3,165.14Z"/><path class="cls-2" d="M19,456.12c-11.91,0-15.55-3.6-15.55-15.44v-68.4c0-114.9,0-233.72-.11-352.3a45.06,45.06,0,0,1,.2-4.69A14.11,14.11,0,0,1,17.75,2.76H248a27,27,0,0,1,19.19,8.06L343.76,89a23.6,23.6,0,0,1,6.76,15.77l-.21,37.58H329.43c0-3.31.25-29.43.25-29.69v-.17l-.13-.09a4.94,4.94,0,0,0-2.43-.38H327c-10.56.08-21.46.11-35.36.11h-19.1l-14.84,0c-10.29,0-14.3-4-14.31-14.24l0-15.3c0-17.42,0-35.37.11-53,0-2-.16-3-.59-3.42s-1.49-.64-3.24-.64c-34.28.08-69.49.13-104.65.13-34.78,0-70.19-.05-105.25-.13-1.64,0-2.63.18-3,.57s-.55,1.38-.55,3.22c.11,54,.11,109,.1,162.09v73.82c0,51.31,0,109.47-.09,165.09,0,1.49.15,2.38.48,2.71a4.12,4.12,0,0,0,2.54.48h.17c12.33-.11,23.76-.16,35-.16,12,0,23.09.06,33.88.18h1.5V456c-15.4.09-31.3.1-42.93.1ZM266.14,86.4a2,2,0,0,0,2,2l44.12.76L266.14,43.08Z"/><path class="cls-2" d="M64.59,112.36H179.92c4.52,0,8.21-1.35,10.68-3.87a10.92,10.92,0,0,0,3-8.1C193.46,93.46,188.1,89,180,89H64.63c-4.57,0-8.24,1.29-10.62,3.72a11.1,11.1,0,0,0-3,8.23C51.15,108.07,56.23,112.35,64.59,112.36Z"/><path class="cls-2" d="M122.05,167.42H180c8.14,0,13.5-4.5,13.66-11.44a10.9,10.9,0,0,0-3-8.09c-2.47-2.52-6.16-3.86-10.69-3.86H64.58c-8.36,0-13.44,4.28-13.57,11.44a11.13,11.13,0,0,0,3,8.23c2.38,2.43,6.06,3.71,10.62,3.72h57.42Z"/></svg>