<svg id="Layer_1" data-name="Layer 1" xmlns="http://www.w3.org/2000/svg" viewBox="0 0 512 512"><defs><style>.cls-1{fill:#48fb6f;}.cls-2{fill:#fff;}</style></defs><title>Web_SVG</title><path class="cls-1" d="M332.51,364.09a2,2,0,0,1-1.39-.63c-2.95-2.54-8.38-14.82-11.3-22.73-10.2-27.68-35.52-45.56-64.53-45.56S201,313.06,190.73,340.74c-.25.67-.63,1.9-1.22,3.77-3.09,9.95-5.42,16.38-6.93,19.19a61.15,61.15,0,0,1-5.48-4.17c-1.23-1-2.63-2.18-4.36-3.49a12.58,12.58,0,0,0-3.92-1.74,19,19,0,0,1-9.32-5.58c1.12-1.83,2.7-4.72,5.27-9.46,2-3.73,4.53-8.37,7.59-13.85l.06-.1,0-.1a91,91,0,0,1,39.59-42l3.67-2-2.63-3.25-.94-1.17c-.67-.84-1.31-1.64-2-2.43-15.82-18.69-18.72-43.91-7.56-65.82,9.92-19.5,30.69-32.1,52.91-32.1a57.1,57.1,0,0,1,13.12,1.52c26.13,6.16,45.45,29.9,45.94,56.43.28,15.36-4.52,28.63-14.67,40.54-.12.14-.27.27-.41.41-.9.84-2.56,2.41-2.26,4.86s2.64,3.9,3.4,4.33c16.26,9.16,28.9,22.91,37.57,40.89l.08.15c5.46,10,9,20.58,10,26.13a3.75,3.75,0,0,0-.82-.09c-2.31,0-3.66,1.68-6.11,4.74-2.18,2.72-6.24,7.78-8.89,7.78ZM255.29,199.41a36.4,36.4,0,1,0,.07,0Z"/><path class="cls-2" d="M456,507.3a51.67,51.67,0,0,1-47.45-31.46,50.83,50.83,0,0,1,.77-41.51c2.48-5.37.42-8.5-2.18-11.07-15.24-15.1-35.33-35.06-55.52-55.58-1.41-1.43-3.37-3.07-6.05-3.07a9.51,9.51,0,0,0-5.72,2.41,134.75,134.75,0,0,1-71.68,27.71c-4.23.35-8.47.52-12.59.52-30.85,0-59.31-9.76-84.59-29a7.82,7.82,0,0,0-4.69-1.89,7.28,7.28,0,0,0-5.17,2.6c-11.31,11.54-20.68,20.91-29.49,29.47-3.91,3.81-2.78,7.2-1.17,10a66.1,66.1,0,0,1,7.75,46c-5.83,31.77-33.8,54.83-66.51,54.83-1.38,0-2.79,0-4.18-.12a66.93,66.93,0,0,1-43.12-19.72,65.47,65.47,0,0,1-19.51-43c-1.33-26.88,9.3-47.59,31.6-61.57,11.32-7.09,23.09-10.68,35-10.68,11.16,0,22.62,3.15,34.08,9.37a9.35,9.35,0,0,0,4.46,1.32,8,8,0,0,0,5.83-2.92c9.7-9.9,19.39-19.58,28.81-28.77,3.5-3.42,3.75-6.69.8-10.61-38.63-51.34-38.62-117.8,0-169.3,2.07-2.75,3.61-6.11-.53-10.21-18.41-18.2-37.05-36.83-57-56.94a8.11,8.11,0,0,0-5.75-2.77A9.67,9.67,0,0,0,78,102.53a46.93,46.93,0,0,1-21.31,5,53.67,53.67,0,0,1-8-.62C24.31,103.25,5.87,83.16,4.79,59.16A51.91,51.91,0,0,1,43.72,6.26,54.14,54.14,0,0,1,56.82,4.7,42.24,42.24,0,0,1,67,5.83C83.24,10,96.31,20.47,102.91,34.68a51.16,51.16,0,0,1-.73,44.05c-2.11,4.34-.3,7,1.75,9,17.17,17.11,37.4,37.3,57.26,57.35a7.24,7.24,0,0,0,5.07,2.5,8,8,0,0,0,4.73-1.9c25.87-19.09,55.33-29.19,85.21-29.19s59,10,84.47,29.05a8.42,8.42,0,0,0,4.93,1.95c2.52,0,4.23-1.52,5.63-2.94,10.47-10.64,19.21-19.49,28.46-28.38,4.48-4.31,3.27-8.09,1.49-11.23A66.09,66.09,0,0,1,378,45.72a68,68,0,0,1,46.76-39.3,77.4,77.4,0,0,1,16.38-1.61,50.41,50.41,0,0,1,12,1.17c28.59,7.55,45.86,24.81,52.8,52.79a66.89,66.89,0,0,1,.26,25.14,67.21,67.21,0,0,1-100.49,46.16,7.59,7.59,0,0,0-3.89-1.2,7.38,7.38,0,0,0-5.28,2.69l-2.87,2.89c-8.57,8.66-17.43,17.6-26.31,26.21-4.6,4.46-2.8,8.22-.71,11,18.74,24.94,28.65,54.11,28.67,84.34s-9.85,59.32-28.55,84.1c-3.27,4.34-3.06,7.64.75,11.39C388,371.63,408,391.73,423.08,407c1.67,1.68,3.79,3.4,6.86,3.4a10.84,10.84,0,0,0,4.61-1.15,51,51,0,0,1,71,33.78c1.58,6,1.64,18.94.11,25.22A51,51,0,0,1,456,507.3Zm-.31-79.89a28.15,28.15,0,0,0-28.3,28.43,28.52,28.52,0,0,0,28.29,28.53h.12a28.61,28.61,0,0,0,28.55-28.24,28.43,28.43,0,0,0-28.55-28.72h-.11ZM72,395.39a44.49,44.49,0,0,0-.34,89H72a44.68,44.68,0,0,0,44.52-44.26,44.38,44.38,0,0,0-44.33-44.72Zm185-255.85c-1.62,0-3.26,0-4.88.11-51.64,2.27-94.18,35.62-108.37,84.95-11.52,40,2.16,82.45,21.63,103.65,6.92,7.54,20,21.07,29.73,27,18.75,11.5,38.85,17.1,61.42,17.13a115.36,115.36,0,0,0,60.17-17.08c10.65-6.44,23.56-20.32,29.07-26.24,22.09-23.76,35.75-70.52,19.14-114C347.69,169.91,304.33,139.54,257.06,139.54ZM439.87,27.61a44.38,44.38,0,1,0,.17,0Zm-383.71,0a28.48,28.48,0,0,0-.28,57H56a28.17,28.17,0,0,0,28.48-28.1,28.52,28.52,0,0,0-28-28.85Z"/></svg>