<svg id="Layer_1" data-name="Layer 1" xmlns="http://www.w3.org/2000/svg" viewBox="0 0 512 512"><defs><style>.cls-1{fill:#fff;}.cls-2{fill:#48fb6f;}</style></defs><title>Web_SVG</title><path class="cls-1" d="M265.57,507.46A99.39,99.39,0,0,1,249,506.29a40.92,40.92,0,0,1-34-43.48c1.4-20.53,19.2-37.55,39.67-38,2.79-.05,5.59-.14,8.4-.24,4.3-.14,8.75-.29,13.09-.29a113.17,113.17,0,0,1,17.5,1.16c14,2.16,24.39,10.08,30.8,23.52,1.34,2.8,3.4,5.66,8.58,5.66s10.29-.08,15.34-.08l16.55,0q6.51,0,13-.05c27.59-.25,48.66-21,49-48.35,0-1.17.15-2.5.28-3.91.43-4.48.87-9.1-1.79-12.36-2.43-3-6.29-3-7.56-3a42.2,42.2,0,0,0-4.88.38,37,37,0,0,1-4,.33h-.18c-3.49-.05-7-.07-10.46-.07l-13.53,0-5.7,0c-7.78-.05-12.43-4.65-12.43-12.29q-.06-89.13,0-178.24c0-7.7,4.62-12.32,12.35-12.36l6.84,0c4.7,0,9.4-.07,14.11-.07,6.79,0,12.39.08,17.62.23h.61c1.86,0,4.52-.24,6.29-2.25,2-2.26,1.54-5.35,1.28-7.2C418.94,127,395.9,88.23,357.33,60.07A169.24,169.24,0,0,0,257,27.12c-79.83,0-148.3,53.69-166.5,130.57-.94,4-1.57,8-2.17,11.92-.37,2.42-.76,4.93-1.21,7.34a6.73,6.73,0,0,0,1.06,5.74c1.76,2.09,4.58,2.09,5.65,2.09H94c6.48-.08,13-.1,19.46-.1l14.62,0,5.07,0c8.71,0,13.13,4.42,13.13,13.08q0,88.38,0,176.75c0,8.66-4.42,13.06-13.14,13.08l-26,0-30.25,0c-9.5,0-13.74-4.16-13.77-13.48,0-10-1.55-11.61-11.58-12.18l-.25,0c-19.19-1.1-32.42-10.7-40.45-29.36-8.8-20.42-8.73-42-7.5-60.44.84-12.76,3.25-23.6,7.34-33.12,8.18-19,23.16-29.1,43.3-29.1l2,0h.48A7.11,7.11,0,0,0,61.82,208c1.68-1.83,1.46-4.1,1.32-5.45,0-.27-.06-.54-.06-.81-.57-32.09,5.74-61.5,18.76-87.39,29.28-58.26,76.82-94.27,141.32-107,7.7-1.68,22-2.8,35.67-2.8a154.15,154.15,0,0,1,18.95,1c56.71,7.45,102.31,34,135.54,79,25,33.9,37.32,73.26,36.5,117,0,2.17.07,4.63,1.87,6.44s4.12,2,6,2l1.95,0c15.93,0,28.5,6.54,37.35,19.45,4.29,6.27,6.77,13.66,9.24,21.45,4.31,13.58,3.36,56.2,1.14,65.43-2,8.34-4.81,18-10.88,26.62-9,12.66-21.4,19.09-36.92,19.09l-1.66,0h-.62a7.64,7.64,0,0,0-5.67,1.89c-1.68,1.69-1.87,4-1.83,6,.22,12.15.15,24.41.07,36.26-.24,39.63-31.74,70.87-71.72,71.14q-9.45.08-18.9.06-12.9,0-25.79-.09h0c-3.24,0-6.68.64-8.94,5.35C316.78,498.68,303.81,506.92,286,507c-3.2,0-6.41.11-9.62.21C272.81,507.35,269.15,507.46,265.57,507.46Zm6-23q2.38,0,4.77,0l4.84,0q3,0,6.07-.1a18.48,18.48,0,0,0-.24-37c-5-.1-10.19-.15-15.33-.15s-10.23,0-15.4.14A18.48,18.48,0,0,0,237.8,466c.06,10,8.23,18.12,18.59,18.4,1.91.05,3.82.07,5.73.07q2.58,0,5.16,0ZM408.3,364.8c3.45,0,6.94.08,10.36.25l.93,0a7.58,7.58,0,0,0,5.54-1.89c1.76-1.76,2-4.2,2-6.35-.14-17.68-.13-35.67-.11-53.07V269c0-17.71,0-36,.09-54,0-2-.2-4.19-1.88-5.86a7.3,7.3,0,0,0-5.36-1.84h-.63c-3.63.13-7.3.19-10.92.19s-7.31-.06-10.93-.19h-.62a7.33,7.33,0,0,0-5.39,1.85c-1.69,1.7-1.87,4-1.85,5.89.15,9.42.12,19,.1,28.28q0,5.25,0,10.5v23.1c0,26.2,0,53.29-.1,79.93,0,2.15.21,4.59,2,6.33a7.57,7.57,0,0,0,5.53,1.89l.94,0C401.36,364.88,404.86,364.8,408.3,364.8ZM93.4,207.27a7.56,7.56,0,0,0-5.54,1.9c-1.75,1.76-2,4.19-2,6.34.14,17.56.12,35.42.11,52.69l0,17.47v17.11c0,17.89,0,36.38-.09,54.56,0,2,.21,4.2,1.88,5.87A7.35,7.35,0,0,0,93.17,365h.61c3.46-.11,7-.17,10.79-.17,3.63,0,7.43.05,11.6.16h.43a7,7,0,0,0,5.13-1.78,7.23,7.23,0,0,0,1.76-5.44c-.12-8.2-.1-16.56-.08-24.64,0-3.05,0-6.11,0-9.16V300c0-27.68,0-56.31.1-84.46,0-2.16-.21-4.6-2-6.34a7.54,7.54,0,0,0-5.52-1.89l-.94,0c-3.42.16-6.9.25-10.35.25s-6.94-.09-10.39-.25ZM54.6,232.41l-1,0-.78,0a28.26,28.26,0,0,0-3.07.24c-12.7,1.9-17.31,12.1-19.66,19.61-4.06,12.9-5.28,27.4-3.85,45.62.72,9.2,2.05,19,6.76,28.2C37.52,335,44.65,339.5,54.17,339.5h1.06c2-.07,8.1-.28,8-8.15-.18-11-.15-22.21-.12-33q0-6.06,0-12.13t0-12.39c0-10.42-.1-21.19.18-31.75,0-2.11-.12-5.17-2.26-7.35C59.5,233.15,57.41,232.41,54.6,232.41Zm405.28,0c-.87,0-1.78,0-2.68.14-1.87.19-7.53.77-7.42,8.13.18,11,.15,22.26.12,33.13q0,6,0,12v9.92c0,11.94,0,23.88.06,35.82,0,.13,0,.3-.07.48a6.19,6.19,0,0,0,.95,5,6,6,0,0,0,4.36,2.14,37.68,37.68,0,0,0,3.86.21c7.22,0,12.78-2.39,17-7.31a35.84,35.84,0,0,0,7.09-13.58c3.87-13.21,5-27.53,3.65-45.08-.74-9.51-2.12-19.58-7.09-28.7C475.28,236.64,468.44,232.37,459.88,232.37Z"/><path class="cls-2" d="M210.73,318a1.87,1.87,0,0,1-1.3-3.21,318.14,318.14,0,0,0,23.16-25.25c9-10.92,13.52-20.72,13.52-29.14a29.91,29.91,0,0,0-10.42-23.08C228.8,231.15,219.48,228,208,228c-10.52,0-19.45,2.68-26.53,8a27.84,27.84,0,0,0-11.61,21.47v10.35h26v-6.6a10,10,0,0,1,3.28-7.83,12.71,12.71,0,0,1,8.85-3,12.88,12.88,0,0,1,8.86,2.95,9.57,9.57,0,0,1,3.27,7.58c0,2.68-3,9.27-17.05,25.44-4.78,5.52-10.5,11.76-17,18.54S174.44,316.63,171,319.7l-.34.3v20.5h77.25V318H210.73Z"/><path class="cls-2" d="M345.18,289.51H338.6a1.87,1.87,0,0,1-1.87-1.87V262H311v25.67a1.87,1.87,0,0,1-1.86,1.87H292.42a1.87,1.87,0,0,1-1.71-2.63l25-56.49.62-1.4H289l-.26.59L260,294.43l-.08.19v18h49.21a1.87,1.87,0,0,1,1.86,1.87v26h25.7v-26a1.87,1.87,0,0,1,1.87-1.87h7.58V289.51Z"/></svg>