<svg width="360" height="525" viewBox="0 0 360 525" fill="none" xmlns="http://www.w3.org/2000/svg">
<path d="M-52 -37.1975L354.183 -42.9659L431.413 267.033L377.971 415.459C373.277 428.495 362.171 438.174 348.615 441.042L39.2434 506.489C-3.88624 515.613 -44.6113 483.078 -45.2373 438.999L-52 -37.1975Z" fill="#1D1E65"/>
<g opacity="0.5" clip-path="url(#clip0_3762_14345)">
<path opacity="0.5653" d="M136.373 229.965L130.919 233.242L130.956 239.739L131.016 239.77L136.446 242.954L141.9 239.677L141.863 233.18L141.807 233.149L136.373 229.965ZM131.15 233.38L136.373 230.237L141.637 233.32L141.673 239.54L136.444 242.682L131.186 239.6L131.15 233.38Z" fill="#48FB6F" fill-opacity="0.7"/>
<path opacity="0.7657" d="M50.5427 211.374L50.4853 211.41L29.0725 224.287L29.2188 249.86L29.2766 249.895L50.8375 262.527L50.8949 262.491L72.3098 249.613L72.1635 224.039L72.1056 224.003L50.5427 211.374ZM29.2996 224.418L50.5443 211.644L71.9317 224.174L72.0765 249.482L50.8339 262.256L29.4444 249.726L29.2996 224.418Z" fill="#48FB6F" fill-opacity="0.7"/>
<path opacity="0.5793" d="M50.6526 230.455L45.1981 233.733L45.2353 240.23L45.2931 240.261L50.7269 243.445L56.1814 240.167L56.1442 233.67L56.0864 233.639L50.6526 230.455ZM45.4274 233.87L50.6521 230.728L55.9145 233.81L55.9501 240.03L50.7233 243.172L45.463 240.09L45.4274 233.87Z" fill="#48FB6F" fill-opacity="0.7"/>
<path opacity="0.901" d="M93.039 147.529L82.2471 154.021L82.3206 166.872L82.3785 166.907L93.1862 173.24L103.978 166.746L103.905 153.895L103.849 153.859L93.039 147.529ZM82.4763 154.151L93.0406 147.797L103.679 154.03L103.751 166.615L93.1846 172.969L82.5483 166.736L82.4763 154.151Z" fill="#48FB6F" fill-opacity="0.7"/>
<path opacity="0.8562" d="M92.9666 134.81L71.4963 147.717L71.6427 173.296L71.7005 173.327L93.2613 185.957L114.734 173.049L114.587 147.471L114.532 147.44L92.9666 134.81ZM71.7255 147.854L92.9681 135.08L114.36 147.61L114.504 172.912L93.2577 185.686L71.8703 173.156L71.7255 147.854Z" fill="#48FB6F" fill-opacity="0.7"/>
<path opacity="0.9361" d="M136.264 210.883L136.208 210.919L93.4361 236.637L93.7281 287.653L93.7859 287.686L136.848 312.915L136.907 312.881L179.68 287.161L179.388 236.145L179.328 236.114L136.264 210.883ZM93.6654 236.774L136.265 211.156L179.158 236.284L179.448 287.026L136.846 312.642L93.9557 287.516L93.6654 236.774Z" fill="#48FB6F" fill-opacity="0.7"/>
<path opacity="0.6204" d="M93.6942 262.009L93.6388 262.045L72.2219 274.922L72.3682 300.497L72.4261 300.53L93.9869 313.162L94.0444 313.128L115.459 300.25L115.313 274.676L115.257 274.64L93.6942 262.009ZM72.4531 275.053L93.6957 262.281L115.087 274.809L115.232 300.115L93.9854 312.889L72.598 300.359L72.4531 275.053Z" fill="#48FB6F" fill-opacity="0.7"/>
<path opacity="0.9207" d="M179.126 210.638L179.07 210.674L157.655 223.551L157.802 249.124L157.858 249.159L179.418 261.791L179.474 261.755L200.887 248.877L200.74 223.303L200.685 223.267L179.126 210.638ZM157.885 223.682L179.129 210.908L200.517 223.438L200.662 248.746L179.419 261.52L158.03 248.99L157.885 223.682Z" fill="#48FB6F" fill-opacity="0.7"/>
<path opacity="0.7779" d="M136.191 198.164L125.399 204.652L125.473 217.509L125.533 217.544L136.338 223.877L147.13 217.385L147.057 204.528L147.001 204.496L136.191 198.164ZM125.631 204.789L136.193 198.435L146.831 204.667L146.903 217.252L136.337 223.606L125.703 217.373L125.631 204.789Z" fill="#48FB6F" fill-opacity="0.7"/>
<path opacity="0.6118" d="M93.5127 230.21L88.0624 233.488L88.0996 239.985L88.1553 240.016L93.5871 243.2L99.0415 239.922L99.0044 233.425L98.9465 233.394L93.5127 230.21ZM88.2875 233.625L93.5123 230.483L98.7726 233.565L98.8082 239.785L93.5835 242.927L88.3231 239.845L88.2875 233.625Z" fill="#48FB6F" fill-opacity="0.7"/>
<path opacity="0.6984" d="M179.199 223.361L168.407 229.849L168.481 242.704L168.537 242.735L179.348 249.068L190.14 242.58L190.067 229.725L190.011 229.689L179.199 223.361ZM168.634 229.986L179.203 223.632L189.841 229.864L189.913 242.449L179.347 248.797L168.706 242.571L168.634 229.986Z" fill="#48FB6F" fill-opacity="0.7"/>
<path opacity="0.8157" d="M178.835 159.755L178.779 159.791L157.364 172.667L157.511 198.241L157.567 198.277L179.127 210.908L179.183 210.872L200.596 197.995L200.449 172.42L200.394 172.389L178.835 159.755ZM157.594 172.806L178.838 160.028L200.226 172.562L200.371 197.864L179.128 210.638L157.738 198.108L157.594 172.806Z" fill="#48FB6F" fill-opacity="0.7"/>
<path opacity="0.8834" d="M135.827 134.565L114.359 147.472L114.505 173.051L114.561 173.082L136.122 185.711L157.596 172.804L157.45 147.225L157.39 147.194L135.827 134.565ZM114.584 147.609L135.826 134.835L157.216 147.365L157.361 172.667L136.116 185.441L114.729 172.911L114.584 147.609Z" fill="#48FB6F" fill-opacity="0.7"/>
<path opacity="0.5245" d="M171.622 126.076L168.052 128.221L168.124 140.806L178.763 147.038L189.329 140.684L189.257 128.099L185.663 125.996L186.12 125.993L189.483 127.966L189.556 140.821L178.764 147.309L167.899 140.945L167.825 128.09L171.165 126.079L171.622 126.076Z" fill="#48FB6F" fill-opacity="0.7"/>
<path opacity="0.8927" d="M136.664 280.845L131.21 284.125L131.247 290.62L131.307 290.653L136.737 293.837L142.191 290.557L142.154 284.062L142.098 284.027L136.664 280.845ZM131.441 284.258L136.664 281.116L141.928 284.198L141.964 290.422L136.735 293.564L131.477 290.482L131.441 284.258Z" fill="#48FB6F" fill-opacity="0.7"/>
<path opacity="0.8384" d="M222.354 273.992L211.562 280.484L211.635 293.337L211.691 293.37L222.501 299.703L233.293 293.213L233.219 280.36L233.159 280.324L222.354 273.992ZM211.789 280.619L222.355 274.262L232.989 280.497L233.061 293.08L222.499 299.432L211.861 293.201L211.789 280.619Z" fill="#48FB6F" fill-opacity="0.7"/>
<path opacity="0.6654" d="M179.054 197.919L168.262 204.406L168.335 217.264L168.391 217.299L179.203 223.632L189.995 217.14L189.921 204.282L189.866 204.251L179.054 197.919ZM168.489 204.543L179.057 198.189L189.696 204.422L189.768 217.007L179.201 223.361L168.561 217.128L168.489 204.543Z" fill="#48FB6F" fill-opacity="0.7"/>
<path opacity="0.6262" d="M136.373 229.965L130.919 233.242L130.956 239.739L131.016 239.77L136.446 242.954L141.9 239.677L141.863 233.18L141.807 233.149L136.373 229.965ZM131.15 233.38L136.373 230.237L141.637 233.32L141.673 239.54L136.444 242.682L131.186 239.6L131.15 233.38Z" fill="#48FB6F" fill-opacity="0.7"/>
<path opacity="0.5193" d="M136.082 179.082L130.628 182.364L130.665 188.857L130.725 188.892L136.155 192.072L141.609 188.794L141.572 182.302L141.516 182.266L136.082 179.082ZM130.859 182.497L136.082 179.353L141.346 182.437L141.382 188.663L136.153 191.806L130.895 188.723L130.859 182.497Z" fill="#48FB6F" fill-opacity="0.7"/>
<path opacity="0.9905" d="M221.697 159.51L221.638 159.546L200.223 172.422L200.369 197.996L200.425 198.031L221.99 210.663L222.045 210.627L243.46 197.749L243.314 172.175L243.258 172.144L221.697 159.51ZM200.45 172.561L221.699 159.783L243.086 172.317L243.231 197.619L221.988 210.393L200.595 197.863L200.45 172.561Z" fill="#48FB6F" fill-opacity="0.7"/>
<path opacity="0.517" d="M221.516 127.711L216.061 130.993L216.099 137.486L221.59 140.705L227.039 137.423L227.001 130.931L221.516 127.711ZM216.289 131.124L221.517 127.982L226.776 131.064L226.811 137.29L221.589 140.433L216.324 137.35L216.289 131.124Z" fill="#48FB6F" fill-opacity="0.7"/>
<path opacity="0.6479" d="M200.183 125.912L200.304 146.98L221.697 159.51L242.942 146.736L242.822 125.668L243.048 125.667L243.169 146.873L221.754 159.751L221.699 159.78L200.134 147.151L200.078 147.12L199.957 125.914L200.183 125.912Z" fill="#48FB6F" fill-opacity="0.7"/>
<path opacity="0.9857" d="M265.212 273.747L254.42 280.238L254.493 293.092L254.553 293.125L265.359 299.457L276.151 292.968L276.077 280.114L276.022 280.079L265.212 273.747ZM254.647 280.373L265.213 274.017L275.854 280.252L275.926 292.835L265.357 299.187L254.719 292.956L254.647 280.373Z" fill="#48FB6F" fill-opacity="0.7"/>
<path opacity="0.7696" d="M264.556 159.265L264.501 159.301L243.086 172.176L243.232 197.751L243.288 197.786L264.847 210.418L264.907 210.382L286.319 197.504L286.173 171.93L286.113 171.899L264.556 159.265ZM243.315 172.315L264.558 159.537L285.947 172.071L286.092 197.373L264.848 210.147L243.46 197.617L243.315 172.315Z" fill="#48FB6F" fill-opacity="0.7"/>
<path opacity="0.8062" d="M193.054 125.953L178.806 134.518L179.096 185.268L221.989 210.392L264.593 184.779L264.303 134.029L249.956 125.628L250.409 125.625L264.471 133.86L264.526 133.895L264.818 184.91L222.046 210.627L221.991 210.663L178.927 185.437L178.867 185.402L178.575 134.387L192.597 125.956L193.054 125.953Z" fill="#48FB6F" fill-opacity="0.7"/>
<path opacity="0.9977" d="M264.374 127.466L258.922 130.748L258.959 137.241L264.449 140.46L269.903 137.178L269.866 130.685L264.374 127.466ZM259.153 130.879L264.376 127.737L269.64 130.819L269.676 137.045L264.447 140.187L259.189 137.105L259.153 130.879Z" fill="#48FB6F" fill-opacity="0.7"/>
<path opacity="0.6323" d="M157.327 126.158L157.447 147.225L178.835 159.755L200.077 146.981L199.957 125.914L200.183 125.912L200.305 147.119L178.892 159.996L178.836 160.026L157.278 147.396L157.222 147.365L157.1 126.159L157.327 126.158Z" fill="#48FB6F" fill-opacity="0.7"/>
<path opacity="0.5774" d="M178.654 127.957L173.199 131.238L173.236 137.731L178.728 140.95L184.18 137.669L184.143 131.176L178.654 127.957ZM173.426 131.369L178.655 128.227L183.919 131.309L183.955 137.536L178.726 140.678L173.462 137.596L173.426 131.369Z" fill="#48FB6F" fill-opacity="0.7"/>
<path opacity="0.6004" d="M157.327 126.158L157.447 147.225L178.835 159.755L200.077 146.981L199.957 125.914L200.183 125.912L200.305 147.119L178.892 159.996L178.836 160.026L157.278 147.396L157.222 147.365L157.1 126.159L157.327 126.158Z" fill="#48FB6F" fill-opacity="0.7"/>
<path opacity="0.6006" d="M207.55 125.87L221.552 134.074L235.455 125.711L235.912 125.708L221.553 134.347L207.093 125.873L207.55 125.87Z" fill="#48FB6F" fill-opacity="0.7"/>
<path opacity="0.6198" d="M222.389 280.355L216.934 283.634L216.972 290.129L217.027 290.162L222.463 293.346L227.912 290.067L227.874 283.572L227.819 283.536L222.389 280.355ZM217.162 283.767L222.391 280.625L227.649 283.707L227.684 289.932L222.462 293.074L217.197 289.992L217.162 283.767Z" fill="#48FB6F" fill-opacity="0.7"/>
<path opacity="0.9164" d="M222.098 229.474L216.643 232.752L216.681 239.249L216.736 239.28L222.172 242.464L227.621 239.186L227.583 232.689L227.528 232.658L222.098 229.474ZM216.871 232.889L222.1 229.747L227.358 232.829L227.393 239.049L222.171 242.191L216.906 239.109L216.871 232.889Z" fill="#48FB6F" fill-opacity="0.7"/>
<path opacity="0.5577" d="M221.697 159.51L221.638 159.546L200.223 172.422L200.369 197.996L200.425 198.031L221.99 210.663L222.045 210.627L243.46 197.749L243.314 172.175L243.258 172.144L221.697 159.51ZM200.45 172.561L221.699 159.783L243.086 172.317L243.231 197.619L221.988 210.393L200.595 197.863L200.45 172.561Z" fill="#48FB6F" fill-opacity="0.7"/>
<path opacity="0.6643" d="M307.492 171.743L296.7 178.23L296.774 191.086L296.83 191.121L307.639 197.453L318.431 190.96L318.358 178.104L318.302 178.073L307.492 171.743ZM296.927 178.367L307.494 172.013L318.132 178.246L318.204 190.831L307.638 197.185L296.999 190.952L296.927 178.367Z" fill="#48FB6F" fill-opacity="0.7"/>
<path opacity="0.9482" d="M264.411 133.829L242.943 146.736L243.089 172.315L243.145 172.346L264.704 184.976L286.178 172.068L286.032 146.49L285.972 146.459L264.411 133.829ZM243.17 146.873L264.412 134.099L285.802 146.629L285.947 171.931L264.702 184.705L243.315 172.175L243.17 146.873Z" fill="#48FB6F" fill-opacity="0.7"/>
<path opacity="0.8287" d="M307.419 159.02L307.364 159.055L264.591 184.777L264.883 235.794L264.939 235.825L308.003 261.057L308.058 261.021L350.831 235.304L350.539 184.289L350.483 184.254L307.419 159.02ZM264.819 184.91L307.421 159.292L350.313 184.421L350.604 235.165L308.001 260.782L265.109 235.654L264.819 184.91Z" fill="#48FB6F" fill-opacity="0.7"/>
<path opacity="0.9627" d="M264.956 229.229L259.504 232.507L259.541 239.004L259.601 239.035L265.031 242.219L270.485 238.941L270.448 232.444L270.392 232.413L264.956 229.229ZM259.735 232.644L264.958 229.502L270.222 232.584L270.258 238.804L265.029 241.946L259.771 238.864L259.735 232.644Z" fill="#48FB6F" fill-opacity="0.7"/>
<path opacity="0.6877" d="M350.572 209.657L350.513 209.693L329.098 222.57L329.244 248.143L329.3 248.178L350.865 260.81L350.92 260.774L372.335 247.896L372.189 222.322L372.133 222.286L350.572 209.657ZM329.325 222.701L350.574 209.927L371.961 222.457L372.106 247.765L350.863 260.539L329.47 248.009L329.325 222.701Z" fill="#48FB6F" fill-opacity="0.7"/>
<path opacity="0.5544" d="M307.347 146.303L296.555 152.794L296.628 165.645L296.684 165.681L307.494 172.013L318.286 165.519L318.212 152.668L318.156 152.633L307.347 146.303ZM296.782 152.925L307.348 146.571L317.986 152.804L318.058 165.389L307.492 171.743L296.854 165.51L296.782 152.925Z" fill="#48FB6F" fill-opacity="0.7"/>
<path opacity="0.8016" d="M307.564 184.46L307.509 184.496L286.09 197.371L286.236 222.946L286.296 222.981L307.857 235.613L307.913 235.577L329.325 222.701L329.179 197.127L329.123 197.091L307.564 184.46ZM286.323 197.504L307.566 184.73L328.953 197.26L329.098 222.568L307.856 235.342L286.468 222.812L286.323 197.504Z" fill="#48FB6F" fill-opacity="0.7"/>
<path opacity="0.5003" d="M293.271 125.38L307.273 133.584L321.181 125.22L321.638 125.217L307.275 133.856L292.814 125.382L293.271 125.38Z" fill="#48FB6F" fill-opacity="0.7"/>
<path opacity="0.7569" d="M243.049 125.667L243.169 146.735L264.556 159.265L285.801 146.491L285.681 125.423L285.911 125.422L286.032 146.628L264.618 159.506L264.558 159.535L242.999 146.906L242.943 146.875L242.822 125.668L243.049 125.667Z" fill="#48FB6F" fill-opacity="0.7"/>
<path opacity="0.9339" d="M307.273 133.583L285.799 146.491L285.945 172.069L286.005 172.101L307.566 184.73L329.034 171.823L328.888 146.244L328.832 146.213L307.273 133.583ZM286.032 146.628L307.275 133.854L328.662 146.384L328.807 171.686L307.565 184.46L286.177 171.93L286.032 146.628Z" fill="#48FB6F" fill-opacity="0.7"/>
<path opacity="0.6722" d="M343.064 125.095L339.499 127.24L339.571 139.824L350.209 146.057L360.771 139.703L360.699 127.118L357.11 125.014L357.563 125.012L360.931 126.985L361.005 139.84L350.211 146.328L339.341 139.964L339.268 127.109L342.613 125.097L343.064 125.095Z" fill="#48FB6F" fill-opacity="0.7"/>
<path opacity="0.5645" d="M293.271 125.38L307.273 133.584L321.181 125.22L321.638 125.217L307.275 133.856L292.814 125.382L293.271 125.38Z" fill="#48FB6F" fill-opacity="0.7"/>
<path opacity="0.7115" d="M308.111 279.864L302.656 283.144L302.693 289.639L302.749 289.672L308.185 292.856L313.639 289.576L313.602 283.081L313.542 283.046L308.111 279.864ZM302.885 283.277L308.114 280.134L313.374 283.217L313.41 289.441L308.185 292.583L302.921 289.501L302.885 283.277Z" fill="#48FB6F" fill-opacity="0.7"/>
<path opacity="0.6307" d="M308.001 260.782L307.946 260.818L286.527 273.696L286.673 299.27L286.733 299.304L308.294 311.935L308.349 311.901L329.762 299.024L329.616 273.449L329.56 273.414L308.001 260.782ZM286.76 273.827L308.003 261.055L329.39 273.583L329.535 298.889L308.292 311.663L286.905 299.133L286.76 273.827Z" fill="#48FB6F" fill-opacity="0.7"/>
<path opacity="0.8937" d="M350.282 158.774L350.222 158.81L307.45 184.532L307.742 235.548L307.802 235.579L350.866 260.812L350.921 260.776L393.693 235.059L393.401 184.044L393.346 184.009L350.282 158.774ZM307.683 184.665L350.285 159.047L393.178 184.175L393.468 234.919L350.866 260.537L307.973 235.409L307.683 184.665Z" fill="#48FB6F" fill-opacity="0.7"/>
<path opacity="0.6526" d="M307.82 228.984L302.365 232.261L302.402 238.758L302.458 238.789L307.894 241.973L313.348 238.696L313.311 232.199L313.251 232.168L307.82 228.984ZM302.594 232.398L307.823 229.256L313.084 232.338L313.119 238.558L307.894 241.701L302.63 238.618L302.594 232.398Z" fill="#48FB6F" fill-opacity="0.7"/>
<path opacity="0.6213" d="M307.529 178.101L302.074 181.383L302.111 187.876L302.167 187.911L307.603 191.091L313.057 187.813L313.02 181.32L312.96 181.285L307.529 178.101ZM302.303 181.516L307.532 178.372L312.792 181.456L312.828 187.682L307.603 190.824L302.339 187.742L302.303 181.516Z" fill="#48FB6F" fill-opacity="0.7"/>
<path opacity="0.5206" d="M350.682 228.738L345.227 232.016L345.265 238.513L345.32 238.544L350.756 241.728L356.204 238.45L356.167 231.953L356.112 231.922L350.682 228.738ZM345.457 232.153L350.685 229.011L355.946 232.093L355.981 238.313L350.757 241.455L345.492 238.373L345.457 232.153Z" fill="#48FB6F" fill-opacity="0.7"/>
<path opacity="0.5092" d="M350.572 209.657L350.513 209.693L329.098 222.57L329.244 248.143L329.3 248.178L350.865 260.81L350.92 260.774L372.335 247.896L372.189 222.322L372.133 222.286L350.572 209.657ZM329.325 222.701L350.574 209.927L371.961 222.457L372.106 247.765L350.863 260.539L329.47 248.009L329.325 222.701Z" fill="#48FB6F" fill-opacity="0.7"/>
<path opacity="0.6878" d="M328.767 125.177L328.888 146.244L350.281 158.774L371.526 146L371.405 124.933L371.632 124.931L371.753 146.137L350.338 159.015L350.283 159.045L328.724 146.415L328.664 146.384L328.543 125.178L328.767 125.177Z" fill="#48FB6F" fill-opacity="0.7"/>
<path opacity="0.8144" d="M132.402 233.301C132.397 232.527 131.78 231.902 131.027 231.906C130.273 231.91 129.663 232.543 129.668 233.317C129.672 234.095 130.289 234.72 131.043 234.716C131.798 234.712 132.406 234.077 132.402 233.301Z" fill="#48FB6F" fill-opacity="0.7"/>
<path opacity="0.728" d="M137.741 230.089C137.736 229.315 137.126 228.69 136.366 228.694C135.612 228.698 135.002 229.331 135.007 230.105C135.011 230.883 135.628 231.508 136.382 231.504C137.14 231.502 137.745 230.869 137.741 230.089Z" fill="#48FB6F" fill-opacity="0.7"/>
<path opacity="0.7587" d="M143.121 233.24C143.116 232.466 142.499 231.84 141.74 231.845C140.986 231.849 140.376 232.482 140.381 233.255C140.385 234.033 141.002 234.659 141.756 234.655C142.515 234.65 143.125 234.016 143.121 233.24Z" fill="#48FB6F" fill-opacity="0.7"/>
<path opacity="0.7652" d="M51.9117 211.504C51.9072 210.726 51.2942 210.101 50.5365 210.105C49.7809 210.109 49.1731 210.742 49.1775 211.52C49.1819 212.292 49.797 212.919 50.5526 212.915C51.3103 212.911 51.9161 212.276 51.9117 211.504Z" fill="#48FB6F" fill-opacity="0.7"/>
<path opacity="0.9334" d="M46.7175 240.154C46.7131 239.376 46.0959 238.751 45.3424 238.755C44.5847 238.759 43.9768 239.392 43.9812 240.17C43.9856 240.942 44.6028 241.569 45.3584 241.565C46.1141 241.561 46.722 240.928 46.7175 240.154Z" fill="#48FB6F" fill-opacity="0.7"/>
<path opacity="0.6915" d="M105.159 153.957C105.154 153.179 104.541 152.553 103.784 152.557C103.03 152.562 102.42 153.194 102.425 153.972C102.429 154.746 103.046 155.372 103.8 155.367C104.557 155.363 105.163 154.728 105.159 153.957Z" fill="#48FB6F" fill-opacity="0.7"/>
<path opacity="0.5175" d="M72.9792 147.782C72.9747 147.004 72.3576 146.378 71.604 146.383C70.8484 146.387 70.2385 147.02 70.2429 147.798C70.2474 148.572 70.8645 149.197 71.6201 149.193C72.3737 149.186 72.9836 148.554 72.9792 147.782Z" fill="#48FB6F" fill-opacity="0.7"/>
<path opacity="0.7801" d="M115.985 172.971C115.981 172.197 115.363 171.571 114.61 171.576C113.854 171.58 113.246 172.213 113.251 172.986C113.255 173.765 113.87 174.39 114.626 174.386C115.379 174.384 115.989 173.751 115.985 172.971Z" fill="#48FB6F" fill-opacity="0.7"/>
<path opacity="0.8122" d="M73.1247 173.216C73.1202 172.442 72.5031 171.817 71.7495 171.821C70.9939 171.825 70.384 172.458 70.3884 173.232C70.3929 174.01 71.01 174.635 71.7656 174.631C72.5192 174.629 73.1291 173.996 73.1247 173.216Z" fill="#48FB6F" fill-opacity="0.7"/>
<path opacity="0.7332" d="M94.9187 236.699C94.9142 235.921 94.2971 235.295 93.5414 235.3C92.7879 235.304 92.1779 235.937 92.1824 236.715C92.1868 237.489 92.804 238.114 93.5575 238.11C94.3131 238.106 94.9231 237.473 94.9187 236.699Z" fill="#48FB6F" fill-opacity="0.7"/>
<path opacity="0.6303" d="M95.2106 287.575C95.2062 286.799 94.589 286.174 93.8334 286.178C93.0798 286.182 92.4699 286.815 92.4744 287.591C92.4788 288.369 93.096 288.997 93.8495 288.992C94.6051 288.988 95.2151 288.355 95.2106 287.575Z" fill="#48FB6F" fill-opacity="0.7"/>
<path opacity="0.5225" d="M116.568 274.736C116.564 273.958 115.948 273.332 115.193 273.336C114.437 273.341 113.829 273.973 113.834 274.751C113.838 275.525 114.453 276.151 115.209 276.147C115.965 276.142 116.572 275.508 116.568 274.736Z" fill="#48FB6F" fill-opacity="0.7"/>
<path opacity="0.7847" d="M73.8523 300.419C73.8478 299.643 73.2307 299.017 72.4771 299.022C71.7215 299.026 71.1115 299.659 71.116 300.435C71.1204 301.211 71.7376 301.836 72.4932 301.832C73.2467 301.828 73.8567 301.195 73.8523 300.419Z" fill="#48FB6F" fill-opacity="0.7"/>
<path opacity="0.9423" d="M137.559 198.29C137.555 197.519 136.944 196.891 136.184 196.895C135.43 196.9 134.821 197.534 134.825 198.306C134.829 199.084 135.447 199.712 136.2 199.708C136.958 199.701 137.564 199.068 137.559 198.29Z" fill="#48FB6F" fill-opacity="0.7"/>
<path opacity="0.8348" d="M148.386 217.311C148.381 216.533 147.764 215.907 147.011 215.911C146.251 215.916 145.641 216.548 145.645 217.326C145.65 218.098 146.267 218.73 147.027 218.726C147.782 218.721 148.39 218.083 148.386 217.311Z" fill="#48FB6F" fill-opacity="0.7"/>
<path opacity="0.6404" d="M126.956 217.433C126.951 216.655 126.334 216.03 125.58 216.034C124.827 216.038 124.217 216.671 124.221 217.449C124.226 218.221 124.843 218.853 125.597 218.848C126.35 218.844 126.96 218.205 126.956 217.433Z" fill="#48FB6F" fill-opacity="0.7"/>
<path opacity="0.8945" d="M169.89 229.905C169.886 229.131 169.269 228.506 168.515 228.51C167.756 228.514 167.146 229.147 167.15 229.921C167.155 230.699 167.772 231.324 168.531 231.32C169.285 231.318 169.895 230.685 169.89 229.905Z" fill="#48FB6F" fill-opacity="0.7"/>
<path opacity="0.8456" d="M180.567 223.485C180.563 222.707 179.945 222.086 179.192 222.09C178.438 222.094 177.828 222.723 177.833 223.501C177.837 224.279 178.454 224.905 179.208 224.9C179.962 224.898 180.571 224.263 180.567 223.485Z" fill="#48FB6F" fill-opacity="0.7"/>
<path opacity="0.9902" d="M158.846 172.725C158.842 171.952 158.225 171.326 157.471 171.33C156.718 171.335 156.108 171.967 156.112 172.741C156.117 173.519 156.734 174.145 157.487 174.14C158.241 174.136 158.851 173.506 158.846 172.725Z" fill="#48FB6F" fill-opacity="0.7"/>
<path opacity="0.7274" d="M180.057 134.446C180.053 133.672 179.436 133.046 178.682 133.051C177.929 133.055 177.319 133.687 177.323 134.461C177.327 135.239 177.945 135.865 178.698 135.861C179.452 135.856 180.062 135.224 180.057 134.446Z" fill="#48FB6F" fill-opacity="0.7"/>
<path opacity="0.9855" d="M137.341 160.131C137.336 159.353 136.725 158.728 135.965 158.732C135.212 158.736 134.602 159.369 134.606 160.147C134.611 160.925 135.228 161.553 135.981 161.548C136.739 161.544 137.345 160.909 137.341 160.131Z" fill="#48FB6F" fill-opacity="0.7"/>
<path opacity="0.5371" d="M169.308 128.146C169.304 127.368 168.687 126.743 167.933 126.747C167.174 126.751 166.564 127.384 166.568 128.162C166.573 128.94 167.19 129.566 167.949 129.561C168.703 129.559 169.313 128.927 169.308 128.146Z" fill="#48FB6F" fill-opacity="0.7"/>
<path opacity="0.7825" d="M136.73 292.295C137.485 292.291 138.101 292.917 138.105 293.693C138.11 294.469 137.501 295.101 136.746 295.105C135.991 295.11 135.375 294.484 135.371 293.708C135.366 292.932 135.975 292.3 136.73 292.295Z" fill="#48FB6F" fill-opacity="0.7"/>
<path opacity="0.5344" d="M191.178 204.349C191.173 203.571 190.556 202.945 189.796 202.949C189.043 202.954 188.433 203.588 188.437 204.364C188.442 205.138 189.059 205.764 189.812 205.759C190.572 205.753 191.182 205.12 191.178 204.349Z" fill="#48FB6F" fill-opacity="0.7"/>
<path opacity="0.9922" d="M169.818 217.188C169.814 216.41 169.196 215.784 168.443 215.789C167.683 215.793 167.073 216.426 167.078 217.204C167.082 217.976 167.699 218.607 168.459 218.603C169.213 218.599 169.822 217.96 169.818 217.188Z" fill="#48FB6F" fill-opacity="0.7"/>
<path opacity="0.6301" d="M132.402 233.301C132.397 232.527 131.78 231.902 131.027 231.906C130.273 231.91 129.663 232.543 129.668 233.317C129.672 234.095 130.289 234.72 131.043 234.716C131.798 234.712 132.406 234.077 132.402 233.301Z" fill="#48FB6F" fill-opacity="0.7"/>
<path opacity="0.8077" d="M142.866 188.722C142.862 187.944 142.244 187.316 141.485 187.321C140.731 187.325 140.121 187.96 140.126 188.738C140.13 189.516 140.747 190.141 141.501 190.137C142.26 190.133 142.87 189.5 142.866 188.722Z" fill="#48FB6F" fill-opacity="0.7"/>
<path opacity="0.7663" d="M201.708 172.48C201.704 171.706 201.087 171.081 200.333 171.085C199.574 171.089 198.97 171.722 198.974 172.496C198.979 173.274 199.59 173.9 200.349 173.895C201.103 173.893 201.713 173.26 201.708 172.48Z" fill="#48FB6F" fill-opacity="0.7"/>
<path opacity="0.5432" d="M223.066 159.641C223.062 158.863 222.445 158.237 221.691 158.241C220.931 158.246 220.321 158.878 220.326 159.656C220.33 160.434 220.948 161.062 221.707 161.058C222.461 161.053 223.071 160.419 223.066 159.641Z" fill="#48FB6F" fill-opacity="0.7"/>
<path opacity="0.8535" d="M244.571 172.235C244.567 171.461 243.95 170.835 243.19 170.84C242.436 170.844 241.826 171.477 241.831 172.251C241.835 173.029 242.452 173.654 243.206 173.65C243.966 173.648 244.576 173.015 244.571 172.235Z" fill="#48FB6F" fill-opacity="0.7"/>
<path opacity="0.5589" d="M244.717 197.677C244.712 196.905 244.095 196.278 243.335 196.282C242.582 196.286 241.972 196.921 241.976 197.693C241.981 198.471 242.598 199.099 243.352 199.094C244.111 199.088 244.721 198.455 244.717 197.677Z" fill="#48FB6F" fill-opacity="0.7"/>
<path opacity="0.8499" d="M223.357 210.523C223.353 209.745 222.736 209.119 221.982 209.124C221.222 209.128 220.613 209.761 220.617 210.539C220.621 211.311 221.239 211.938 221.998 211.934C222.752 211.93 223.362 211.295 223.357 210.523Z" fill="#48FB6F" fill-opacity="0.7"/>
<path opacity="0.6091" d="M217.583 137.41C217.579 136.639 216.961 136.011 216.202 136.015C215.448 136.019 214.838 136.654 214.843 137.426C214.847 138.204 215.464 138.83 216.218 138.825C216.978 138.821 217.588 138.188 217.583 137.41Z" fill="#48FB6F" fill-opacity="0.7"/>
<path opacity="0.5784" d="M266.725 299.315C266.721 298.539 266.11 297.914 265.35 297.918C264.596 297.922 263.987 298.555 263.991 299.331C263.995 300.107 264.613 300.732 265.366 300.728C266.126 300.724 266.73 300.091 266.725 299.315Z" fill="#48FB6F" fill-opacity="0.7"/>
<path opacity="0.7656" d="M265.924 159.395C265.92 158.617 265.309 157.992 264.549 157.996C263.796 158 263.186 158.633 263.19 159.411C263.195 160.189 263.812 160.817 264.565 160.812C265.325 160.808 265.929 160.173 265.924 159.395Z" fill="#48FB6F" fill-opacity="0.7"/>
<path opacity="0.5656" d="M180.057 134.446C180.053 133.672 179.436 133.046 178.682 133.051C177.929 133.055 177.319 133.687 177.323 134.461C177.327 135.239 177.945 135.865 178.698 135.861C179.452 135.856 180.062 135.224 180.057 134.446Z" fill="#48FB6F" fill-opacity="0.7"/>
<path opacity="0.9124" d="M260.405 130.805C260.4 130.027 259.783 129.401 259.03 129.405C258.276 129.41 257.666 130.042 257.671 130.82C257.675 131.598 258.292 132.224 259.046 132.22C259.799 132.217 260.409 131.585 260.405 130.805Z" fill="#48FB6F" fill-opacity="0.7"/>
<path opacity="0.9768" d="M174.684 131.295C174.68 130.517 174.063 129.892 173.309 129.896C172.555 129.9 171.946 130.533 171.95 131.311C171.954 132.089 172.572 132.714 173.325 132.71C174.079 132.708 174.689 132.075 174.684 131.295Z" fill="#48FB6F" fill-opacity="0.7"/>
<path opacity="0.9016" d="M218.42 283.691C218.416 282.915 217.798 282.289 217.039 282.294C216.285 282.298 215.675 282.931 215.679 283.707C215.684 284.483 216.301 285.108 217.055 285.104C217.814 285.1 218.424 284.467 218.42 283.691Z" fill="#48FB6F" fill-opacity="0.7"/>
<path opacity="0.6844" d="M223.539 242.322C223.535 241.544 222.917 240.918 222.164 240.922C221.404 240.927 220.794 241.559 220.799 242.338C220.803 243.111 221.42 243.737 222.18 243.733C222.933 243.728 223.543 243.096 223.539 242.322Z" fill="#48FB6F" fill-opacity="0.7"/>
<path opacity="0.9473" d="M308.86 171.867C308.856 171.093 308.238 170.468 307.485 170.472C306.731 170.476 306.121 171.109 306.126 171.883C306.13 172.661 306.747 173.286 307.501 173.282C308.254 173.28 308.864 172.647 308.86 171.867Z" fill="#48FB6F" fill-opacity="0.7"/>
<path opacity="0.9003" d="M287.429 171.99C287.425 171.216 286.808 170.59 286.054 170.594C285.301 170.599 284.691 171.231 284.695 172.005C284.7 172.783 285.317 173.409 286.07 173.405C286.824 173.402 287.434 172.77 287.429 171.99Z" fill="#48FB6F" fill-opacity="0.7"/>
<path opacity="0.935" d="M266.07 184.836C266.065 184.058 265.454 183.432 264.695 183.436C263.941 183.441 263.331 184.073 263.336 184.851C263.34 185.625 263.957 186.257 264.711 186.253C265.471 186.248 266.074 185.609 266.07 184.836Z" fill="#48FB6F" fill-opacity="0.7"/>
<path opacity="0.5725" d="M266.361 235.718C266.357 234.94 265.746 234.314 264.986 234.319C264.232 234.323 263.622 234.956 263.627 235.734C263.631 236.507 264.248 237.133 265.002 237.129C265.762 237.124 266.365 236.492 266.361 235.718Z" fill="#48FB6F" fill-opacity="0.7"/>
<path opacity="0.7228" d="M271.705 232.504C271.701 231.73 271.083 231.104 270.324 231.109C269.57 231.113 268.96 231.746 268.965 232.52C268.969 233.298 269.586 233.923 270.34 233.919C271.1 233.915 271.71 233.28 271.705 232.504Z" fill="#48FB6F" fill-opacity="0.7"/>
<path opacity="0.7894" d="M352.232 260.663C352.228 259.89 351.611 259.264 350.857 259.268C350.097 259.273 349.489 259.905 349.494 260.679C349.498 261.457 350.115 262.083 350.873 262.078C351.629 262.074 352.237 261.441 352.232 260.663Z" fill="#48FB6F" fill-opacity="0.7"/>
<path opacity="0.8898" d="M330.729 248.067C330.725 247.289 330.108 246.663 329.354 246.668C328.594 246.672 327.99 247.305 327.995 248.083C327.999 248.861 328.61 249.488 329.37 249.484C330.124 249.48 330.734 248.845 330.729 248.067Z" fill="#48FB6F" fill-opacity="0.7"/>
<path opacity="0.5427" d="M298.11 165.57C298.106 164.796 297.489 164.17 296.735 164.175C295.975 164.179 295.365 164.812 295.37 165.586C295.374 166.364 295.992 166.991 296.751 166.987C297.505 166.983 298.115 166.348 298.11 165.57Z" fill="#48FB6F" fill-opacity="0.7"/>
<path opacity="0.8321" d="M330.438 197.187C330.434 196.415 329.817 195.787 329.063 195.791C328.303 195.796 327.699 196.431 327.704 197.202C327.708 197.98 328.319 198.608 329.079 198.604C329.833 198.597 330.443 197.965 330.438 197.187Z" fill="#48FB6F" fill-opacity="0.7"/>
<path opacity="0.5515" d="M308.641 133.71C308.637 132.936 308.02 132.31 307.266 132.315C306.512 132.319 305.903 132.952 305.907 133.726C305.911 134.504 306.529 135.129 307.282 135.125C308.036 135.121 308.646 134.488 308.641 133.71Z" fill="#48FB6F" fill-opacity="0.7"/>
<path opacity="0.7361" d="M265.924 159.395C265.92 158.617 265.309 157.992 264.549 157.996C263.796 158 263.186 158.633 263.19 159.411C263.195 160.189 263.812 160.817 264.565 160.812C265.325 160.808 265.929 160.173 265.924 159.395Z" fill="#48FB6F" fill-opacity="0.7"/>
<path opacity="0.5694" d="M330.146 146.31C330.142 145.532 329.525 144.907 328.771 144.911C328.011 144.915 327.404 145.548 327.408 146.326C327.412 147.1 328.03 147.726 328.787 147.721C329.541 147.715 330.151 147.082 330.146 146.31Z" fill="#48FB6F" fill-opacity="0.7"/>
<path opacity="0.7041" d="M287.429 171.99C287.425 171.216 286.808 170.59 286.054 170.594C285.301 170.599 284.691 171.231 284.695 172.005C284.7 172.783 285.317 173.409 286.07 173.405C286.824 173.402 287.434 172.77 287.429 171.99Z" fill="#48FB6F" fill-opacity="0.7"/>
<path opacity="0.9472" d="M362.183 127.043C362.179 126.265 361.562 125.639 360.808 125.643C360.054 125.648 359.445 126.28 359.449 127.058C359.453 127.836 360.071 128.462 360.824 128.458C361.578 128.453 362.188 127.823 362.183 127.043Z" fill="#48FB6F" fill-opacity="0.7"/>
<path opacity="0.988" d="M351.577 146.188C351.573 145.41 350.955 144.784 350.202 144.788C349.442 144.793 348.834 145.425 348.839 146.203C348.843 146.977 349.46 147.603 350.218 147.599C350.974 147.592 351.581 146.96 351.577 146.188Z" fill="#48FB6F" fill-opacity="0.7"/>
<path opacity="0.5764" d="M308.176 291.314C308.931 291.31 309.547 291.935 309.551 292.711C309.556 293.487 308.947 294.12 308.192 294.124C307.437 294.129 306.822 293.503 306.817 292.727C306.813 291.951 307.421 291.319 308.176 291.314Z" fill="#48FB6F" fill-opacity="0.7"/>
<path opacity="0.6501" d="M288.011 273.755C288.007 272.977 287.39 272.351 286.636 272.355C285.883 272.36 285.273 272.992 285.277 273.77C285.282 274.544 285.899 275.17 286.652 275.165C287.406 275.161 288.016 274.526 288.011 273.755Z" fill="#48FB6F" fill-opacity="0.7"/>
<path opacity="0.8668" d="M303.85 232.32C303.846 231.546 303.229 230.921 302.475 230.925C301.715 230.929 301.112 231.562 301.116 232.336C301.12 233.114 301.731 233.739 302.491 233.735C303.245 233.731 303.855 233.096 303.85 232.32Z" fill="#48FB6F" fill-opacity="0.7"/>
<path opacity="0.8785" d="M309.26 241.831C309.256 241.053 308.639 240.428 307.885 240.432C307.132 240.436 306.522 241.069 306.526 241.847C306.531 242.621 307.148 243.246 307.901 243.242C308.655 243.238 309.265 242.605 309.26 241.831Z" fill="#48FB6F" fill-opacity="0.7"/>
<path opacity="0.74" d="M303.559 181.442C303.555 180.664 302.938 180.036 302.184 180.04C301.424 180.045 300.821 180.679 300.825 181.457C300.829 182.231 301.44 182.857 302.2 182.853C302.954 182.848 303.564 182.216 303.559 181.442Z" fill="#48FB6F" fill-opacity="0.7"/>
<path opacity="0.9974" d="M308.896 178.232C308.892 177.454 308.274 176.828 307.521 176.832C306.767 176.837 306.157 177.469 306.162 178.247C306.166 179.019 306.783 179.647 307.537 179.643C308.291 179.638 308.901 179.006 308.896 178.232Z" fill="#48FB6F" fill-opacity="0.7"/>
<path opacity="0.9965" d="M314.308 187.741C314.304 186.963 313.687 186.335 312.933 186.339C312.179 186.344 311.57 186.978 311.574 187.757C311.578 188.535 312.196 189.16 312.949 189.156C313.703 189.152 314.313 188.519 314.308 187.741Z" fill="#48FB6F" fill-opacity="0.7"/>
<path opacity="0.5958" d="M303.595 187.802C303.591 187.024 302.974 186.396 302.22 186.401C301.46 186.405 300.857 187.04 300.861 187.818C300.866 188.596 301.476 189.221 302.236 189.217C302.99 189.213 303.6 188.58 303.595 187.802Z" fill="#48FB6F" fill-opacity="0.7"/>
<path opacity="0.6714" d="M357.425 232.013C357.421 231.24 356.804 230.614 356.05 230.618C355.29 230.623 354.687 231.255 354.691 232.029C354.696 232.807 355.307 233.433 356.066 233.428C356.82 233.424 357.43 232.789 357.425 232.013Z" fill="#48FB6F" fill-opacity="0.7"/>
<path opacity="0.9386" d="M346.749 238.437C346.744 237.659 346.127 237.034 345.368 237.038C344.614 237.042 344.004 237.675 344.009 238.453C344.013 239.225 344.63 239.852 345.384 239.848C346.143 239.844 346.753 239.211 346.749 238.437Z" fill="#48FB6F" fill-opacity="0.7"/>
<path opacity="0.8822" d="M352.232 260.663C352.228 259.89 351.611 259.264 350.857 259.268C350.097 259.273 349.489 259.905 349.494 260.679C349.498 261.457 350.115 262.083 350.873 262.078C351.629 262.074 352.237 261.441 352.232 260.663Z" fill="#48FB6F" fill-opacity="0.7"/>
<path opacity="0.7249" d="M330.729 248.067C330.725 247.289 330.108 246.663 329.354 246.668C328.594 246.672 327.99 247.305 327.995 248.083C327.999 248.861 328.61 249.488 329.37 249.484C330.124 249.48 330.734 248.845 330.729 248.067Z" fill="#48FB6F" fill-opacity="0.7"/>
<path opacity="0.9308" d="M330.146 146.31C330.142 145.532 329.525 144.907 328.771 144.911C328.011 144.915 327.407 145.548 327.412 146.326C327.416 147.1 328.027 147.726 328.787 147.721C329.541 147.715 330.151 147.082 330.146 146.31Z" fill="#48FB6F" fill-opacity="0.7"/>
<path opacity="0.9474" d="M-13.1755 312.231L-13.2329 312.265L-56.0053 337.985L-55.7134 389.001L-55.6555 389.035L-12.5916 414.263L-12.5342 414.229L30.2382 388.51L29.9463 337.495L29.8885 337.46L-13.1755 312.231ZM-55.7761 338.12L-13.1739 312.504L29.7186 337.63L30.009 388.375L-12.5931 413.992L-55.4857 388.864L-55.7761 338.12Z" fill="#48FB6F" fill-opacity="0.7"/>
<path opacity="0.8086" d="M30.0488 375.588L19.2568 382.077L19.3304 394.931L30.1959 401.296L40.99 394.807L40.9164 381.953L30.0488 375.588ZM19.4861 382.21L30.0504 375.858L40.6887 382.089L40.7608 394.674L30.1944 401.024L19.5581 394.795L19.4861 382.21Z" fill="#48FB6F" fill-opacity="0.7"/>
<path opacity="0.6181" d="M-12.885 363.112L-34.3553 376.023L-34.2089 401.598L-12.5923 414.261L-12.5348 414.227L8.87802 401.349L8.73168 375.777L8.67589 375.741L-12.885 363.112ZM-34.126 376.158L-12.8814 363.382L8.5081 375.914L8.65291 401.218L-12.5917 413.992L-33.9812 401.462L-34.126 376.158Z" fill="#48FB6F" fill-opacity="0.7"/>
<path opacity="0.5845" d="M29.6123 299.267L18.8203 305.757L18.8939 318.614L29.7594 324.978L40.5534 318.49L40.4799 305.633L29.6123 299.267ZM19.0496 305.892L29.6138 299.538L40.2522 305.77L40.3242 318.355L29.7579 324.709L19.1216 318.477L19.0496 305.892Z" fill="#48FB6F" fill-opacity="0.7"/>
<path opacity="0.5432" d="M-13.176 312.231L-13.2334 312.265L-34.6463 325.143L-34.4999 350.719L-12.8833 363.382L-12.8259 363.348L8.58699 350.471L8.44063 324.894L8.38486 324.861L-13.176 312.231ZM-34.4171 325.276L-13.1724 312.504L8.21706 325.032L8.36187 350.338L-12.8828 363.112L-34.2722 350.582L-34.4171 325.276Z" fill="#48FB6F" fill-opacity="0.7"/>
<path opacity="0.951" d="M29.9763 362.867L8.50606 375.778L8.65242 401.353L30.269 414.015L30.3265 413.982L51.7414 401.104L51.5951 375.532L51.5393 375.496L29.9763 362.867ZM8.7353 375.913L29.9799 363.137L51.3715 375.669L51.5163 400.973L30.2696 413.747L8.88011 401.217L8.7353 375.913Z" fill="#48FB6F" fill-opacity="0.7"/>
<path opacity="0.6256" d="M115.408 311.496L115.351 311.529L93.9377 324.407L94.0841 349.984L115.701 362.646L137.173 349.737L137.027 324.161L136.971 324.127L115.408 311.496ZM94.1669 324.54L115.41 311.768L136.801 324.296L136.946 349.602L115.699 362.376L94.3117 349.846L94.1669 324.54Z" fill="#48FB6F" fill-opacity="0.7"/>
<path opacity="0.6699" d="M29.6843 311.986L29.629 312.02L8.21406 324.898L8.36042 350.474L29.9771 363.137L30.0345 363.103L51.4494 350.226L51.3031 324.649L51.2473 324.616L29.6843 311.986ZM8.44329 325.031L29.688 312.259L51.0795 324.787L51.2243 350.093L29.9776 362.867L8.5881 350.337L8.44329 325.031Z" fill="#48FB6F" fill-opacity="0.7"/>
<path opacity="0.9917" d="M42.1725 382.013C42.1681 381.237 41.5509 380.612 40.7953 380.616C40.0418 380.62 39.4318 381.253 39.4363 382.029C39.4407 382.805 40.0579 383.433 40.8114 383.428C41.567 383.424 42.177 382.789 42.1725 382.013Z" fill="#48FB6F" fill-opacity="0.7"/>
<path opacity="0.9612" d="M42.2458 394.732C42.2413 393.956 41.6242 393.331 40.8686 393.335C40.115 393.339 39.5051 393.972 39.5095 394.748C39.514 395.526 40.1311 396.15 40.8847 396.145C41.6403 396.143 42.2502 395.51 42.2458 394.732Z" fill="#48FB6F" fill-opacity="0.7"/>
<path opacity="0.5672" d="M68.9783 385.039C68.9739 384.263 68.3567 383.638 67.5991 383.642C66.8455 383.646 66.2356 384.279 66.24 385.055C66.2444 385.833 66.8616 386.459 67.6151 386.454C68.3728 386.45 68.9827 385.817 68.9783 385.039Z" fill="#48FB6F" fill-opacity="0.7"/>
<path opacity="0.8686" d="M30.9841 299.393C30.9797 298.618 30.3625 297.992 29.6069 297.996C28.8533 298.001 28.2434 298.635 28.2478 299.409C28.2523 300.185 28.8694 300.811 29.623 300.806C30.3786 300.804 30.9885 300.169 30.9841 299.393Z" fill="#48FB6F" fill-opacity="0.7"/>
<path opacity="0.9438" d="M9.84334 350.397C9.83889 349.621 9.22175 348.995 8.4682 348.999C7.71259 349.004 7.10469 349.636 7.10913 350.412C7.11358 351.188 7.72868 351.816 8.48429 351.812C9.23785 351.807 9.84778 351.172 9.84334 350.397Z" fill="#48FB6F" fill-opacity="0.7"/>
<path opacity="0.8858" d="M9.98885 375.837C9.98441 375.061 9.36727 374.435 8.61372 374.439C7.85811 374.444 7.25021 375.076 7.25465 375.852C7.25909 376.628 7.87419 377.254 8.6298 377.25C9.38336 377.247 9.99329 376.613 9.98885 375.837Z" fill="#48FB6F" fill-opacity="0.7"/>
<path opacity="0.5875" d="M52.8492 375.591C52.8448 374.815 52.2317 374.19 51.4741 374.194C50.7184 374.198 50.1106 374.831 50.115 375.607C50.1194 376.383 50.7345 377.009 51.4901 377.004C52.2478 377.002 52.8537 376.367 52.8492 375.591Z" fill="#48FB6F" fill-opacity="0.7"/>
<path opacity="0.9745" d="M117.069 362.504C117.065 361.729 116.449 361.103 115.694 361.107C114.938 361.112 114.33 361.744 114.335 362.52C114.339 363.296 114.954 363.922 115.71 363.917C116.465 363.913 117.073 363.28 117.069 362.504Z" fill="#48FB6F" fill-opacity="0.7"/>
<path opacity="0.6677" d="M31.0573 312.115C31.0529 311.339 30.4357 310.713 29.6801 310.717C28.9266 310.722 28.3166 311.354 28.3211 312.13C28.3255 312.906 28.9427 313.532 29.6962 313.528C30.4518 313.523 31.0618 312.891 31.0573 312.115Z" fill="#48FB6F" fill-opacity="0.7"/>
<path opacity="0.779" d="M31.3484 362.995C31.3439 362.219 30.7268 361.593 29.9711 361.598C29.2176 361.602 28.6076 362.235 28.6121 363.011C28.6165 363.787 29.2337 364.412 29.9872 364.408C30.7428 364.404 31.3528 363.771 31.3484 362.995Z" fill="#48FB6F" fill-opacity="0.7"/>
</g>
<defs>
<clipPath id="clip0_3762_14345">
<rect width="463.67" height="314.573" fill="white" transform="matrix(0.999984 -0.00572255 -0.00572255 -0.999984 -102.199 442.221)"/>
</clipPath>
</defs>
</svg>
