<svg width="301" height="270" viewBox="0 0 301 270" fill="none" xmlns="http://www.w3.org/2000/svg">
<path d="M300 50C300 22.938 278.062 1 251 1H73.1912C38.7001 1 15.0038 35.6874 27.5454 67.8174L81.3803 205.735C93.4619 236.686 132.193 246.894 157.96 225.919L281.934 125C293.365 115.695 300 101.738 300 86.999V50Z" stroke="#6566B0" stroke-width="2"/>
<path d="M98.4083 52.2609C98.5822 52.2145 98.759 52.1826 98.9387 52.1652C99.1185 52.1478 99.2953 52.1391 99.4692 52.1391C99.8576 52.1391 100.258 52.1971 100.669 52.313C101.087 52.4232 101.504 52.5884 101.921 52.8087L100.956 55.3565C100.678 55.2348 100.414 55.142 100.165 55.0783C99.9156 55.0087 99.6808 54.9739 99.4605 54.9739C99.3098 54.9739 99.1387 54.9913 98.9474 55.0261C98.7619 55.0435 98.5619 55.0986 98.3474 55.1913C98.1329 55.2783 97.9185 55.3913 97.704 55.5304C97.4953 55.6696 97.2924 55.8319 97.0953 56.0174C96.8982 56.1971 96.7213 56.3884 96.5648 56.5913C96.4141 56.7942 96.2895 57.0058 96.1909 57.2261C96.0924 57.4406 96.0373 57.6493 96.0257 57.8522C96.0141 58.0145 96.0605 58.1478 96.1648 58.2522C96.2692 58.3507 96.4083 58.4377 96.5822 58.513C96.7561 58.5826 96.9532 58.6464 97.1735 58.7043C97.3938 58.7565 97.617 58.8174 97.8431 58.887L98.0953 58.9478C98.4663 59.0348 98.8344 59.1333 99.1996 59.2435C99.5706 59.3536 99.904 59.5101 100.2 59.713C100.495 59.9101 100.733 60.171 100.913 60.4957C101.098 60.8203 101.191 61.2406 101.191 61.7565C101.191 61.8609 101.185 61.9681 101.174 62.0783C101.168 62.1942 101.153 62.313 101.13 62.4348C101.072 62.7478 100.968 63.0522 100.817 63.3478C100.666 63.6493 100.475 63.9333 100.243 64.2C100.017 64.4725 99.7532 64.7246 99.4518 64.9565C99.1561 65.1942 98.8315 65.4058 98.4779 65.5913C97.8112 65.9217 97.0489 66.1768 96.1909 66.3565C95.3329 66.542 94.4112 66.6348 93.4257 66.6348C92.2431 66.6348 91.1996 66.4609 90.2953 66.113C89.3909 65.771 88.6402 65.2696 88.0431 64.6087C87.5909 64.0696 87.2576 63.4783 87.0431 62.8348C86.8344 62.1913 86.73 61.5188 86.73 60.8174C86.73 60.6667 86.7358 60.5159 86.7474 60.3652C86.759 60.2145 86.7706 60.0725 86.7822 59.9391C86.8054 59.5217 86.8518 59.113 86.9213 58.713C86.9909 58.3072 87.0692 57.9275 87.1561 57.5739C87.2489 57.2145 87.3474 56.8841 87.4518 56.5826C87.5561 56.2754 87.6518 56.0087 87.7387 55.7826C87.8257 55.5507 87.8982 55.3681 87.9561 55.2348C88.0199 55.0957 88.0576 55.0116 88.0692 54.9826L90.2518 55.8957C90.1069 56.2377 89.9677 56.5739 89.8344 56.9043C89.7069 57.229 89.5909 57.5652 89.4866 57.913C89.388 58.2551 89.304 58.6174 89.2344 59C89.1706 59.3826 89.13 59.8 89.1127 60.2522C89.1069 60.3159 89.1011 60.3855 89.0953 60.4609C89.0895 60.5362 89.0866 60.6029 89.0866 60.6609C89.0866 61.0261 89.1416 61.3855 89.2518 61.7391C89.3677 62.0928 89.5561 62.4116 89.817 62.6957C89.9735 62.8754 90.1764 63.0319 90.4257 63.1652C90.6808 63.3043 90.9677 63.4203 91.2866 63.513C91.6054 63.6116 91.9474 63.6841 92.3127 63.7304C92.6779 63.7826 93.0489 63.8087 93.4257 63.8087C94.1619 63.8087 94.8489 63.7565 95.4866 63.6522C96.13 63.5536 96.6953 63.4203 97.1822 63.2522C97.6692 63.0899 98.0605 62.8986 98.3561 62.6783C98.6576 62.4638 98.8315 62.2435 98.8779 62.0174C98.8663 62.0174 98.8315 62.0116 98.7735 62C98.7156 61.9884 98.6402 61.971 98.5474 61.9478C98.4605 61.9304 98.359 61.9072 98.2431 61.8783C98.1329 61.8551 98.017 61.829 97.8953 61.8L97.4257 61.6957C96.9098 61.5681 96.4228 61.4203 95.9648 61.2522C95.5127 61.0899 95.1156 60.8725 94.7735 60.6C94.4373 60.3333 94.1677 59.9971 93.9648 59.5913C93.7677 59.1797 93.6692 58.6609 93.6692 58.0348C93.6982 57.3681 93.8373 56.7188 94.0866 56.087C94.3358 55.4551 94.6721 54.8783 95.0953 54.3565C95.5185 53.8348 96.0112 53.3913 96.5735 53.0261C97.1416 52.6551 97.7561 52.4 98.417 52.2609H98.4083ZM110.366 60.5217C110.239 60.5217 110.059 60.513 109.827 60.4957C109.595 60.4783 109.346 60.4145 109.079 60.3043C108.952 61.0232 108.711 61.7043 108.358 62.3478C108.01 62.9971 107.578 63.6029 107.062 64.1652C106.546 64.7333 105.958 65.2551 105.297 65.7304C104.636 66.2058 103.932 66.6319 103.184 67.0087L101.592 64.8087C102.004 64.6 102.419 64.371 102.836 64.1217C103.253 63.8783 103.65 63.6174 104.027 63.3391C104.41 63.0667 104.763 62.7797 105.088 62.4783C105.419 62.1826 105.706 61.8754 105.949 61.5565C106.192 61.2377 106.384 60.9101 106.523 60.5739C106.662 60.2435 106.732 59.9072 106.732 59.5652C106.732 59.5478 106.729 59.5217 106.723 59.487C106.723 59.4522 106.723 59.4174 106.723 59.3826C106.723 59.3478 106.72 59.3217 106.714 59.3043C106.714 59.287 106.714 59.2899 106.714 59.313V59.3217C106.674 58.9855 106.616 58.6638 106.54 58.3565C106.465 58.0493 106.369 57.7362 106.253 57.4174C106.143 57.0986 106.013 56.7652 105.862 56.4174C105.711 56.0638 105.543 55.6783 105.358 55.2609L107.871 54.1652C108.103 54.8609 108.32 55.4406 108.523 55.9043C108.726 56.3681 108.923 56.7391 109.114 57.0174C109.311 57.2957 109.508 57.4928 109.706 57.6087C109.903 57.7188 110.111 57.7739 110.332 57.7739H110.375C110.566 57.7739 110.746 57.8116 110.914 57.887C111.082 57.9623 111.227 58.0638 111.349 58.1913C111.477 58.313 111.575 58.458 111.645 58.6261C111.72 58.7942 111.758 58.971 111.758 59.1565C111.758 59.3478 111.72 59.5275 111.645 59.6957C111.575 59.8638 111.477 60.0087 111.349 60.1304C111.227 60.2522 111.082 60.3478 110.914 60.4174C110.746 60.487 110.563 60.5217 110.366 60.5217ZM108.856 59.1478C108.856 58.9565 108.894 58.7768 108.969 58.6087C109.039 58.4406 109.134 58.2957 109.256 58.1739C109.378 58.0464 109.523 57.9478 109.691 57.8783C109.859 57.8087 110.039 57.7739 110.23 57.7739H111.126H111.517C111.732 57.7739 111.955 57.7652 112.187 57.7478C112.424 57.7304 112.645 57.6957 112.848 57.6435C113.056 57.5913 113.239 57.5188 113.395 57.4261C113.558 57.3333 113.674 57.2087 113.743 57.0522C113.79 56.9478 113.813 56.7913 113.813 56.5826C113.813 56.4435 113.772 56.2348 113.691 55.9565C113.61 55.6783 113.503 55.371 113.369 55.0348C113.236 54.6928 113.085 54.3362 112.917 53.9652C112.749 53.5942 112.578 53.2435 112.404 52.913L114.891 51.6783C115.053 52.0435 115.213 52.4319 115.369 52.8435C115.532 53.2551 115.677 53.6725 115.804 54.0957C115.932 54.5188 116.033 54.942 116.108 55.3652C116.19 55.7826 116.23 56.1826 116.23 56.5652C116.23 57.1507 116.126 57.687 115.917 58.1739C115.674 58.7188 115.34 59.171 114.917 59.5304C114.494 59.8841 113.987 60.1449 113.395 60.313C113.048 60.4116 112.714 60.4696 112.395 60.487C112.077 60.5101 111.778 60.5217 111.5 60.5217H110.308H110.23C110.039 60.5217 109.859 60.487 109.691 60.4174C109.523 60.3478 109.378 60.2493 109.256 60.1217C109.134 60 109.039 59.8551 108.969 59.687C108.894 59.5188 108.856 59.3391 108.856 59.1478ZM112.804 61.313L114.734 63.2435L112.804 65.1739L110.874 63.2435L112.804 61.313ZM121.552 54.1478C121.772 54.7739 121.963 55.3855 122.126 55.9826C122.195 56.2435 122.265 56.5159 122.334 56.8C122.404 57.0783 122.465 57.3594 122.517 57.6435C122.575 57.9217 122.621 58.1971 122.656 58.4696C122.691 58.7362 122.708 58.9855 122.708 59.2174C122.708 59.7623 122.633 60.2928 122.482 60.8087C122.337 61.3304 122.129 61.8348 121.856 62.3217C121.589 62.8087 121.271 63.2754 120.9 63.7217C120.529 64.1739 120.117 64.5971 119.665 64.9913C119.213 65.3855 118.729 65.7507 118.213 66.087C117.697 66.429 117.163 66.7362 116.613 67.0087L115.03 64.8087C115.447 64.6 115.871 64.3623 116.3 64.0957C116.723 63.8348 117.129 63.5536 117.517 63.2522C117.911 62.9507 118.276 62.6348 118.613 62.3043C118.955 61.9739 119.25 61.6377 119.5 61.2957C119.755 60.9536 119.955 60.6058 120.1 60.2522C120.244 59.9043 120.317 59.5623 120.317 59.2261C120.317 58.9826 120.282 58.7188 120.213 58.4348C120.149 58.1507 120.059 57.8464 119.943 57.5217C119.833 57.1913 119.7 56.8435 119.543 56.4783C119.386 56.1072 119.218 55.713 119.039 55.2957L121.552 54.1478ZM128.313 60.5217C127.6 60.5217 126.988 60.4319 126.478 60.2522C125.968 60.0783 125.527 59.8087 125.156 59.4435C124.924 59.2116 124.745 58.9681 124.617 58.713C124.495 58.458 124.405 58.2087 124.347 57.9652C124.295 57.7159 124.263 57.4812 124.252 57.2609C124.246 57.0406 124.243 56.8522 124.243 56.6957V56.5652C124.249 56.3507 124.255 56.0435 124.26 55.6435C124.272 55.2377 124.278 54.7623 124.278 54.2174C124.278 53.6725 124.275 53.0725 124.269 52.4174C124.263 51.7623 124.246 51.1101 124.217 50.4609C124.194 49.8058 124.156 49.1768 124.104 48.5739C124.058 47.971 123.991 47.4464 123.904 47L126.504 46.2087C126.579 46.5913 126.64 47.0435 126.687 47.5652C126.733 48.0812 126.771 48.6232 126.8 49.1913C126.834 49.7594 126.858 50.3304 126.869 50.9043C126.887 51.4783 126.898 52.0116 126.904 52.5043C126.91 52.9391 126.892 53.3652 126.852 53.7826C126.817 54.1942 126.788 54.6 126.765 55C126.742 55.3942 126.742 55.7797 126.765 56.1565C126.794 56.5275 126.875 56.8899 127.008 57.2435C127.06 57.3768 127.124 57.4783 127.2 57.5478C127.281 57.6174 127.373 57.6696 127.478 57.7043C127.582 57.7333 127.695 57.7507 127.817 57.7565C127.945 57.7623 128.084 57.7652 128.234 57.7652H128.313C128.498 57.7652 128.675 57.8029 128.843 57.8783C129.011 57.9536 129.156 58.0551 129.278 58.1826C129.405 58.3043 129.507 58.4493 129.582 58.6174C129.658 58.7855 129.695 58.9623 129.695 59.1478C129.695 59.3391 129.658 59.5188 129.582 59.687C129.507 59.8551 129.405 60 129.278 60.1217C129.156 60.2493 129.011 60.3478 128.843 60.4174C128.675 60.487 128.498 60.5217 128.313 60.5217ZM126.742 59.1565C126.742 58.9594 126.777 58.7768 126.847 58.6087C126.916 58.4406 127.018 58.2957 127.151 58.1739C127.279 58.0464 127.432 57.9478 127.612 57.8783C127.786 57.8087 127.983 57.7739 128.203 57.7739H128.69H129.116C129.429 57.7739 129.774 57.771 130.151 57.7652C130.528 57.7536 130.89 57.7246 131.238 57.6783C131.592 57.6261 131.908 57.5507 132.186 57.4522C132.47 57.3536 132.676 57.2174 132.803 57.0435C132.977 56.7768 133.064 56.4725 133.064 56.1304C133.064 56.0145 133.052 55.8986 133.029 55.7826C133.012 55.6609 132.989 55.5362 132.96 55.4087C132.919 55.2638 132.832 55.0899 132.699 54.887C132.571 54.6783 132.406 54.4522 132.203 54.2087C132 53.9594 131.768 53.6986 131.508 53.4261C131.247 53.1478 130.968 52.8667 130.673 52.5826C130.377 52.2928 130.067 52.0058 129.742 51.7217C129.418 51.4377 129.093 51.1623 128.768 50.8957L129.038 48.5304L136.342 45.2783L137.394 47.6087L131.621 50.287C131.905 50.4841 132.197 50.7188 132.499 50.9913C132.8 51.2638 133.093 51.5623 133.377 51.887C133.661 52.2058 133.928 52.5449 134.177 52.9043C134.426 53.2638 134.644 53.6319 134.829 54.0087C135.015 54.3855 135.16 54.7652 135.264 55.1478C135.374 55.5304 135.426 55.9043 135.421 56.2696C135.415 56.7043 135.357 57.1101 135.247 57.487C135.137 57.858 135 58.1913 134.838 58.487C134.235 59.5652 133.241 60.2232 131.855 60.4609L131.864 60.4522C131.708 60.4812 131.56 60.5014 131.421 60.513C131.281 60.5246 131.145 60.5304 131.012 60.5304L128.203 60.5217C127.989 60.5217 127.792 60.487 127.612 60.4174C127.432 60.3478 127.279 60.2493 127.151 60.1217C127.023 60 126.925 59.858 126.855 59.6957C126.78 59.5275 126.742 59.3478 126.742 59.1565ZM150.805 60.5217C149.715 60.5217 148.739 60.4551 147.875 60.3217C147.017 60.1942 146.263 60.0087 145.614 59.7652C144.298 59.2551 143.394 58.5072 142.901 57.5217V57.5304C142.623 56.9913 142.483 56.3942 142.483 55.7391C142.483 55.4551 142.518 55.1478 142.588 54.8174C142.657 54.487 142.747 54.1652 142.857 53.8522C142.997 53.487 143.147 53.1652 143.31 52.887C143.472 52.6029 143.64 52.3043 143.814 51.9913L145.857 53.7043C145.77 53.8261 145.669 53.9855 145.553 54.1826C145.437 54.3739 145.324 54.5768 145.214 54.7913C145.11 55.0058 145.02 55.2232 144.944 55.4435C144.875 55.658 144.84 55.8464 144.84 56.0087C144.84 56.1246 144.857 56.2203 144.892 56.2957C145.008 56.5333 145.237 56.742 145.579 56.9217C145.927 57.1014 146.362 57.2551 146.883 57.3826C147.405 57.5043 147.999 57.5971 148.666 57.6609C149.333 57.7246 150.046 57.7565 150.805 57.7565C151.217 57.7565 151.683 57.7362 152.205 57.6957C152.733 57.6551 153.275 57.5913 153.831 57.5043C154.388 57.4116 154.941 57.2957 155.492 57.1565C156.043 57.0116 156.547 56.8377 157.005 56.6348C156.936 56.3623 156.852 56.1014 156.753 55.8522C156.66 55.6029 156.544 55.3449 156.405 55.0783C156.266 54.8058 156.101 54.5159 155.91 54.2087C155.718 53.9014 155.492 53.5507 155.231 53.1565L157.37 51.7652C157.475 51.9333 157.597 52.1391 157.736 52.3826C157.875 52.6261 158.014 52.8899 158.153 53.1739C158.298 53.4522 158.437 53.7478 158.57 54.0609C158.71 54.3739 158.831 54.687 158.936 55C159.046 55.313 159.13 55.6203 159.188 55.9217C159.246 56.2174 159.269 56.4957 159.257 56.7565C159.228 57.2435 159.06 57.6754 158.753 58.0522C158.446 58.4232 158.052 58.7478 157.57 59.0261C157.095 59.3043 156.556 59.5391 155.953 59.7304C155.356 59.9217 154.747 60.0754 154.127 60.1913C153.512 60.3072 152.915 60.3913 152.336 60.4435C151.756 60.4957 151.246 60.5217 150.805 60.5217ZM150.866 61.1826L152.797 63.113L150.866 65.0435L148.936 63.113L150.866 61.1826ZM164.992 60.5217C164.279 60.5217 163.668 60.4319 163.158 60.2522C162.647 60.0783 162.207 59.8087 161.836 59.4435C161.604 59.2116 161.424 58.9681 161.297 58.713C161.175 58.458 161.085 58.2087 161.027 57.9652C160.975 57.7159 160.943 57.4812 160.931 57.2609C160.926 57.0406 160.923 56.8522 160.923 56.6957V56.5652C160.929 56.3507 160.934 56.0435 160.94 55.6435C160.952 55.2377 160.958 54.7623 160.958 54.2174C160.958 53.6725 160.955 53.0725 160.949 52.4174C160.943 51.7623 160.926 51.1101 160.897 50.4609C160.873 49.8058 160.836 49.1768 160.784 48.5739C160.737 47.971 160.671 47.4464 160.584 47L163.184 46.2087C163.259 46.5913 163.32 47.0435 163.366 47.5652C163.413 48.0812 163.45 48.6232 163.479 49.1913C163.514 49.7594 163.537 50.3304 163.549 50.9043C163.566 51.4783 163.578 52.0116 163.584 52.5043C163.589 52.9391 163.572 53.3652 163.531 53.7826C163.497 54.1942 163.468 54.6 163.444 55C163.421 55.3942 163.421 55.7797 163.444 56.1565C163.473 56.5275 163.555 56.8899 163.688 57.2435C163.74 57.3768 163.804 57.4783 163.879 57.5478C163.96 57.6174 164.053 57.6696 164.158 57.7043C164.262 57.7333 164.375 57.7507 164.497 57.7565C164.624 57.7623 164.763 57.7652 164.914 57.7652H164.992C165.178 57.7652 165.355 57.8029 165.523 57.8783C165.691 57.9536 165.836 58.0551 165.958 58.1826C166.085 58.3043 166.187 58.4493 166.262 58.6174C166.337 58.7855 166.375 58.9623 166.375 59.1478C166.375 59.3391 166.337 59.5188 166.262 59.687C166.187 59.8551 166.085 60 165.958 60.1217C165.836 60.2493 165.691 60.3478 165.523 60.4174C165.355 60.487 165.178 60.5217 164.992 60.5217ZM163.518 59.1478C163.518 58.9681 163.555 58.7971 163.631 58.6348C163.706 58.4725 163.81 58.3304 163.944 58.2087C164.071 58.0812 164.225 57.9797 164.405 57.9043C164.579 57.829 164.767 57.7855 164.97 57.7739C165.277 57.7739 165.564 57.7246 165.831 57.6261C166.097 57.5217 166.35 57.3246 166.587 57.0348C166.825 56.7449 167.048 56.3362 167.257 55.8087C167.465 55.2812 167.665 54.5913 167.857 53.7391L170.17 54.0696C170.187 54 170.176 54.0377 170.135 54.1826C170.1 54.3275 170.057 54.5333 170.005 54.8C169.958 55.0609 169.912 55.3565 169.865 55.687C169.825 56.0116 169.805 56.3246 169.805 56.6261C169.81 56.9217 169.845 57.1797 169.909 57.4C169.979 57.6145 170.097 57.742 170.265 57.7826C170.445 57.829 170.619 57.7942 170.787 57.6783C170.955 57.5565 171.115 57.3855 171.265 57.1652C171.416 56.9391 171.555 56.6783 171.683 56.3826C171.81 56.0812 171.926 55.7739 172.031 55.4609C172.135 55.1478 172.225 54.8406 172.3 54.5391C172.376 54.2377 172.434 53.971 172.474 53.7391L174.77 54.0696C174.758 54.2145 174.738 54.4087 174.709 54.6522C174.68 54.8899 174.657 55.1449 174.639 55.4174C174.622 55.6899 174.613 55.9652 174.613 56.2435C174.619 56.5159 174.651 56.7652 174.709 56.9913C174.767 57.2116 174.857 57.3942 174.979 57.5391C175.1 57.6783 175.268 57.7478 175.483 57.7478C175.674 57.7478 175.839 57.6841 175.979 57.5565C176.118 57.429 176.234 57.2638 176.326 57.0609C176.425 56.8522 176.503 56.6174 176.561 56.3565C176.619 56.0899 176.663 55.8203 176.692 55.5478C176.721 55.2754 176.735 55.0116 176.735 54.7565C176.735 54.4957 176.726 54.2667 176.709 54.0696L179.057 53.7391L179.344 56.1913C179.379 56.458 179.454 56.6899 179.57 56.887C179.686 57.0841 179.822 57.2493 179.979 57.3826C180.135 57.5101 180.3 57.6087 180.474 57.6783C180.648 57.742 180.813 57.7739 180.97 57.7739H181.074C181.289 57.7739 181.483 57.8087 181.657 57.8783C181.836 57.9478 181.99 58.0464 182.118 58.1739C182.245 58.2957 182.344 58.4406 182.413 58.6087C182.483 58.7768 182.518 58.9565 182.518 59.1478C182.518 59.3391 182.483 59.5188 182.413 59.687C182.344 59.8551 182.242 60 182.109 60.1217C181.981 60.2435 181.819 60.3391 181.622 60.4087C181.431 60.4841 181.213 60.5217 180.97 60.5217C180.408 60.5217 179.877 60.4232 179.379 60.2261C178.88 60.029 178.448 59.6957 178.083 59.2261C178.048 59.2725 178.013 59.313 177.979 59.3478C177.944 59.3826 177.912 59.4174 177.883 59.4522V59.4435C177.57 59.7739 177.208 60.0348 176.796 60.2261C176.39 60.4232 175.952 60.5217 175.483 60.5217C174.955 60.5217 174.468 60.4087 174.022 60.1826C173.581 59.9565 173.213 59.6493 172.918 59.2609C172.57 59.6435 172.176 59.9536 171.735 60.1913C171.294 60.429 170.81 60.5478 170.283 60.5478C169.79 60.5478 169.332 60.4377 168.909 60.2174C168.486 59.9971 168.135 59.6957 167.857 59.313C167.544 59.7478 167.155 60.058 166.692 60.2435C166.234 60.429 165.665 60.5217 164.987 60.5217C164.767 60.5217 164.567 60.4841 164.387 60.4087C164.208 60.3391 164.054 60.2435 163.926 60.1217C163.799 60 163.7 59.8551 163.631 59.687C163.555 59.5188 163.518 59.3391 163.518 59.1478ZM179.672 59.1478C179.672 58.9565 179.71 58.7768 179.785 58.6087C179.855 58.4406 179.953 58.2957 180.081 58.1739C180.203 58.0464 180.351 57.9478 180.524 57.8783C180.693 57.8087 180.872 57.7739 181.064 57.7739H182.733C183.672 57.7739 184.533 57.7188 185.316 57.6087C186.104 57.4928 186.84 57.3391 187.524 57.1478C188.208 56.9565 188.855 56.7362 189.464 56.487C190.078 56.2319 190.681 55.9681 191.272 55.6957C190.878 55.5855 190.481 55.4493 190.081 55.287C189.687 55.1246 189.29 54.9681 188.89 54.8174C188.495 54.6667 188.101 54.5391 187.707 54.4348C187.313 54.3246 186.922 54.2696 186.533 54.2696C186.266 54.2696 186.006 54.342 185.751 54.487C185.495 54.6319 185.264 54.7971 185.055 54.9826C184.846 55.1681 184.669 55.3507 184.524 55.5304C184.385 55.7043 184.298 55.8232 184.264 55.887L182.255 54.5913C182.475 54.2029 182.736 53.8232 183.037 53.4522C183.339 53.0812 183.669 52.7536 184.029 52.4696C184.394 52.1797 184.785 51.9478 185.203 51.7739C185.626 51.6 186.069 51.513 186.533 51.513C186.875 51.513 187.217 51.5507 187.559 51.6261C187.901 51.6957 188.24 51.7884 188.577 51.9043C188.919 52.0203 189.255 52.1536 189.585 52.3043C189.916 52.4493 190.243 52.5971 190.568 52.7478C190.881 52.8928 191.191 53.0377 191.498 53.1826C191.811 53.3217 192.133 53.4522 192.464 53.5739C192.794 53.6899 193.136 53.7855 193.49 53.8609C193.843 53.9362 194.217 53.9768 194.611 53.9826L194.394 56.6522L193.159 57.2435C192.655 57.487 192.153 57.7391 191.655 58C191.156 58.2551 190.646 58.5043 190.124 58.7478C189.608 58.9855 189.075 59.2145 188.524 59.4348C187.98 59.6493 187.406 59.8377 186.803 60C186.2 60.1565 185.562 60.2812 184.89 60.3739C184.217 60.4725 183.498 60.5217 182.733 60.5217H181.133H181.064C180.872 60.5217 180.693 60.4841 180.524 60.4087C180.351 60.3391 180.203 60.2435 180.081 60.1217C179.953 60 179.855 59.8551 179.785 59.687C179.71 59.5188 179.672 59.3391 179.672 59.1478ZM219.201 60.5217C218.245 60.5217 217.433 60.3652 216.767 60.0522C216.106 59.7391 215.567 59.2174 215.149 58.487C214.326 59.1884 213.329 59.7072 212.158 60.0435C210.993 60.3797 209.63 60.5478 208.071 60.5478C207.149 60.542 206.274 60.4812 205.445 60.3652C204.622 60.2551 203.871 60.087 203.193 59.8609C202.514 59.629 201.92 59.342 201.41 59C200.9 58.6522 200.5 58.2435 200.21 57.7739C200.03 57.4667 199.9 57.113 199.819 56.713C199.738 56.3072 199.712 55.8696 199.741 55.4C199.77 54.9246 199.859 54.4232 200.01 53.8957C200.167 53.3623 200.39 52.8116 200.68 52.2435L202.749 53.4435C202.633 53.6696 202.526 53.8899 202.427 54.1043C202.329 54.3188 202.254 54.542 202.201 54.7739C202.149 55.0058 202.123 55.2551 202.123 55.5217C202.129 55.7826 202.175 56.0725 202.262 56.3913C202.407 56.6406 202.665 56.8522 203.036 57.0261C203.413 57.2 203.865 57.342 204.393 57.4522C204.92 57.5623 205.5 57.6435 206.132 57.6957C206.764 57.7478 207.41 57.7739 208.071 57.7739C208.68 57.7739 209.256 57.7536 209.801 57.713C210.346 57.6667 210.848 57.5971 211.306 57.5043C211.77 57.4058 212.187 57.2812 212.558 57.1304C212.935 56.9739 213.256 56.7855 213.523 56.5652C213.767 56.3681 213.967 56.1507 214.123 55.913C214.28 55.6754 214.413 55.4261 214.523 55.1652C214.633 54.8986 214.723 54.6203 214.793 54.3304C214.868 54.0406 214.941 53.7478 215.01 53.4522L217.445 54.0696L217.088 55.913C217.036 56.1797 217.048 56.4261 217.123 56.6522C217.204 56.8783 217.341 57.0754 217.532 57.2435C217.723 57.4058 217.967 57.5362 218.262 57.6348C218.558 57.7275 218.894 57.7739 219.271 57.7739C219.462 57.7739 219.642 57.8087 219.81 57.8783C219.978 57.9478 220.123 58.0464 220.245 58.1739C220.372 58.2957 220.471 58.4406 220.541 58.6087C220.616 58.7768 220.654 58.9565 220.654 59.1478C220.654 59.3391 220.616 59.5188 220.541 59.687C220.471 59.8551 220.372 60 220.245 60.1217C220.123 60.2493 219.978 60.3478 219.81 60.4174C219.642 60.487 219.462 60.5217 219.271 60.5217H219.201ZM212.08 51.4435L210.41 53.1217L208.758 51.4696L207.123 53.1043L205.436 51.4261L207.106 49.7478L208.758 51.4L210.393 49.7652L212.08 51.4435ZM217.914 59.1478C217.914 58.9565 217.952 58.7768 218.027 58.6087C218.097 58.4406 218.196 58.2957 218.323 58.1739C218.445 58.0464 218.593 57.9478 218.767 57.8783C218.935 57.8087 219.114 57.7739 219.306 57.7739H220.975C221.914 57.7739 222.775 57.7188 223.558 57.6087C224.346 57.4928 225.083 57.3391 225.767 57.1478C226.451 56.9565 227.097 56.7362 227.706 56.487C228.32 56.2319 228.923 55.9681 229.514 55.6957C229.12 55.5855 228.723 55.4493 228.323 55.287C227.929 55.1246 227.532 54.9681 227.132 54.8174C226.738 54.6667 226.343 54.5391 225.949 54.4348C225.555 54.3246 225.164 54.2696 224.775 54.2696C224.509 54.2696 224.248 54.342 223.993 54.487C223.738 54.6319 223.506 54.7971 223.297 54.9826C223.088 55.1681 222.912 55.3507 222.767 55.5304C222.627 55.7043 222.541 55.8232 222.506 55.887L220.497 54.5913C220.717 54.2029 220.978 53.8232 221.28 53.4522C221.581 53.0812 221.912 52.7536 222.271 52.4696C222.636 52.1797 223.027 51.9478 223.445 51.7739C223.868 51.6 224.312 51.513 224.775 51.513C225.117 51.513 225.459 51.5507 225.801 51.6261C226.143 51.6957 226.483 51.7884 226.819 51.9043C227.161 52.0203 227.497 52.1536 227.827 52.3043C228.158 52.4493 228.485 52.5971 228.81 52.7478C229.123 52.8928 229.433 53.0377 229.741 53.1826C230.054 53.3217 230.375 53.4522 230.706 53.5739C231.036 53.6899 231.378 53.7855 231.732 53.8609C232.085 53.9362 232.459 53.9768 232.854 53.9826L232.636 56.6522L231.401 57.2435C230.897 57.487 230.396 57.7391 229.897 58C229.399 58.2551 228.888 58.5043 228.367 58.7478C227.851 58.9855 227.317 59.2145 226.767 59.4348C226.222 59.6493 225.648 59.8377 225.045 60C224.442 60.1565 223.804 60.2812 223.132 60.3739C222.459 60.4725 221.741 60.5217 220.975 60.5217H219.375H219.306C219.114 60.5217 218.935 60.4841 218.767 60.4087C218.593 60.3391 218.445 60.2435 218.323 60.1217C218.196 60 218.097 59.8551 218.027 59.687C217.952 59.5188 217.914 59.3391 217.914 59.1478ZM224.41 46.8087L226.341 48.7391L224.41 50.6696L222.48 48.7391L224.41 46.8087ZM238.215 60.5217C237.502 60.5217 236.89 60.4319 236.38 60.2522C235.87 60.0783 235.429 59.8087 235.058 59.4435C234.827 59.2116 234.647 58.9681 234.519 58.713C234.398 58.458 234.308 58.2087 234.25 57.9652C234.198 57.7159 234.166 57.4812 234.154 57.2609C234.148 57.0406 234.145 56.8522 234.145 56.6957V56.5652C234.151 56.3507 234.157 56.0435 234.163 55.6435C234.174 55.2377 234.18 54.7623 234.18 54.2174C234.18 53.6725 234.177 53.0725 234.171 52.4174C234.166 51.7623 234.148 51.1101 234.119 50.4609C234.096 49.8058 234.058 49.1768 234.006 48.5739C233.96 47.971 233.893 47.4464 233.806 47L236.406 46.2087C236.482 46.5913 236.542 47.0435 236.589 47.5652C236.635 48.0812 236.673 48.6232 236.702 49.1913C236.737 49.7594 236.76 50.3304 236.771 50.9043C236.789 51.4783 236.8 52.0116 236.806 52.5043C236.812 52.9391 236.795 53.3652 236.754 53.7826C236.719 54.1942 236.69 54.6 236.667 55C236.644 55.3942 236.644 55.7797 236.667 56.1565C236.696 56.5275 236.777 56.8899 236.911 57.2435C236.963 57.3768 237.027 57.4783 237.102 57.5478C237.183 57.6174 237.276 57.6696 237.38 57.7043C237.485 57.7333 237.598 57.7507 237.719 57.7565C237.847 57.7623 237.986 57.7652 238.137 57.7652H238.215C238.4 57.7652 238.577 57.8029 238.745 57.8783C238.914 57.9536 239.058 58.0551 239.18 58.1826C239.308 58.3043 239.409 58.4493 239.485 58.6174C239.56 58.7855 239.598 58.9623 239.598 59.1478C239.598 59.3391 239.56 59.5188 239.485 59.687C239.409 59.8551 239.308 60 239.18 60.1217C239.058 60.2493 238.914 60.3478 238.745 60.4174C238.577 60.487 238.4 60.5217 238.215 60.5217ZM236.879 59.1565C236.879 58.9768 236.914 58.8058 236.984 58.6435C237.053 58.4812 237.146 58.3391 237.262 58.2174C237.378 58.0899 237.517 57.9884 237.679 57.913C237.836 57.8319 238.004 57.7855 238.184 57.7739C238.619 57.7739 238.984 57.658 239.279 57.4261C239.581 57.1884 239.839 56.8783 240.053 56.4957C240.268 56.113 240.45 55.6783 240.601 55.1913C240.752 54.6986 240.894 54.1971 241.027 53.687L243.34 54.1043C243.294 54.3072 243.236 54.5449 243.166 54.8174C243.103 55.0841 243.042 55.3623 242.984 55.6522C242.932 55.942 242.888 56.2261 242.853 56.5043C242.819 56.7768 242.81 57.0174 242.827 57.2261C242.85 57.4348 242.906 57.6 242.992 57.7217C243.079 57.8377 243.213 57.8812 243.392 57.8522C243.624 57.8348 243.833 57.7536 244.019 57.6087C244.21 57.4638 244.381 57.2783 244.532 57.0522C244.682 56.8261 244.816 56.571 244.932 56.287C245.048 56.0029 245.146 55.7101 245.227 55.4087C245.314 55.1072 245.384 54.8087 245.436 54.513C245.494 54.2174 245.54 53.9478 245.575 53.7043L247.784 54.0783C247.778 54.2522 247.758 54.4667 247.723 54.7217C247.688 54.9768 247.656 55.2464 247.627 55.5304C247.598 55.8087 247.584 56.0899 247.584 56.3739C247.584 56.6522 247.616 56.9043 247.679 57.1304C247.743 57.3507 247.848 57.5304 247.992 57.6696C248.143 57.8087 248.352 57.8783 248.619 57.8783C248.781 57.8783 248.946 57.8522 249.114 57.8C249.282 57.742 249.433 57.6638 249.566 57.5652C249.7 57.4609 249.807 57.3391 249.888 57.2C249.975 57.0609 250.019 56.9043 250.019 56.7304C250.019 56.429 249.969 56.0986 249.871 55.7391C249.772 55.3739 249.653 55.0145 249.514 54.6609C249.375 54.3014 249.227 53.9623 249.071 53.6435C248.92 53.3246 248.792 53.0551 248.688 52.8348L250.845 51.6261C250.879 51.7014 250.94 51.8348 251.027 52.0261C251.114 52.2116 251.213 52.4377 251.323 52.7043C251.433 52.971 251.546 53.2725 251.662 53.6087C251.784 53.9391 251.894 54.2841 251.992 54.6435C252.091 55.0029 252.172 55.371 252.236 55.7478C252.3 56.1246 252.332 56.4899 252.332 56.8435C252.332 57.4232 252.25 57.9449 252.088 58.4087C251.932 58.8725 251.691 59.2667 251.366 59.5913C251.048 59.9159 250.645 60.1681 250.158 60.3478C249.677 60.5275 249.111 60.6203 248.462 60.6261C248.149 60.6261 247.865 60.5942 247.61 60.5304C247.355 60.4725 247.126 60.3884 246.923 60.2783C246.72 60.1739 246.537 60.0493 246.375 59.9043C246.219 59.7594 246.079 59.6058 245.958 59.4435C245.819 59.6232 245.668 59.7855 245.506 59.9304C245.349 60.0696 245.166 60.1884 244.958 60.287C244.755 60.3913 244.526 60.4725 244.271 60.5304C244.016 60.5884 243.726 60.6203 243.401 60.6261C243.117 60.6319 242.859 60.6058 242.627 60.5478C242.401 60.4957 242.192 60.4174 242.001 60.313C241.81 60.2087 241.636 60.0841 241.479 59.9391C241.329 59.7884 241.187 59.6232 241.053 59.4435C240.932 59.5942 240.792 59.7362 240.636 59.8696C240.479 59.9971 240.294 60.1101 240.079 60.2087C239.865 60.3072 239.616 60.3855 239.332 60.4435C239.048 60.5014 238.717 60.5304 238.34 60.5304H238.184C238.004 60.5188 237.836 60.4754 237.679 60.4C237.517 60.3246 237.378 60.2261 237.262 60.1043C237.146 59.9826 237.053 59.8406 236.984 59.6783C236.914 59.5159 236.879 59.342 236.879 59.1565Z" fill="#6566B0"/>
<path d="M142.164 149.813C149.608 148.027 153.75 139.501 153.489 132.267C153.167 123.336 145.513 118.912 137.296 118.964C128.789 119.016 124.692 124.857 123.979 133C123.304 140.668 128.098 147.203 135.011 150.007C137.59 151.052 138.713 146.869 136.162 145.834C126.639 141.971 124.438 123.474 137.296 123.291C143.523 123.201 149.16 126.096 149.151 133.07C149.148 138.163 146.303 144.372 141.013 145.64C138.306 146.289 139.452 150.462 142.164 149.811V149.813ZM167.556 174.88C155.912 175.278 144.265 175.607 132.616 175.837C127.808 175.932 121.968 176.99 117.257 176.019C108.755 174.269 112.888 165.177 116.433 160.712C118.146 158.553 115.105 155.471 113.375 157.653C108.975 163.192 102.452 177.805 112.999 179.967C120.298 181.462 128.545 180.252 135.944 180.096C146.484 179.871 157.021 179.568 167.556 179.207C170.334 179.112 170.346 174.785 167.556 174.88Z" fill="#1D1E65"/>
<path d="M116.848 159.999C119.242 157.207 121.812 154.368 125.504 153.439C128.204 152.757 127.06 148.584 124.353 149.264C119.922 150.381 116.679 153.569 113.79 156.939C111.985 159.041 115.033 162.115 116.848 159.999Z" fill="#1D1E65"/>
<path d="M127.115 152.676C127.729 152.261 128.386 151.916 129.075 151.644C130.168 151.236 130.914 150.183 130.586 148.984C130.297 147.933 129.024 147.061 127.924 147.473C126.875 147.851 125.871 148.342 124.929 148.939C123.952 149.576 123.545 150.858 124.154 151.898C124.725 152.873 126.131 153.314 127.114 152.677L127.115 152.676Z" fill="#1D1E65"/>
<path d="M129.643 151.407H129.788C132.573 151.407 132.576 147.08 129.788 147.08H129.644C126.859 147.08 126.854 151.407 129.644 151.407H129.643Z" fill="#1D1E65"/>
<path d="M132.238 150.829H132.384C135.168 150.829 135.172 146.502 132.384 146.502H132.24C129.455 146.502 129.45 150.829 132.24 150.829H132.238Z" fill="#1D1E65"/>
<path d="M133.336 150.943C139.461 148.67 149.24 152.447 154.472 155.941C159.562 159.342 164.419 168.792 164.748 174.776C164.9 177.545 169.227 177.562 169.075 174.776C168.666 167.359 164.408 158.12 158.408 153.447C151.926 148.4 140.138 143.821 132.187 146.772C129.597 147.731 130.715 151.916 133.336 150.943ZM160.499 107.525C161.829 106.735 163.035 105.751 164.074 104.605C166.008 102.53 167.018 100.59 169.758 99.3729C172.119 98.3241 174.79 98.0073 177.342 97.8308C181.979 97.5089 185.52 98.0731 187.672 102.668C189.143 105.81 190.157 111.727 190.231 115.016C190.411 122.981 179.949 129.751 172.283 128.176C167.461 127.186 164.137 123.56 162.309 119.163C160.881 115.72 158.352 106.921 162.196 104.056C164.403 102.41 162.248 98.6529 160.012 100.318C151.826 106.424 156.845 123.564 163.711 129.101C172.801 136.429 185.477 131.645 192.353 123.661C195.348 120.182 194.856 116.428 194.185 112.03C193.428 107.087 192.8 99.4906 188.802 95.9287C184.958 92.507 177.936 93.1248 173.353 93.9037C170.532 94.3866 167.313 95.2018 164.86 96.782C161.966 98.6477 161.333 101.96 158.313 103.788C155.935 105.228 158.105 108.972 160.497 107.525H160.499Z" fill="#1D1E65"/>
<path d="M172.946 105.185C173.64 109.728 172.335 114.294 172.912 118.858C173.258 121.584 177.59 121.619 177.239 118.858C176.612 113.905 177.875 108.994 177.119 104.034C176.7 101.291 172.531 102.456 172.948 105.185H172.946Z" fill="#1D1E65"/>
<path d="M183.734 110.912C178.461 110.265 173.67 109.604 168.462 111.018C165.778 111.746 166.916 115.923 169.611 115.191C174.381 113.896 178.918 114.647 183.734 115.239C186.491 115.578 186.469 111.248 183.734 110.912Z" fill="#1D1E65"/>
</svg>
