<svg width="235" height="241" viewBox="0 0 235 241" fill="none" xmlns="http://www.w3.org/2000/svg">
<path d="M1 50C1 22.938 22.938 1 50 1H185C212.062 1 234 22.938 234 50V191C234 218.062 212.062 240 185 240H50C22.938 240 1 218.062 1 191V50Z" stroke="#6566B0" stroke-width="2"/>
<path d="M90.4065 59.5217C89.45 59.5217 88.6384 59.3652 87.9717 59.0522C87.3108 58.7391 86.7717 58.2174 86.3543 57.487C85.5311 58.1884 84.534 58.7072 83.363 59.0435C82.1978 59.3797 80.8355 59.5478 79.2761 59.5478C78.3543 59.542 77.479 59.4812 76.65 59.3652C75.8268 59.2551 75.0761 59.087 74.3978 58.8609C73.7195 58.629 73.1253 58.342 72.6152 58C72.105 57.6522 71.705 57.2435 71.4152 56.7739C71.2355 56.4667 71.105 56.113 71.0239 55.713C70.9427 55.3072 70.9166 54.8696 70.9456 54.4C70.9746 53.9246 71.0645 53.4232 71.2152 52.8957C71.3717 52.3623 71.5949 51.8116 71.8847 51.2435L73.9543 52.4435C73.8384 52.6696 73.7311 52.8899 73.6326 53.1043C73.534 53.3188 73.4587 53.542 73.4065 53.7739C73.3543 54.0058 73.3282 54.2551 73.3282 54.5217C73.334 54.7826 73.3804 55.0725 73.4674 55.3913C73.6123 55.6406 73.8703 55.8522 74.2413 56.0261C74.6181 56.2 75.0703 56.342 75.5978 56.4522C76.1253 56.5623 76.705 56.6435 77.3369 56.6957C77.9688 56.7478 78.6152 56.7739 79.2761 56.7739C79.8847 56.7739 80.4616 56.7536 81.0065 56.713C81.5514 56.6667 82.0529 56.5971 82.5108 56.5043C82.9746 56.4058 83.392 56.2812 83.763 56.1304C84.1398 55.9739 84.4616 55.7855 84.7282 55.5652C84.9717 55.3681 85.1717 55.1507 85.3282 54.913C85.4847 54.6754 85.6181 54.4261 85.7282 54.1652C85.8384 53.8986 85.9282 53.6203 85.9978 53.3304C86.0732 53.0406 86.1456 52.7478 86.2152 52.4522L88.65 53.0696L88.2934 54.913C88.2413 55.1797 88.2529 55.4261 88.3282 55.6522C88.4094 55.8783 88.5456 56.0754 88.7369 56.2435C88.9282 56.4058 89.1717 56.5362 89.4674 56.6348C89.763 56.7275 90.0992 56.7739 90.4761 56.7739C90.6674 56.7739 90.8471 56.8087 91.0152 56.8783C91.1833 56.9478 91.3282 57.0464 91.45 57.1739C91.5775 57.2957 91.6761 57.4406 91.7456 57.6087C91.821 57.7768 91.8587 57.9565 91.8587 58.1478C91.8587 58.3391 91.821 58.5188 91.7456 58.687C91.6761 58.8551 91.5775 59 91.45 59.1217C91.3282 59.2493 91.1833 59.3478 91.0152 59.4174C90.8471 59.487 90.6674 59.5217 90.4761 59.5217H90.4065ZM83.2847 50.4435L81.6152 52.1217L79.963 50.4696L78.3282 52.1043L76.6413 50.4261L78.3108 48.7478L79.963 50.4L81.5978 48.7652L83.2847 50.4435ZM97.1195 62.3826L95.45 64.0609L93.7978 62.4087L92.163 64.0435L90.4761 62.3652L92.1456 60.687L93.7978 62.3391L95.4326 60.7043L97.1195 62.3826ZM88.7108 58.1478C88.7108 57.9565 88.7485 57.7768 88.8239 57.6087C88.8934 57.4406 88.9891 57.2957 89.1108 57.1739C89.2326 57.0464 89.3775 56.9478 89.5456 56.8783C89.7137 56.8087 89.8934 56.7739 90.0847 56.7739H91.05H91.4674C91.7282 56.7739 92.0152 56.7623 92.3282 56.7391C92.6413 56.7159 92.9427 56.6783 93.2326 56.6261C93.5224 56.5739 93.7833 56.5043 94.0152 56.4174C94.2529 56.3246 94.4268 56.2087 94.5369 56.0696C94.6007 55.971 94.6326 55.8377 94.6326 55.6696C94.6326 55.4203 94.5717 55.1246 94.45 54.7826C94.334 54.4406 94.1949 54.0928 94.0326 53.7391C93.8703 53.3855 93.7021 53.0464 93.5282 52.7217C93.3601 52.3971 93.2239 52.1275 93.1195 51.913L95.5978 50.6957C95.7775 51.0087 95.9514 51.3797 96.1195 51.8087C96.2876 52.2319 96.4384 52.6696 96.5717 53.1217C96.705 53.5681 96.8123 54.0087 96.8934 54.4435C96.9746 54.8725 97.0152 55.2464 97.0152 55.5652C97.0152 56.1507 96.9108 56.687 96.7021 57.1739C96.4587 57.7188 96.1253 58.171 95.7021 58.5304C95.279 58.8841 94.7717 59.1449 94.1804 59.313C94.0065 59.3594 93.7891 59.3971 93.5282 59.4261C93.2674 59.4551 93.0036 59.4754 92.7369 59.487C92.4703 59.5043 92.2181 59.513 91.9804 59.513C91.7427 59.5188 91.5572 59.5217 91.4239 59.5217H90.163H90.0847C89.8934 59.5217 89.7137 59.487 89.5456 59.4174C89.3775 59.3478 89.2326 59.2493 89.1108 59.1217C88.9891 59 88.8934 58.8551 88.8239 58.687C88.7485 58.5188 88.7108 58.3391 88.7108 58.1478ZM97.7161 62.9739C98.5335 62.8116 99.2727 62.6058 99.9335 62.3565C100.6 62.113 101.183 61.8377 101.681 61.5304C102.186 61.229 102.6 60.9072 102.925 60.5652C103.249 60.2232 103.481 59.8754 103.62 59.5217C103.371 59.5217 103.119 59.5159 102.864 59.5043C102.609 59.4986 102.391 59.4899 102.212 59.4783C101.539 59.4203 100.925 59.2696 100.368 59.0261C99.8118 58.7884 99.3683 58.4638 99.0379 58.0522C98.7944 57.7391 98.6205 57.4 98.5161 57.0348C98.4176 56.6696 98.3683 56.2841 98.3683 55.8783C98.3683 55.5652 98.3973 55.2522 98.4553 54.9391C98.5132 54.6203 98.5944 54.313 98.6987 54.0174C98.8031 53.7159 98.9248 53.4319 99.064 53.1652C99.2089 52.8986 99.3625 52.6551 99.5248 52.4348C99.8727 52 100.252 51.6725 100.664 51.4522C101.081 51.2261 101.519 51.113 101.977 51.113C102.957 51.113 103.841 51.542 104.629 52.4C104.873 52.6725 105.093 52.9739 105.29 53.3043C105.487 53.6348 105.661 53.9884 105.812 54.3652C105.963 54.7362 106.084 55.1246 106.177 55.5304C106.276 55.9362 106.342 56.3507 106.377 56.7739H106.542C106.734 56.7739 106.913 56.8087 107.081 56.8783C107.249 56.9478 107.394 57.0464 107.516 57.1739C107.644 57.2957 107.745 57.4406 107.82 57.6087C107.896 57.7768 107.934 57.9594 107.934 58.1565C107.934 58.342 107.896 58.5188 107.82 58.687C107.745 58.8493 107.644 58.9913 107.516 59.113C107.394 59.2406 107.249 59.3391 107.081 59.4087C106.913 59.4841 106.734 59.5217 106.542 59.5217H106.16C105.934 60.3739 105.571 61.1449 105.073 61.8348C104.58 62.5246 103.989 63.1275 103.299 63.6435C102.615 64.1594 101.849 64.5855 101.003 64.9217C100.163 65.258 99.2814 65.4986 98.3596 65.6435L97.7161 62.9739ZM101.977 53.8696C101.849 53.8696 101.707 53.9275 101.551 54.0435C101.4 54.1536 101.258 54.2957 101.125 54.4696C100.991 54.6435 100.878 54.8377 100.786 55.0522C100.699 55.2667 100.655 55.4754 100.655 55.6783C100.655 55.8754 100.71 56.0377 100.82 56.1652C100.931 56.2928 101.07 56.3971 101.238 56.4783C101.412 56.5536 101.6 56.6116 101.803 56.6522C102.006 56.687 102.203 56.713 102.394 56.7304C102.499 56.742 102.612 56.7507 102.734 56.7565C102.861 56.7565 102.991 56.7565 103.125 56.7565C103.258 56.7565 103.389 56.7594 103.516 56.7652C103.649 56.7652 103.771 56.7681 103.881 56.7739C103.841 56.4899 103.777 56.2232 103.69 55.9739C103.603 55.7246 103.505 55.4928 103.394 55.2783C103.29 55.0638 103.174 54.8725 103.047 54.7043C102.925 54.5304 102.806 54.3797 102.69 54.2522C102.649 54.2116 102.597 54.1681 102.534 54.1217C102.476 54.0754 102.415 54.0348 102.351 54C102.287 53.9594 102.22 53.9275 102.151 53.9043C102.087 53.8812 102.029 53.8696 101.977 53.8696ZM105.074 58.1391C105.074 57.9478 105.112 57.771 105.187 57.6087C105.257 57.4406 105.353 57.2957 105.474 57.1739C105.596 57.0464 105.741 56.9478 105.909 56.8783C106.077 56.8087 106.257 56.7739 106.448 56.7739H106.526C106.613 56.7739 106.695 56.7739 106.77 56.7739C106.851 56.7739 106.941 56.771 107.04 56.7652C107.144 56.7594 107.266 56.7536 107.405 56.7478C107.55 56.742 107.729 56.7333 107.944 56.7217C107.741 56.3739 107.587 56.0058 107.483 55.6174C107.379 55.2232 107.326 54.8261 107.326 54.4261C107.326 54.1246 107.355 53.8232 107.413 53.5217C107.471 53.2203 107.558 52.9333 107.674 52.6609C107.79 52.3826 107.935 52.1217 108.109 51.8783C108.283 51.629 108.489 51.4029 108.726 51.2L108.274 50.9478L109.953 48.4783C110.202 48.6522 110.5 48.829 110.848 49.0087C111.196 49.1884 111.561 49.3681 111.944 49.5478C112.326 49.7217 112.709 49.8928 113.092 50.0609C113.48 50.2232 113.837 50.3768 114.161 50.5217C114.712 50.7768 115.199 51.0029 115.622 51.2C116.051 51.3913 116.437 51.5826 116.779 51.7739C117.121 51.9594 117.428 52.1565 117.7 52.3652C117.973 52.5739 118.228 52.8174 118.466 53.0957C118.767 53.4783 118.984 53.8957 119.118 54.3478C119.251 54.8 119.318 55.2377 119.318 55.6609C119.318 56.3101 119.15 56.9246 118.813 57.5043C118.483 58.0783 117.993 58.5594 117.344 58.9478C117.164 59.0522 116.941 59.142 116.674 59.2174C116.413 59.2928 116.138 59.3536 115.848 59.4C115.564 59.4522 115.283 59.4899 115.005 59.513C114.726 59.5362 114.483 59.5478 114.274 59.5478C114.031 59.5478 113.767 59.5362 113.483 59.513C113.199 59.4957 112.912 59.4638 112.622 59.4174C112.338 59.3768 112.06 59.3217 111.787 59.2522C111.515 59.1826 111.266 59.1014 111.04 59.0087C110.761 59.0899 110.44 59.1623 110.074 59.2261C109.715 59.2899 109.335 59.342 108.935 59.3826C108.535 59.429 108.129 59.4638 107.718 59.487C107.306 59.5101 106.909 59.5217 106.526 59.5217H106.448C106.257 59.5217 106.077 59.4841 105.909 59.4087C105.741 59.3391 105.596 59.2406 105.474 59.113C105.353 58.9913 105.257 58.8464 105.187 58.6783C105.112 58.5101 105.074 58.3304 105.074 58.1391ZM111.396 52.513C111.211 52.4841 111.011 52.5391 110.796 52.6783C110.587 52.8174 110.396 52.9971 110.222 53.2174C110.048 53.4377 109.909 53.6812 109.805 53.9478C109.7 54.2087 109.66 54.4522 109.683 54.6783V54.6696C109.7 54.8203 109.758 54.9768 109.857 55.1391C109.955 55.2957 110.071 55.4493 110.205 55.6C110.344 55.7449 110.492 55.8754 110.648 55.9913C110.805 56.1014 110.95 56.1826 111.083 56.2348C111.303 56.2116 111.518 56.1594 111.726 56.0783C111.941 55.9971 112.132 55.8754 112.3 55.713C112.468 55.5507 112.605 55.342 112.709 55.087C112.813 54.8319 112.866 54.5188 112.866 54.1478C112.866 53.9565 112.811 53.7681 112.7 53.5826C112.596 53.3971 112.468 53.229 112.318 53.0783C112.167 52.9217 112.005 52.7942 111.831 52.6957C111.663 52.5913 111.518 52.5304 111.396 52.513ZM115.153 53.9565C115.153 54.2 115.124 54.4551 115.066 54.7217C115.008 54.9884 114.929 55.2522 114.831 55.513C114.732 55.7739 114.619 56.029 114.492 56.2783C114.37 56.5217 114.24 56.7478 114.1 56.9565H114.179C114.602 56.9565 114.99 56.942 115.344 56.913C115.703 56.8783 116.013 56.8145 116.274 56.7217C116.535 56.6232 116.741 56.4899 116.892 56.3217C117.048 56.1478 117.141 55.9188 117.17 55.6348C117.182 55.4957 117.124 55.3449 116.996 55.1826C116.868 55.0145 116.703 54.8493 116.5 54.687C116.303 54.5188 116.083 54.3565 115.84 54.2C115.596 54.0435 115.367 53.9043 115.153 53.7826V53.9565ZM134.241 53.1478C134.461 53.7739 134.653 54.3855 134.815 54.9826C134.885 55.2435 134.954 55.5159 135.024 55.8C135.093 56.0783 135.154 56.3594 135.206 56.6435C135.264 56.9217 135.311 57.1971 135.346 57.4696C135.38 57.7362 135.398 57.9855 135.398 58.2174C135.398 58.7623 135.322 59.2928 135.172 59.8087C135.027 60.3304 134.818 60.8348 134.546 61.3217C134.279 61.8087 133.96 62.2754 133.589 62.7217C133.218 63.1739 132.806 63.5971 132.354 63.9913C131.902 64.3855 131.418 64.7507 130.902 65.087C130.386 65.429 129.853 65.7362 129.302 66.0087L127.719 63.8087C128.137 63.6 128.56 63.3623 128.989 63.0957C129.412 62.8348 129.818 62.5536 130.206 62.2522C130.601 61.9507 130.966 61.6348 131.302 61.3043C131.644 60.9739 131.94 60.6377 132.189 60.2957C132.444 59.9536 132.644 59.6058 132.789 59.2522C132.934 58.9043 133.006 58.5623 133.006 58.2261C133.006 57.9826 132.972 57.7188 132.902 57.4348C132.838 57.1507 132.748 56.8464 132.632 56.5217C132.522 56.1913 132.389 55.8435 132.232 55.4783C132.076 55.1072 131.908 54.713 131.728 54.2957L134.241 53.1478ZM132.746 47.8609L134.676 49.7913L132.746 51.7217L130.815 49.7913L132.746 47.8609ZM136.693 59.5478C136.722 59.0725 136.751 58.5797 136.78 58.0696C136.809 57.5594 136.832 57.0551 136.85 56.5565C136.873 56.058 136.888 55.5739 136.893 55.1043C136.899 54.6348 136.893 54.2029 136.876 53.8087C136.841 52.9855 136.806 52.2638 136.772 51.6435C136.743 51.0174 136.711 50.4638 136.676 49.9826C136.647 49.5014 136.615 49.0812 136.58 48.7217C136.551 48.3565 136.519 48.0232 136.485 47.7217C136.45 47.4203 136.412 47.1391 136.372 46.8783C136.331 46.6116 136.288 46.3362 136.241 46.0522L138.928 45.1652C139.056 45.942 139.157 46.7246 139.232 47.513C139.314 48.3014 139.374 49.058 139.415 49.7826C139.456 50.5014 139.482 51.171 139.493 51.7913C139.511 52.4116 139.519 52.942 139.519 53.3826C139.519 53.7826 139.516 54.2145 139.511 54.6783C139.511 55.142 139.505 55.6232 139.493 56.1217C139.488 56.6203 139.476 57.1246 139.459 57.6348C139.441 58.1449 139.415 58.6435 139.38 59.1304L136.693 59.5478ZM147.431 59.5217C147.303 59.5217 147.124 59.513 146.892 59.4957C146.66 59.4783 146.411 59.4145 146.144 59.3043C146.016 60.0232 145.776 60.7043 145.422 61.3478C145.074 61.9971 144.642 62.6029 144.126 63.1652C143.611 63.7333 143.022 64.2551 142.361 64.7304C141.7 65.2058 140.996 65.6319 140.248 66.0087L138.657 63.8087C139.069 63.6 139.483 63.371 139.9 63.1217C140.318 62.8783 140.715 62.6174 141.092 62.3391C141.474 62.0667 141.828 61.7797 142.153 61.4783C142.483 61.1826 142.77 60.8754 143.013 60.5565C143.257 60.2377 143.448 59.9101 143.587 59.5739C143.726 59.2435 143.796 58.9072 143.796 58.5652C143.796 58.5478 143.793 58.5217 143.787 58.487C143.787 58.4522 143.787 58.4174 143.787 58.3826C143.787 58.3478 143.784 58.3217 143.779 58.3043C143.779 58.287 143.779 58.2899 143.779 58.313V58.3217C143.738 57.9855 143.68 57.6638 143.605 57.3565C143.529 57.0493 143.434 56.7362 143.318 56.4174C143.208 56.0986 143.077 55.7652 142.926 55.4174C142.776 55.0638 142.608 54.6783 142.422 54.2609L144.935 53.1652C145.167 53.8609 145.384 54.4406 145.587 54.9043C145.79 55.3681 145.987 55.7391 146.179 56.0174C146.376 56.2957 146.573 56.4928 146.77 56.6087C146.967 56.7188 147.176 56.7739 147.396 56.7739H147.44C147.631 56.7739 147.811 56.8116 147.979 56.887C148.147 56.9623 148.292 57.0638 148.413 57.1913C148.541 57.313 148.64 57.458 148.709 57.6261C148.784 57.7942 148.822 57.971 148.822 58.1565C148.822 58.3478 148.784 58.5275 148.709 58.6957C148.64 58.8638 148.541 59.0087 148.413 59.1304C148.292 59.2522 148.147 59.3478 147.979 59.4174C147.811 59.487 147.628 59.5217 147.431 59.5217ZM145.955 58.1478C145.955 57.9565 145.993 57.7768 146.069 57.6087C146.138 57.4406 146.237 57.2957 146.364 57.1739C146.486 57.0464 146.634 56.9478 146.808 56.8783C146.976 56.8087 147.155 56.7739 147.347 56.7739H149.016C149.955 56.7739 150.816 56.7188 151.599 56.6087C152.387 56.4928 153.124 56.3391 153.808 56.1478C154.492 55.9565 155.138 55.7362 155.747 55.487C156.361 55.2319 156.964 54.9681 157.555 54.6957C157.161 54.5855 156.764 54.4493 156.364 54.287C155.97 54.1246 155.573 53.9681 155.173 53.8174C154.779 53.6667 154.384 53.5391 153.99 53.4348C153.596 53.3246 153.205 53.2696 152.816 53.2696C152.55 53.2696 152.289 53.342 152.034 53.487C151.779 53.6319 151.547 53.7971 151.338 53.9826C151.129 54.1681 150.953 54.3507 150.808 54.5304C150.669 54.7043 150.582 54.8232 150.547 54.887L148.538 53.5913C148.758 53.2029 149.019 52.8232 149.321 52.4522C149.622 52.0812 149.953 51.7536 150.312 51.4696C150.677 51.1797 151.069 50.9478 151.486 50.7739C151.909 50.6 152.353 50.513 152.816 50.513C153.158 50.513 153.5 50.5507 153.842 50.6261C154.184 50.6957 154.524 50.7884 154.86 50.9043C155.202 51.0203 155.538 51.1536 155.869 51.3043C156.199 51.4493 156.526 51.5971 156.851 51.7478C157.164 51.8928 157.474 52.0377 157.782 52.1826C158.095 52.3217 158.416 52.4522 158.747 52.5739C159.077 52.6899 159.419 52.7855 159.773 52.8609C160.126 52.9362 160.5 52.9768 160.895 52.9826L160.677 55.6522L159.442 56.2435C158.938 56.487 158.437 56.7391 157.938 57C157.44 57.2551 156.929 57.5043 156.408 57.7478C155.892 57.9855 155.358 58.2145 154.808 58.4348C154.263 58.6493 153.689 58.8377 153.086 59C152.483 59.1565 151.845 59.2812 151.173 59.3739C150.5 59.4725 149.782 59.5217 149.016 59.5217H147.416H147.347C147.155 59.5217 146.976 59.4841 146.808 59.4087C146.634 59.3391 146.486 59.2435 146.364 59.1217C146.237 59 146.138 58.8551 146.069 58.687C145.993 58.5188 145.955 58.3391 145.955 58.1478ZM161.908 59.5478C161.937 59.0725 161.966 58.5797 161.995 58.0696C162.024 57.5594 162.047 57.0551 162.065 56.5565C162.088 56.058 162.102 55.5739 162.108 55.1043C162.114 54.6348 162.108 54.2029 162.091 53.8087C162.056 52.9855 162.021 52.2638 161.986 51.6435C161.957 51.0174 161.926 50.4638 161.891 49.9826C161.862 49.5014 161.83 49.0812 161.795 48.7217C161.766 48.3565 161.734 48.0232 161.699 47.7217C161.665 47.4203 161.627 47.1391 161.586 46.8783C161.546 46.6116 161.502 46.3362 161.456 46.0522L164.143 45.1652C164.27 45.942 164.372 46.7246 164.447 47.513C164.528 48.3014 164.589 49.058 164.63 49.7826C164.67 50.5014 164.697 51.171 164.708 51.7913C164.726 52.4116 164.734 52.942 164.734 53.3826C164.734 53.7826 164.731 54.2145 164.726 54.6783C164.726 55.142 164.72 55.6232 164.708 56.1217C164.702 56.6203 164.691 57.1246 164.673 57.6348C164.656 58.1449 164.63 58.6435 164.595 59.1304L161.908 59.5478Z" fill="#6566B0"/>
<path d="M113.328 158.279C118.734 153.631 122.488 148.816 121.716 140.701C121.07 133.927 115.873 129.572 109.375 128.269C102.809 126.952 97.4954 132.094 94.117 137.193C90.3421 142.889 91.1816 147.705 95.5396 152.884C97.6823 155.428 100.728 159.166 104.103 160.124C108.413 161.345 112.157 159.783 116.703 161.82C122.467 164.402 127.469 168.367 130.313 174.049C132.206 177.831 134.546 181.583 129.338 183.88C126.863 184.97 121.577 183.97 118.976 184.001C112.856 184.072 106.736 184.181 100.616 184.185C96.7702 184.186 84.9525 185.841 82.1089 183.525C76.5912 179.029 86.5743 169.129 90.1708 166.806C94.6812 163.897 98.9164 161.65 104.126 160.084C106.786 159.284 105.653 155.106 102.975 155.913C95.4981 158.161 89.0129 160.638 83.4831 166.398C79.9593 170.067 73.6523 179.247 75.6583 184.851C77.6054 190.294 89.6066 188.361 93.8764 188.453C100.034 188.586 106.194 188.477 112.354 188.406C118.611 188.333 126.785 189.777 132.791 188.167C137.409 186.93 137.897 184.276 136.953 179.617C135.273 171.304 130.243 164.871 123.187 160.558C120.368 158.834 117.382 156.842 114.138 156.068C109.071 154.859 104.993 156.013 100.595 152.027C96.4379 148.261 96.0485 140.893 100.161 136.682C104.361 132.383 114.838 132.518 117.147 139.292C119.319 145.661 114.552 151.535 110.27 155.219C108.155 157.036 111.227 160.085 113.328 158.279ZM131.863 111.414C132.493 110.277 133.381 108.29 134.896 108.188C136.062 108.11 137.059 107.25 137.059 106.025C137.059 104.914 136.067 103.782 134.896 103.861C131.571 104.085 129.634 106.513 128.127 109.23C126.773 111.667 130.51 113.851 131.863 111.414Z" fill="#1D1E65"/>
<path d="M138.765 107.518C142.696 105.076 147.482 104.265 151.649 106.727C155.834 109.202 156.57 113.382 157.366 117.666C157.982 120.972 159.073 125.233 157.941 128.568C156.521 132.75 151.911 134.505 148.189 135.623C145.303 136.492 142.099 137.094 139.089 136.531C134.447 135.666 133.391 133.845 131.398 130.32C127.874 124.084 128.943 116.615 132.659 110.956C134.191 108.619 130.446 106.451 128.923 108.772C126.06 113.133 124.224 115.553 124.869 120.736C125.634 126.907 126.461 130.847 129.928 136.067C135.333 144.211 149.088 141.32 156.277 136.864C165.066 131.417 163.332 118.872 160.073 110.464C156.319 100.784 144.865 98.6327 136.581 103.783C134.222 105.249 136.391 108.993 138.765 107.518Z" fill="#1D1E65"/>
<path d="M150.045 114.365C147.95 116.053 145.602 117.628 143.707 119.537C141.993 121.264 141.599 123.777 140.025 125.503L141.555 124.869C142.135 124.807 140.326 122.853 140.126 122.659C139.243 121.806 138.23 121.19 137.104 120.714C134.57 119.641 132.361 123.367 134.921 124.451C136.361 125.06 137.116 125.764 138.071 126.998C138.535 127.601 138.788 128.25 139.452 128.691C140.726 129.541 142.204 129.369 143.286 128.341C144.916 126.794 145.204 124.253 146.765 122.597C148.596 120.658 151.029 119.097 153.105 117.427C155.273 115.679 152.196 112.636 150.045 114.367V114.365Z" fill="#1D1E65"/>
</svg>
