<svg width="301" height="270" viewBox="0 0 301 270" fill="none" xmlns="http://www.w3.org/2000/svg">
<path d="M1 50C1 22.938 22.938 1 50 1H227.809C262.3 1 285.996 35.6874 273.455 67.8174L219.62 205.735C207.538 236.686 168.807 246.894 143.04 225.919L19.066 125C7.635 115.695 1 101.738 1 86.999V50Z" stroke="#6566B0" stroke-width="2"/>
<path d="M71.3398 44.3478C71.3746 44.4174 71.4355 44.5449 71.5224 44.7304C71.6152 44.9101 71.7195 45.1304 71.8355 45.3913C71.9514 45.6464 72.0731 45.9333 72.2007 46.2522C72.3282 46.571 72.4442 46.9072 72.5485 47.2609C72.6529 47.6087 72.7369 47.9652 72.8007 48.3304C72.8702 48.6899 72.905 49.0435 72.905 49.3913C72.8992 49.9652 72.8123 50.5014 72.6442 51C72.4818 51.4986 72.2413 51.9333 71.9224 52.3043C71.6036 52.6696 71.2094 52.9594 70.7398 53.1739C70.2702 53.3884 69.7282 53.4957 69.1137 53.4957C68.5804 53.4957 68.1427 53.4058 67.8007 53.2261C67.4644 53.0464 67.1862 52.8 66.9659 52.487C66.8442 52.6435 66.7137 52.7855 66.5746 52.913C66.4355 53.0348 66.2702 53.1391 66.0789 53.2261C65.8934 53.3188 65.6731 53.3884 65.4181 53.4348C65.1688 53.4812 64.8702 53.5043 64.5224 53.5043C64.2789 53.5043 64.0558 53.487 63.8529 53.4522C63.65 53.4174 63.4644 53.3739 63.2963 53.3217C63.2905 54 63.1862 54.6174 62.9833 55.1739C62.7862 55.7304 62.5137 56.229 62.1659 56.6696C61.8239 57.1101 61.421 57.4928 60.9572 57.8174C60.4934 58.142 59.9949 58.4087 59.4615 58.6174C58.9282 58.8319 58.3688 58.9913 57.7833 59.0957C57.2036 59.2 56.6268 59.2522 56.0529 59.2522C55.1659 59.2522 54.3456 59.1043 53.592 58.8087C52.8384 58.5188 52.1862 58.1072 51.6355 57.5739C51.0905 57.0464 50.6644 56.4087 50.3572 55.6609C50.05 54.9188 49.8963 54.0986 49.8963 53.2C49.9137 52.6783 49.9833 52.1449 50.105 51.6C50.2326 51.0551 50.392 50.5217 50.5833 50C50.7804 49.4783 50.9978 48.9826 51.2355 48.513C51.4789 48.0377 51.7253 47.6116 51.9746 47.2348L53.8702 48.6957C53.6615 49.0377 53.4587 49.4 53.2615 49.7826C53.0644 50.1594 52.8905 50.5478 52.7398 50.9478C52.5891 51.342 52.4673 51.7362 52.3746 52.1304C52.2818 52.5246 52.2355 52.9043 52.2355 53.2696C52.2181 53.7101 52.305 54.1246 52.4963 54.513C52.6934 54.9014 52.963 55.2406 53.305 55.5304C53.6529 55.8261 54.0587 56.058 54.5224 56.2261C54.992 56.3942 55.4905 56.4783 56.0181 56.4783C56.6152 56.4783 57.1659 56.4232 57.6702 56.313C58.1804 56.2029 58.6297 56.0493 59.0181 55.8522C59.4123 55.6609 59.7427 55.4261 60.0094 55.1478C60.276 54.8754 60.4673 54.5739 60.5833 54.2435L60.5746 54.2522C60.7195 53.7768 60.792 53.287 60.792 52.7826C60.792 52.3942 60.7369 52 60.6268 51.6C60.5166 51.2 60.3746 50.7971 60.2007 50.3913C60.0268 49.9797 59.8326 49.5681 59.6181 49.1565C59.4094 48.7391 59.2036 48.3217 59.0007 47.9043L61.3833 46.5652C61.534 46.9072 61.6847 47.2522 61.8355 47.6C61.9862 47.9478 62.1369 48.2812 62.2876 48.6C62.4442 48.913 62.6036 49.2058 62.7659 49.4783C62.9282 49.7507 63.0963 49.9855 63.2702 50.1826C63.4442 50.3739 63.6239 50.5188 63.8094 50.6174C64.0007 50.7159 64.2036 50.7507 64.4181 50.7217C64.6615 50.687 64.8587 50.6029 65.0094 50.4696C65.1601 50.3304 65.2731 50.1594 65.3485 49.9565C65.4297 49.7536 65.4789 49.5275 65.4963 49.2783C65.5195 49.0232 65.5253 48.7652 65.5137 48.5043C65.5021 48.2435 65.4818 47.9855 65.4529 47.7304C65.4297 47.4754 65.4094 47.2406 65.392 47.0261L67.792 46.7043C67.8326 46.8841 67.8673 47.1014 67.8963 47.3565C67.9253 47.6058 67.9572 47.8696 67.992 48.1478C68.0326 48.4261 68.0818 48.7072 68.1398 48.9913C68.1978 49.2754 68.276 49.5391 68.3746 49.7826C68.4731 50.0261 68.5949 50.2377 68.7398 50.4174C68.8847 50.5971 69.0673 50.7246 69.2876 50.8C69.4673 50.8 69.6355 50.7681 69.792 50.7043C69.9485 50.6348 70.0847 50.5362 70.2007 50.4087C70.3166 50.2812 70.4065 50.1246 70.4702 49.9391C70.5398 49.7478 70.5746 49.5275 70.5746 49.2783C70.5746 49.0696 70.534 48.829 70.4529 48.5565C70.3775 48.2783 70.2731 47.9797 70.1398 47.6609C70.0065 47.342 69.85 47.0087 69.6702 46.6609C69.4963 46.3072 69.3108 45.9507 69.1137 45.5913L71.3398 44.3478ZM69.4615 43.0522L67.792 44.7304L66.1398 43.0783L64.505 44.713L62.8181 43.0348L64.4876 41.3565L66.1398 43.0087L67.7746 41.3739L69.4615 43.0522ZM64.592 40.5304L66.1398 38.9826L67.6963 40.5391L66.1485 42.087L64.592 40.5304ZM77.7465 47.8696C77.6248 47.8464 77.4857 47.8899 77.3291 48C77.1784 48.1043 77.0335 48.2493 76.8944 48.4348C76.761 48.6145 76.648 48.8145 76.5552 49.0348C76.4683 49.2551 76.4248 49.4667 76.4248 49.6696C76.4248 49.8609 76.4799 50.0203 76.59 50.1478C76.7002 50.2754 76.8393 50.3797 77.0074 50.4609C77.1813 50.542 77.3697 50.6029 77.5726 50.6435C77.7813 50.6841 77.9813 50.713 78.1726 50.7304H78.1639C78.3147 50.742 78.4857 50.7507 78.677 50.7565C78.8741 50.7565 79.0654 50.7565 79.2509 50.7565C79.3089 50.7565 79.3523 50.7594 79.3813 50.7652C79.4161 50.7652 79.4451 50.7652 79.4683 50.7652C79.4915 50.7652 79.5147 50.7652 79.5378 50.7652C79.5668 50.7652 79.6074 50.7623 79.6596 50.7565C79.5726 50.3971 79.4683 50.0551 79.3465 49.7304C79.2306 49.4 79.0944 49.1043 78.9378 48.8435C78.7813 48.5826 78.6045 48.3681 78.4074 48.2C78.2103 48.0261 77.99 47.9159 77.7465 47.8696ZM73.4857 56.9739C74.3031 56.8116 75.048 56.6058 75.7204 56.3565C76.3929 56.113 76.9813 55.8377 77.4857 55.5304C77.9958 55.229 78.4161 54.9072 78.7465 54.5652C79.0828 54.2232 79.3204 53.8754 79.4596 53.5217C79.2103 53.5217 78.9465 53.5159 78.6683 53.5043C78.39 53.4986 78.161 53.4899 77.9813 53.4783C77.3089 53.4203 76.6944 53.2696 76.1378 53.0261C75.5813 52.7884 75.1378 52.4638 74.8074 52.0522C74.5639 51.7391 74.39 51.4 74.2857 51.0348C74.1871 50.6696 74.1378 50.2841 74.1378 49.8783C74.1378 49.5652 74.1668 49.2522 74.2248 48.9391C74.2828 48.6203 74.3639 48.313 74.4683 48.0174C74.5726 47.7159 74.6944 47.4319 74.8335 47.1652C74.9784 46.8986 75.132 46.6551 75.2944 46.4348C75.6422 46 76.0219 45.6725 76.4335 45.4522C76.8509 45.2261 77.2886 45.113 77.7465 45.113C78.7262 45.113 79.6103 45.542 80.3987 46.4C80.677 46.713 80.9262 47.0638 81.1465 47.4522C81.3668 47.8406 81.5523 48.2551 81.7031 48.6957C81.8596 49.1304 81.9784 49.5884 82.0596 50.0696C82.1407 50.5449 82.1813 51.029 82.1813 51.5217C82.1813 51.6725 82.1755 51.8232 82.1639 51.9739C82.1581 52.1246 82.1494 52.2667 82.1378 52.4C82.0683 53.0783 81.9147 53.713 81.677 54.3043C81.4451 54.9014 81.1436 55.4493 80.7726 55.9478C80.4074 56.4522 79.9813 56.9072 79.4944 57.313C79.0074 57.7246 78.477 58.0841 77.9031 58.3913C77.3349 58.7043 76.732 58.9652 76.0944 59.1739C75.4567 59.3826 74.8016 59.5391 74.1291 59.6435L73.4857 56.9739ZM89.548 53.5217C89.4205 53.5217 89.2408 53.513 89.0089 53.4957C88.777 53.4783 88.5277 53.4145 88.2611 53.3043C88.1335 54.0232 87.893 54.7043 87.5393 55.3478C87.1915 55.9971 86.7596 56.6029 86.2437 57.1652C85.7277 57.7333 85.1393 58.2551 84.4785 58.7304C83.8176 59.2058 83.1132 59.6319 82.3654 60.0087L80.7741 57.8087C81.1857 57.6 81.6002 57.371 82.0176 57.1217C82.435 56.8783 82.8321 56.6174 83.2089 56.3391C83.5915 56.0667 83.9451 55.7797 84.2698 55.4783C84.6002 55.1826 84.8872 54.8754 85.1306 54.5565C85.3741 54.2377 85.5654 53.9101 85.7046 53.5739C85.8437 53.2435 85.9132 52.9072 85.9132 52.5652C85.9132 52.5478 85.9103 52.5217 85.9046 52.487C85.9046 52.4522 85.9046 52.4174 85.9046 52.3826C85.9046 52.3478 85.9017 52.3217 85.8959 52.3043C85.8959 52.287 85.8959 52.2899 85.8959 52.313V52.3217C85.8553 51.9855 85.7973 51.6638 85.7219 51.3565C85.6466 51.0493 85.5509 50.7362 85.435 50.4174C85.3248 50.0986 85.1944 49.7652 85.0437 49.4174C84.893 49.0638 84.7248 48.6783 84.5393 48.2609L87.0524 47.1652C87.2843 47.8609 87.5017 48.4406 87.7046 48.9043C87.9075 49.3681 88.1046 49.7391 88.2959 50.0174C88.493 50.2957 88.6901 50.4928 88.8872 50.6087C89.0843 50.7188 89.293 50.7739 89.5132 50.7739H89.5567C89.748 50.7739 89.9277 50.8116 90.0959 50.887C90.264 50.9623 90.4089 51.0638 90.5306 51.1913C90.6582 51.313 90.7567 51.458 90.8263 51.6261C90.9017 51.7942 90.9393 51.971 90.9393 52.1565C90.9393 52.3478 90.9017 52.5275 90.8263 52.6957C90.7567 52.8638 90.6582 53.0087 90.5306 53.1304C90.4089 53.2522 90.264 53.3478 90.0959 53.4174C89.9277 53.487 89.7451 53.5217 89.548 53.5217ZM88.0727 52.1478C88.0727 51.9565 88.1103 51.7768 88.1857 51.6087C88.2553 51.4406 88.3538 51.2957 88.4814 51.1739C88.6031 51.0464 88.7509 50.9478 88.9248 50.8783C89.0929 50.8087 89.2727 50.7739 89.464 50.7739C89.6785 50.7739 89.9422 50.771 90.2553 50.7652C90.5741 50.7536 90.9132 50.7362 91.2727 50.713C91.6321 50.6899 91.9973 50.6609 92.3683 50.6261C92.7451 50.5913 93.1016 50.5449 93.4379 50.487C93.7799 50.429 94.0871 50.3623 94.3596 50.287C94.6379 50.2058 94.8553 50.113 95.0118 50.0087C94.4263 50.0725 93.8871 50.0986 93.3944 50.087C92.9016 50.0696 92.4611 50.0203 92.0727 49.9391C91.6843 49.858 91.3509 49.7478 91.0727 49.6087C90.8002 49.4638 90.5915 49.2986 90.4466 49.113V49.1217C90.29 48.9246 90.1422 48.6609 90.0031 48.3304C89.8698 48 89.8031 47.5913 89.8031 47.1043C89.8031 46.8435 89.8205 46.6 89.8553 46.3739C90.0292 45.3884 90.377 44.5739 90.8987 43.9304L90.89 43.9391C91.2031 43.5217 91.5567 43.2116 91.9509 43.0087C92.3451 42.8 92.7596 42.6957 93.1944 42.6957C93.635 42.6957 94.0698 42.8029 94.4987 43.0174C94.9277 43.2319 95.3161 43.5217 95.664 43.887C95.9132 44.171 96.1364 44.4928 96.3335 44.8522C96.5364 45.2116 96.7074 45.5942 96.8466 46C96.9915 46.4058 97.1016 46.829 97.177 47.2696C97.2582 47.7043 97.2987 48.142 97.2987 48.5826C97.2987 48.7159 97.2958 48.8493 97.29 48.9826C97.2843 49.1101 97.2756 49.2319 97.264 49.3478C97.1944 49.9507 97.0408 50.4725 96.8031 50.913C96.5654 51.3478 96.2611 51.7188 95.89 52.0261C95.5248 52.3333 95.1045 52.5826 94.6292 52.7739C94.1538 52.9652 93.6437 53.1159 93.0987 53.2261C92.5538 53.3362 91.9828 53.4116 91.3857 53.4522C90.7944 53.4928 90.1973 53.5159 89.5944 53.5217H89.4466C89.2553 53.5217 89.0756 53.4841 88.9074 53.4087C88.7393 53.3391 88.5944 53.2435 88.4727 53.1217C88.3509 53 88.2553 52.8551 88.1857 52.687C88.1103 52.5188 88.0727 52.3391 88.0727 52.1478ZM93.177 45.4609C93.0437 45.4551 92.9074 45.4957 92.7683 45.5826C92.635 45.6638 92.5103 45.7739 92.3944 45.913C92.2843 46.0522 92.1915 46.2116 92.1161 46.3913C92.0466 46.571 92.0118 46.7536 92.0118 46.9391C92.0118 47.1014 92.0495 47.2464 92.1248 47.3739C92.1654 47.4435 92.2466 47.5043 92.3683 47.5565C92.4958 47.6029 92.6437 47.6435 92.8118 47.6783C92.9857 47.7072 93.1712 47.7333 93.3683 47.7565C93.5654 47.7739 93.7538 47.7855 93.9335 47.7913C94.1132 47.7971 94.2756 47.7971 94.4205 47.7913C94.5712 47.7855 94.6814 47.7768 94.7509 47.7652C94.6987 47.5043 94.6292 47.2406 94.5422 46.9739C94.4611 46.7072 94.3567 46.4638 94.2292 46.2435C94.1016 46.0232 93.9509 45.8406 93.777 45.6957C93.6031 45.5507 93.4031 45.4725 93.177 45.4609ZM92.8379 37.7391L94.7683 39.6696L92.8379 41.6L90.9074 39.6696L92.8379 37.7391ZM106.946 47.8696C106.824 47.8464 106.685 47.8899 106.528 48C106.378 48.1043 106.233 48.2493 106.094 48.4348C105.96 48.6145 105.847 48.8145 105.754 49.0348C105.667 49.2551 105.624 49.4667 105.624 49.6696C105.624 49.8609 105.679 50.0203 105.789 50.1478C105.899 50.2754 106.039 50.3797 106.207 50.4609C106.381 50.542 106.569 50.6029 106.772 50.6435C106.981 50.6841 107.181 50.713 107.372 50.7304H107.363C107.514 50.742 107.685 50.7507 107.876 50.7565C108.073 50.7565 108.265 50.7565 108.45 50.7565C108.508 50.7565 108.552 50.7594 108.581 50.7652C108.615 50.7652 108.644 50.7652 108.667 50.7652C108.691 50.7652 108.714 50.7652 108.737 50.7652C108.766 50.7652 108.807 50.7623 108.859 50.7565C108.772 50.3971 108.667 50.0551 108.546 49.7304C108.43 49.4 108.294 49.1043 108.137 48.8435C107.981 48.5826 107.804 48.3681 107.607 48.2C107.41 48.0261 107.189 47.9159 106.946 47.8696ZM102.685 56.9739C103.502 56.8116 104.247 56.6058 104.92 56.3565C105.592 56.113 106.181 55.8377 106.685 55.5304C107.195 55.229 107.615 54.9072 107.946 54.5652C108.282 54.2232 108.52 53.8754 108.659 53.5217C108.41 53.5217 108.146 53.5159 107.867 53.5043C107.589 53.4986 107.36 53.4899 107.181 53.4783C106.508 53.4203 105.894 53.2696 105.337 53.0261C104.781 52.7884 104.337 52.4638 104.007 52.0522C103.763 51.7391 103.589 51.4 103.485 51.0348C103.386 50.6696 103.337 50.2841 103.337 49.8783C103.337 49.5652 103.366 49.2522 103.424 48.9391C103.482 48.6203 103.563 48.313 103.667 48.0174C103.772 47.7159 103.894 47.4319 104.033 47.1652C104.178 46.8986 104.331 46.6551 104.494 46.4348C104.841 46 105.221 45.6725 105.633 45.4522C106.05 45.2261 106.488 45.113 106.946 45.113C107.925 45.113 108.81 45.542 109.598 46.4C109.876 46.713 110.125 47.0638 110.346 47.4522C110.566 47.8406 110.752 48.2551 110.902 48.6957C111.059 49.1304 111.178 49.5884 111.259 50.0696C111.34 50.5449 111.381 51.029 111.381 51.5217C111.381 51.6725 111.375 51.8232 111.363 51.9739C111.357 52.1246 111.349 52.2667 111.337 52.4C111.267 53.0783 111.114 53.713 110.876 54.3043C110.644 54.9014 110.343 55.4493 109.972 55.9478C109.607 56.4522 109.181 56.9072 108.694 57.313C108.207 57.7246 107.676 58.0841 107.102 58.3913C106.534 58.7043 105.931 58.9652 105.294 59.1739C104.656 59.3826 104.001 59.5391 103.328 59.6435L102.685 56.9739ZM121.011 53.5217C120.251 53.5217 119.506 53.3768 118.776 53.087C118.051 52.7971 117.379 52.3304 116.758 51.687L118.332 49.4696C118.616 49.7304 118.892 49.9449 119.158 50.113C119.425 50.2754 119.68 50.4029 119.924 50.4957C120.167 50.5884 120.396 50.6522 120.611 50.687C120.831 50.7217 121.037 50.7391 121.228 50.7391C121.315 50.7391 121.414 50.7362 121.524 50.7304C121.634 50.7246 121.744 50.7159 121.854 50.7043C121.964 50.687 122.072 50.6667 122.176 50.6435C122.28 50.6203 122.376 50.5913 122.463 50.5565C122.764 50.429 123.002 50.3014 123.176 50.1739C122.956 49.6406 122.715 49.087 122.454 48.513C122.199 47.9333 121.941 47.3536 121.68 46.7739C121.419 46.1884 121.161 45.6087 120.906 45.0348C120.651 44.4609 120.414 43.9101 120.193 43.3826L122.732 42.3217L123.506 44.2C123.756 44.8145 124.054 45.5449 124.402 46.3913C124.75 47.2319 125.15 48.1855 125.602 49.2522C125.706 49.5072 125.802 49.7304 125.889 49.9217C125.976 50.113 126.077 50.2725 126.193 50.4C126.315 50.5275 126.457 50.6232 126.619 50.687C126.787 50.7449 127.002 50.7739 127.263 50.7739C127.448 50.7739 127.625 50.8087 127.793 50.8783C127.961 50.9478 128.106 51.0464 128.228 51.1739C128.356 51.2957 128.457 51.4406 128.532 51.6087C128.608 51.7768 128.645 51.9565 128.645 52.1478C128.645 52.3391 128.608 52.5188 128.532 52.687C128.457 52.8551 128.356 53 128.228 53.1217C128.106 53.2493 127.961 53.3478 127.793 53.4174C127.625 53.487 127.448 53.5217 127.263 53.5217C126.909 53.5217 126.596 53.4986 126.324 53.4522C126.057 53.4058 125.816 53.3391 125.602 53.2522C125.393 53.171 125.205 53.0725 125.037 52.9565C124.874 52.8348 124.721 52.7014 124.576 52.5565C124.419 52.6609 124.254 52.7623 124.08 52.8609C123.906 52.9536 123.706 53.0464 123.48 53.1391C123.132 53.2725 122.756 53.3681 122.35 53.4261C121.95 53.4899 121.503 53.5217 121.011 53.5217ZM133.866 56.3826L132.196 58.0609L130.544 56.4087L128.909 58.0435L127.222 56.3652L128.892 54.687L130.544 56.3391L132.179 54.7043L133.866 56.3826ZM125.457 52.1478C125.457 51.9565 125.495 51.7768 125.57 51.6087C125.64 51.4406 125.735 51.2957 125.857 51.1739C125.979 51.0464 126.124 50.9478 126.292 50.8783C126.46 50.8087 126.64 50.7739 126.831 50.7739H127.796H128.213C128.474 50.7739 128.761 50.7623 129.074 50.7391C129.387 50.7159 129.689 50.6783 129.979 50.6261C130.269 50.5739 130.529 50.5043 130.761 50.4174C130.999 50.3246 131.173 50.2087 131.283 50.0696C131.347 49.971 131.379 49.8377 131.379 49.6696C131.379 49.4203 131.318 49.1246 131.196 48.7826C131.08 48.4406 130.941 48.0928 130.779 47.7391C130.616 47.3855 130.448 47.0464 130.274 46.7217C130.106 46.3971 129.97 46.1275 129.866 45.913L132.344 44.6957C132.524 45.0087 132.698 45.3797 132.866 45.8087C133.034 46.2319 133.184 46.6696 133.318 47.1217C133.451 47.5681 133.558 48.0087 133.64 48.4435C133.721 48.8725 133.761 49.2464 133.761 49.5652C133.761 50.1507 133.657 50.687 133.448 51.1739C133.205 51.7188 132.871 52.171 132.448 52.5304C132.025 52.8841 131.518 53.1449 130.926 53.313C130.753 53.3594 130.535 53.3971 130.274 53.4261C130.013 53.4551 129.75 53.4754 129.483 53.487C129.216 53.5043 128.964 53.513 128.726 53.513C128.489 53.5188 128.303 53.5217 128.17 53.5217H126.909H126.831C126.64 53.5217 126.46 53.487 126.292 53.4174C126.124 53.3478 125.979 53.2493 125.857 53.1217C125.735 53 125.64 52.8551 125.57 52.687C125.495 52.5188 125.457 52.3391 125.457 52.1478ZM142.263 53.5217C142.135 53.5217 141.956 53.513 141.724 53.4957C141.492 53.4783 141.243 53.4145 140.976 53.3043C140.848 54.0232 140.608 54.7043 140.254 55.3478C139.906 55.9971 139.474 56.6029 138.959 57.1652C138.443 57.7333 137.854 58.2551 137.193 58.7304C136.532 59.2058 135.828 59.6319 135.08 60.0087L133.489 57.8087C133.901 57.6 134.315 57.371 134.732 57.1217C135.15 56.8783 135.547 56.6174 135.924 56.3391C136.306 56.0667 136.66 55.7797 136.985 55.4783C137.315 55.1826 137.602 54.8754 137.845 54.5565C138.089 54.2377 138.28 53.9101 138.419 53.5739C138.559 53.2435 138.628 52.9072 138.628 52.5652C138.628 52.5478 138.625 52.5217 138.619 52.487C138.619 52.4522 138.619 52.4174 138.619 52.3826C138.619 52.3478 138.616 52.3217 138.611 52.3043C138.611 52.287 138.611 52.2899 138.611 52.313V52.3217C138.57 51.9855 138.512 51.6638 138.437 51.3565C138.361 51.0493 138.266 50.7362 138.15 50.4174C138.04 50.0986 137.909 49.7652 137.759 49.4174C137.608 49.0638 137.44 48.6783 137.254 48.2609L139.767 47.1652C139.999 47.8609 140.216 48.4406 140.419 48.9043C140.622 49.3681 140.819 49.7391 141.011 50.0174C141.208 50.2957 141.405 50.4928 141.602 50.6087C141.799 50.7188 142.008 50.7739 142.228 50.7739H142.272C142.463 50.7739 142.643 50.8116 142.811 50.887C142.979 50.9623 143.124 51.0638 143.245 51.1913C143.373 51.313 143.472 51.458 143.541 51.6261C143.616 51.7942 143.654 51.971 143.654 52.1565C143.654 52.3478 143.616 52.5275 143.541 52.6957C143.472 52.8638 143.373 53.0087 143.245 53.1304C143.124 53.2522 142.979 53.3478 142.811 53.4174C142.643 53.487 142.46 53.5217 142.263 53.5217ZM140.787 52.1478C140.787 51.9565 140.825 51.7768 140.901 51.6087C140.97 51.4406 141.069 51.2957 141.196 51.1739C141.318 51.0464 141.466 50.9478 141.64 50.8783C141.808 50.8087 141.987 50.7739 142.179 50.7739H143.848C144.788 50.7739 145.648 50.7188 146.431 50.6087C147.219 50.4928 147.956 50.3391 148.64 50.1478C149.324 49.9565 149.97 49.7362 150.579 49.487C151.193 49.2319 151.796 48.9681 152.387 48.6957C151.993 48.5855 151.596 48.4493 151.196 48.287C150.802 48.1246 150.405 47.9681 150.005 47.8174C149.611 47.6667 149.216 47.5391 148.822 47.4348C148.428 47.3246 148.037 47.2696 147.648 47.2696C147.382 47.2696 147.121 47.342 146.866 47.487C146.611 47.6319 146.379 47.7971 146.17 47.9826C145.961 48.1681 145.785 48.3507 145.64 48.5304C145.501 48.7043 145.414 48.8232 145.379 48.887L143.37 47.5913C143.59 47.2029 143.851 46.8232 144.153 46.4522C144.454 46.0812 144.785 45.7536 145.144 45.4696C145.509 45.1797 145.901 44.9478 146.318 44.7739C146.741 44.6 147.185 44.513 147.648 44.513C147.99 44.513 148.332 44.5507 148.674 44.6261C149.016 44.6957 149.356 44.7884 149.692 44.9043C150.034 45.0203 150.37 45.1536 150.701 45.3043C151.031 45.4493 151.359 45.5971 151.683 45.7478C151.996 45.8928 152.306 46.0377 152.614 46.1826C152.927 46.3217 153.248 46.4522 153.579 46.5739C153.909 46.6899 154.251 46.7855 154.605 46.8609C154.959 46.9362 155.332 46.9768 155.727 46.9826L155.509 49.6522L154.274 50.2435C153.77 50.487 153.269 50.7391 152.77 51C152.272 51.2551 151.761 51.5043 151.24 51.7478C150.724 51.9855 150.19 52.2145 149.64 52.4348C149.095 52.6493 148.521 52.8377 147.918 53C147.315 53.1565 146.677 53.2812 146.005 53.3739C145.332 53.4725 144.614 53.5217 143.848 53.5217H142.248H142.179C141.987 53.5217 141.808 53.4841 141.64 53.4087C141.466 53.3391 141.318 53.2435 141.196 53.1217C141.069 53 140.97 52.8551 140.901 52.687C140.825 52.5188 140.787 52.3391 140.787 52.1478ZM147.283 39.8087L149.214 41.7391L147.283 43.6696L145.353 41.7391L147.283 39.8087ZM165.16 52.3043C164.337 52.3043 163.63 52.1942 163.038 51.9739C162.447 51.7478 161.978 51.4319 161.63 51.0261C161.427 50.7652 161.279 50.4841 161.186 50.1826C161.099 49.8754 161.056 49.5826 161.056 49.3043C161.056 49.0609 161.076 48.8406 161.117 48.6435C161.157 48.4464 161.206 48.2783 161.264 48.1391C161.496 47.6522 161.78 47.2261 162.117 46.8609C162.459 46.4957 162.812 46.1797 163.178 45.913C163.549 45.6406 163.914 45.4145 164.273 45.2348C164.638 45.0551 164.963 44.9072 165.247 44.7913C165.235 44.658 165.224 44.5217 165.212 44.3826C165.206 44.2435 165.198 44.1101 165.186 43.9826L165.143 43.4348L167.856 42.8522C167.862 42.9043 167.873 43.0261 167.891 43.2174C167.914 43.4087 167.937 43.6377 167.96 43.9043C167.989 44.1652 168.018 44.4464 168.047 44.7478C168.082 45.0435 168.111 45.3217 168.134 45.5826C168.163 45.8435 168.186 46.0696 168.204 46.2609C168.227 46.4522 168.241 46.5681 168.247 46.6087C168.334 47.3217 168.406 47.9072 168.464 48.3652C168.528 48.8232 168.58 49.1884 168.621 49.4609C168.667 49.7275 168.705 49.9217 168.734 50.0435C168.763 50.1594 168.786 50.2377 168.804 50.2783C168.891 50.4638 169.021 50.5942 169.195 50.6696C169.375 50.7391 169.612 50.7739 169.908 50.7739C170.093 50.7739 170.27 50.8087 170.438 50.8783C170.606 50.9478 170.751 51.0464 170.873 51.1739C171.001 51.2957 171.102 51.4406 171.178 51.6087C171.253 51.7768 171.291 51.9565 171.291 52.1478C171.291 52.3391 171.253 52.5188 171.178 52.687C171.102 52.8551 171.001 53 170.873 53.1217C170.751 53.2435 170.606 53.3391 170.438 53.4087C170.27 53.4841 170.093 53.5217 169.908 53.5217C169.786 53.5217 169.65 53.5159 169.499 53.5043C169.349 53.4986 169.189 53.4812 169.021 53.4522C168.859 53.429 168.688 53.3913 168.508 53.3391C168.334 53.2928 168.16 53.229 167.986 53.1478C167.743 53.0319 167.528 52.9014 167.343 52.7565C167.163 52.6058 166.989 52.4174 166.821 52.1913C166.525 52.2319 166.238 52.2609 165.96 52.2783C165.688 52.2957 165.421 52.3043 165.16 52.3043ZM165.108 49.5739C165.23 49.5739 165.354 49.571 165.482 49.5652C165.615 49.5536 165.743 49.542 165.864 49.5304C165.835 49.3333 165.804 49.113 165.769 48.8696C165.74 48.6261 165.711 48.3652 165.682 48.087L165.595 47.287C165.375 47.3971 165.128 47.5304 164.856 47.687C164.583 47.8377 164.325 48 164.082 48.1739C163.844 48.342 163.644 48.5159 163.482 48.6957C163.32 48.8696 163.238 49.0319 163.238 49.1826C163.238 49.258 163.302 49.3217 163.43 49.3739C163.563 49.4203 163.725 49.4609 163.917 49.4957C164.108 49.5246 164.311 49.5449 164.525 49.5565C164.74 49.5681 164.934 49.5739 165.108 49.5739ZM168.468 52.1478C168.468 51.9565 168.505 51.7768 168.581 51.6087C168.65 51.4406 168.746 51.2957 168.868 51.1739C168.989 51.0464 169.134 50.9478 169.302 50.8783C169.47 50.8087 169.65 50.7739 169.841 50.7739H170.737H171.128C171.343 50.7739 171.566 50.7652 171.798 50.7478C172.036 50.7304 172.256 50.6957 172.459 50.6435C172.668 50.5913 172.85 50.5188 173.007 50.4261C173.169 50.3333 173.285 50.2087 173.355 50.0522C173.401 49.9478 173.424 49.7913 173.424 49.5826C173.424 49.4435 173.384 49.2348 173.302 48.9565C173.221 48.6783 173.114 48.371 172.981 48.0348C172.847 47.6928 172.697 47.3362 172.528 46.9652C172.36 46.5942 172.189 46.2435 172.015 45.913L174.502 44.6783C174.665 45.0435 174.824 45.4319 174.981 45.8435C175.143 46.2551 175.288 46.6725 175.415 47.0957C175.543 47.5188 175.644 47.942 175.72 48.3652C175.801 48.7826 175.841 49.1826 175.841 49.5652C175.841 50.1507 175.737 50.687 175.528 51.1739C175.285 51.7188 174.952 52.171 174.528 52.5304C174.105 52.8841 173.598 53.1449 173.007 53.313C172.659 53.4116 172.326 53.4696 172.007 53.487C171.688 53.5101 171.389 53.5217 171.111 53.5217H169.92H169.841C169.65 53.5217 169.47 53.487 169.302 53.4174C169.134 53.3478 168.989 53.2493 168.868 53.1217C168.746 53 168.65 52.8551 168.581 52.687C168.505 52.5188 168.468 52.3391 168.468 52.1478ZM172.415 54.313L174.346 56.2435L172.415 58.1739L170.485 56.2435L172.415 54.313ZM188.235 60.3565C187.789 60.3565 187.325 60.313 186.844 60.2261C186.368 60.1449 185.896 60.0145 185.426 59.8348C184.957 59.6609 184.499 59.4348 184.053 59.1565C183.612 58.8841 183.206 58.5565 182.835 58.1739C182.366 57.6638 182.012 57.0783 181.774 56.4174C181.542 55.7623 181.426 55.0609 181.426 54.313C181.426 53.5942 181.54 52.9043 181.766 52.2435C181.997 51.5826 182.34 50.9623 182.792 50.3826C183.157 49.913 183.571 49.5043 184.035 49.1565C184.505 48.8087 185.003 48.4957 185.531 48.2174C185.386 48.0725 185.25 47.9072 185.122 47.7217C185 47.5362 184.893 47.3333 184.8 47.113C184.708 46.887 184.632 46.6406 184.574 46.3739C184.522 46.1072 184.496 45.8174 184.496 45.5043C184.502 45.1449 184.563 44.7942 184.679 44.4522C184.795 44.1043 184.951 43.7739 185.148 43.4609C185.345 43.1478 185.577 42.858 185.844 42.5913C186.116 42.3246 186.409 42.0928 186.722 41.8957C187.041 41.6928 187.374 41.5333 187.722 41.4174C188.076 41.2957 188.432 41.2261 188.792 41.2087C189.197 41.1913 189.574 41.2116 189.922 41.2696C190.27 41.3217 190.6 41.4087 190.913 41.5304C191.232 41.6464 191.542 41.7971 191.844 41.9826C192.145 42.1623 192.453 42.371 192.766 42.6087L191.687 44.6696C191.415 44.5246 191.128 44.3942 190.826 44.2783C190.566 44.1797 190.27 44.0957 189.94 44.0261C189.615 43.9565 189.279 43.9362 188.931 43.9652C188.711 43.9826 188.479 44.0377 188.235 44.1304C187.992 44.2232 187.766 44.3449 187.557 44.4957C187.354 44.6464 187.183 44.8232 187.044 45.0261C186.911 45.229 186.844 45.4493 186.844 45.687C186.844 45.8899 186.913 46.0783 187.053 46.2522C187.197 46.4203 187.389 46.5652 187.626 46.687C187.864 46.8029 188.14 46.8899 188.453 46.9478C188.771 47.0058 189.105 47.0232 189.453 47L192.722 46.7826L192.513 49.5043C192.055 49.5623 191.592 49.6116 191.122 49.6522C190.653 49.6928 190.174 49.7507 189.687 49.8261C189.206 49.9014 188.719 50.0058 188.226 50.1391C187.74 50.2725 187.247 50.4609 186.748 50.7043C186.615 50.7681 186.45 50.8551 186.253 50.9652C186.055 51.0754 185.847 51.2087 185.626 51.3652C185.406 51.5217 185.186 51.7014 184.966 51.9043C184.745 52.1072 184.548 52.3304 184.374 52.5739C184.2 52.8174 184.058 53.0841 183.948 53.3739C183.838 53.6696 183.783 53.9826 183.783 54.313C183.783 54.6667 183.844 54.9913 183.966 55.287C184.087 55.5826 184.255 55.8464 184.47 56.0783C184.684 56.3159 184.937 56.5246 185.226 56.7043C185.516 56.8841 185.826 57.0319 186.157 57.1478C186.487 57.2696 186.832 57.3594 187.192 57.4174C187.551 57.4754 187.911 57.5043 188.27 57.5043C188.612 57.5043 188.971 57.4783 189.348 57.4261C189.725 57.3739 190.105 57.2899 190.487 57.1739C190.876 57.0638 191.261 56.9188 191.644 56.7391C192.032 56.5652 192.406 56.3507 192.766 56.0957L194.122 58.2174C193.67 58.6 193.186 58.9246 192.67 59.1913C192.16 59.4638 191.647 59.687 191.131 59.8609C190.615 60.0348 190.108 60.1594 189.609 60.2348C189.111 60.3159 188.653 60.3565 188.235 60.3565ZM199.094 47.8696C198.972 47.8464 198.833 47.8899 198.677 48C198.526 48.1043 198.381 48.2493 198.242 48.4348C198.109 48.6145 197.996 48.8145 197.903 49.0348C197.816 49.2551 197.772 49.4667 197.772 49.6696C197.772 49.8609 197.828 50.0203 197.938 50.1478C198.048 50.2754 198.187 50.3797 198.355 50.4609C198.529 50.542 198.717 50.6029 198.92 50.6435C199.129 50.6841 199.329 50.713 199.52 50.7304H199.512C199.662 50.742 199.833 50.7507 200.025 50.7565C200.222 50.7565 200.413 50.7565 200.599 50.7565C200.657 50.7565 200.7 50.7594 200.729 50.7652C200.764 50.7652 200.793 50.7652 200.816 50.7652C200.839 50.7652 200.862 50.7652 200.885 50.7652C200.914 50.7652 200.955 50.7623 201.007 50.7565C200.92 50.3971 200.816 50.0551 200.694 49.7304C200.578 49.4 200.442 49.1043 200.285 48.8435C200.129 48.5826 199.952 48.3681 199.755 48.2C199.558 48.0261 199.338 47.9159 199.094 47.8696ZM194.833 56.9739C195.651 56.8116 196.396 56.6058 197.068 56.3565C197.741 56.113 198.329 55.8377 198.833 55.5304C199.343 55.229 199.764 54.9072 200.094 54.5652C200.43 54.2232 200.668 53.8754 200.807 53.5217C200.558 53.5217 200.294 53.5159 200.016 53.5043C199.738 53.4986 199.509 53.4899 199.329 53.4783C198.657 53.4203 198.042 53.2696 197.485 53.0261C196.929 52.7884 196.485 52.4638 196.155 52.0522C195.912 51.7391 195.738 51.4 195.633 51.0348C195.535 50.6696 195.485 50.2841 195.485 49.8783C195.485 49.5652 195.514 49.2522 195.572 48.9391C195.63 48.6203 195.712 48.313 195.816 48.0174C195.92 47.7159 196.042 47.4319 196.181 47.1652C196.326 46.8986 196.48 46.6551 196.642 46.4348C196.99 46 197.37 45.6725 197.781 45.4522C198.199 45.2261 198.636 45.113 199.094 45.113C200.074 45.113 200.958 45.542 201.746 46.4C202.025 46.713 202.274 47.0638 202.494 47.4522C202.714 47.8406 202.9 48.2551 203.051 48.6957C203.207 49.1304 203.326 49.5884 203.407 50.0696C203.488 50.5449 203.529 51.029 203.529 51.5217C203.529 51.6725 203.523 51.8232 203.512 51.9739C203.506 52.1246 203.497 52.2667 203.485 52.4C203.416 53.0783 203.262 53.713 203.025 54.3043C202.793 54.9014 202.491 55.4493 202.12 55.9478C201.755 56.4522 201.329 56.9072 200.842 57.313C200.355 57.7246 199.825 58.0841 199.251 58.3913C198.683 58.7043 198.08 58.9652 197.442 59.1739C196.804 59.3826 196.149 59.5391 195.477 59.6435L194.833 56.9739ZM210.896 53.5217C210.768 53.5217 210.588 53.513 210.357 53.4957C210.125 53.4783 209.875 53.4145 209.609 53.3043C209.481 54.0232 209.241 54.7043 208.887 55.3478C208.539 55.9971 208.107 56.6029 207.591 57.1652C207.075 57.7333 206.487 58.2551 205.826 58.7304C205.165 59.2058 204.461 59.6319 203.713 60.0087L202.122 57.8087C202.533 57.6 202.948 57.371 203.365 57.1217C203.783 56.8783 204.18 56.6174 204.557 56.3391C204.939 56.0667 205.293 55.7797 205.617 55.4783C205.948 55.1826 206.235 54.8754 206.478 54.5565C206.722 54.2377 206.913 53.9101 207.052 53.5739C207.191 53.2435 207.261 52.9072 207.261 52.5652C207.261 52.5478 207.258 52.5217 207.252 52.487C207.252 52.4522 207.252 52.4174 207.252 52.3826C207.252 52.3478 207.249 52.3217 207.244 52.3043C207.244 52.287 207.244 52.2899 207.244 52.313V52.3217C207.203 51.9855 207.145 51.6638 207.07 51.3565C206.994 51.0493 206.899 50.7362 206.783 50.4174C206.672 50.0986 206.542 49.7652 206.391 49.4174C206.241 49.0638 206.072 48.6783 205.887 48.2609L208.4 47.1652C208.632 47.8609 208.849 48.4406 209.052 48.9043C209.255 49.3681 209.452 49.7391 209.644 50.0174C209.841 50.2957 210.038 50.4928 210.235 50.6087C210.432 50.7188 210.641 50.7739 210.861 50.7739H210.904C211.096 50.7739 211.275 50.8116 211.444 50.887C211.612 50.9623 211.757 51.0638 211.878 51.1913C212.006 51.313 212.104 51.458 212.174 51.6261C212.249 51.7942 212.287 51.971 212.287 52.1565C212.287 52.3478 212.249 52.5275 212.174 52.6957C212.104 52.8638 212.006 53.0087 211.878 53.1304C211.757 53.2522 211.612 53.3478 211.444 53.4174C211.275 53.487 211.093 53.5217 210.896 53.5217ZM209.499 52.1565C209.499 51.9768 209.533 51.8058 209.603 51.6435C209.672 51.4812 209.765 51.3391 209.881 51.2174C209.997 51.0899 210.136 50.9884 210.299 50.913C210.455 50.8319 210.623 50.7855 210.803 50.7739C211.238 50.7739 211.603 50.658 211.899 50.4261C212.2 50.1884 212.458 49.8783 212.672 49.4957C212.887 49.113 213.07 48.6783 213.22 48.1913C213.371 47.6986 213.513 47.1971 213.646 46.687L215.959 47.1043C215.913 47.3072 215.855 47.5449 215.786 47.8174C215.722 48.0841 215.661 48.3623 215.603 48.6522C215.551 48.942 215.507 49.2261 215.472 49.5043C215.438 49.7768 215.429 50.0174 215.446 50.2261C215.47 50.4348 215.525 50.6 215.612 50.7217C215.699 50.8377 215.832 50.8812 216.012 50.8522C216.244 50.8348 216.452 50.7536 216.638 50.6087C216.829 50.4638 217 50.2783 217.151 50.0522C217.301 49.8261 217.435 49.571 217.551 49.287C217.667 49.0029 217.765 48.7101 217.846 48.4087C217.933 48.1072 218.003 47.8087 218.055 47.513C218.113 47.2174 218.159 46.9478 218.194 46.7043L220.403 47.0783C220.397 47.2522 220.377 47.4667 220.342 47.7217C220.307 47.9768 220.275 48.2464 220.246 48.5304C220.217 48.8087 220.203 49.0899 220.203 49.3739C220.203 49.6522 220.235 49.9043 220.299 50.1304C220.362 50.3507 220.467 50.5304 220.612 50.6696C220.762 50.8087 220.971 50.8783 221.238 50.8783C221.4 50.8783 221.565 50.8522 221.733 50.8C221.901 50.742 222.052 50.6638 222.186 50.5652C222.319 50.4609 222.426 50.3391 222.507 50.2C222.594 50.0609 222.638 49.9043 222.638 49.7304C222.638 49.429 222.588 49.0986 222.49 48.7391C222.391 48.3739 222.272 48.0145 222.133 47.6609C221.994 47.3014 221.846 46.9623 221.69 46.6435C221.539 46.3246 221.412 46.0551 221.307 45.8348L223.464 44.6261C223.499 44.7014 223.559 44.8348 223.646 45.0261C223.733 45.2116 223.832 45.4377 223.942 45.7043C224.052 45.971 224.165 46.2725 224.281 46.6087C224.403 46.9391 224.513 47.2841 224.612 47.6435C224.71 48.0029 224.791 48.371 224.855 48.7478C224.919 49.1246 224.951 49.4899 224.951 49.8435C224.951 50.4232 224.87 50.9449 224.707 51.4087C224.551 51.8725 224.31 52.2667 223.986 52.5913C223.667 52.9159 223.264 53.1681 222.777 53.3478C222.296 53.5275 221.73 53.6203 221.081 53.6261C220.768 53.6261 220.484 53.5942 220.229 53.5304C219.974 53.4725 219.745 53.3884 219.542 53.2783C219.339 53.1739 219.157 53.0493 218.994 52.9043C218.838 52.7594 218.699 52.6058 218.577 52.4435C218.438 52.6232 218.287 52.7855 218.125 52.9304C217.968 53.0696 217.786 53.1884 217.577 53.287C217.374 53.3913 217.145 53.4725 216.89 53.5304C216.635 53.5884 216.345 53.6203 216.02 53.6261C215.736 53.6319 215.478 53.6058 215.246 53.5478C215.02 53.4957 214.812 53.4174 214.62 53.313C214.429 53.2087 214.255 53.0841 214.099 52.9391C213.948 52.7884 213.806 52.6232 213.672 52.4435C213.551 52.5942 213.412 52.7362 213.255 52.8696C213.099 52.9971 212.913 53.1101 212.699 53.2087C212.484 53.3072 212.235 53.3855 211.951 53.4435C211.667 53.5014 211.336 53.5304 210.959 53.5304H210.803C210.623 53.5188 210.455 53.4754 210.299 53.4C210.136 53.3246 209.997 53.2261 209.881 53.1043C209.765 52.9826 209.672 52.8406 209.603 52.6783C209.533 52.5159 209.499 52.342 209.499 52.1565ZM222.281 42.9391L220.612 44.6174L218.959 42.9652L217.325 44.6L215.638 42.9217L217.307 41.2435L218.959 42.8957L220.594 41.2609L222.281 42.9391ZM217.412 40.4174L218.959 38.8696L220.516 40.4261L218.968 41.9739L217.412 40.4174Z" fill="#6566B0"/>
<path d="M107.85 94.3611C107.603 110.713 107.192 127.073 107.17 143.428C107.16 151.072 107.312 158.718 107.637 166.356C107.786 169.869 106.893 174.11 110.078 176.225C114.688 179.285 124.197 177.826 129.234 177.502C136.666 177.023 143.999 176.808 151.45 177.23C160.059 177.718 168.626 178.753 177.23 179.332C183.085 179.724 188.807 180.595 193.854 177.178C196.147 175.626 193.985 171.875 191.67 173.442C186.192 177.151 176.889 175.013 170.781 174.497C164.339 173.951 157.904 173.274 151.448 172.903C145.067 172.531 138.668 172.545 132.289 172.947C126.57 173.312 114.773 176.178 112.113 169.629C110.133 164.752 111.583 155.298 111.525 149.979C111.462 144.098 111.521 138.217 111.602 132.336C111.779 119.679 111.985 107.02 112.177 94.3629C112.219 91.5763 107.892 91.5763 107.85 94.3629V94.3611Z" fill="#1D1E65"/>
<path d="M119.357 161.534C119.417 162.174 124.744 156.579 124.751 156.57C128.367 152.205 131.943 147.809 135.537 143.429C136.472 142.29 139.3 137.769 140.439 137.454C142.699 136.831 142.848 138.186 144.641 139.816C147.506 142.419 152.198 143.792 154.453 146.829C155.202 147.837 156.873 148.446 157.851 147.267C163.482 140.472 169.686 134.695 175.8 128.405C177.734 126.417 178.715 124.25 180.113 121.91C182.421 118.054 185.126 115.934 188.646 113.201C190.844 111.494 187.763 108.453 185.588 110.141C183.116 112.058 180.138 113.876 178.225 116.396C176.269 118.974 175.501 121.979 173.377 124.49C167.579 131.353 160.587 137.213 154.791 144.207L158.19 144.645C157.03 143.088 156.286 142.43 154.72 141.291C151.31 138.813 147.757 135.517 144.292 133.272C141.547 131.493 139.74 132.262 137.379 134.396C131.453 139.756 126.891 147.423 121.693 153.51C119.789 155.738 114.709 158.137 115.03 161.534C115.289 164.283 119.616 164.31 119.357 161.534Z" fill="#1D1E65"/>
<path d="M185.333 113.483C185.321 116.872 184.002 120.103 184.45 123.514C184.809 126.235 189.141 126.271 188.777 123.514C188.332 120.126 189.648 116.866 189.66 113.481C189.669 110.696 185.342 110.695 185.333 113.481V113.483Z" fill="#1D1E65"/>
<path d="M184.094 109.888C181.56 110.482 179.033 110.586 176.451 110.293C173.689 109.98 173.71 114.308 176.451 114.62C179.411 114.956 182.344 114.739 185.243 114.061C187.956 113.427 186.808 109.255 184.094 109.89V109.888Z" fill="#1D1E65"/>
</svg>
