<svg id="Layer_1" data-name="Layer 1" xmlns="http://www.w3.org/2000/svg" xmlns:xlink="http://www.w3.org/1999/xlink" viewBox="0 0 1080 1080"><defs><style>.cls-1{fill:none;stroke:#6566b0;stroke-linejoin:round;stroke-width:4px;}.cls-2{isolation:isolate;}.cls-3{clip-path:url(#clip-path);}.cls-4{clip-path:url(#clip-path-2);}.cls-5{clip-path:url(#clip-path-3);}.cls-6{clip-path:url(#clip-path-4);}.cls-7{clip-path:url(#clip-path-5);}.cls-8{clip-path:url(#clip-path-6);}.cls-9{fill:#22e64d;}</style><clipPath id="clip-path"><path class="cls-1" d="M987.81,860.64l83.2,5.45-14,30.5-49.18-3.22"/></clipPath><clipPath id="clip-path-2"><polyline class="cls-1" points="977.24 910.55 1075.78 893.32 1067.62 846.68 969.08 863.92"/></clipPath><clipPath id="clip-path-3"><path class="cls-1" d="M1030.39,929l-14,30.51c-.16.34-.64.56-1.5.77q-25.32,6.2-50.5,12.6a3.93,3.93,0,0,1-1.36.15c-.79-.09-1.25-.61-1.86-1.58q-20.61-32.65-41.36-65.27l-1-1.49,14-30.5c.43.67.7,1.07,1,1.49q20.7,32.63,41.36,65.27c.61,1,1.07,1.49,1.85,1.58a4,4,0,0,0,1.37-.15q25.17-6.4,50.5-12.6C1029.74,929.61,1030.23,929.39,1030.39,929Z"/></clipPath><clipPath id="clip-path-4"><path class="cls-1" d="M932.85,874.23l-14,30.5-54.62,39.79,14-30.5Z"/></clipPath><clipPath id="clip-path-5"><path class="cls-1" d="M878.22,914l-14,30.5c-9.62-73.77-19.2-147.3-28.85-221.3l14-30.51C859,766.71,868.61,840.24,878.22,914Z"/></clipPath><clipPath id="clip-path-6"><rect class="cls-1" x="842.45" y="693.31" width="28.73" height="250.61" transform="translate(-128.25 159.89) rotate(-9.92)"/></clipPath></defs><title>Web_SVG</title><g class="cls-2"><polygon class="cls-1" points="789.17 276.77 565.66 342.98 785.75 558.34 1009.26 492.13 789.17 276.77"/><polyline class="cls-1" points="884.11 720.7 1009.26 492.13 785.75 558.34 649.38 807.4 839.4 751.11"/><polygon class="cls-1" points="565.66 342.98 429.29 592.04 649.38 807.4 785.75 558.34 565.66 342.98"/></g><g class="cls-2"><polygon class="cls-1" points="292.07 732.86 216.6 637.99 155.64 786.06 231.1 880.93 292.07 732.86"/><polygon class="cls-1" points="155.64 786.06 8.99 768.83 84.45 863.7 231.1 880.93 155.64 786.06"/><polygon class="cls-1" points="216.6 637.99 69.95 620.76 8.99 768.83 155.64 786.06 216.6 637.99"/></g><g class="cls-2"><polygon class="cls-1" points="182.72 263.24 264.07 296.56 250.22 181.26 168.87 147.94 182.72 263.24"/><polygon class="cls-1" points="250.22 181.26 349.13 140.23 267.78 106.92 168.87 147.94 250.22 181.26"/><polygon class="cls-1" points="264.07 296.56 362.99 255.53 349.13 140.23 250.22 181.26 264.07 296.56"/></g><g class="cls-3"><g class="cls-4"><path class="cls-1" d="M987.81,860.64l83.2,5.45"/><path class="cls-1" d="M1071,866.09l-14,30.5"/></g><polyline class="cls-1" points="977.24 910.55 1075.78 893.32 1067.62 846.68 969.08 863.92"/></g><path class="cls-1" d="M987.81,860.64l83.2,5.45-14,30.5-49.18-3.22"/><g class="cls-5"><path class="cls-1" d="M1030.39,929l-14,30.51a.76.76,0,0,1-.18.23l14-30.5a.61.61,0,0,0,.19-.24"/><path class="cls-1" d="M1030.2,929.28l-14,30.5a3.15,3.15,0,0,1-1.32.54q-25.32,6.2-50.5,12.6a3.93,3.93,0,0,1-1.36.15,1.7,1.7,0,0,1-.77-.28l14-30.5a1.74,1.74,0,0,0,.76.28,4,4,0,0,0,1.37-.15q25.17-6.4,50.5-12.6a3.15,3.15,0,0,0,1.31-.54"/><path class="cls-1" d="M976.26,942.29l-14,30.5a4.39,4.39,0,0,1-1.09-1.3q-20.61-32.65-41.36-65.27l-1-1.49,14-30.5c.43.67.7,1.07,1,1.49q20.7,32.63,41.36,65.27a4.12,4.12,0,0,0,1.09,1.3"/></g><path class="cls-1" d="M1030.39,929l-14,30.51c-.16.34-.64.56-1.5.77q-25.32,6.2-50.5,12.6a3.93,3.93,0,0,1-1.36.15c-.79-.09-1.25-.61-1.86-1.58q-20.61-32.65-41.36-65.27l-1-1.49,14-30.5c.43.67.7,1.07,1,1.49q20.7,32.63,41.36,65.27c.61,1,1.07,1.49,1.85,1.58a4,4,0,0,0,1.37-.15q25.17-6.4,50.5-12.6C1029.74,929.61,1030.23,929.39,1030.39,929Z"/><g class="cls-6"><path class="cls-1" d="M932.85,874.23l-14,30.5-54.62,39.79,14-30.5,54.63-39.79"/></g><path class="cls-1" d="M932.85,874.23l-14,30.5-54.62,39.79,14-30.5Z"/><g class="cls-7"><g class="cls-8"><path class="cls-1" d="M878.22,914l-14,30.5c-9.62-73.77-19.2-147.3-28.85-221.3l14-30.51c9.65,74,19.24,147.53,28.85,221.31"/></g><rect class="cls-1" x="842.45" y="693.31" width="28.73" height="250.61" transform="translate(-128.25 159.89) rotate(-9.92)"/></g><path class="cls-1" d="M878.22,914l-14,30.5c-9.62-73.77-19.2-147.3-28.85-221.3l14-30.51C859,766.71,868.61,840.24,878.22,914Z"/><path class="cls-1" d="M849.37,692.71,1071,866.09l-83.2-5.45c-.24.56.31,1,.6,1.47q20.67,32.64,41.43,65.25c1,1.55.82,2-.95,2.46q-25.32,6.18-50.5,12.6a4,4,0,0,1-1.37.15c-.78-.09-1.24-.61-1.85-1.58q-20.62-32.65-41.36-65.27c-.26-.42-.53-.82-1-1.49L878.22,914C868.61,840.24,859,766.71,849.37,692.71Z"/><path class="cls-9" d="M216.26,225.81l-5.86,10.88,18,6a1.09,1.09,0,0,1,.76,1.26h0l-.08.32L226,249.35a1.14,1.14,0,0,1-1.43.45l-25.89-9.33,7.19-14.34-5,.16,1.76-3.38,5.13-.23,11.69-23.27a1.33,1.33,0,0,1,1.48-.78l7.62,1.57a1.05,1.05,0,0,1,.8,1.3h0l-.09.37-10.87,20.26,5.77-.25L222,225.75Z"/><path class="cls-9" d="M292.82,225.71c5.51-4.72,10.86-9.32,16.13-13.85l18.55,2.23-14.06,15.32Z"/><path class="cls-9" d="M305.62,189.54l-3.26-3.17-.11.34c0,.1-.06.19-.08.28q-4.69,15-9.34,29.91c-.46,1.45-1.39,4.57-1.39,4.57s.41-.31.53-.42l12.19-10.4,3.65-3.11,7.92,1,10.95,1.4S312.72,196.41,305.62,189.54Z"/><path class="cls-9" d="M328.83,218.46l-11.08,12.32-3.11,3.45-.38-.06-13.69-2.62-6.52-1.19,24.39,18.12.33-.91q3.59-10,7.15-20c1.12-3.12,3.45-9.7,3.45-9.7Z"/><path class="cls-9" d="M782.08,456.57q-9.26-10.24-18.23-20.23c-.51-.55-.77-.54-1.32-.21-3.45,2.14-7,4.27-10.58,6.49-.49.3-.71.29-1.11-.18q-4.07-4.67-8.15-9.22c-.41-.45-.34-.62.15-.9,3.68-2.07,7.26-4.15,10.82-6.13.59-.33.52-.54.1-1Q736.5,406.1,720.19,388c-.4-.44-.43-.61.17-.88,10.83-4.67,21-9.25,30.92-13.36A62.2,62.2,0,0,1,777.69,369a60,60,0,0,1,26,7.08,81.59,81.59,0,0,1,12.89,8.45,113.39,113.39,0,0,1,12.55,11.69,71.22,71.22,0,0,1,11.6,16c4.75,9.28,5.74,18.18,2.64,26.72a34,34,0,0,1-7.18,11.54,44.25,44.25,0,0,1-5,4.55c-3.49,2.76-7,5.63-10.68,8.53-5.85,4.67-11.92,9.49-18.19,14.53-.46.37-.66.29-1.07-.18Q791.58,467.07,782.08,456.57Zm-20.06-52c3.2,3.44,6.44,6.89,9.66,10.39.43.46.65.55,1.17.25,5.75-3.32,11.36-6.5,16.78-9.61.37-.21.55-.23.94.18q3.78,4,7.69,8c.34.35.23.46-.06.63q-4.55,2.74-9.25,5.62c-2.44,1.49-4.9,3-7.43,4.51-.49.28-.47.47,0,.92q10.11,10.81,20.5,22c.45.48.66.45,1.06.16q5.61-4,11-7.86a26.58,26.58,0,0,0,7.31-7.42q6-9.48-.25-20.87a47.33,47.33,0,0,0-7.42-9.82,63.52,63.52,0,0,0-12.59-10.41A40.88,40.88,0,0,0,782.74,385a36.91,36.91,0,0,0-19.06,3.35c-3.65,1.71-7.28,3.55-11,5.35-.46.22-.46.36-.1.74Q757.27,399.5,762,404.61Z"/><path class="cls-9" d="M98,741.22c.06,0,0,0,0-.07l-.1-.16L82.78,715.81c-.11-.18-.11-.18.1-.34l9.67-7.4c.13-.1.18-.09.25,0q4.78,7.7,9.71,15.62c.1.15.17.15.33,0l17.81-13.3c.16-.13.22-.11.31,0l6.09,9.22c.1.15.08.21-.09.33l-28.64,21c-.06.05-.18.06-.16.18Z"/><path class="cls-9" d="M118,665.58c-.06,0,0,0,0,.07l.1.15q8.15,11.64,16.68,23.83c.1.15.08.22-.1.35l-10.43,7.88c-.16.12-.22.12-.32,0q-5.2-7.74-10.29-15.24c-.09-.13-.14-.14-.3,0L96.05,696c-.16.12-.22.12-.3,0q-2.72-4.28-5.4-8.46c-.09-.14,0-.2.09-.31l27.25-21.41c.06,0,.17-.07.16-.18Z"/><path class="cls-9" d="M73.56,700.38s0,0,0,0l.15-.12,9.37-7.36c.13-.11.18-.1.25,0q2.63,4.23,5.3,8.51c.07.12.06.17-.07.28q-4.83,3.72-9.58,7.42c-.15.12-.2.08-.27,0q-2.56-4.29-5.11-8.49s0-.15-.12-.1Z"/><path class="cls-9" d="M146.12,706c-.08,0-.13.07-.19.12q-5.43,4-10.79,7.93c-.17.12-.23.12-.33,0q-3.13-4.66-6.23-9.23c-.1-.14-.06-.2.08-.31l10.61-7.91c.16-.12.22-.11.31,0q3.24,4.65,6.55,9.37Z"/><path class="cls-9" d="M116.48,703.69l-.06.06-.12.09L106,711.62c-.15.11-.21.11-.3,0q-2.88-4.55-5.73-9c-.08-.12-.07-.17.07-.28l10.15-7.78c.14-.11.19-.11.28,0l5.92,9Z"/><path class="cls-9" d="M866.13,596.94c0,.15.17.19.3.23a41.78,41.78,0,0,1,5.17,2.13,35.66,35.66,0,0,1,5.14,3,32.94,32.94,0,0,1,6.51,6.09c.6.75,1.16,1.53,1.69,2.32s.84,1.32,1.22,2a28.4,28.4,0,0,1,3.22,9.51,31,31,0,0,1,.34,5.55,33.44,33.44,0,0,1-.52,4.84c-.11.62-.26,1.24-.39,1.86-.28,1.27-.71,2.52-1.12,3.77a28.92,28.92,0,0,1-1.29,3.2,42.66,42.66,0,0,1-2.57,4.78,49.37,49.37,0,0,1-3.35,4.75A53.28,53.28,0,0,1,876,656c-1.37,1.33-2.82,2.58-4.35,3.8-1,.8-2.06,1.57-3.14,2.3a61.23,61.23,0,0,1-5.52,3.39,68.14,68.14,0,0,1-7,3.29A64.13,64.13,0,0,1,844,672.18c-1.65.31-3.3.54-5,.72-1.17.12-2.34.17-3.53.29a40.63,40.63,0,0,0-6.93,1,32.49,32.49,0,0,0-8,3.35,33.74,33.74,0,0,0-6.82,5.23,25.58,25.58,0,0,0-3.42,4.13c-2.25,3.47-4.53,7-6.81,10.59a14,14,0,0,1-1.79,2.42,15.66,15.66,0,0,1-7.65,4.33,12.74,12.74,0,0,1-2.75.31,6.2,6.2,0,0,1-4.2-1c-1.38-1.1-1.77-2.64-1-4.66a19.44,19.44,0,0,1,2.37-4q5.81-8.45,11.35-16.47,5.29-7.7,10.35-15,5.29-7.67,10.36-15L830,634.72c1.29-1.87,2.55-3.72,3.86-5.53a8.74,8.74,0,0,1,7-3.34c2.82,0,5.07,1.49,5.52,3.67a4.57,4.57,0,0,1-.76,3.56c-1,1.48-1.94,3-2.93,4.46q-3.62,5.46-7.39,11.15c-1.77,2.68-3.59,5.39-5.39,8.15-1.14,1.77-2.22,3.57-3.34,5.39-.24.39-.08.56.44.45a41.08,41.08,0,0,1,4.65-.68c.92-.08,1.83-.14,2.73-.19,1.18-.08,2.35-.14,3.51-.2.55,0,1.11-.06,1.66-.07,1.49,0,3-.11,4.44-.22,1.11-.09,2.23-.24,3.34-.43a45.23,45.23,0,0,0,16-6,43.46,43.46,0,0,0,5.43-3.92,37,37,0,0,0,4.55-4.57,33.89,33.89,0,0,0,3-4.12,29.52,29.52,0,0,0,1.77-3.32,26.59,26.59,0,0,0,1.26-3.18,30,30,0,0,0,.86-3.61,22.38,22.38,0,0,0,.22-5.82,20.45,20.45,0,0,0-1.9-7,22.41,22.41,0,0,0-1.13-2.1,21.92,21.92,0,0,0-4-4.77,25.11,25.11,0,0,0-4.86-3.4,28.6,28.6,0,0,0-4.65-2c-.81-.26-1.64-.49-2.48-.7a36.34,36.34,0,0,0-10.59-1,42.89,42.89,0,0,0-11,2c-1.3.4-2.57.9-3.85,1.41a42.41,42.41,0,0,0-5.76,2.88,40.94,40.94,0,0,0-5.43,3.81,37.43,37.43,0,0,0-7.42,8.2,32.22,32.22,0,0,0-3.39,6.7,20.69,20.69,0,0,0-1.33,7.17c0,.34,0,.67,0,1-.19,2.56-1.76,4.75-5,6.44a10.84,10.84,0,0,1-7.1,1.16c-3.7-.69-5.4-2.55-5.3-5.44a38.54,38.54,0,0,1,.47-4.76,31.37,31.37,0,0,1,1.08-4.48,17.13,17.13,0,0,1,.84-2.4c.08-.16.14-.33-.06-.44l2.2-4.72a.59.59,0,0,0,.44-.37,34.5,34.5,0,0,1,2.64-4.19,51.12,51.12,0,0,1,7.22-8.14,61.25,61.25,0,0,1,16.29-10.64c1.68-.75,3.37-1.44,5.1-2a61.9,61.9,0,0,1,15.24-3.32,57.74,57.74,0,0,1,8.81-.09,48.36,48.36,0,0,1,6,.76.38.38,0,0,0,.37-.06Z"/><path class="cls-9" d="M823.7,702.37c.11,0,.15-.12.08-.14s-.37-.09-.56-.14c-3.87-1-4.8-4.7-2.1-8.79a14.79,14.79,0,0,1,9-6.38c3.34-.82,5.68-.15,7.05,1.7,1.2,1.62,1.11,3.71-.08,6.18-1.45,3-4,5.11-7.48,6.6a3.22,3.22,0,0,0-.46.21c-.09,0-.07.11,0,.11Z"/><path class="cls-9" d="M624.73,605.21a44,44,0,0,1,3.43,6.07,26.15,26.15,0,0,1,2.18,16.54,28.1,28.1,0,0,1-3.18,8.28,33.94,33.94,0,0,1-9.06,10.73c-5.17,3.83-10.79,4.31-16.69,2.26a42.78,42.78,0,0,1-10.8-5.92A86.58,86.58,0,0,1,583,637c-.4-.36-.58-.27-.84.16-3.28,5.45-6.57,10.84-9.81,16.22-.28.47-.44.52-.84.11q-3.82-4-7.67-7.85a.67.67,0,0,1-.13-1q4.78-7.93,9.6-16c.3-.48.3-.72-.13-1.13-2-1.95-4-3.93-5.92-5.91-.36-.37-.53-.36-.8.1-3.17,5.38-6.35,10.7-9.48,16-.29.49-.46.59-.9.13q-3.71-3.86-7.43-7.59a.69.69,0,0,1-.11-1c3.18-5.39,6.36-10.83,9.58-16.27a.71.71,0,0,0-.14-1.08q-8-7.9-15.76-15.7c-.39-.39-.44-.57-.06-1q4-5,8.07-10.12c.25-.33.4-.27.65,0,2,2,3.9,4,5.92,5.83A3.16,3.16,0,0,0,562,590q13.93-23.93,28.32-48.67a8.3,8.3,0,0,0-.81-8.66,51.18,51.18,0,0,0-4.56-4.3q-1.32-1.2-2.67-2.34c-.29-.24-.38-.4-.14-.81,2.14-3.7,4.27-7.41,6.39-11.16.3-.54.49-.28.75-.05q8.57,7.63,17.27,15.4c.45.4.64.4,1-.19,3.42-5.87,6.89-11.75,10.35-17.69.29-.5.47-.55.87-.19q4.15,3.64,8.37,7.25c.39.33.42.55.13,1-3.46,5.8-6.87,11.58-10.3,17.31-.34.56-.26.79.16,1.16q3.21,2.79,6.4,5.69c.46.42.65.31,1-.21,3.41-5.73,6.87-11.47,10.32-17.27.32-.55.53-.61,1-.2,2.83,2.5,5.71,5,8.6,7.46.42.35.46.58.15,1.09q-5.37,8.77-10.62,17.49c-.57.93-.57.93.15,1.71a72.13,72.13,0,0,1,7.41,9.41,38.41,38.41,0,0,1,5.61,12.65A25.82,25.82,0,0,1,645.14,593a26.85,26.85,0,0,1-6.5,9.06A14.35,14.35,0,0,1,626,605.46Zm-43-8.48q-3.39,5.7-6.75,11.34c-.24.41-.24.61.11.94,1.09,1,2.15,2.12,3.23,3.19a72.6,72.6,0,0,0,11.86,10,21.73,21.73,0,0,0,7.73,3.27c7.52,1.32,11.73-7,11-13.23a21.1,21.1,0,0,0-2-6.72A46.27,46.27,0,0,0,598.61,594c-3-3.21-6.21-6-9.34-8.92-.35-.32-.49-.2-.7.16Q585.17,591,581.76,596.73Zm20.32-34.21q-3.17,5.34-6.33,10.66c-.15.27-.35.48,0,.81,3.69,3.48,7.32,7.12,11.49,9.84a19.57,19.57,0,0,0,7.48,3.22c4.32.69,7.88-1.59,9.92-6.27a14.28,14.28,0,0,0-.3-12,35.22,35.22,0,0,0-7.43-10.25c-2.45-2.51-5.1-4.66-7.65-6.94-.39-.35-.56-.29-.82.17Q605.26,557.18,602.08,562.52Z"/><path class="cls-9" d="M283,144.26c-.08-.95-.18-1.85-.31-2.72a6.33,6.33,0,0,0-.47-1.94,3.55,3.55,0,0,0-1.42-1.15c-.93-.56-1.85-1.09-2.75-1.6l-7.31-4.15c-2.05-1.16-4-2.24-5.74-3.26l-.86-.5a1.68,1.68,0,0,0-1-.15,1.7,1.7,0,0,0-.34-.07,1.17,1.17,0,0,0-1,.2c-.26.35-.58.72-.91,1.09l-.68.73-.17.18,0,0,0,0-.12.11-.43.45c-1.37,1.4-3,3-4.77,4.71-2,2-4.38,4.19-7.09,6.76-2.23,2.11-4.74,4.48-7.55,7.17-1.53,1.47-4.29,3.75-2.17,5,1,.6,2.57.27,4.06,0,1.16-.22,2.3-.45,3.43-.69q3.63-.75,7-1.53c8.77-2,16.44-4,23.45-5.48,1.52-.32,3-.62,4.49-.89a5.21,5.21,0,0,0,2.05-.66A1.63,1.63,0,0,0,283,144.26Zm-2.5-.41c-.82-.41-1.66-.79-2.47-1.16-1.62-.73-3.22-1.42-4.78-2.08l-2.26-.94c2,.16,4,.31,5.93.39,1.1.05,2.24.09,3.29,0,0,.28.08.56.11.85.08.82.11,1.67.14,2.57C280.49,143.61,280.5,143.73,280.52,143.85ZM267.5,132l7,4.12c1.49.88,3.1,1.79,4.66,2.77h-.27c-.74,0-1.51,0-2.27,0s-1.46-.07-2.38-.14l-2.54-.19c-1.17-.1-2.34-.2-3.51-.28-.18-.35-.4-.7-.6-1l-1.11-1.82c-.42-.68-.82-1.33-1.19-2l-.54-1v-.05l0-.08a2.39,2.39,0,0,1-.12-.22c-.08-.15-.15-.29-.22-.44a8.61,8.61,0,0,1-.64-1.6l-.06-.34C264.88,130.49,266.16,131.24,267.5,132Zm-18.65,12.81c2.59-2.67,4.85-5,6.81-7,1.82-1.89,3.42-3.58,4.8-5.09.61-.67,1.19-1.31,1.71-1.92.06.16.12.33.19.5a35.46,35.46,0,0,0,1.89,3.84l1.07,1.94c.15.28.31.56.45.84l.16.32,0,.05a.54.54,0,0,0,.05.11c-.15.05-.28.12-.42.18-1.59.73-3.07,1.63-4.68,2.54-2.78,1.54-5.84,3.25-9.3,5.1-2.06,1.09-4.27,2.24-6.66,3.43l-1.45.7C245.43,148.33,247.22,146.5,248.85,144.83Zm9.32,4.54c-4,.89-8.25,1.81-12.76,2.68l-.52.1c2.53-1.28,4.83-2.56,7-3.75,3.7-2.06,6.92-4,9.82-5.69,1.89-1.12,3.61-2.19,5.35-3.13l.18-.09c1.07.5,2.2,1,3.35,1.47,1.75.76,3.56,1.54,5.39,2.38.88.4,1.77.82,2.65,1.26l.69.35-.8.11C272.23,146.13,265.6,147.72,258.17,149.37Z"/><path class="cls-9" d="M203.74,741.87q2.82-6.07,5.59-12a.33.33,0,0,1,.31-.22l5.39-.45a.49.49,0,0,1,.34.13q3.76,3.38,7.57,6.75c.16.14.17.22.1.37q-2.62,5.92-5.3,12c-.07.16-.13.18-.29,0-1.22-1.12-2.43-2.21-3.64-3.31-.14-.14-.21-.16-.28,0q-1.78,4-3.63,8.07c-.07.16-.05.24.11.38q3.86,3.52,7.74,7.11c.17.16.24.18.33,0q3.6-8.34,7.09-16.41a.36.36,0,0,1,.32-.25c1.81-.15,3.61-.32,5.41-.49a.46.46,0,0,1,.37.15l15.79,14.09a1.43,1.43,0,0,1,.39.61l2.39,7.73a.94.94,0,0,1,0,.62c-.85,2.22-6.91,18-10.16,26.47a.28.28,0,0,1-.26.22l-5.82.65a.44.44,0,0,1-.35-.14l-8.21-7.68c-.16-.15-.2-.23-.12-.41q2.76-6.72,5.42-13.28c.07-.18.14-.17.29,0l3.83,3.53c.15.14.21.14.27,0q1.68-4.23,3.35-8.37c.07-.17,0-.24-.11-.38q-4-3.6-7.92-7.19c-.18-.16-.24-.16-.32,0q-3.5,8.45-7.13,17.15a.34.34,0,0,1-.31.25l-5.73.6a.4.4,0,0,1-.36-.14l-16.05-15a.88.88,0,0,1-.23-.41c-.63-2.55-2-7.92-2-7.92h0a.42.42,0,0,1,0-.33v0S201.82,746,203.74,741.87Z"/><path class="cls-9" d="M135.32,851.54,104.8,838.46,87.63,812.73l15.15-12.22,31.82,14.66,15.29,25.12Zm-7.16-31.46L110,811.86l-8.64,6.91,9.73,14.87,17.71,7.7,8.44-6.6Z"/></svg>