<svg width="96" height="96" viewBox="0 0 96 96" fill="none" xmlns="http://www.w3.org/2000/svg">
<g clip-path="url(#clip0_3613_19686)">
<path d="M25.266 77.648H4.49001C3.37401 77.648 3.00001 77.648 3.00001 75.626V70.816C3.00001 70.4181 2.84198 70.0366 2.56067 69.7553C2.27937 69.474 1.89784 69.316 1.50001 69.316C1.10219 69.316 0.720655 69.474 0.43935 69.7553C0.158046 70.0366 1.0252e-05 70.4181 1.0252e-05 70.816V75.626C-0.11305 76.2647 -0.0795573 76.9209 0.0979603 77.5448C0.275478 78.1688 0.592384 78.7443 1.02477 79.2279C1.45716 79.7115 1.99373 80.0907 2.59401 80.3366C3.19429 80.5826 3.84259 80.6891 4.49001 80.648H25.266C25.6638 80.648 26.0454 80.4899 26.3267 80.2086C26.608 79.9273 26.766 79.5458 26.766 79.148C26.766 78.7501 26.608 78.3686 26.3267 78.0873C26.0454 77.806 25.6638 77.648 25.266 77.648ZM1.50001 66.094C1.89784 66.094 2.27937 65.9359 2.56067 65.6546C2.84198 65.3733 3.00001 64.9918 3.00001 64.594V15.01L48.4 15.088V40.0979C48.4 40.4958 48.5581 40.8773 48.8394 41.1586C49.1207 41.4399 49.5022 41.5979 49.9 41.5979C50.2978 41.5979 50.6794 41.4399 50.9607 41.1586C51.242 40.8773 51.4 40.4958 51.4 40.0979V15.088C51.4075 14.2767 51.0925 13.4957 50.5243 12.9167C49.9561 12.3376 49.1812 12.0079 48.37 12H4.27201L11.132 6.19995H54.732C55.3685 6.19995 55.979 6.45281 56.4291 6.90289C56.8792 7.35298 57.132 7.96343 57.132 8.59995V39.04C57.132 39.4378 57.2901 39.8193 57.5714 40.1006C57.8527 40.3819 58.2342 40.54 58.632 40.54C59.0298 40.54 59.4114 40.3819 59.6927 40.1006C59.974 39.8193 60.132 39.4378 60.132 39.04V8.59995C60.132 7.16778 59.5631 5.79427 58.5504 4.78157C57.5377 3.76888 56.1642 3.19995 54.732 3.19995H10.584C10.2296 3.19974 9.88665 3.32517 9.61601 3.55395L0.70601 11.102C0.495371 11.318 0.330721 11.5745 0.22201 11.856C0.0827606 12.0796 0.00609361 12.3366 1.0252e-05 12.6V64.5999C0.0015974 64.9967 0.160333 65.3767 0.441466 65.6567C0.722599 65.9367 1.10322 66.094 1.50001 66.094Z" fill="#48FB6F"/>
<path d="M54.284 39.562C54.6818 39.562 55.0634 39.404 55.3447 39.1227C55.626 38.8414 55.784 38.4599 55.784 38.062V12.08C55.7824 10.8985 55.3129 9.76572 54.4782 8.9295C53.6435 8.09329 52.5115 7.62174 51.33 7.61804L13.838 7.54004C13.4402 7.54004 13.0587 7.69807 12.7774 7.97938C12.496 8.26068 12.338 8.64221 12.338 9.04004C12.338 9.43786 12.496 9.81939 12.7774 10.1007C13.0587 10.382 13.4402 10.54 13.838 10.54L51.332 10.618C51.7192 10.6191 52.0903 10.7735 52.3639 11.0475C52.6376 11.3215 52.7915 11.6928 52.792 12.08V38.062C52.792 38.4585 52.9489 38.8388 53.2285 39.1199C53.5081 39.401 53.8876 39.5599 54.284 39.562ZM74.944 68.118C74.5462 68.118 74.1647 68.2761 73.8834 68.5574C73.602 68.8387 73.444 69.2202 73.444 69.618V82.09C73.4468 82.3828 73.3782 82.6718 73.244 82.932C72.4 84.542 68.4 89.8 52.4 89.8C36.4 89.8 32.4 84.548 31.546 82.936C31.4122 82.6764 31.3435 82.3881 31.346 82.096V70.254C31.346 69.8562 31.188 69.4747 30.9067 69.1934C30.6254 68.9121 30.2438 68.754 29.846 68.754C29.4482 68.754 29.0667 68.9121 28.7854 69.1934C28.504 69.4747 28.346 69.8562 28.346 70.254V82.09C28.3418 82.8683 28.5257 83.6361 28.882 84.328C30.23 86.874 35.2 92.8 52.4 92.8C69.6 92.8 74.568 86.88 75.906 84.336C76.2652 83.6443 76.4506 82.8755 76.446 82.096V69.618C76.446 69.4209 76.4071 69.2257 76.3316 69.0435C76.2561 68.8614 76.1455 68.696 76.006 68.5567C75.8665 68.4174 75.7009 68.3069 75.5187 68.2316C75.3364 68.1564 75.1412 68.1178 74.944 68.118Z" fill="#48FB6F"/>
<path d="M94.974 55.278L55.29 42.022C54.987 41.9201 54.659 41.9201 54.356 42.022L9.65402 56.354C9.35554 56.4523 9.09538 56.6417 8.91018 56.8955C8.72498 57.1494 8.62406 57.4549 8.62163 57.7691C8.6192 58.0834 8.71538 58.3904 8.89664 58.6471C9.07789 58.9038 9.33509 59.0972 9.63202 59.2L51.432 73.328C51.5867 73.3803 51.7488 73.4073 51.912 73.408C52.0838 73.4077 52.2543 73.378 52.416 73.32L83.098 62.364V69.564C82.0638 69.8763 81.1571 70.5124 80.5115 71.3787C79.866 72.245 79.5156 73.2957 79.512 74.376V77.4C79.512 78.741 80.0447 80.027 80.9929 80.9752C81.9411 81.9234 83.2271 82.456 84.568 82.456C85.909 82.456 87.195 81.9234 88.1432 80.9752C89.0913 80.027 89.624 78.741 89.624 77.4V74.372C89.6212 73.3014 89.2782 72.2594 88.6443 71.3966C88.0105 70.5338 87.1188 69.8948 86.098 69.572V61.292L95 58.114C95.2941 58.0092 95.5481 57.8152 95.7266 57.5591C95.9052 57.3029 95.9993 56.9975 95.996 56.6853C95.9927 56.3732 95.8921 56.0698 95.7082 55.8175C95.5243 55.5653 95.2662 55.3767 94.97 55.278H94.974ZM86.616 77.4C86.616 77.9453 86.3994 78.4683 86.0138 78.8539C85.6283 79.2394 85.1053 79.456 84.56 79.456C84.0147 79.456 83.4918 79.2394 83.1062 78.8539C82.7206 78.4683 82.504 77.9453 82.504 77.4V74.372C82.504 74.102 82.5572 73.8347 82.6605 73.5852C82.7639 73.3358 82.9153 73.1091 83.1062 72.9182C83.2971 72.7273 83.5238 72.5759 83.7732 72.4725C84.0227 72.3692 84.29 72.316 84.56 72.316C84.83 72.316 85.0974 72.3692 85.3468 72.4725C85.5963 72.5759 85.8229 72.7273 86.0138 72.9182C86.2048 73.1091 86.3562 73.3358 86.4595 73.5852C86.5628 73.8347 86.616 74.102 86.616 74.372V77.4ZM84.384 58.72L52.558 55.286C52.3597 55.2599 52.1581 55.2737 51.9652 55.3266C51.7723 55.3795 51.5919 55.4704 51.4347 55.5941C51.2774 55.7177 51.1465 55.8716 51.0496 56.0466C50.9527 56.2216 50.8918 56.4142 50.8705 56.6131C50.8491 56.812 50.8678 57.0132 50.9253 57.2048C50.9829 57.3963 51.0782 57.5745 51.2056 57.7287C51.333 57.8829 51.49 58.01 51.6673 58.1027C51.8446 58.1953 52.0387 58.2515 52.238 58.268L77.896 61.036L51.896 70.324L14.908 57.82L54.804 45.02L89.906 56.746L84.384 58.72Z" fill="#48FB6F"/>
</g>
<defs>
<clipPath id="clip0_3613_19686">
<rect width="96" height="96" fill="white"/>
</clipPath>
</defs>
</svg>
