<svg width="96" height="96" viewBox="0 0 96 96" fill="none" xmlns="http://www.w3.org/2000/svg">
<path d="M81.432 18.0959C81.455 17.9448 81.455 17.791 81.432 17.6399C81.432 17.6399 81.432 17.6399 81.432 17.4479C81.432 17.2559 81.432 17.3039 81.288 17.2319C81.1819 17.0698 81.0525 16.9242 80.904 16.7999C80.8123 16.6843 80.7076 16.5796 80.592 16.4879L80.232 16.2479C80.0809 16.1636 79.9196 16.099 79.752 16.0559H79.536H78.864H78.384H78.192L5.51997 45.3839C5.08704 45.5683 4.71788 45.876 4.4584 46.2685C4.19892 46.6611 4.06058 47.1213 4.06058 47.5919C4.06058 48.0625 4.19892 48.5227 4.4584 48.9153C4.71788 49.3078 5.08704 49.6155 5.51997 49.7999L23.424 57.5999L28.8 79.7279C28.8911 80.115 29.077 80.4733 29.3409 80.7707C29.6048 81.0682 29.9385 81.2954 30.312 81.4319C30.5947 81.5436 30.896 81.6006 31.2 81.5999C31.7193 81.5999 32.2245 81.4315 32.64 81.1199L37.32 77.6159C37.8292 77.234 38.1658 76.6654 38.2559 76.0353C38.3459 75.4052 38.1819 74.7651 37.8 74.2559C37.4181 73.7467 36.8495 73.41 36.2194 73.32C35.5893 73.23 34.9492 73.394 34.44 73.7759L32.688 75.0959L27.888 55.2959C27.8043 54.9326 27.637 54.5938 27.3996 54.3063C27.1621 54.0189 26.861 53.7907 26.52 53.6399L12.648 47.6879L75.912 22.1999L64.944 80.2799L38.736 61.4639L61.296 39.2399C61.5198 39.0177 61.6976 38.7536 61.8193 38.4627C61.941 38.1718 62.0042 37.8597 62.0053 37.5444C62.0064 37.229 61.9454 36.9166 61.8258 36.6248C61.7061 36.333 61.5302 36.0677 61.308 35.8439C61.0858 35.6201 60.8217 35.4423 60.5308 35.3206C60.2398 35.1989 59.9278 35.1357 59.6125 35.1346C59.2971 35.1335 58.9846 35.1945 58.6929 35.3141C58.4011 35.4338 58.1357 35.6097 57.912 35.8319L33.336 59.9999C33.0924 60.2437 32.9041 60.537 32.784 60.8601C32.6639 61.1831 32.6148 61.5282 32.64 61.8719C32.6642 62.2219 32.7649 62.5622 32.9349 62.8691C33.1049 63.1759 33.3401 63.4418 33.624 63.6479L65.184 86.3999C65.5958 86.698 66.0916 86.8577 66.6 86.8559C66.9039 86.8566 67.2053 86.7996 67.488 86.6879C67.8613 86.5382 68.1909 86.2972 68.4468 85.9868C68.7026 85.6765 68.8763 85.3069 68.952 84.9119L81.456 18.7919C81.456 18.7919 81.456 18.6479 81.456 18.5999C81.4599 18.4316 81.4519 18.2631 81.432 18.0959Z" fill="#48FB6F"/>
<path d="M68.976 30.7201C68.976 30.2454 68.8352 29.7814 68.5715 29.3867C68.3078 28.992 67.933 28.6844 67.4944 28.5028C67.0559 28.3211 66.5733 28.2736 66.1078 28.3662C65.6422 28.4588 65.2146 28.6874 64.8789 29.023C64.5433 29.3587 64.3147 29.7863 64.2221 30.2519C64.1295 30.7174 64.177 31.2 64.3587 31.6385C64.5403 32.077 64.8479 32.4519 65.2426 32.7156C65.6373 32.9793 66.1013 33.1201 66.576 33.1201C67.2125 33.1201 67.823 32.8672 68.2731 32.4171C68.7231 31.967 68.976 31.3566 68.976 30.7201Z" fill="#48FB6F"/>
</svg>
