<svg xmlns="http://www.w3.org/2000/svg" xmlns:xlink="http://www.w3.org/1999/xlink" width="130.021" height="130" viewBox="0 0 130.021 130">
  <defs>
    <linearGradient id="linear-gradient" x1="0.5" x2="0.5" y2="1" gradientUnits="objectBoundingBox">
      <stop offset="0" stop-color="#1f206c"/>
      <stop offset="1" stop-color="#050846"/>
    </linearGradient>
  </defs>
  <g id="ic-invite-02" transform="translate(18533.023 -2998)">
    <g id="_02" data-name="02" transform="translate(-18447.162 3078.404)" fill="#48fb6f">
      <path d="M11.433-55.922c9.686,8.589,17.781,20.041,21.034,33.539,3.325,13.5,1.807,29.121-4.987,40.083C20.685,28.743,8.542,35.124-3.168,37.9c-11.782,2.781-23.13,1.963-34.984-1.227-11.926-3.19-24.286-8.753-31.153-19.305C-76.1,6.82-77.329-8.722-74.22-22.465a66.054,66.054,0,0,1,20.383-34.03c9.613-8.671,21.251-14.07,32.671-13.906C-9.673-70.237,1.675-64.511,11.433-55.922Z" stroke="none"/>
      <path d="M -21.67153358459473 -70.4044189453125 C -32.92910766601563 -70.4044189453125 -44.36575698852539 -65.03739929199219 -53.83716583251953 -56.49449920654297 C -63.4505729675293 -47.90530776977539 -71.04010009765625 -36.12583160400391 -74.22047424316406 -22.46492576599121 C -77.32856750488281 -8.722211837768555 -76.09979248046875 6.820144653320313 -69.30535888671875 17.37257385253906 C -62.43862152099609 27.92502593994141 -50.07854843139648 33.487548828125 -38.15214538574219 36.67781066894531 C -31.22735214233398 38.54147338867188 -24.47541427612305 39.59557342529297 -17.70862579345703 39.59557342529297 C -12.89177131652832 39.59557342529297 -8.067295074462891 39.0614013671875 -3.168025970458984 37.90486145019531 C 8.541545867919922 35.12357330322266 20.68478393554688 28.74304962158203 27.47920989990234 17.69978713989258 C 34.27364349365234 6.738334655761719 35.79154968261719 -8.885807037353516 32.46662139892578 -22.38311767578125 C 29.21397399902344 -35.88042449951172 21.11847305297852 -47.33268737792969 11.43278503417969 -55.92187881469727 C 1.674808502197266 -64.51107025146484 -9.673334121704102 -70.23721313476563 -21.16604804992676 -70.40080261230469 C -21.3347339630127 -70.40322875976563 -21.50276184082031 -70.4044189453125 -21.67153358459473 -70.4044189453125 M -21.6715259552002 -80.40442657470703 L -21.60026359558105 -80.40442657470703 L -21.02350044250488 -80.3997802734375 C -7.869049072265625 -80.21253967285156 5.638973236083984 -74.34385681152344 18.03999710083008 -63.42818832397461 C 26.65428161621094 -55.78921127319336 37.80914306640625 -42.89788055419922 42.18830871582031 -24.72590255737305 C 46.28052520751953 -8.114425659179688 43.90576171875 10.17971801757813 35.97882843017578 22.96823883056641 C 28.58933258056641 34.97881317138672 15.50121307373047 43.74871826171875 -0.8570976257324219 47.63417053222656 C -6.374835968017578 48.93673706054688 -12.03997802734375 49.59557342529297 -17.70862007141113 49.59557342529297 C -25.05947685241699 49.59557342529297 -32.5966911315918 48.52876281738281 -40.7509765625 46.33421325683594 C -58.13081359863281 41.68519592285156 -70.56283569335938 33.77481079101563 -77.68702697753906 22.82671737670898 C -85.58819580078125 10.55562210083008 -87.9287109375 -7.185331344604492 -83.97414398193359 -24.67085456848145 C -80.49895477294922 -39.598876953125 -72.16731262207031 -53.52721405029297 -60.49983215332031 -63.95164108276367 C -48.7495002746582 -74.55021667480469 -34.94757080078125 -80.40442657470703 -21.6715259552002 -80.40442657470703 Z" stroke="none" fill="rgba(72,251,111,0.2)"/>
    </g>
    <g id="Group_1384" data-name="Group 1384" transform="translate(-19508 2341)">
      <rect id="Rectangle_402" data-name="Rectangle 402" width="110" height="110" transform="translate(985 667)" fill="none"/>
      <g id="XMLID_73_" transform="translate(986.719 667)">
        <g id="XMLID_5_">
          <path id="XMLID_282_" d="M114.307,23.918A23.893,23.893,0,0,0,90.39,0h0A23.767,23.767,0,0,0,73.47,7l-7.465,7.465A2.148,2.148,0,0,0,69.044,17.5l7.465-7.465A19.631,19.631,0,0,1,104.271,37.8L83.7,58.37q.007-.3.008-.607a23.938,23.938,0,0,0-1.784-9.11l16.6-16.6A11.5,11.5,0,1,0,82.255,15.783L54,44.037A11.5,11.5,0,0,0,64.275,63.47l-7.562,7.562a19.637,19.637,0,0,1-8.459-32.742l7.121-7.121a2.148,2.148,0,1,0-3.038-3.039l-7.121,7.121A23.8,23.8,0,0,0,39.6,44.116L14.551,69.163A23.918,23.918,0,0,0,31.471,110h0a23.767,23.767,0,0,0,16.92-7L76.709,74.684a23.8,23.8,0,0,0,5.618-8.864l24.982-24.982a23.766,23.766,0,0,0,7-16.92Zm-29.014-5.1A7.207,7.207,0,0,1,95.486,29.014L79.825,44.675A23.962,23.962,0,0,0,68.595,35.52ZM57.039,57.269a7.178,7.178,0,0,1-2.1-4.834A7.2,7.2,0,0,1,66.987,57.5a7.218,7.218,0,0,1-9.948-.233ZM53.33,74.416,36.567,91.179A7.207,7.207,0,0,1,26.375,80.986L42.1,65.261A23.962,23.962,0,0,0,53.33,74.416Zm20.341-2.771L45.352,99.963A19.631,19.631,0,0,1,17.59,72.2L38.225,51.566q-.007.3-.008.607A23.938,23.938,0,0,0,40,61.282L23.337,77.948A11.5,11.5,0,0,0,39.606,94.217L67.924,65.9A11.5,11.5,0,0,0,57.649,46.466L65.212,38.9a19.636,19.636,0,0,1,8.459,32.742Z" transform="translate(-7.553 0)" fill="url(#linear-gradient)"/>
          <path id="XMLID_286_" d="M247.038,100.486a2.149,2.149,0,1,0-1.519-.629A2.164,2.164,0,0,0,247.038,100.486Z" transform="translate(-193.9 -75.523)" fill="url(#linear-gradient)"/>
        </g>
      </g>
    </g>
  </g>
</svg>
