<svg width="104" height="104" viewBox="0 0 104 104" fill="none" xmlns="http://www.w3.org/2000/svg">
<path d="M61.75 26.325C60.775 26.325 60.125 25.675 60.125 24.7V19.825C60.125 18.85 60.775 18.2 61.75 18.2C62.725 18.2 63.375 18.85 63.375 19.825V24.7C63.375 25.675 62.725 26.325 61.75 26.325ZM71.825 25.675C71.5 25.675 71.175 25.675 71.175 25.35C70.525 25.025 70.2 24.05 70.525 23.075L72.15 20.15C72.475 19.5 73.45 19.175 74.425 19.5C75.075 19.825 75.4 20.8 75.075 21.775L73.45 24.7C73.125 25.35 72.475 25.675 71.825 25.675ZM79.95 33.7999C79.3 33.7999 78.975 33.475 78.65 32.825C78.325 32.175 78.325 31.1999 79.3 30.5499L81.9 29.25C82.55 28.925 83.525 28.9249 84.175 29.9C84.5 30.5499 84.5 31.5249 83.525 32.1749L80.925 33.7999H79.95ZM82.875 56.5499C82.55 56.5499 82.225 56.5499 82.225 56.2249L79.3 54.5999C78.65 54.2749 78.325 53.2999 78.65 52.3249C78.975 51.6749 79.95 51.3499 80.925 51.6749L83.85 53.2999C84.5 53.6249 84.825 54.5999 84.5 55.5749C83.85 56.2249 83.525 56.5499 82.875 56.5499ZM86.125 44.1999H79.625C78.65 44.1999 78 43.55 78 42.575C78 41.6 78.65 40.95 79.625 40.95H86.125C87.1 40.95 87.75 41.6 87.75 42.575C87.75 43.55 87.1 44.1999 86.125 44.1999ZM74.75 49.0749H65C64.675 49.0749 64.025 48.7499 63.7 48.4249C63.375 48.0999 63.375 47.4499 63.375 47.1249L65.975 34.125C66.3 33.15 66.95 32.825 67.925 32.825C68.9 33.15 69.55 33.7999 69.225 34.775L67.275 45.8249H74.75C75.725 45.8249 76.375 46.4749 76.375 47.4499C76.375 48.4249 75.725 49.0749 74.75 49.0749Z" fill="#48FB6F"/>
<path d="M71.4999 52.3248C70.5249 52.3248 69.8749 51.6748 69.8749 50.6998V40.9498C69.8749 39.9748 70.5249 39.3248 71.4999 39.3248C72.4749 39.3248 73.1249 39.9748 73.1249 40.9498V50.6998C73.1249 51.6748 72.4749 52.3248 71.4999 52.3248ZM58.4999 52.3248H48.75C48.1 52.3248 47.45 51.9998 47.125 51.3498C46.8 50.6998 47.125 50.0498 47.45 49.7248L55.9 41.5998C56.55 40.9498 56.875 40.2998 56.875 39.3248C56.875 37.6998 55.25 36.0748 53.625 36.0748C52 36.0748 50.375 37.6998 50.375 39.3248C50.375 40.2998 49.725 40.9498 48.75 40.9498C47.775 40.9498 47.125 40.2998 47.125 39.3248C47.125 35.7498 50.05 32.8248 53.625 32.8248C57.2 32.8248 60.125 35.7498 60.125 39.3248C60.125 40.9498 59.4749 42.5748 58.1749 43.8748L52.65 49.0748H58.4999C59.4749 49.0748 60.125 49.7248 60.125 50.6998C60.125 51.6748 59.4749 52.3248 58.4999 52.3248ZM51.35 25.9998C50.7 25.9998 50.375 25.6748 50.05 25.0248L48.425 22.4248C48.1 21.7748 48.1 20.7998 49.075 20.1498C49.725 19.8248 50.7 19.8248 51.35 20.7998L52.9749 23.3998C53.2999 24.0498 53.3 25.0248 52.325 25.6748C51.675 25.9998 51.35 25.9998 51.35 25.9998Z" fill="#48FB6F"/>
<path d="M65.325 87.4249C64.025 87.4249 63.05 87.4249 61.75 87.0999C53.95 85.1499 47.125 81.2499 41.6 75.7249L28.275 62.3999C22.75 56.875 18.85 49.7249 16.9 42.25C15.6 37.375 17.225 31.8499 20.8 28.275L26.975 22.1C28.925 20.15 31.85 20.15 33.8 22.1L40.95 29.25C42.575 30.875 42.9 33.4749 41.6 35.4249L37.05 42.25C35.75 44.1999 36.075 46.7999 37.7 48.4249L55.575 66.2999C57.2 67.9249 59.8 68.2499 61.75 66.9499L68.9 62.0749C70.85 60.7749 73.45 61.0999 75.075 62.7249L82.225 69.8749C84.175 71.8249 84.175 74.7499 82.225 76.6999L76.05 82.8749C72.8 85.7999 69.225 87.4249 65.325 87.4249ZM30.225 23.4C29.9 23.4 29.25 23.4 28.925 23.725L22.75 30.225C19.825 33.15 18.85 37.05 19.825 40.95C21.45 48.1 25.35 54.5999 30.55 59.4749L43.875 72.7999C49.075 77.9999 55.575 81.575 62.4 83.5249C66.3 84.4999 70.525 83.1999 73.125 80.5999L79.3 74.4249C79.95 73.7749 79.95 72.7999 79.3 72.1499L72.15 64.9999C71.5 64.3499 70.85 64.3499 70.2 64.6749L63.05 69.5499C59.8 71.8249 55.575 71.1749 52.65 68.5749L34.775 50.6999C32.175 48.0999 31.525 43.5499 33.8 40.2999L38.675 33.15C39 32.4999 39 31.525 38.35 31.2L31.525 23.725C31.2 23.725 30.875 23.4 30.225 23.4ZM78.975 61.4249C78.65 61.4249 78 61.4249 77.675 61.0999C77.025 60.4499 77.025 59.4749 77.675 58.8249C81.9 54.5999 84.175 48.75 84.175 42.9C84.175 30.225 74.1 20.15 61.425 20.15C55.25 20.15 49.725 22.425 45.5 26.65L45.175 26.975C44.525 27.625 43.55 27.2999 42.9 26.65C42.25 26 42.25 25.025 42.9 24.375C48.425 19.5 54.925 16.575 61.75 16.575C76.05 16.575 87.75 28.275 87.75 42.5749C87.75 49.3999 85.15 55.8999 80.275 60.7749C79.95 61.4249 79.3 61.4249 78.975 61.4249Z" fill="#48FB6F"/>
<path d="M36.075 41.6C35.75 41.6 35.1 41.6 34.775 41.275L23.4 29.575C22.75 28.925 22.75 27.95 23.4 27.3C24.05 26.65 25.025 26.65 25.675 27.3L37.375 38.675C38.025 39.325 38.025 40.3 37.375 40.95C37.05 41.275 36.4 41.6 36.075 41.6ZM75.075 80.6C74.75 80.6 74.1 80.6 73.775 80.275L62.4 68.9C61.75 68.25 61.75 67.275 62.4 66.625C63.05 65.975 64.025 65.975 64.675 66.625L76.05 78C76.7 78.65 76.7 79.625 76.05 80.275C76.05 80.6 75.4 80.6 75.075 80.6Z" fill="#48FB6F"/>
</svg>
