<svg xmlns="http://www.w3.org/2000/svg" width="35" height="35" viewBox="0 0 35 35">
  <path id="ic-coin" d="M27.58,14.989A10.9,10.9,0,1,0,6.864,13.456,11.21,11.21,0,1,0,19.955,30.8a9.092,9.092,0,0,0,11.988-.071,1.367,1.367,0,0,0-1.815-2.045,6.357,6.357,0,0,1-8.71-.256,11.213,11.213,0,0,0,.6-7.615,11.029,11.029,0,0,0,4.073-3.239,6.365,6.365,0,0,1,6.173,6.354,1.367,1.367,0,1,0,2.734,0,9.106,9.106,0,0,0-7.42-8.937ZM11.211,32.266a8.477,8.477,0,1,1,8.477-8.477A8.486,8.486,0,0,1,11.211,32.266Zm9.763-13.982a11.281,11.281,0,0,0-1.264-1.8,3.337,3.337,0,0,0,2.129-3.114v-.414a3.508,3.508,0,0,0-1.028-2.479,3.469,3.469,0,0,0-2.479-1.046H17.268a.688.688,0,0,1-.718-.705v-.32H20.03a1.367,1.367,0,0,0,0-2.734H15.183a1.367,1.367,0,0,0-1.367,1.367V8.729a3.409,3.409,0,0,0,3.452,3.44h1.064a.813.813,0,0,1,.773.791v.414a.7.7,0,0,1-.773.641H16.694a11.141,11.141,0,0,0-5.483-1.436,11.268,11.268,0,0,0-1.714.131,8.17,8.17,0,1,1,11.477,5.575Zm5.071,2.361a1.367,1.367,0,0,1,1.367,1.367v4.033a1.367,1.367,0,0,1-2.734,0V22.012A1.367,1.367,0,0,1,26.045,20.645ZM14.9,27.549a1.367,1.367,0,0,1-1.367,1.367H9.16a1.367,1.367,0,0,1-.908-2.389c.009-.009.994-.887,1.985-1.958,1.673-1.81,1.849-2.53,1.863-2.6a.78.78,0,0,0-.772-.706h-.05a.756.756,0,0,0-.751.721,1.367,1.367,0,1,1-2.734,0,3.474,3.474,0,0,1,3.485-3.455h.05a3.511,3.511,0,0,1,2.451,1,3.4,3.4,0,0,1,1.056,2.457c0,.737-.273,1.879-2.368,4.2h1.069A1.367,1.367,0,0,1,14.9,27.549Zm0,0" transform="translate(0 0)" fill="#48fb6f"/>
</svg>
