<svg width="77" height="67" viewBox="0 0 77 67" fill="none" xmlns="http://www.w3.org/2000/svg">
<path d="M52.4427 49.8795H12.7063C10.3954 49.8795 8.52356 48.1175 8.52356 45.942V24.2856C8.52356 22.1101 10.3954 20.348 12.7063 20.348H52.4427C54.7537 20.348 56.6255 22.1101 56.6255 24.2856V45.942C56.6255 48.1175 54.7537 49.8795 52.4427 49.8795Z" fill="#E6E8EA"/>
<path d="M12.7063 20.348C10.3954 20.348 8.52356 22.1101 8.52356 24.2856V45.942C8.52356 48.1175 10.3954 49.8795 12.7063 49.8795H15.5694L46.9402 20.348H12.7063Z" fill="#C7C9E4"/>
<path d="M52.4426 50.8639H12.7063C9.82432 50.8639 7.47778 48.6569 7.47778 45.942V24.2856C7.47778 21.5706 9.82432 19.3636 12.7063 19.3636H52.4426C55.3245 19.3636 57.6711 21.5706 57.6711 24.2856V45.942C57.6711 48.6569 55.3245 50.8639 52.4426 50.8639ZM12.7063 21.3324C10.9767 21.3324 9.56917 22.6574 9.56917 24.2856V45.942C9.56917 47.5702 10.9767 48.8951 12.7063 48.8951H52.4426C54.1722 48.8951 55.5797 47.5702 55.5797 45.942V24.2856C55.5797 22.6574 54.1722 21.3324 52.4426 21.3324H12.7063Z" fill="#6566B0"/>
<path d="M23.1632 20.348H21.0718V49.8795H23.1632V20.348Z" fill="#6566B0"/>
<path d="M14.7977 28.2231H8.52356V30.1919H14.7977V28.2231Z" fill="#6566B0"/>
<path d="M56.6254 28.2231H29.4374V30.1919H56.6254V28.2231Z" fill="#6566B0"/>
<path d="M52.4426 42.9889H48.2598C47.6826 42.9889 47.2141 42.5479 47.2141 42.0045C47.2141 41.4611 47.6826 41.0201 48.2598 41.0201H52.4426C53.0198 41.0201 53.4883 41.4611 53.4883 42.0045C53.4883 42.5479 53.0198 42.9889 52.4426 42.9889ZM52.4426 46.9264H44.0771C43.4998 46.9264 43.0314 46.4854 43.0314 45.942C43.0314 45.3987 43.4998 44.9577 44.0771 44.9577H52.4426C53.0198 44.9577 53.4883 45.3987 53.4883 45.942C53.4883 46.4854 53.0198 46.9264 52.4426 46.9264ZM17.9347 33.1431C16.8639 33.1431 15.7931 32.7611 14.9775 31.9933C13.3462 30.4577 13.3462 27.9593 14.9775 26.4237C16.6067 24.89 19.2607 24.89 20.8919 26.4237L23.1109 28.5125C23.5187 28.8965 23.5187 29.5206 23.1109 29.9045L20.8919 31.9953C20.0763 32.7592 19.0055 33.1431 17.9347 33.1431ZM17.9347 27.2407C17.3993 27.2407 16.8639 27.4337 16.4561 27.8156C15.6405 28.5854 15.6405 29.8316 16.4561 30.6014C17.2717 31.3673 18.5977 31.3673 19.4133 30.6014L20.8919 29.2075L19.4133 27.8156C19.0055 27.4317 18.4701 27.2407 17.9347 27.2407Z" fill="#6566B0"/>
<path d="M26.3003 33.143C25.2295 33.143 24.1587 32.761 23.3431 31.9932L21.1241 29.9024C20.7163 29.5185 20.7163 28.8944 21.1241 28.5105L23.3431 26.4216C24.9723 24.8879 27.6262 24.8879 29.2575 26.4216C30.8888 27.9573 30.8888 30.4556 29.2575 31.9913C28.4419 32.7591 27.3711 33.143 26.3003 33.143ZM24.8217 30.6013C25.6373 31.3672 26.9633 31.3672 27.7789 30.6013C28.5945 29.8315 28.5945 28.5853 27.7789 27.8155C26.9633 27.0497 25.6373 27.0497 24.8217 27.8155L23.3431 29.2074L24.8217 30.6013Z" fill="#6566B0"/>
<path d="M27.3459 37.0825C27.0866 37.0825 26.8273 36.992 26.6244 36.8109L21.396 32.1291C20.9777 31.7551 20.9609 31.131 21.3583 30.7372C21.7557 30.3435 22.4207 30.3297 22.8369 30.7018L28.0654 35.3835C28.4837 35.7576 28.5004 36.3817 28.103 36.7754C27.8981 36.9802 27.622 37.0825 27.3459 37.0825Z" fill="#6566B0"/>
<path d="M16.8891 37.0826C16.613 37.0826 16.337 36.9802 16.132 36.7774C15.7346 36.3836 15.7493 35.7595 16.1697 35.3855L21.3981 30.7037C21.8164 30.3297 22.4794 30.3435 22.8767 30.7392C23.2741 31.1349 23.2595 31.757 22.8391 32.1311L17.6106 36.8128C17.4078 36.992 17.1484 37.0826 16.8891 37.0826Z" fill="#6566B0"/>
<g clip-path="url(#clip0_2670_970)">
<path d="M60.5759 25.8746C62.8738 25.8746 65.1202 25.2331 67.0309 24.0313C68.9416 22.8294 70.4308 21.1212 71.3102 19.1226C72.1896 17.124 72.4197 14.9249 71.9714 12.8032C71.5231 10.6815 70.4165 8.73259 68.7916 7.20294C67.1667 5.67329 65.0964 4.63159 62.8426 4.20956C60.5887 3.78753 58.2526 4.00413 56.1295 4.83197C54.0065 5.65981 52.1918 7.06171 50.9152 8.86038C49.6385 10.6591 48.957 12.7737 48.957 14.937C48.957 17.8378 50.1812 20.6198 52.3601 22.671C53.439 23.6867 54.7199 24.4923 56.1295 25.042C57.5392 25.5917 59.05 25.8746 60.5759 25.8746ZM56.2885 12.9026L59.7742 9.77444C59.8246 9.72815 59.8837 9.69106 59.9484 9.66507C60.0031 9.61862 60.066 9.5816 60.1343 9.55569C60.2734 9.49782 60.4238 9.46793 60.5759 9.46793C60.7279 9.46793 60.8783 9.49782 61.0174 9.55569C61.16 9.60775 61.2903 9.6858 61.4008 9.78538L64.8864 13.0667C65.1052 13.2726 65.2281 13.552 65.2281 13.8432C65.2281 14.1345 65.1052 14.4138 64.8864 14.6198C64.6676 14.8258 64.3709 14.9415 64.0615 14.9415C63.7521 14.9415 63.4553 14.8258 63.2366 14.6198L61.7377 13.1979V19.312C61.7377 19.6021 61.6153 19.8803 61.3974 20.0854C61.1795 20.2905 60.884 20.4058 60.5759 20.4058C60.2677 20.4058 59.9722 20.2905 59.7543 20.0854C59.5364 19.8803 59.414 19.6021 59.414 19.312V13.1213L57.8919 14.4885C57.6685 14.6887 57.3698 14.7971 57.0615 14.7899C56.7531 14.7828 56.4605 14.6606 56.2478 14.4503C56.0352 14.24 55.9201 13.9587 55.9277 13.6685C55.9353 13.3783 56.0651 13.1027 56.2885 12.9026Z" fill="#6566B0"/>
</g>
<defs>
<clipPath id="clip0_2670_970">
<rect width="27.8852" height="26.2502" fill="white" transform="translate(48.957 0.0618896)"/>
</clipPath>
</defs>
</svg>
