<svg xmlns="http://www.w3.org/2000/svg" width="35" height="35" viewBox="0 0 35 35">
  <g id="ic-graduate" transform="translate(21111 -6761)">
    <path id="mortarboard_1_" data-name="mortarboard (1)" d="M32.874,41.632,20.926,36.677a9.2,9.2,0,0,0-6.854,0L2.126,41.632A3.345,3.345,0,0,0,0,44.482V55.693a1.367,1.367,0,0,0,2.734,0V47.785l3.825,1.564c-.059.131-1.5,3.487-1.5,11.515a1.369,1.369,0,0,0,1.258,1.363A26.842,26.842,0,0,1,16.88,65.881a1.367,1.367,0,0,0,1.43,0,27.315,27.315,0,0,1,10.523-3.7,1.367,1.367,0,0,0-.242-2.724,29.553,29.553,0,0,0-11,3.672A29.93,29.93,0,0,0,7.8,59.667c.12-6.441,1.292-9.249,1.3-9.275l4.967,2.031a9.174,9.174,0,0,0,3.419.672h.013a9.17,9.17,0,0,0,3.416-.671l5.135-2.1a17.181,17.181,0,0,1,.88,3.71,1.367,1.367,0,0,0,1.352,1.18,1.391,1.391,0,0,0,.189-.013,1.367,1.367,0,0,0,1.167-1.542,20.074,20.074,0,0,0-1.038-4.378l4.266-1.745A3.117,3.117,0,0,0,32.874,41.632Zm-1.039,3.375L19.884,49.895a6.334,6.334,0,0,1-4.772,0l-9.89-4.044H17.5a1.367,1.367,0,0,0,0-2.734H5.69l9.426-3.909a8.047,8.047,0,0,1,2.384-.466,8.044,8.044,0,0,1,2.381.465l11.948,4.955h0c.57.239.571.608,0,.847Z" transform="translate(-21111 6727.445)" fill="#48fb6f"/>
    <rect id="Rectangle_422" data-name="Rectangle 422" width="35" height="35" transform="translate(-21111 6761)" fill="none"/>
  </g>
</svg>
