<svg width="106" height="182" viewBox="0 0 106 182" fill="none" xmlns="http://www.w3.org/2000/svg">
<path d="M73.8326 161.235L73.8225 165.91L49.0708 179.998L49.1261 161.61" stroke="#22E64D" stroke-width="2" stroke-linejoin="round"/>
<path d="M28.9095 96.8979L7.56152 109.055C8.51177 110.429 9.47208 111.755 10.4374 113.055C10.6989 113.41 10.9653 113.759 11.2318 114.109C12.0362 115.168 12.8457 116.208 13.6602 117.217C13.8513 117.449 14.0373 117.71 14.2233 117.922C15.073 118.961 15.9328 119.981 16.7976 120.966L17.1847 121.385C17.4411 121.675 17.6875 121.951 17.9539 122.237C18.7416 123.107 19.536 123.954 20.3371 124.779C20.6237 125.074 20.9103 125.375 21.1969 125.665C22.2276 126.7 23.2633 127.71 24.3141 128.675L24.4901 128.833C25.2694 129.542 26.0487 130.237 26.833 130.907C26.9939 131.044 27.1598 131.158 27.3358 131.291C28.2056 132.02 29.0854 132.709 29.9653 133.389C30.3927 133.714 30.815 134.064 31.2424 134.374C32.5546 135.36 33.8769 136.271 35.2143 137.128" stroke="#22E64D" stroke-width="2" stroke-linejoin="round"/>
<path d="M48.1406 143.625C52.0053 144.876 55.0102 144.893 57.1554 143.674" stroke="#22E64D" stroke-width="2" stroke-linejoin="round"/>
<path d="M57.1554 143.674C55.0102 144.896 52.0053 144.88 48.1406 143.625" stroke="#22E64D" stroke-width="2" stroke-linejoin="round"/>
<path d="M60.9363 136.345L48.1406 143.625L48.2261 113.966" stroke="#22E64D" stroke-width="2" stroke-linejoin="round"/>
<path d="M70.5295 81.5782L48.2866 94.2428C54.0079 99.0486 59.4577 104.156 64.6118 109.543C65.361 110.341 66.0598 111.188 66.7687 112.006C67.3218 112.671 67.8748 113.341 68.4028 114.03C68.8703 114.626 69.3178 115.242 69.7653 115.858C70.2748 116.567 70.7776 117.291 71.2736 118.03C71.7697 118.769 72.2607 119.544 72.7468 120.355C72.963 120.725 73.1892 121.089 73.4004 121.463C74.1294 122.734 74.8333 124.03 75.4919 125.375C75.9947 126.414 76.4522 127.478 76.8746 128.547C76.9701 128.788 77.0656 129.04 77.1561 129.276C77.5483 130.335 77.9103 131.409 78.217 132.498C78.2572 132.645 78.2924 132.798 78.3326 132.946C78.6008 133.931 78.8321 134.939 79.0265 135.97C79.0717 136.202 79.122 136.433 79.1672 136.67C79.365 137.786 79.5192 138.919 79.6298 140.069C79.6801 140.561 79.7153 141.054 79.7454 141.546C79.7454 141.808 79.7857 142.039 79.8007 142.325C79.841 143.128 79.8611 143.94 79.856 144.758C79.856 145.773 79.8058 146.729 79.7354 147.684C79.7102 147.99 79.67 148.275 79.6348 148.571C79.5745 149.162 79.4991 149.743 79.4086 150.305C79.3181 150.866 79.1723 151.482 79.0365 152.053C78.951 152.413 78.8807 152.783 78.7801 153.122C78.6041 153.733 78.3879 154.3 78.1667 154.861C78.0662 155.117 77.9857 155.393 77.8751 155.64C77.5307 156.426 77.1221 157.184 76.6533 157.905C76.5578 158.053 76.4422 158.176 76.3416 158.319C75.974 158.853 75.5692 159.362 75.1299 159.841C74.8132 160.181 74.4663 160.496 74.1244 160.802C73.9484 160.955 73.7875 161.122 73.6216 161.294C73.0598 161.743 72.463 162.149 71.8367 162.506L96.5885 148.413C97.214 148.054 97.8107 147.649 98.3733 147.201C98.5543 147.059 98.7152 146.886 98.8761 146.733C99.1728 146.477 99.4795 146.241 99.751 145.95C99.8012 145.896 99.8364 145.832 99.8867 145.778C100.325 145.297 100.73 144.789 101.098 144.256C101.199 144.113 101.32 143.985 101.415 143.837C101.881 143.115 102.289 142.359 102.637 141.576C102.637 141.542 102.672 141.517 102.687 141.482C102.778 141.266 102.843 141.014 102.929 140.793C103.15 140.231 103.366 139.665 103.537 139.059C103.637 138.714 103.713 138.345 103.798 137.985C103.934 137.414 104.065 136.842 104.165 136.236C104.165 136.098 104.231 135.98 104.251 135.842C104.316 135.414 104.346 134.951 104.397 134.502C104.427 134.207 104.467 133.921 104.492 133.616C104.568 132.675 104.613 131.709 104.618 130.69C104.618 129.872 104.618 129.064 104.558 128.261C104.558 128 104.522 127.739 104.507 127.483C104.482 127.059 104.462 126.641 104.422 126.222C104.422 126.143 104.397 126.064 104.392 125.985C104.278 124.843 104.122 123.711 103.924 122.592C103.884 122.355 103.834 122.099 103.788 121.882C103.592 120.867 103.361 119.858 103.094 118.863C103.054 118.715 103.019 118.562 102.979 118.414C102.667 117.326 102.31 116.257 101.913 115.198C101.822 114.951 101.727 114.705 101.631 114.464C101.209 113.395 100.762 112.336 100.249 111.291C99.5901 109.952 98.8862 108.656 98.1622 107.38L97.5086 106.277C97.2371 105.824 96.9807 105.361 96.6991 104.917C96.4879 104.582 96.2466 104.277 96.0304 103.932C95.5276 103.193 95.055 102.454 94.5221 101.765C94.0796 101.144 93.6271 100.533 93.1646 99.9322C92.6316 99.2426 92.0836 98.5727 91.5255 97.9077C91.244 97.5777 90.9875 97.223 90.706 96.8979C90.2686 96.4053 89.8261 95.9127 89.3736 95.4201C84.7805 90.6236 79.9408 86.0596 74.8735 81.7457" stroke="#22E64D" stroke-width="2" stroke-linejoin="round"/>
<path d="M70.3485 81.6817L48.2866 94.2428L48.3922 58.2885" stroke="#22E64D" stroke-width="2" stroke-linejoin="round"/>
<path d="M36.0892 18.423L11.3374 32.516C13.3971 31.3716 15.6749 30.654 18.0294 30.4078C22.7907 29.8364 28.281 30.8708 34.4602 33.4815L59.2119 19.3884" stroke="#22E64D" stroke-width="2" stroke-linejoin="round"/>
<path d="M34.4602 33.4717C28.281 30.861 22.7907 29.8265 18.0294 30.3979C15.6749 30.6442 13.3971 31.3618 11.3374 32.5062L34.7367 19.1865" stroke="#22E64D" stroke-width="2" stroke-linejoin="round"/>
<path d="M49.5231 23.5805L74.2748 9.49231L74.2195 27.7133L49.4678 41.8064L49.5231 23.5805Z" stroke="#22E64D" stroke-width="2" stroke-linejoin="round"/>
<path d="M34.5103 15.0931L59.262 1L74.275 9.49231L49.5232 23.5805L34.5103 15.0931Z" stroke="#22E64D" stroke-width="2" stroke-linejoin="round"/>
<path d="M72.8825 64.0125C73.5897 64.9287 74.2768 65.8466 74.9439 66.7661C75.1802 67.0961 75.4215 67.4163 75.6478 67.7513C76.5176 68.9877 77.3572 70.2142 78.1616 71.49L102.908 57.3969L102.758 57.1556C102.018 55.9832 101.249 54.8207 100.42 53.6582L99.7157 52.673C99.0521 51.7469 98.3633 50.8307 97.6493 49.9145C97.3879 49.5795 97.1465 49.2396 96.8549 48.8997C95.9198 47.7274 94.9544 46.5599 93.9388 45.4023L93.9036 45.3678C92.7405 44.0543 91.5288 42.7407 90.2685 41.4271C89.0082 40.1135 87.7178 38.8443 86.3971 37.6193C85.9597 37.2056 85.5022 36.8213 85.0598 36.4174C84.1749 35.6145 83.295 34.8017 82.39 34.0283L82.2693 33.9249C81.4347 33.2156 80.58 32.5407 79.7303 31.8609C79.2778 31.5013 78.8354 31.1221 78.3778 30.7674C77.0371 29.7132 75.6578 28.6936 74.24 27.7084L49.4731 41.8064C50.8709 42.7916 52.2502 43.8096 53.611 44.8605C54.0685 45.2151 54.506 45.5944 54.9585 45.9589C55.8534 46.6732 56.7483 47.3825 57.6181 48.1263C58.488 48.8702 59.408 49.7076 60.2929 50.5154C60.7354 50.9193 61.1879 51.3036 61.6253 51.7173C62.9426 52.9488 64.233 54.2181 65.4967 55.5251C66.7637 56.8206 67.9703 58.1309 69.1318 59.4658C70.1625 60.6333 71.1429 61.8155 72.0881 63.0027C72.3596 63.3228 72.616 63.6627 72.8825 64.0125Z" stroke="#22E64D" stroke-width="2" stroke-linejoin="round"/>
<path d="M75.4714 125.394C72.6728 119.613 69.0128 114.27 64.6115 109.543C59.4573 104.156 54.0075 99.0486 48.2863 94.2428L48.3918 58.2835C56.7279 64.3227 64.469 72.6869 71.6151 83.3762L78.1513 71.4703C74.5232 65.7309 70.2846 60.3843 65.5064 55.5201C60.6227 50.4584 55.2572 45.8646 49.4829 41.8014L49.5331 23.5754L34.5152 15.093L34.4599 33.4716C28.2807 30.8609 22.7904 29.8265 18.0291 30.3979C13.2678 30.9693 9.54722 32.979 6.8825 36.3878C4.21778 39.7965 2.86028 44.5008 2.86028 50.4562C2.78645 57.3931 4.33432 64.2544 7.38528 70.5146C10.2951 76.5431 14.108 82.1118 18.6978 87.0362C23.9259 92.5458 29.4652 97.7639 35.2894 102.666L35.1889 137.148C25.2808 130.773 16.0632 121.414 7.53611 109.07L1 120.976C5.26091 127.411 10.2093 133.384 15.7616 138.793C21.3529 144.268 27.4888 149.183 34.0777 153.462L34.0224 171.526L49.0354 180.013L49.0907 161.629C58.4223 165.35 65.865 165.713 71.4191 162.718C76.9731 159.723 79.7786 153.75 79.8356 144.798C79.9156 138.088 78.4226 131.45 75.4714 125.394V125.394ZM35.3498 83.1201C31.0359 79.0118 27.7042 75.1056 25.3546 71.4013C23.1003 68.021 21.8792 64.0798 21.8351 60.0421C21.8351 55.7368 23.0485 52.8289 25.4752 51.3183C27.8835 49.8109 31.1968 49.737 35.4252 51.1311L35.3498 83.1201ZM57.5876 143.404C55.4156 144.881 52.2733 144.96 48.1404 143.625L48.2309 113.966C52.3403 117.739 55.4777 121.285 57.6429 124.601C59.7848 127.912 60.8658 131.291 60.8557 134.724C60.8456 139.029 59.7446 141.921 57.5876 143.404Z" stroke="#22E64D" stroke-width="2" stroke-linejoin="round"/>
<path d="M78.1413 71.4753L102.893 57.3822L96.367 69.2931L71.6152 83.3812L78.1413 71.4753Z" stroke="#22E64D" stroke-width="2" stroke-linejoin="round"/>
</svg>
