<svg width="96" height="96" viewBox="0 0 96 96" fill="none" xmlns="http://www.w3.org/2000/svg">
<path d="M83.25 28.2001L80.4 25.3501L54 51.7501C50.7 55.0501 45.15 55.0501 41.85 51.7501L15.45 25.5001L12.6 28.3501L32.25 48.0001L12.6 67.6501L15.45 70.5001L35.1 50.8501L39 54.7501C41.4 57.1501 44.55 58.5001 47.85 58.5001C51.15 58.5001 54.3 57.1501 56.7 54.7501L60.6 50.8501L80.25 70.5001L83.1 67.6501L63.45 48.0001L83.25 28.2001Z" fill="#48FB6F"/>
<path d="M77.7 75.6001H18.45C15 75.6001 12.15 72.7501 12.15 69.3001V27.0001C12.15 23.5501 15 20.7001 18.45 20.7001H77.7C81.15 20.7001 84 23.5501 84 27.0001V69.3001C84 72.7501 81.15 75.6001 77.7 75.6001ZM18.3 24.7501C17.1 24.7501 16.2 25.6501 16.2 26.8501V69.1501C16.2 70.3501 17.1 71.2501 18.3 71.2501H77.55C78.75 71.2501 79.65 70.3501 79.65 69.1501V26.8501C79.65 25.6501 78.75 24.7501 77.55 24.7501H18.3Z" fill="#48FB6F"/>
</svg>
