<svg xmlns="http://www.w3.org/2000/svg" width="35" height="35" viewBox="0 0 35 35">
  <g id="ic-factor" transform="translate(20375 -6761)">
    <path id="receipt" d="M35,26.113a8.884,8.884,0,0,1-.433,2.746,1.367,1.367,0,0,1-2.6-.844,6.147,6.147,0,1,0-3.56,3.809,1.367,1.367,0,0,1,1.02,2.537A8.888,8.888,0,1,1,35,26.113ZM26.318,29.8a1.367,1.367,0,0,0,1.367-1.367V23.652a1.367,1.367,0,0,0-2.191-1.091l-1.709,1.29a1.367,1.367,0,0,0,1.166,2.415v2.171A1.367,1.367,0,0,0,26.318,29.8Zm-9.16,3.828A1.367,1.367,0,0,1,15.791,35H1.367A1.367,1.367,0,0,1,0,33.633V4.1A4.106,4.106,0,0,1,4.1,0H27.49a4.1,4.1,0,0,1,4.092,4.1V9.16a1.367,1.367,0,0,1-1.367,1.367h-4.1V13.6a1.367,1.367,0,1,1-2.734,0V4.1a4.086,4.086,0,0,1,.235-1.367H4.1A1.369,1.369,0,0,0,2.734,4.1V32.266H15.791a1.367,1.367,0,0,1,1.367,1.367ZM28.848,4.1a1.367,1.367,0,1,0-2.734,0V7.793h2.734Zm-9.57,3.691h-.684a1.367,1.367,0,1,0,0,2.734h.684a1.367,1.367,0,0,0,0-2.734Zm-5.469,0H6.836a1.367,1.367,0,1,0,0,2.734h6.973a1.367,1.367,0,0,0,0-2.734Zm5.469,5.469h-.684a1.367,1.367,0,0,0,0,2.734h.684a1.367,1.367,0,0,0,0-2.734Zm-5.469,0H6.836a1.367,1.367,0,0,0,0,2.734h6.973a1.367,1.367,0,0,0,0-2.734Zm0,5.469H6.836a1.367,1.367,0,0,0,0,2.734h6.973a1.367,1.367,0,0,0,0-2.734Zm0,5.537H6.836a1.367,1.367,0,1,0,0,2.734h6.973a1.367,1.367,0,0,0,0-2.734Zm0,0" transform="translate(-20375 6761)" fill="#48fb6f"/>
    <rect id="Rectangle_420" data-name="Rectangle 420" width="35" height="35" transform="translate(-20375 6761)" fill="none"/>
  </g>
</svg>
