<svg width="96" height="96" viewBox="0 0 96 96" fill="none" xmlns="http://www.w3.org/2000/svg">
<path d="M38 68C21.458 68 8 54.542 8 38C8 21.458 21.458 8 38 8C54.542 8 68 21.458 68 38C68 44.568 65.93 50.782 62.016 55.964L61.56 56.546C60.102 58.412 58.418 60.094 56.554 61.556L55.994 61.994C50.782 65.932 44.57 68 38 68ZM38 12C23.664 12 12 23.664 12 38C12 52.336 23.664 64 38 64C43.692 64 49.07 62.21 53.554 58.824L54.102 58.394C55.696 57.146 57.15 55.692 58.404 54.088L58.84 53.534C62.21 49.07 64 43.692 64 38C64 23.664 52.336 12 38 12Z" fill="#48FB6F"/>
<path d="M38 60C34.14 60 30.336 58.98 27 57.052C20.214 53.126 16 45.826 16 38C16 25.87 25.87 16 38 16C50.13 16 60 25.87 60 38C60 43.014 58.364 47.724 55.266 51.626C54.192 52.982 52.966 54.208 51.618 55.27C50.746 55.96 49.886 56.546 48.992 57.058C45.664 58.98 41.86 60 38 60ZM38 20C28.076 20 20 28.074 20 38C20 44.402 23.45 50.376 29.002 53.59C34.458 56.742 41.542 56.744 47 53.588C47.726 53.174 48.424 52.698 49.14 52.13C50.262 51.246 51.24 50.268 52.134 49.138C54.664 45.952 56 42.102 56 38C56 28.074 47.924 20 38 20ZM82.342 93.996C80.806 93.996 79.27 93.412 78.1 92.242L66.786 80.93C64.446 78.59 64.446 74.784 66.786 72.444L72.442 66.788C74.78 64.446 78.586 64.446 80.928 66.788L92.242 78.102C93.376 79.232 94 80.74 94 82.344C94 83.946 93.376 85.454 92.242 86.586L86.586 92.242C85.416 93.412 83.88 93.996 82.342 93.996ZM76.686 69.032C76.174 69.032 75.662 69.226 75.27 69.616L69.614 75.272C68.834 76.054 68.834 77.32 69.614 78.102L80.928 89.414C81.706 90.194 82.976 90.196 83.758 89.414L89.414 83.758C89.792 83.378 90 82.876 90 82.344C90 81.808 89.792 81.308 89.416 80.932L78.102 69.616C77.71 69.224 77.198 69.032 76.686 69.032ZM82 14C78.692 14 76 11.308 76 8C76 4.692 78.692 2 82 2C85.308 2 88 4.692 88 8C88 11.308 85.308 14 82 14ZM82 6C80.898 6 80 6.896 80 8C80 9.104 80.898 10 82 10C83.102 10 84 9.104 84 8C84 6.896 83.102 6 82 6ZM88 34H76C73.794 34 72 32.206 72 30V24C72 20.692 74.692 18 78 18H86C89.308 18 92 20.692 92 24V30C92 32.206 90.206 34 88 34ZM78 22C76.898 22 76 22.896 76 24V30H88.002L88 24C88 22.896 87.102 22 86 22H78ZM12 74C8.692 74 6 71.308 6 68C6 64.692 8.692 62 12 62C15.308 62 18 64.692 18 68C18 71.308 15.308 74 12 74ZM12 66C10.898 66 10 66.896 10 68C10 69.104 10.898 70 12 70C13.102 70 14 69.104 14 68C14 66.896 13.102 66 12 66ZM18 94H6C3.794 94 2 92.206 2 90V84C2 80.692 4.692 78 8 78H16C19.308 78 22 80.692 22 84V90C22 92.206 20.206 94 18 94ZM8 82C6.898 82 6 82.896 6 84V90H18.002L18 84C18 82.896 17.102 82 16 82H8Z" fill="#48FB6F"/>
<path d="M68.2 76.688L51.748 60.236L54.102 58.394C55.696 57.146 57.15 55.692 58.404 54.088L60.232 51.742L76.69 68.2L68.2 76.688ZM57.742 60.574L68.2 71.032L71.032 68.2L60.574 57.742C59.696 58.75 58.75 59.696 57.742 60.574ZM38 40C36.896 40 36 39.106 36 38C36 36.894 36.896 36 38 36C40.206 36 42 34.206 42 32C42 29.794 40.206 28 38 28C35.794 28 34 29.794 34 32C34 33.106 33.104 34 32 34C30.896 34 30 33.106 30 32C30 27.588 33.588 24 38 24C42.412 24 46 27.588 46 32C46 36.412 42.412 40 38 40ZM38 52C37.46 52 36.96 51.798 36.58 51.42C36.2 51.04 36 50.54 36 50C36 49.74 36.06 49.48 36.16 49.24C36.26 49 36.4 48.78 36.58 48.58C37.14 48.02 38.04 47.84 38.76 48.16C39.02 48.26 39.22 48.4 39.42 48.58C39.78 48.958 40 49.48 40 50C40 50.54 39.8 51.04 39.42 51.42C39.04 51.798 38.54 52 38 52Z" fill="#48FB6F"/>
<path d="M38 44C36.896 44 36 43.106 36 42V38C36 36.894 36.896 36 38 36C39.104 36 40 36.894 40 38V42C40 43.106 39.104 44 38 44Z" fill="#48FB6F"/>
</svg>
