<svg version="1.2" baseProfile="tiny-ps" xmlns="http://www.w3.org/2000/svg" viewBox="0 0 755 608" width="755" height="608">
	<title>Group 20-svg</title>
	<defs>
		<clipPath clipPathUnits="userSpaceOnUse" id="cp1">
			<path d="M193.49 -179.74L892.9 11.18L763.14 486.55L63.73 295.64L193.49 -179.74Z" />
		</clipPath>
	</defs>
	<style>
		tspan { white-space:pre }
		.shp0 { fill: #1d1e65 } 
		.shp1 { opacity: 0.565;fill: #48fb6f } 
		.shp2 { opacity: 0.765;fill: #48fb6f } 
		.shp3 { opacity: 0.58;fill: #48fb6f } 
		.shp4 { opacity: 0.855;fill: #48fb6f } 
		.shp5 { opacity: 0.937;fill: #48fb6f } 
		.shp6 { opacity: 0.62;fill: #48fb6f } 
		.shp7 { opacity: 0.922;fill: #48fb6f } 
		.shp8 { opacity: 0.776;fill: #48fb6f } 
		.shp9 { opacity: 0.612;fill: #48fb6f } 
		.shp10 { opacity: 0.698;fill: #48fb6f } 
		.shp11 { opacity: 0.816;fill: #48fb6f } 
		.shp12 { opacity: 0.882;fill: #48fb6f } 
		.shp13 { opacity: 0.894;fill: #48fb6f } 
		.shp14 { opacity: 0.839;fill: #48fb6f } 
		.shp15 { opacity: 0.667;fill: #48fb6f } 
		.shp16 { opacity: 0.627;fill: #48fb6f } 
		.shp17 { opacity: 0.518;fill: #48fb6f } 
		.shp18 { opacity: 0.992;fill: #48fb6f } 
		.shp19 { opacity: 0.647;fill: #48fb6f } 
		.shp20 { opacity: 0.984;fill: #48fb6f } 
		.shp21 { opacity: 0.769;fill: #48fb6f } 
		.shp22 { opacity: 0.808;fill: #48fb6f } 
		.shp23 { opacity: 0.918;fill: #48fb6f } 
		.shp24 { opacity: 0.557;fill: #48fb6f } 
		.shp25 { opacity: 0.949;fill: #48fb6f } 
		.shp26 { opacity: 0.827;fill: #48fb6f } 
		.shp27 { opacity: 0.961;fill: #48fb6f } 
		.shp28 { opacity: 0.8;fill: #48fb6f } 
		.shp29 { opacity: 0.757;fill: #48fb6f } 
		.shp30 { opacity: 0.71;fill: #48fb6f } 
		.shp31 { opacity: 0.631;fill: #48fb6f } 
		.shp32 { opacity: 0.729;fill: #48fb6f } 
		.shp33 { opacity: 0.933;fill: #48fb6f } 
		.shp34 { opacity: 0.733;fill: #48fb6f } 
		.shp35 { opacity: 0.522;fill: #48fb6f } 
		.shp36 { opacity: 0.784;fill: #48fb6f } 
		.shp37 { opacity: 0.941;fill: #48fb6f } 
		.shp38 { opacity: 0.835;fill: #48fb6f } 
		.shp39 { opacity: 0.639;fill: #48fb6f } 
		.shp40 { opacity: 0.847;fill: #48fb6f } 
		.shp41 { opacity: 0.533;fill: #48fb6f } 
		.shp42 { opacity: 0.545;fill: #48fb6f } 
		.shp43 { opacity: 0.561;fill: #48fb6f } 
		.shp44 { opacity: 0.851;fill: #48fb6f } 
		.shp45 { opacity: 0.576;fill: #48fb6f } 
		.shp46 { opacity: 0.902;fill: #48fb6f } 
		.shp47 { opacity: 0.686;fill: #48fb6f } 
		.shp48 { opacity: 0.573;fill: #48fb6f } 
		.shp49 { opacity: 0.722;fill: #48fb6f } 
		.shp50 { opacity: 0.737;fill: #48fb6f } 
		.shp51 { opacity: 0.651;fill: #48fb6f } 
		.shp52 { opacity: 0.671;fill: #48fb6f } 
		.shp53 { opacity: 0.525;fill: #48fb6f } 
		.shp54 { opacity: 0.51;fill: #48fb6f } 
		.shp55 { opacity: 0.98;fill: #48fb6f } 
		.shp56 { opacity: 0.906;fill: #48fb6f } 
		.shp57 { opacity: 0.553;fill: #48fb6f } 
		.shp58 { opacity: 0.584;fill: #48fb6f } 
		.shp59 { opacity: 0.953;fill: #48fb6f } 
		.shp60 { opacity: 0.69;fill: #48fb6f } 
		.shp61 { opacity: 0.663;fill: #48fb6f } 
		.shp62 { opacity: 0.761;fill: #48fb6f } 
		.shp63 { opacity: 0.616;fill: #48fb6f } 
		.shp64 { opacity: 0.502;fill: #48fb6f } 
		.shp65 { opacity: 0.6;fill: #48fb6f } 
		.shp66 { opacity: 0.659;fill: #48fb6f } 
		.shp67 { opacity: 0.929;fill: #48fb6f } 
		.shp68 { opacity: 0.635;fill: #48fb6f } 
		.shp69 { opacity: 0.694;fill: #48fb6f } 
		.shp70 { opacity: 0.843;fill: #48fb6f } 
		.shp71 { opacity: 0.91;fill: #48fb6f } 
		.shp72 { opacity: 0.569;fill: #48fb6f } 
		.shp73 { opacity: 0.867;fill: #48fb6f } 
		.shp74 { opacity: 0.945;fill: #48fb6f } 
		.shp75 { opacity: 0.886;fill: #48fb6f } 
		.shp76 { opacity: 0.588;fill: #48fb6f } 
		.shp77 { opacity: 0.973;fill: #48fb6f } 
		.shp78 { opacity: 0.78;fill: #48fb6f } 
	</style>
	<path id="Layer" class="shp0" d="M192.82 -188.15L849.51 -13.55L849.33 461.18L709.08 593.81C701.76 600.74 692.09 604.64 682.02 604.75L72.08 611.13C25.81 611.61 -8.19 567.86 3.7 523.14L192.82 -188.15Z" />
	<g id="Clip-Path" clip-path="url(#cp1)">
		<g id="Layer" style="opacity: 0.502">
			<path id="Layer" fill-rule="evenodd" class="shp1" d="M519.26 82.77L519.33 82.84L516.65 92.65L507.05 95.31L500.22 88.22L500.14 88.15L502.82 78.33L512.41 75.68L519.26 82.77ZM500.54 88.03L507.16 94.9L516.36 92.35L518.93 82.95L512.3 76.09L503.11 78.63L500.54 88.03Z" />
			<path id="Layer" fill-rule="evenodd" class="shp2" d="M418.13 39.67L418.21 39.74L407.66 78.39L369.98 88.82L369.88 88.85L342.73 60.73L342.66 60.65L353.21 22L390.88 11.58L390.98 11.55L418.13 39.67ZM343.05 60.54L369.99 88.44L407.36 78.1L417.8 39.85L390.87 11.95L353.49 22.3L343.05 60.54Z" />
			<path id="Layer" fill-rule="evenodd" class="shp3" d="M389.95 47.47L390.02 47.54L387.34 57.36L377.75 60.01L370.91 52.92L370.83 52.85L373.51 43.03L383.11 40.38L389.95 47.47ZM371.24 52.74L377.86 59.6L387.05 57.06L389.62 47.66L382.99 40.79L373.8 43.34L371.24 52.74Z" />
			<path id="Layer" fill-rule="evenodd" class="shp4" d="M514.27 -58.02L514.34 -57.95L503.79 -19.29L466.02 -8.85L438.87 -36.96L438.79 -37.04L449.34 -75.69L487.11 -86.14L514.27 -58.02ZM439.19 -37.15L466.13 -9.25L503.5 -19.6L513.94 -57.83L487 -85.73L449.63 -75.39L439.19 -37.15Z" />
			<path id="Layer" fill-rule="evenodd" class="shp5" d="M574.51 103.01L574.59 103.08L553.55 180.18L478.3 201.01L478.2 201.03L423.97 144.87L423.89 144.79L444.94 67.69L520.19 46.87L520.28 46.84L574.51 103.01ZM424.3 144.68L478.31 200.62L553.26 179.88L574.19 103.2L520.17 47.25L445.23 68L424.3 144.68Z" />
			<path id="Layer" fill-rule="evenodd" class="shp6" d="M461.8 134.21L461.87 134.28L451.32 172.93L413.64 183.36L413.54 183.39L386.39 155.26L386.32 155.19L396.87 116.54L434.55 106.11L434.64 106.08L461.8 134.21ZM386.72 155.08L413.65 182.97L451.03 172.63L461.47 134.39L434.53 106.5L397.16 116.84L386.72 155.08Z" />
			<path id="Layer" fill-rule="evenodd" class="shp7" d="M612.09 92.61L612.16 92.69L601.61 131.33L563.94 141.76L563.84 141.79L536.69 113.67L536.62 113.59L547.17 74.95L584.84 64.52L584.94 64.49L612.09 92.61ZM537.02 113.49L563.95 141.38L601.33 131.04L611.77 92.8L584.83 64.9L547.46 75.24L537.02 113.49Z" />
			<path id="Layer" fill-rule="evenodd" class="shp8" d="M539.14 41.72L539.22 41.79L533.91 61.22L514.92 66.48L501.32 52.38L501.24 52.3L506.55 32.87L525.53 27.62L539.14 41.72ZM501.65 52.19L515.04 66.07L533.63 60.92L538.82 41.91L525.42 28.03L506.84 33.18L501.65 52.19Z" />
			<path id="Layer" fill-rule="evenodd" class="shp9" d="M454.6 65.12L454.68 65.19L452 75.01L442.4 77.66L435.56 70.57L435.49 70.5L438.17 60.68L447.76 58.03L454.6 65.12ZM435.89 70.39L442.51 77.25L451.7 74.7L454.27 65.3L447.64 58.44L438.45 60.99L435.89 70.39Z" />
			<path id="Layer" fill-rule="evenodd" class="shp10" d="M593.31 97.81L593.38 97.89L588.08 117.31L569.09 122.57L555.48 108.47L555.4 108.4L560.71 88.97L579.69 83.72L593.31 97.81ZM555.8 108.29L569.2 122.16L587.79 117.02L592.98 98L579.58 84.13L560.99 89.27L555.8 108.29Z" />
			<path id="Layer" fill-rule="evenodd" class="shp11" d="M633.08 15.72L633.15 15.79L622.6 54.44L584.93 64.87L584.83 64.9L557.68 36.78L557.61 36.7L568.16 -1.95L605.83 -12.37L605.93 -12.4L633.08 15.72ZM558.01 36.59L584.94 64.49L622.32 54.15L632.75 15.91L605.82 -11.99L568.44 -1.64L558.01 36.59Z" />
			<path id="Layer" fill-rule="evenodd" class="shp12" d="M578.92 -40.37L579 -40.3L568.45 -1.64L530.67 8.8L503.52 -19.32L503.45 -19.39L514 -58.04L551.77 -68.49L578.92 -40.37ZM503.84 -19.5L530.78 8.39L568.15 -1.95L578.59 -40.19L551.65 -68.08L514.28 -57.74L503.84 -19.5Z" />
			<path id="Layer" fill-rule="evenodd" class="shp13" d="M498.27 159.65L498.34 159.73L495.66 169.54L486.06 172.2L479.23 165.11L479.15 165.04L481.83 155.22L491.43 152.57L498.27 159.65ZM479.55 164.93L486.18 171.79L495.37 169.25L497.94 159.84L491.31 152.98L482.12 155.52L479.55 164.93Z" />
			<path id="Layer" fill-rule="evenodd" class="shp14" d="M636.97 192.35L637.04 192.43L631.74 211.85L612.75 217.1L599.14 203.01L599.07 202.93L604.38 183.51L623.36 178.25L636.97 192.35ZM599.47 202.82L612.87 216.7L631.45 211.55L636.64 192.54L623.25 178.66L604.66 183.81L599.47 202.82Z" />
			<path id="Layer" fill-rule="evenodd" class="shp15" d="M603.8 59.37L603.87 59.44L598.57 78.87L579.58 84.13L565.97 70.03L565.9 69.95L571.2 50.52L590.19 45.27L603.8 59.37ZM566.3 69.84L579.7 83.72L598.28 78.57L603.48 59.56L590.08 45.68L571.49 50.82L566.3 69.84Z" />
			<path id="Layer" fill-rule="evenodd" class="shp16" d="M519.26 82.77L519.33 82.84L516.65 92.65L507.05 95.31L500.22 88.22L500.14 88.15L502.82 78.33L512.41 75.68L519.26 82.77ZM500.54 88.03L507.16 94.9L516.36 92.35L518.93 82.95L512.3 76.09L503.11 78.63L500.54 88.03Z" />
			<path id="Layer" fill-rule="evenodd" class="shp17" d="M540.25 5.87L540.31 5.95L537.64 15.76L528.04 18.41L521.2 11.33L521.13 11.26L523.81 1.44L533.4 -1.22L540.25 5.87ZM521.53 11.15L528.15 18.01L537.35 15.47L539.92 6.06L533.29 -0.81L524.1 1.74L521.53 11.15Z" />
			<path id="Layer" fill-rule="evenodd" class="shp18" d="M697.74 33.37L697.81 33.44L687.26 72.09L649.58 82.52L649.49 82.55L622.33 54.42L622.26 54.35L632.81 15.7L670.48 5.28L670.59 5.25L697.74 33.37ZM622.65 54.24L649.6 82.14L686.97 71.8L697.41 33.56L670.47 5.66L633.09 16L622.65 54.24Z" />
			<path id="Layer" class="shp19" d="M652.33 -54.49L643.64 -22.65L670.59 5.25L707.96 -5.1L716.65 -36.93L716.99 -36.84L708.25 -4.79L670.57 5.63L670.48 5.65L643.32 -22.47L643.25 -22.54L651.99 -54.58L652.33 -54.49Z" />
			<path id="Layer" fill-rule="evenodd" class="shp20" d="M701.62 210L701.69 210.07L696.39 229.5L677.4 234.75L663.8 220.66L663.72 220.58L669.02 201.16L688.01 195.9L701.62 210ZM664.12 220.47L677.52 234.34L696.11 229.2L701.3 210.19L687.9 196.31L669.31 201.46L664.12 220.47Z" />
			<path id="Layer" fill-rule="evenodd" class="shp21" d="M762.38 51.02L762.46 51.09L751.91 89.74L714.24 100.17L714.13 100.19L686.98 72.07L686.91 72L697.46 33.35L735.14 22.92L735.24 22.89L762.38 51.02ZM687.31 71.89L714.25 99.79L751.62 89.44L762.06 51.21L735.12 23.31L697.75 33.65L687.31 71.89Z" />
			<path id="Layer" class="shp22" d="M641.58 -57.43L616.51 -50.49L595.58 26.2L649.6 82.14L724.55 61.4L745.48 -15.29L727.41 -34L728.1 -33.81L745.81 -15.47L745.88 -15.4L724.83 61.7L649.58 82.52L649.49 82.55L595.25 26.38L595.18 26.31L616.22 -50.79L640.89 -57.61L641.58 -57.43Z" />
			<path id="Layer" fill-rule="evenodd" class="shp6" d="M627.57 194.95L627.64 195.03L624.96 204.84L615.38 207.5L608.53 200.41L608.46 200.34L611.14 190.52L620.74 187.87L627.57 194.95ZM608.86 200.22L615.49 207.09L624.68 204.54L627.25 195.14L620.63 188.28L611.43 190.82L608.86 200.22Z" />
			<path id="Layer" fill-rule="evenodd" class="shp23" d="M648.56 118.06L648.63 118.13L645.95 127.95L636.37 130.61L629.52 123.52L629.45 123.45L632.13 113.63L641.73 110.98L648.56 118.06ZM629.85 123.33L636.48 130.19L645.67 127.65L648.23 118.25L641.61 111.39L632.41 113.93L629.85 123.33Z" />
			<path id="Layer" fill-rule="evenodd" class="shp24" d="M697.74 33.37L697.81 33.44L687.26 72.09L649.58 82.52L649.49 82.55L622.33 54.42L622.26 54.35L632.81 15.7L670.48 5.28L670.59 5.25L697.74 33.37ZM622.65 54.24L649.6 82.14L686.97 71.8L697.41 33.56L670.47 5.66L633.09 16L622.65 54.24Z" />
			<path id="Layer" fill-rule="evenodd" class="shp25" d="M772.88 12.57L772.96 12.65L762.41 51.3L724.63 61.75L697.48 33.63L697.41 33.56L707.96 -5.1L745.73 -15.55L772.88 12.57ZM697.81 33.44L724.74 61.34L762.12 51L772.55 12.76L745.62 -15.14L708.25 -4.79L697.81 33.44Z" />
			<path id="Layer" fill-rule="evenodd" class="shp26" d="M854.12 96.72L854.19 96.8L833.15 173.89L757.9 194.71L757.8 194.74L703.57 138.57L703.5 138.5L724.54 61.4L799.79 40.57L799.89 40.54L854.12 96.72ZM703.9 138.38L757.91 194.33L832.86 173.58L853.79 96.9L799.78 40.95L724.83 61.7L703.9 138.38Z" />
			<path id="Layer" fill-rule="evenodd" class="shp27" d="M713.22 135.71L713.29 135.78L710.61 145.6L701.02 148.25L694.18 141.17L694.1 141.09L696.78 131.28L706.38 128.62L713.22 135.71ZM694.51 140.98L701.13 147.84L710.33 145.3L712.89 135.9L706.26 129.03L697.07 131.58L694.51 140.98Z" />
			<path id="Layer" fill-rule="evenodd" class="shp28" d="M816.55 107.11L816.62 107.19L806.07 145.83L768.39 156.26L768.3 156.29L741.14 128.17L741.07 128.09L751.62 89.44L789.3 79.02L789.4 78.99L816.55 107.11ZM741.48 127.98L768.41 155.88L805.78 145.54L816.22 107.29L789.29 79.4L751.91 89.74L741.48 127.98Z" />
			<path id="Layer" class="shp29" d="M716.99 -36.84L708.3 -5L735.24 22.89L772.61 12.55L781.3 -19.29L781.65 -19.19L772.9 12.86L735.23 23.28L735.12 23.3L707.98 -4.82L707.9 -4.89L716.65 -36.93L716.99 -36.84Z" />
			<path id="Layer" fill-rule="evenodd" class="shp30" d="M756.88 230.25L756.96 230.32L754.28 240.14L744.68 242.8L737.84 235.71L737.77 235.63L740.45 225.82L750.04 223.16L756.88 230.25ZM738.17 235.52L744.8 242.38L753.99 239.84L756.56 230.43L749.93 223.57L740.74 226.12L738.17 235.52Z" />
			<path id="Layer" fill-rule="evenodd" class="shp31" d="M785.06 222.45L785.13 222.53L774.58 261.17L736.91 271.6L736.81 271.63L709.66 243.51L709.59 243.43L720.13 204.78L757.82 194.36L757.91 194.33L785.06 222.45ZM709.99 243.32L736.92 271.22L774.3 260.87L784.74 222.63L757.8 194.74L720.43 205.08L709.99 243.32Z" />
			<path id="Layer" class="shp11" d="M502.38 80.61C501.25 80.3 500.58 79.09 500.9 77.92C501.22 76.75 502.41 76.05 503.54 76.36C504.68 76.67 505.35 77.87 505.03 79.04C504.71 80.21 503.52 80.92 502.38 80.61Z" />
			<path id="Layer" class="shp32" d="M511.78 78C510.64 77.69 509.98 76.49 510.3 75.31C510.62 74.15 511.8 73.45 512.94 73.76C514.08 74.07 514.74 75.27 514.42 76.44C514.1 77.62 512.92 78.32 511.78 78Z" />
			<path id="Layer" class="shp29" d="M518.54 85.02C517.41 84.71 516.74 83.5 517.06 82.33C517.38 81.16 518.57 80.46 519.7 80.77C520.85 81.08 521.51 82.29 521.2 83.46C520.88 84.63 519.69 85.33 518.54 85.02Z" />
			<path id="Layer" class="shp2" d="M390.34 13.88C389.2 13.56 388.54 12.36 388.86 11.19C389.18 10.02 390.36 9.32 391.5 9.63C392.64 9.94 393.3 11.14 392.98 12.32C392.67 13.48 391.49 14.19 390.34 13.88Z" />
			<path id="Layer" class="shp33" d="M370.46 54.92C369.32 54.61 368.65 53.4 368.97 52.23C369.29 51.06 370.47 50.36 371.62 50.67C372.75 50.98 373.42 52.19 373.1 53.36C372.78 54.53 371.6 55.23 370.46 54.92Z" />
			<path id="Layer" class="shp34" d="M444.5 69.97C443.37 69.66 442.7 68.45 443.02 67.29C443.34 66.11 444.52 65.41 445.66 65.72C446.8 66.03 447.47 67.24 447.14 68.41C446.83 69.58 445.64 70.28 444.5 69.97Z" />
			<path id="Layer" class="shp31" d="M423.51 146.86C422.38 146.55 421.71 145.34 422.03 144.17C422.35 143 423.54 142.3 424.67 142.61C425.81 142.92 426.48 144.12 426.16 145.3C425.84 146.47 424.65 147.17 423.51 146.86Z" />
			<path id="Layer" class="shp35" d="M461.09 136.46C459.95 136.15 459.29 134.95 459.61 133.78C459.93 132.6 461.11 131.9 462.25 132.21C463.39 132.52 464.05 133.73 463.73 134.9C463.41 136.07 462.23 136.77 461.09 136.46Z" />
			<path id="Layer" class="shp36" d="M385.94 157.26C384.8 156.95 384.14 155.74 384.46 154.57C384.78 153.4 385.96 152.7 387.1 153.01C388.24 153.32 388.9 154.52 388.58 155.7C388.26 156.87 387.08 157.57 385.94 157.26Z" />
			<path id="Layer" class="shp37" d="M524.89 29.95C523.76 29.64 523.09 28.44 523.41 27.26C523.73 26.09 524.92 25.39 526.05 25.7C527.2 26.02 527.86 27.22 527.54 28.39C527.22 29.56 526.04 30.26 524.89 29.95Z" />
			<path id="Layer" class="shp38" d="M533.19 63.2C532.04 62.89 531.38 61.67 531.7 60.51C532.02 59.33 533.21 58.63 534.35 58.95C535.49 59.26 536.15 60.46 535.83 61.64C535.51 62.8 534.33 63.51 533.19 63.2Z" />
			<path id="Layer" class="shp39" d="M500.86 54.38C499.73 54.07 499.07 52.85 499.38 51.69C499.7 50.51 500.89 49.81 502.02 50.12C503.16 50.43 503.83 51.64 503.51 52.81C503.19 53.98 502 54.69 500.86 54.38Z" />
			<path id="Layer" class="shp13" d="M560.27 91.24C559.13 90.93 558.46 89.73 558.78 88.55C559.1 87.38 560.29 86.68 561.43 87C562.57 87.31 563.24 88.51 562.92 89.68C562.59 90.86 561.41 91.56 560.27 91.24Z" />
			<path id="Layer" class="shp40" d="M579.06 86.04C577.92 85.73 577.25 84.53 577.58 83.36C577.9 82.18 579.08 81.49 580.22 81.8C581.35 82.11 582.02 83.3 581.7 84.48C581.38 85.66 580.19 86.36 579.06 86.04Z" />
			<path id="Layer" class="shp18" d="M567.72 0.33C566.58 0.02 565.92 -1.19 566.24 -2.36C566.56 -3.53 567.74 -4.23 568.88 -3.92C570.02 -3.61 570.68 -2.41 570.36 -1.24C570.04 -0.06 568.86 0.64 567.72 0.33Z" />
			<path id="Layer" class="shp36" d="M486.7 169.87C487.84 170.18 488.5 171.39 488.18 172.56C487.86 173.73 486.68 174.43 485.54 174.12C484.4 173.81 483.74 172.6 484.06 171.43C484.38 170.26 485.56 169.56 486.7 169.87Z" />
			<path id="Layer" class="shp41" d="M603.09 61.62C601.95 61.31 601.29 60.11 601.61 58.94C601.92 57.77 603.11 57.07 604.25 57.38C605.39 57.69 606.06 58.89 605.74 60.07C605.42 61.23 604.24 61.93 603.09 61.62Z" />
			<path id="Layer" class="shp18" d="M565.52 72.02C564.38 71.71 563.71 70.5 564.03 69.33C564.35 68.16 565.54 67.46 566.68 67.77C567.82 68.08 568.48 69.28 568.16 70.46C567.84 71.63 566.66 72.33 565.52 72.02Z" />
			<path id="Layer" class="shp31" d="M502.38 80.61C501.25 80.3 500.58 79.09 500.9 77.92C501.22 76.75 502.41 76.05 503.54 76.36C504.68 76.67 505.35 77.87 505.03 79.04C504.71 80.21 503.52 80.92 502.38 80.61Z" />
			<path id="Layer" class="shp22" d="M536.91 17.74C535.77 17.43 535.11 16.23 535.43 15.05C535.75 13.88 536.93 13.18 538.07 13.49C539.22 13.8 539.88 15 539.56 16.18C539.24 17.36 538.05 18.05 536.91 17.74Z" />
			<path id="Layer" class="shp2" d="M632.38 17.98C631.23 17.66 630.57 16.46 630.89 15.29C631.22 14.12 632.39 13.42 633.54 13.73C634.67 14.04 635.34 15.24 635.02 16.41C634.7 17.59 633.51 18.29 632.38 17.98Z" />
			<path id="Layer" class="shp42" d="M669.95 7.59C668.8 7.27 668.14 6.07 668.46 4.89C668.78 3.71 669.96 3.02 671.11 3.33C672.25 3.64 672.91 4.84 672.59 6.02C672.27 7.19 671.08 7.9 669.95 7.59Z" />
			<path id="Layer" class="shp4" d="M697.02 35.62C695.89 35.31 695.22 34.11 695.54 32.93C695.86 31.76 697.05 31.07 698.18 31.38C699.33 31.69 699.99 32.89 699.67 34.06C699.35 35.24 698.17 35.94 697.02 35.62Z" />
			<path id="Layer" class="shp43" d="M686.53 74.07C685.39 73.76 684.73 72.56 685.05 71.38C685.37 70.22 686.55 69.51 687.69 69.82C688.83 70.14 689.5 71.34 689.18 72.51C688.86 73.69 687.67 74.38 686.53 74.07Z" />
			<path id="Layer" class="shp44" d="M648.96 84.47C647.82 84.16 647.15 82.95 647.47 81.78C647.79 80.61 648.98 79.91 650.12 80.22C651.26 80.53 651.92 81.74 651.6 82.91C651.28 84.08 650.1 84.78 648.96 84.47Z" />
			<path id="Layer" class="shp45" d="M676.88 236.67C675.75 236.36 675.08 235.16 675.4 233.99C675.72 232.81 676.9 232.12 678.04 232.43C679.19 232.74 679.84 233.94 679.52 235.11C679.2 236.28 678.03 236.99 676.88 236.67Z" />
			<path id="Layer" class="shp2" d="M734.6 25.23C733.46 24.92 732.8 23.72 733.12 22.54C733.44 21.36 734.62 20.67 735.76 20.98C736.9 21.29 737.56 22.49 737.24 23.67C736.92 24.84 735.74 25.55 734.6 25.23Z" />
			<path id="Layer" class="shp46" d="M610.7 192.79C609.57 192.48 608.9 191.28 609.22 190.1C609.54 188.93 610.73 188.23 611.86 188.54C613.01 188.86 613.67 190.06 613.35 191.23C613.03 192.4 611.85 193.1 610.7 192.79Z" />
			<path id="Layer" class="shp47" d="M635.84 132.52C634.7 132.21 634.03 131.01 634.35 129.84C634.67 128.66 635.86 127.96 637 128.28C638.14 128.59 638.8 129.79 638.48 130.97C638.16 132.13 636.98 132.83 635.84 132.52Z" />
			<path id="Layer" class="shp33" d="M724.1 63.68C722.97 63.37 722.3 62.15 722.62 60.99C722.94 59.81 724.13 59.11 725.26 59.42C726.41 59.73 727.07 60.93 726.75 62.11C726.43 63.28 725.25 63.99 724.1 63.68Z" />
			<path id="Layer" class="shp48" d="M703.12 140.56C701.98 140.25 701.31 139.05 701.63 137.88C701.95 136.7 703.14 136 704.27 136.31C705.42 136.63 706.08 137.83 705.76 139C705.44 140.17 704.26 140.87 703.12 140.56Z" />
			<path id="Layer" class="shp49" d="M712.51 137.96C711.37 137.65 710.7 136.45 711.02 135.27C711.35 134.1 712.53 133.41 713.67 133.72C714.81 134.03 715.48 135.23 715.16 136.4C714.84 137.57 713.65 138.28 712.51 137.96Z" />
			<path id="Layer" class="shp50" d="M734.6 25.23C733.46 24.92 732.8 23.72 733.12 22.54C733.44 21.36 734.62 20.67 735.76 20.98C736.9 21.29 737.56 22.49 737.24 23.67C736.92 24.84 735.74 25.55 734.6 25.23Z" />
			<path id="Layer" class="shp45" d="M745.32 240.47C746.46 240.78 747.12 241.98 746.8 243.15C746.48 244.32 745.3 245.02 744.16 244.71C743.02 244.4 742.36 243.2 742.68 242.03C743 240.85 744.18 240.16 745.32 240.47Z" />
			<path id="Layer" class="shp51" d="M719.71 207.05C718.57 206.74 717.9 205.54 718.22 204.37C718.54 203.19 719.73 202.5 720.86 202.81C722 203.12 722.67 204.32 722.35 205.5C722.03 206.66 720.84 207.36 719.71 207.05Z" />
			<path id="Layer" fill-rule="evenodd" class="shp18" d="M64.82 189.07L54.27 227.72L16.5 238.18L-10.73 209.98L-0.18 171.33L37.59 160.88L64.82 189.07ZM-10.33 209.87L16.61 237.77L53.98 227.43L64.42 189.19L37.48 161.29L0.11 171.63L-10.33 209.87Z" />
			<path id="Layer" fill-rule="evenodd" class="shp37" d="M64.82 189.07L54.27 227.72L16.5 238.18L-10.73 209.98L-0.18 171.33L37.59 160.88L64.82 189.07ZM-10.33 209.87L16.61 237.77L53.98 227.43L64.42 189.19L37.48 161.29L0.11 171.63L-10.33 209.87Z" />
			<path id="Layer" class="shp52" d="M85.82 301.67L89.3 288.92L75.9 275.05L57.31 280.19L53.84 292.94L53.49 292.84L57.03 279.89L76.01 274.64L89.7 288.81L86.17 301.76L85.82 301.67Z" />
			<path id="Layer" fill-rule="evenodd" class="shp53" d="M101.29 214.52L98.61 224.34L89.02 226.99L82.1 219.83L84.78 210.02L94.38 207.36L101.29 214.52ZM82.51 219.72L89.13 226.59L98.33 224.04L100.89 214.63L94.27 207.77L85.08 210.32L82.51 219.72Z" />
			<path id="Layer" fill-rule="evenodd" class="shp35" d="M165.95 232.17L163.27 241.99L153.67 244.64L146.76 237.48L149.44 227.66L159.03 225.01L165.95 232.17ZM147.16 237.37L153.79 244.23L162.98 241.69L165.55 232.28L158.92 225.42L149.73 227.97L147.16 237.37Z" />
			<path id="Layer" fill-rule="evenodd" class="shp39" d="M177.47 157.81L177.54 157.88L156.5 234.97L81.25 255.8L81.15 255.83L26.92 199.66L26.84 199.58L47.89 122.49L123.14 101.66L123.24 101.64L177.47 157.81ZM27.25 199.47L81.26 255.42L156.21 234.68L177.14 157.99L123.13 102.05L48.18 122.79L27.25 199.47Z" />
			<path id="Layer" fill-rule="evenodd" class="shp17" d="M118.9 245.09L118.97 245.17L108.42 283.82L70.65 294.27L43.43 266.08L53.98 227.43L91.65 217L91.75 216.97L118.9 245.09ZM43.83 265.97L70.77 293.86L108.14 283.52L118.58 245.28L91.65 217.38L54.27 227.72L43.83 265.97Z" />
			<path id="Layer" fill-rule="evenodd" class="shp54" d="M175.34 229.57L170.03 249L151.05 254.25L137.37 240.08L142.67 220.65L161.65 215.4L175.34 229.57ZM137.76 239.97L151.16 253.84L169.75 248.7L174.94 229.68L161.55 215.81L142.96 220.95L137.76 239.97Z" />
			<path id="Layer" fill-rule="evenodd" class="shp20" d="M183.56 262.74L183.63 262.82L173.08 301.47L135.31 311.92L108.09 283.73L118.63 245.07L156.31 234.65L156.41 234.62L183.56 262.74ZM108.49 283.62L135.42 311.51L172.8 301.17L183.24 262.93L156.3 235.03L118.93 245.37L108.49 283.62Z" />
			<path id="Layer" class="shp55" d="M77.74 299.46L79.91 291.52L73.28 284.66L64.09 287.2L61.92 295.14L61.58 295.05L63.8 286.91L73.39 284.25L80.3 291.41L78.08 299.55L77.74 299.46Z" />
			<path id="Layer" fill-rule="evenodd" class="shp27" d="M129.47 206.72L118.92 245.37L81.15 255.82L53.93 227.63L64.48 188.98L102.25 178.53L129.47 206.72ZM64.76 189.28L54.32 227.52L81.26 255.42L118.64 245.08L129.08 206.84L102.14 178.94L64.76 189.28L64.76 189.28Z" />
			<path id="Layer" fill-rule="evenodd" class="shp31" d="M129.47 206.72L118.92 245.37L81.15 255.82L53.93 227.63L64.48 188.98L102.25 178.53L129.47 206.72ZM64.76 189.28L54.32 227.52L81.26 255.42L118.64 245.08L129.08 206.84L102.14 178.94L64.76 189.28L64.76 189.28Z" />
			<path id="Layer" fill-rule="evenodd" class="shp14" d="M206.82 114.24L201.52 133.67L182.53 138.92L168.85 124.75L174.15 105.32L193.14 100.06L206.82 114.24ZM169.25 124.64L182.65 138.51L201.23 133.37L206.42 114.35L193.03 100.47L174.44 105.62L169.25 124.64Z" />
			<path id="Layer" fill-rule="evenodd" class="shp56" d="M225.61 109.03L215.06 147.68L177.28 158.14L150.06 129.94L160.61 91.29L198.38 80.84L225.61 109.03ZM160.9 91.59L150.46 129.83L177.4 157.73L214.77 147.39L225.21 109.15L198.28 81.25L160.9 91.59L160.9 91.59Z" />
			<path id="Layer" fill-rule="evenodd" class="shp25" d="M306.77 193.1L306.85 193.18L285.8 270.27L210.56 291.1L210.46 291.12L156.22 234.96L156.15 234.88L177.19 157.78L252.44 136.96L252.54 136.93L306.77 193.1ZM156.55 234.77L210.57 290.71L285.51 269.97L306.45 193.29L252.43 137.34L177.48 158.08L156.55 234.77Z" />
			<path id="Layer" fill-rule="evenodd" class="shp22" d="M304.65 264.87L299.34 284.29L280.36 289.55L266.67 275.38L271.98 255.95L290.96 250.7L304.65 264.87ZM267.07 275.27L280.47 289.13L299.06 284L304.25 264.98L290.85 251.1L272.26 256.25L267.07 275.27Z" />
			<path id="Layer" fill-rule="evenodd" class="shp57" d="M271.47 131.88L266.17 151.31L247.19 156.57L233.5 142.4L238.81 122.97L257.79 117.71L271.47 131.88ZM233.9 142.28L247.3 156.16L265.88 151.01L271.07 132L257.68 118.12L239.09 123.27L233.9 142.28Z" />
			<path id="Layer" fill-rule="evenodd" class="shp6" d="M258.71 241.94L258.78 242.02L248.23 280.67L210.56 291.09L210.46 291.12L183.23 262.93L193.78 224.28L231.56 213.82L258.71 241.94ZM183.63 262.82L210.57 290.71L247.94 280.37L258.38 242.13L231.45 214.23L194.07 224.58L183.63 262.82Z" />
			<path id="Layer" fill-rule="evenodd" class="shp58" d="M336.13 149.53L330.82 168.96L311.84 174.21L298.15 160.04L303.46 140.62L322.44 135.36L336.13 149.53ZM298.56 159.93L311.95 173.81L330.54 168.66L335.73 149.65L322.33 135.77L303.75 140.91L298.56 159.93Z" />
			<path id="Layer" fill-rule="evenodd" class="shp42" d="M279.7 165.05L279.77 165.13L269.22 203.78L231.54 214.21L231.44 214.23L204.22 186.04L214.77 147.39L252.44 136.96L252.54 136.93L279.7 165.05ZM204.62 185.93L231.56 213.82L268.93 203.48L279.37 165.24L252.43 137.35L215.06 147.69L204.62 185.93Z" />
			<path id="Layer" fill-rule="evenodd" class="shp59" d="M323.36 259.59L323.43 259.67L312.88 298.31L275.21 308.74L275.11 308.77L247.89 280.57L258.44 241.93L296.21 231.47L323.36 259.59ZM248.29 280.47L275.22 308.36L312.6 298.02L323.04 259.78L296.1 231.88L258.72 242.23L248.29 280.47Z" />
			<path id="Layer" fill-rule="evenodd" class="shp16" d="M473.66 218L473.73 218.07L463.18 256.73L425.4 267.18L398.18 238.98L408.73 200.33L446.4 189.91L446.51 189.88L473.66 218ZM398.58 238.87L425.52 266.77L462.89 256.43L473.33 218.19L446.39 190.29L409.02 200.63L398.58 238.87Z" />
			<path id="Layer" fill-rule="evenodd" class="shp52" d="M344.35 182.7L344.42 182.78L333.87 221.43L296.2 231.85L296.1 231.88L268.87 203.69L279.42 165.04L317.1 154.61L317.2 154.58L344.35 182.7ZM269.27 203.57L296.21 231.47L333.59 221.13L344.03 182.89L317.09 154.99L279.71 165.33L269.27 203.57Z" />
			<path id="Layer" class="shp42" d="M88.92 291C87.78 290.69 87.11 289.48 87.44 288.3C87.76 287.13 88.94 286.43 90.08 286.74C91.22 287.05 91.88 288.26 91.56 289.43C91.24 290.61 90.06 291.3 88.92 291Z" />
			<path id="Layer" class="shp60" d="M93.74 209.69C92.6 209.38 91.94 208.18 92.26 207C92.58 205.83 93.76 205.13 94.9 205.44C96.04 205.75 96.7 206.96 96.38 208.13C96.06 209.3 94.88 210 93.74 209.69Z" />
			<path id="Layer" class="shp61" d="M162.54 243.96C161.41 243.65 160.74 242.45 161.06 241.27C161.38 240.1 162.56 239.4 163.7 239.71C164.84 240.03 165.51 241.23 165.19 242.4C164.87 243.57 163.68 244.27 162.54 243.96Z" />
			<path id="Layer" class="shp61" d="M122.6 103.97C121.46 103.66 120.8 102.45 121.12 101.28C121.44 100.11 122.62 99.41 123.76 99.72C124.9 100.03 125.56 101.23 125.24 102.41C124.92 103.58 123.74 104.28 122.6 103.97Z" />
			<path id="Layer" class="shp59" d="M176.76 160.06C175.62 159.75 174.96 158.54 175.28 157.37C175.6 156.2 176.78 155.5 177.92 155.81C179.06 156.12 179.72 157.32 179.4 158.5C179.08 159.68 177.9 160.37 176.76 160.06Z" />
			<path id="Layer" class="shp53" d="M91.12 219.3C89.98 218.99 89.31 217.79 89.63 216.62C89.95 215.44 91.14 214.74 92.28 215.06C93.42 215.37 94.08 216.56 93.76 217.74C93.44 218.91 92.26 219.61 91.12 219.3Z" />
			<path id="Layer" class="shp62" d="M118.2 247.35C117.06 247.04 116.4 245.83 116.72 244.66C117.04 243.49 118.22 242.79 119.36 243.1C120.5 243.41 121.16 244.61 120.84 245.78C120.52 246.96 119.34 247.66 118.2 247.35Z" />
			<path id="Layer" class="shp63" d="M107.7 285.79C106.56 285.48 105.9 284.28 106.22 283.11C106.54 281.93 107.72 281.23 108.86 281.55C110 281.86 110.67 283.06 110.35 284.23C110.03 285.41 108.84 286.1 107.7 285.79Z" />
			<path id="Layer" class="shp64" d="M169.32 250.97C168.18 250.66 167.51 249.46 167.83 248.28C168.15 247.11 169.34 246.41 170.47 246.72C171.61 247.03 172.28 248.24 171.96 249.41C171.64 250.59 170.45 251.28 169.32 250.97Z" />
			<path id="Layer" class="shp65" d="M209.93 293.04C208.79 292.73 208.13 291.53 208.45 290.35C208.77 289.18 209.95 288.48 211.09 288.79C212.23 289.1 212.89 290.31 212.57 291.48C212.25 292.65 211.07 293.35 209.93 293.04Z" />
			<path id="Layer" class="shp66" d="M118.2 247.35C117.06 247.04 116.4 245.83 116.72 244.66C117.04 243.49 118.22 242.79 119.36 243.1C120.5 243.41 121.16 244.61 120.84 245.78C120.52 246.96 119.34 247.66 118.2 247.35Z" />
			<path id="Layer" class="shp3" d="M206.04 116.42C204.91 116.1 204.24 114.9 204.56 113.73C204.88 112.56 206.06 111.86 207.2 112.17C208.34 112.48 209.01 113.68 208.69 114.85C208.37 116.03 207.18 116.72 206.04 116.42Z" />
			<path id="Layer" class="shp67" d="M182.01 140.84C180.87 140.53 180.2 139.32 180.52 138.15C180.84 136.98 182.03 136.28 183.17 136.59C184.3 136.9 184.97 138.1 184.65 139.28C184.33 140.45 183.15 141.15 182.01 140.84Z" />
			<path id="Layer" class="shp68" d="M168.47 126.82C167.33 126.51 166.67 125.3 166.99 124.13C167.31 122.96 168.49 122.26 169.63 122.57C170.77 122.88 171.43 124.08 171.11 125.25C170.79 126.42 169.61 127.13 168.47 126.82Z" />
			<path id="Layer" class="shp69" d="M160.18 93.57C159.04 93.26 158.37 92.05 158.69 90.88C159.01 89.71 160.2 89.01 161.34 89.32C162.47 89.63 163.14 90.83 162.82 92.01C162.5 93.18 161.31 93.88 160.18 93.57Z" />
			<path id="Layer" class="shp21" d="M145.28 275.39C144.14 275.08 143.47 273.88 143.79 272.7C144.11 271.53 145.3 270.83 146.44 271.14C147.57 271.45 148.24 272.66 147.92 273.83C147.6 275.01 146.42 275.71 145.28 275.39Z" />
			<path id="Layer" class="shp70" d="M172.35 303.44C171.22 303.13 170.55 301.93 170.87 300.75C171.19 299.58 172.38 298.88 173.51 299.19C174.66 299.5 175.32 300.71 175 301.88C174.68 303.06 173.5 303.75 172.35 303.44Z" />
			<path id="Layer" class="shp18" d="M303.87 267.05C302.73 266.74 302.07 265.53 302.39 264.36C302.71 263.19 303.89 262.49 305.03 262.8C306.17 263.11 306.83 264.31 306.51 265.49C306.19 266.66 305.01 267.36 303.87 267.05Z" />
			<path id="Layer" class="shp27" d="M298.62 286.27C297.49 285.96 296.82 284.76 297.14 283.58C297.46 282.41 298.64 281.71 299.78 282.02C300.92 282.33 301.58 283.54 301.26 284.71C300.94 285.88 299.76 286.58 298.62 286.27Z" />
			<path id="Layer" class="shp71" d="M172.36 303.44C171.22 303.13 170.56 301.93 170.88 300.75C171.2 299.58 172.38 298.88 173.52 299.19C174.66 299.5 175.32 300.71 175 301.88C174.68 303.06 173.5 303.75 172.36 303.44Z" />
			<path id="Layer" class="shp35" d="M220.43 254.6C219.28 254.29 218.62 253.09 218.94 251.91C219.26 250.74 220.44 250.04 221.58 250.35C222.72 250.66 223.39 251.86 223.07 253.04C222.75 254.21 221.56 254.91 220.43 254.6Z" />
			<path id="Layer" class="shp72" d="M342.96 282.88C341.82 282.57 341.16 281.37 341.48 280.19C341.8 279.02 342.98 278.32 344.12 278.63C345.26 278.95 345.93 280.15 345.61 281.32C345.29 282.5 344.1 283.2 342.96 282.88Z" />
			<path id="Layer" class="shp73" d="M321.81 137.69C320.68 137.38 320.01 136.17 320.33 135C320.65 133.83 321.83 133.13 322.97 133.44C324.11 133.75 324.78 134.96 324.46 136.13C324.14 137.3 322.95 138 321.81 137.69Z" />
			<path id="Layer" class="shp74" d="M268.5 205.76C267.36 205.45 266.69 204.24 267.01 203.07C267.33 201.9 268.52 201.2 269.66 201.51C270.79 201.82 271.46 203.02 271.14 204.19C270.82 205.37 269.63 206.07 268.5 205.76Z" />
			<path id="Layer" class="shp40" d="M230.92 216.15C229.78 215.84 229.12 214.64 229.44 213.47C229.76 212.29 230.94 211.59 232.08 211.91C233.22 212.22 233.88 213.42 233.56 214.59C233.24 215.76 232.06 216.46 230.92 216.15Z" />
			<path id="Layer" class="shp75" d="M258 244.2C256.86 243.89 256.2 242.69 256.52 241.51C256.84 240.34 258.02 239.64 259.16 239.95C260.3 240.26 260.96 241.47 260.64 242.64C260.32 243.81 259.14 244.51 258 244.2Z" />
			<path id="Layer" class="shp76" d="M322.65 261.85C321.51 261.54 320.85 260.33 321.17 259.16C321.49 257.99 322.68 257.29 323.81 257.6C324.96 257.91 325.62 259.11 325.3 260.29C324.98 261.46 323.8 262.16 322.65 261.85Z" />
			<path id="Layer" class="shp77" d="M424.88 269.1C423.75 268.79 423.08 267.58 423.4 266.41C423.72 265.24 424.9 264.54 426.04 264.85C427.18 265.16 427.85 266.37 427.52 267.54C427.2 268.71 426.02 269.41 424.88 269.1Z" />
			<path id="Layer" class="shp15" d="M316.56 156.91C315.43 156.6 314.76 155.4 315.08 154.22C315.4 153.05 316.59 152.35 317.72 152.66C318.86 152.98 319.53 154.18 319.21 155.35C318.89 156.52 317.7 157.22 316.56 156.91Z" />
			<path id="Layer" class="shp78" d="M295.57 233.8C294.44 233.49 293.77 232.29 294.09 231.12C294.41 229.94 295.6 229.25 296.73 229.56C297.87 229.87 298.54 231.07 298.22 232.24C297.9 233.41 296.71 234.11 295.57 233.8Z" />
		</g>
	</g>
</svg>