<svg id="Layer_1" data-name="Layer 1" xmlns="http://www.w3.org/2000/svg" viewBox="0 0 1080 1080"><defs><style>.cls-1{isolation:isolate;}.cls-2,.cls-3{fill:none;stroke:#6566b0;stroke-width:4px;}.cls-2{stroke-miterlimit:10;}.cls-3{stroke-linejoin:round;}.cls-4{fill:#22e64d;}</style></defs><title>Web_SVG</title><g class="cls-1"><path class="cls-2" d="M662,508.35c-.51.45-1.07.87-1.61,1.31s-1.32,1.12-2,1.65-1.17.81-1.75,1.22-1.44,1-2.2,1.53-1.27.76-1.9,1.14-1.54.95-2.35,1.4-1.4.71-2.1,1.07-1.6.84-2.43,1.23-1.5.64-2.24,1-1.7.76-2.58,1.11-1.6.56-2.4.85-1.77.66-2.7,1-1.72.5-2.58.75-1.83.56-2.78.8-1.79.41-2.68.61-1.94.48-2.95.68-1.88.32-2.82.48-2,.37-3.06.52-2,.24-3,.35-2,.26-3,.36h-.14c-2.15.19-4.32.31-6.48.39-.66,0-1.31,0-2,0-.85,0-1.69.06-2.54.06l-2.64,0-1.14,0c-1.73,0-3.46-.11-5.19-.22-.27,0-.53-.06-.8-.07-1.61-.11-3.23-.28-4.85-.45-.76-.08-1.53-.12-2.3-.21l-1-.12c-1.9-.24-3.79-.53-5.67-.84l-.7-.1-.65-.13c-2-.36-4.09-.75-6.12-1.19l-.22,0-.58-.14c-1.83-.41-3.66-.86-5.47-1.33l-.71-.17-.37-.11c-1.93-.52-3.86-1.07-5.77-1.67l-.49-.14c-.24-.07-.47-.16-.71-.24q-2.84-.9-5.64-1.9l-.24-.08-.07,0c-2-.72-4-1.49-5.9-2.28l-.67-.26c-.16-.07-.32-.15-.49-.21-2-.82-3.93-1.68-5.86-2.57-.13-.07-.27-.12-.41-.18l-.56-.28c-2.12-1-4.21-2-6.27-3.11l-.19-.1c-.12-.06-.23-.14-.36-.2q-3.51-1.86-6.9-3.89l-.19-.11-.29-.19q-3.84-2.31-7.48-4.82c-.12-.09-.26-.16-.38-.24l-.56-.41c-1.55-1.09-3.09-2.19-4.58-3.33,0,0,0,0,0,0-1.48-1.12-2.92-2.28-4.34-3.46l-.55-.44-.55-.48c-.94-.8-1.87-1.61-2.78-2.42l-.85-.76c-1.16-1.06-2.3-2.15-3.42-3.24l-.77-.78c-.85-.86-1.69-1.73-2.51-2.61l-1-1.11c-.77-.84-1.51-1.68-2.24-2.53l-.87-1q-1.47-1.76-2.85-3.56c-.12-.14-.22-.3-.33-.44-.81-1.06-1.59-2.13-2.34-3.22-.27-.38-.53-.77-.8-1.16-.6-.89-1.18-1.79-1.74-2.69l-.75-1.19c-.68-1.13-1.34-2.27-2-3.42l-.21-.35,0-.07c-.61-1.12-1.19-2.25-1.74-3.38s-1-2.11-1.44-3.15c-.16-.37-.3-.74-.45-1.1-.28-.68-.57-1.36-.82-2a.36.36,0,0,1,0-.09c-.08-.2-.14-.4-.21-.59-.33-.9-.65-1.8-.94-2.7-.13-.39-.24-.78-.36-1.17-.22-.73-.44-1.46-.63-2.19-.05-.18-.12-.36-.16-.54s-.13-.57-.2-.86c-.14-.53-.26-1.06-.38-1.59l-.3-1.46c-.1-.52-.2-1.05-.29-1.57,0-.23-.08-.46-.12-.68s0-.27,0-.41c-.25-1.62-.42-3.23-.53-4.83,0-.1,0-.2,0-.3s0-.3,0-.45c-.08-1.52-.11-3-.06-4.53v-.13c0-.11,0-.22,0-.33.06-1.41.17-2.81.34-4.19,0-.11,0-.22,0-.32a.68.68,0,0,0,0-.14c.18-1.38.43-2.75.72-4.11,0-.14,0-.28.07-.42s.07-.23.1-.35c.3-1.33.66-2.64,1.07-3.94,0-.08,0-.17.07-.26.2-.6.41-1.21.63-1.81L479,394.35c-.25.68-.47,1.37-.69,2.07-.42,1.29-.77,2.61-1.08,3.94-.06.25-.11.51-.16.76-.29,1.36-.54,2.73-.72,4.12,0,.15,0,.3-.05.45-.16,1.39-.28,2.78-.33,4.2,0,.15,0,.3,0,.46-.05,1.49,0,3,.06,4.53,0,.25,0,.5,0,.75.1,1.59.28,3.21.52,4.83.06.36.11.72.17,1.08.09.52.19,1,.29,1.58s.19,1,.3,1.45.24,1.06.37,1.6.23.93.36,1.4c.2.72.41,1.45.64,2.19.12.39.23.77.36,1.17.29.89.6,1.79.94,2.69l.24.69c.26.67.55,1.35.83,2,.15.37.29.73.45,1.1q.68,1.57,1.44,3.15c.55,1.14,1.13,2.26,1.73,3.38.08.15.17.29.24.43.63,1.15,1.3,2.29,2,3.42.24.4.49.79.74,1.18.57.91,1.15,1.8,1.75,2.69l.8,1.17c.75,1.08,1.53,2.15,2.33,3.21l.33.45c.92,1.2,1.88,2.38,2.86,3.55.28.34.58.68.87,1,.73.85,1.47,1.7,2.23,2.53.34.38.68.75,1,1.12.82.88,1.66,1.74,2.52,2.6l.77.78q1.66,1.65,3.42,3.24l.85.76c.91.82,1.83,1.63,2.78,2.43l1.1.91c1.41,1.18,2.85,2.34,4.32,3.46l.06,0c1.49,1.14,3,2.24,4.57,3.33l1,.65c2.42,1.67,4.92,3.29,7.47,4.83l.49.3c2.25,1.35,4.56,2.64,6.9,3.89l.55.29q3.09,1.62,6.27,3.11l1,.46c1.93.9,3.88,1.75,5.86,2.57l1.15.47q2.93,1.2,5.9,2.28l.32.11q2.79,1,5.63,1.9l1.2.38c1.92.59,3.84,1.15,5.78,1.67l1.07.28c1.82.47,3.64.91,5.48,1.32.26.06.53.13.8.18,2,.45,4.07.84,6.11,1.2l1.35.23c1.89.31,3.78.6,5.67.84,1.09.14,2.18.22,3.27.33,1.62.16,3.23.33,4.85.44q3,.21,6,.29l1.14,0c1.73,0,3.46,0,5.19,0l2-.05c2.17-.08,4.33-.2,6.49-.4,1.12-.1,2.2-.25,3.3-.38s2-.2,2.89-.34,2.09-.35,3.14-.53,1.85-.29,2.74-.47,2-.46,3.05-.69c.86-.2,1.74-.37,2.58-.59,1-.26,2-.57,3-.86.81-.23,1.63-.44,2.41-.69,1-.31,1.88-.67,2.81-1,.76-.28,1.55-.53,2.29-.82.9-.35,1.75-.74,2.63-1.12s1.48-.61,2.19-.94c.88-.41,1.72-.87,2.57-1.31.65-.33,1.33-.65,2-1,.84-.46,1.63-1,2.44-1.45.6-.36,1.22-.71,1.8-1.08.77-.49,1.48-1,2.21-1.53"/><path class="cls-2" d="M664.06,494.36c-11.34,8.3-26.6,13.85-45,15.49a134.34,134.34,0,0,1-28.88-.61c-45.51-5.75-90-33.08-107.2-68.65-20.88-43.11,6.22-82,60.5-86.87a134.92,134.92,0,0,1,28.87.62A158.74,158.74,0,0,1,621.22,369c25.89,12.54,47.52,31.66,58.34,54a70.18,70.18,0,0,1,6.22,19"/></g><g class="cls-1"><path class="cls-2" d="M676.77,557.57l.79.92c.12.13.23.27.34.4l.22.22c.84.93,1.7,1.81,2.59,2.64l.17.17.26.21c.86.78,1.73,1.53,2.63,2.22l.08.06c.07.06.14.1.21.15.86.65,1.73,1.25,2.63,1.82l.2.14.09.05c.9.56,1.83,1.08,2.77,1.56l.28.16.25.11c.93.46,1.88.88,2.84,1.26l.18.09,1.37.5,13.39,4.64c-.52-.18-1-.39-1.55-.59-1-.38-1.91-.8-2.84-1.26l-.53-.27c-.94-.49-1.87-1-2.77-1.56l-.29-.19c-.9-.57-1.77-1.18-2.63-1.83l-.28-.2c-.91-.7-1.78-1.44-2.65-2.22l-.42-.39c-.89-.82-1.75-1.71-2.59-2.63l-.56-.62-.79-.93c-.24-.29-.48-.58-.71-.88s-.51-.65-.76-1-.44-.59-.65-.89c-.34-.46-.66-.94-1-1.43l-.51-.77c-.39-.6-.77-1.22-1.14-1.85l-.28-.48c-.28-.48-.54-1-.81-1.47-.14-.26-.29-.52-.43-.79-.4-.77-.78-1.56-1.16-2.36s-.79-1.76-1.16-2.65a3.62,3.62,0,0,0-.13-.35c-.37-.92-.73-1.86-1.06-2.81-.12-.33-.23-.67-.35-1-.26-.77-.5-1.54-.74-2.32l-.3-1c-.28-1-.53-1.94-.77-2.93,0-.13-.07-.27-.11-.41-.26-1.12-.5-2.25-.71-3.39-.07-.33-.12-.66-.18-1-.15-.84-.29-1.68-.42-2.53,0-.38-.11-.76-.16-1.15-.12-.9-.23-1.81-.32-2.73l-.09-.83c-.11-1.19-.2-2.38-.26-3.58,0-.28,0-.57,0-.86,0-.93-.08-1.87-.09-2.8,0-.37,0-.73,0-1.1,0-1.39,0-2.8,0-4.21v-.05c0-1.43.14-2.86.25-4.3,0-.29,0-.58.07-.87.18-2.23.43-4.48.75-6.73l.06-.42c.29-2,.64-4,1-5.94l.09-.47c.35-1.73.75-3.46,1.18-5.19.07-.26.13-.53.2-.79.4-1.57.84-3.13,1.31-4.69.09-.3.18-.61.28-.91.47-1.53,1-3.06,1.49-4.57l.09-.24c.5-1.42,1-2.83,1.6-4.24.11-.29.23-.59.35-.89q.85-2.12,1.8-4.2c.11-.26.23-.51.35-.77.59-1.3,1.21-2.58,1.85-3.86.1-.19.18-.37.28-.56q1.08-2.12,2.24-4.18c.17-.3.34-.6.52-.9.72-1.27,1.46-2.52,2.23-3.75.44-.71.92-1.39,1.38-2.08.68-1,1.36-2.07,2.07-3.07q1.32-1.87,2.71-3.67l.54-.68c.81-1,1.65-2,2.51-3l1-1.14c1.09-1.24,2.2-2.45,3.35-3.63.6-.61,1.22-1.18,1.82-1.76s1.06-1,1.59-1.54,1.21-1.06,1.82-1.59,1.07-.95,1.6-1.39,1.25-1,1.88-1.46,1-.85,1.59-1.24,1.28-.89,1.92-1.33,1-.74,1.57-1.08,1.3-.79,1.94-1.18,1.06-.66,1.59-.95,1.28-.68,1.92-1,1.07-.58,1.61-.84,1.34-.59,2-.89c.51-.22,1-.47,1.53-.67.68-.28,1.36-.5,2-.74.5-.18,1-.39,1.5-.55.66-.21,1.31-.37,2-.56s1.05-.31,1.57-.44,1.3-.27,2-.4,1-.23,1.55-.32c.68-.11,1.36-.18,2-.26.48-.06,1-.14,1.42-.18.7-.06,1.4-.07,2.09-.1.45,0,.9-.06,1.34-.07.67,0,1.33,0,2,.07.46,0,.92,0,1.38.05.72,0,1.43.16,2.15.25.39,0,.78.08,1.16.14.82.13,1.62.32,2.42.5.28.06.56.1.83.17,1.07.27,2.13.58,3.17.94L749,413.72c-1-.36-2.1-.68-3.17-1-.27-.07-.55-.1-.83-.17-.8-.18-1.6-.36-2.42-.5-.38-.06-.77-.08-1.16-.13-.72-.1-1.43-.2-2.15-.26-.46,0-.92,0-1.38,0-.67,0-1.33-.08-2-.07-.46,0-.93,0-1.4.06-.67,0-1.34,0-2,.1-.49,0-1,.13-1.48.19-.66.08-1.32.14-2,.25s-1,.22-1.55.32-1.3.24-1.95.41-1.05.29-1.57.44-1.3.34-2,.56-1.05.38-1.58.57-1.3.45-2,.71-1.09.48-1.64.72-1.26.54-1.9.84-1.09.57-1.64.86-1.26.63-1.89,1-1.11.67-1.66,1-1.24.73-1.86,1.13-1.13.77-1.69,1.16-1.21.81-1.81,1.25-1.1.85-1.65,1.28-1.21.92-1.82,1.42-1.09.95-1.64,1.43-1.19,1-1.78,1.55-1.11,1.08-1.66,1.61-1.12,1.06-1.67,1.62l-.08.08c-1.15,1.17-2.26,2.39-3.35,3.63-.33.37-.65.75-1,1.13s-.85,1-1.26,1.47-.84,1.05-1.25,1.57l-.54.68c-.81,1-1.6,2.09-2.37,3.17-.12.16-.22.33-.34.5-.71,1-1.39,2-2.07,3.07-.33.49-.67,1-1,1.46l-.39.62c-.77,1.23-1.51,2.49-2.23,3.75-.09.16-.19.31-.28.46l-.24.45q-1.15,2.06-2.24,4.17a1.09,1.09,0,0,0-.08.15c-.07.14-.13.28-.2.41-.64,1.28-1.26,2.57-1.85,3.87l-.24.49-.11.27c-.63,1.39-1.23,2.8-1.8,4.21l-.15.35-.2.54c-.56,1.4-1.1,2.81-1.6,4.23,0,.07,0,.13-.07.19s0,0,0,.05c-.53,1.52-1,3-1.49,4.57-.06.18-.12.35-.17.52s-.07.26-.11.39c-.47,1.56-.91,3.12-1.31,4.69l-.09.33c0,.15-.07.31-.11.46-.43,1.73-.83,3.46-1.18,5.19,0,.06,0,.11,0,.16s0,.21,0,.31c-.39,2-.74,4-1,5.94l0,.16,0,.27q-.48,3.38-.75,6.73c0,.11,0,.22,0,.33s0,.35,0,.53c-.11,1.44-.2,2.88-.25,4.31v0c-.05,1.41-.05,2.82,0,4.22,0,.18,0,.36,0,.54s0,.36,0,.55c0,.94,0,1.87.09,2.8,0,.29,0,.58,0,.87.06,1.2.15,2.39.26,3.57l.09.83c.09.92.2,1.83.32,2.74,0,.38.11.76.16,1.14.13.85.27,1.7.42,2.54.06.33.11.66.18,1,.21,1.14.45,2.28.71,3.4,0,.14.08.27.11.41.24,1,.49,2,.77,2.92l.3,1c.24.78.48,1.56.74,2.32.12.34.23.68.35,1,.33.95.69,1.89,1.06,2.81,0,.1.07.2.11.29a.14.14,0,0,1,0,.06c.37.89.76,1.78,1.16,2.65s.76,1.6,1.16,2.37c.14.27.29.52.43.79.27.49.53,1,.81,1.47l0,.06.25.41c.37.63.75,1.25,1.14,1.85.17.27.34.52.52.78.32.48.64,1,1,1.42l.24.36c.14.18.28.35.41.53l.76,1Z"/><path class="cls-2" d="M763,556.46a102.28,102.28,0,0,0,13.54-17.3,121.2,121.2,0,0,0,14.91-35.82c5.07-21.29,4.22-43.24-3.75-60.39-5.83-12.53-14.61-20.71-24.85-24.42-16.77-6.07-37.45-.15-55.46,18.25a102.81,102.81,0,0,0-13.53,17.31c-18.52,29.58-23.82,68.94-11.16,96.21C698.07,583.35,734,586.1,763,556.46Z"/></g><g class="cls-1"><path class="cls-2" d="M432.87,775.92c0-.42.08-.84.13-1.26l.06-.54.06-.31c.18-1.29.4-2.54.68-3.77,0-.08,0-.16.05-.24s.06-.22.09-.34c.28-1.17.6-2.31,1-3.43l0-.1a1.84,1.84,0,0,1,.09-.25c.36-1,.76-2.08,1.19-3.09l.09-.24.05-.09c.44-1,.94-2,1.46-3l.15-.3c0-.09.1-.16.15-.24.53-.94,1.09-1.85,1.69-2.74l.11-.18.88-1.23,8.76-11.77c-.34.46-.66.93-1,1.41-.6.88-1.16,1.8-1.69,2.73l-.3.54c-.52,1-1,1.94-1.46,3-.05.11-.09.23-.14.34-.43,1-.83,2-1.19,3.09l-.12.34c-.37,1.12-.68,2.27-1,3.44,0,.19-.09.38-.13.57-.28,1.23-.51,2.49-.69,3.77,0,.29-.08.57-.11.86s-.1.83-.14,1.26-.07.77-.1,1.16,0,.86-.07,1.29,0,.75,0,1.14c0,.59,0,1.19,0,1.79,0,.32,0,.64,0,1,0,.74.06,1.49.11,2.24l0,.58c.05.57.11,1.14.17,1.72l.09.93q.17,1.34.39,2.7c.16,1,.35,2,.55,3l.09.37c.22,1,.46,2,.73,3,.09.35.19.71.29,1.06.23.81.47,1.62.72,2.42.11.36.22.71.34,1.06.33,1,.67,2,1,3,.06.14.1.28.15.42.43,1.11.89,2.22,1.37,3.32.14.32.28.64.43,1,.36.8.73,1.61,1.12,2.41.17.36.35.72.53,1.07.42.85.86,1.69,1.32,2.53l.4.77c.6,1.07,1.22,2.15,1.86,3.21.15.26.32.51.47.76.51.83,1,1.64,1.56,2.46l.62.94c.81,1.2,1.64,2.4,2.5,3.58l0,0c.87,1.2,1.79,2.37,2.71,3.54l.57.7q2.19,2.71,4.57,5.33l.3.33c1.4,1.52,2.85,3,4.34,4.48l.35.35q2,1.92,4,3.75l.63.57q1.89,1.66,3.85,3.25l.77.62c1.3,1,2.61,2.05,3.95,3l.21.15q1.89,1.38,3.84,2.7l.82.55q2,1.32,4,2.56l.74.45c1.27.76,2.55,1.51,3.84,2.23l.57.31c1.43.79,2.89,1.55,4.35,2.27l1,.48c1.36.66,2.72,1.3,4.09,1.91.8.34,1.6.65,2.4,1,1.18.48,2.37,1,3.57,1.42,1.47.55,3,1.07,4.45,1.56l.86.27c1.3.4,2.61.78,3.92,1.14l1.5.4q2.47.64,5,1.16c.87.17,1.73.3,2.59.45s1.51.28,2.25.39,1.66.2,2.49.3,1.47.19,2.18.26,1.64.11,2.46.16,1.4.11,2.08.13,1.62,0,2.43,0c.65,0,1.32,0,2,0s1.57-.08,2.35-.13,1.28-.05,1.91-.1,1.49-.17,2.23-.26,1.26-.13,1.87-.22c.76-.12,1.49-.27,2.24-.41.56-.11,1.15-.19,1.71-.32.74-.16,1.45-.36,2.17-.55.53-.14,1.08-.26,1.6-.41.69-.2,1.34-.44,2-.67s1.08-.33,1.6-.53,1.27-.52,1.9-.79,1-.4,1.51-.63c.66-.3,1.28-.64,1.91-1,.44-.23.89-.43,1.32-.67.64-.36,1.24-.75,1.85-1.14.39-.24.8-.47,1.18-.72.58-.39,1.12-.81,1.67-1.22.38-.29.78-.55,1.16-.85.58-.47,1.13-1,1.69-1.47.3-.27.62-.52.92-.8.62-.58,1.2-1.21,1.78-1.83.19-.21.41-.41.61-.63.76-.85,1.48-1.74,2.16-2.66L578.54,857c-.69.91-1.41,1.8-2.17,2.65-.19.22-.41.42-.61.63-.58.63-1.16,1.25-1.78,1.84-.29.28-.61.53-.91.8-.56.49-1.11,1-1.7,1.47-.37.29-.77.56-1.15.84-.55.41-1.09.84-1.67,1.22-.4.27-.83.51-1.24.76-.59.37-1.17.76-1.79,1.1-.45.25-.93.47-1.39.71s-1.21.64-1.84.93-1,.42-1.51.63-1.25.55-1.91.8-1.06.35-1.59.53-1.32.46-2,.66-1.13.29-1.69.43-1.37.38-2.08.54-1.23.22-1.84.33-1.39.28-2.11.39-1.27.15-1.9.23-1.46.19-2.2.25-1.34.07-2,.11-1.49.1-2.26.12-1.41,0-2.11,0-1.52,0-2.29,0-1.44-.09-2.15-.13-1.58-.08-2.39-.16-1.49-.18-2.24-.26-1.61-.18-2.43-.3-1.57-.27-2.36-.41-1.57-.25-2.37-.41l-.11,0c-1.67-.34-3.33-.73-5-1.15l-1.49-.41c-.65-.17-1.3-.33-1.94-.52l-2-.62-.85-.27c-1.3-.42-2.59-.86-3.88-1.33l-.58-.23c-1.19-.44-2.38-.93-3.56-1.42-.56-.23-1.13-.43-1.69-.67l-.71-.31c-1.37-.6-2.74-1.25-4.09-1.91l-.51-.23-.46-.24c-1.47-.73-2.92-1.48-4.36-2.27l-.15-.08-.41-.24q-1.93-1.08-3.84-2.23l-.49-.28-.26-.17c-1.34-.82-2.67-1.68-4-2.55l-.33-.22-.49-.34c-1.29-.88-2.57-1.77-3.83-2.69l-.17-.12,0,0c-1.34-1-2.66-2-3.95-3l-.45-.34-.32-.28q-2-1.59-3.85-3.25l-.27-.22-.36-.34q-2.07-1.85-4-3.76l-.12-.11-.23-.23c-1.49-1.47-2.94-3-4.35-4.49l-.11-.12c-.07-.07-.12-.14-.18-.21-1.59-1.74-3.11-3.51-4.58-5.32l-.22-.27c-.12-.14-.22-.29-.34-.43-.93-1.17-1.84-2.35-2.71-3.55l0,0q-1.29-1.77-2.5-3.59c-.1-.15-.22-.3-.32-.46l-.3-.48c-.54-.81-1.05-1.63-1.56-2.45l-.47-.76c-.65-1.07-1.26-2.14-1.86-3.22l-.41-.76c-.45-.84-.89-1.69-1.32-2.53l-.52-1.08c-.39-.8-.77-1.6-1.13-2.41-.14-.32-.29-.63-.43-1-.47-1.11-.93-2.22-1.36-3.33l-.15-.41c-.37-1-.72-2-1-2.95-.12-.36-.23-.71-.34-1.06-.26-.81-.5-1.62-.72-2.42l-.3-1.07c-.26-1-.51-2-.72-3,0-.11-.06-.21-.08-.32s0,0,0-.06c-.21-1-.39-2-.55-2.94s-.28-1.81-.39-2.71c0-.31-.06-.61-.09-.92-.06-.58-.13-1.16-.17-1.73,0,0,0-.05,0-.08s0-.33,0-.49c-.05-.76-.09-1.51-.11-2.25,0-.32,0-.64,0-1,0-.6,0-1.2,0-1.79v-.45c0-.23,0-.46,0-.69,0-.43.05-.86.08-1.28S432.83,776.3,432.87,775.92Z"/><path class="cls-2" d="M507.36,726.59A105.79,105.79,0,0,1,529,733.52a125.22,125.22,0,0,1,33.64,22c16.75,15.27,28.81,34.56,32,53.89,2.32,14.13-.43,26.25-7,35.39-10.82,15-32,22-58.12,16.7a107,107,0,0,1-21.68-6.93C474.73,840,447.25,809.4,442.2,778.67,436.08,741.42,465.26,718.11,507.36,726.59Z"/></g><g class="cls-1"><path class="cls-2" d="M566.18,54.53c0-.34,0-.67-.07-1,0-.15,0-.3,0-.44v-.26c-.05-1-.05-2.07,0-3.09,0-.06,0-.13,0-.2l0-.28c0-1,.13-1.92.26-2.87V46.3c0-.07,0-.14,0-.21.13-.89.29-1.76.49-2.63l0-.2,0-.08c.2-.87.45-1.72.72-2.56a2,2,0,0,0,.07-.26l.09-.21c.28-.82.59-1.63.93-2.42,0-.06,0-.11.07-.16.16-.38.33-.74.51-1.11l5.21-10.64c-.21.42-.4.84-.58,1.26-.35.8-.66,1.6-.94,2.43l-.15.47c-.28.84-.52,1.69-.73,2.56l-.06.28c-.19.87-.35,1.74-.48,2.63,0,.1,0,.19-.05.29-.12.94-.21,1.9-.26,2.87,0,.16,0,.32,0,.48,0,1,0,2,0,3.09l0,.69c0,.34.05.68.08,1l.09.94c0,.35.09.69.14,1s.08.61.13.91c.08.48.17.95.26,1.43l.15.76q.2.88.42,1.77c0,.15.07.3.11.45.12.45.26.9.39,1.34.07.25.13.48.21.73.22.69.45,1.39.71,2.09s.56,1.5.87,2.25l.13.28c.32.77.66,1.54,1,2.3l.39.8c.3.6.61,1.21.93,1.81.15.26.29.53.43.79.41.73.83,1.46,1.27,2.19.06.1.11.2.18.3.5.82,1,1.63,1.57,2.44l.48.69c.41.59.83,1.17,1.25,1.75l.58.77c.46.61.94,1.21,1.42,1.81l.44.55c.63.77,1.28,1.52,1.95,2.27l.49.54c.52.58,1.05,1.15,1.6,1.71l.63.66c.82.83,1.65,1.66,2.51,2.47l0,0c.87.82,1.77,1.61,2.68,2.4l.55.48c1.43,1.21,2.9,2.4,4.42,3.54l.28.22c1.34,1,2.72,2,4.12,2.91l.32.23c1.24.82,2.49,1.61,3.77,2.38l.58.35q1.74,1,3.54,2l.7.37c1.18.63,2.37,1.25,3.58,1.83l.19.09c1.14.55,2.29,1.07,3.45,1.57l.73.32q1.75.75,3.54,1.44l.66.24c1.12.42,2.25.82,3.38,1.2l.49.17c1.26.41,2.53.79,3.8,1.15l.83.24c1.18.32,2.35.63,3.54.9.68.16,1.36.28,2,.42,1,.22,2,.43,3,.6,1.25.22,2.51.42,3.77.58l.72.09c1.09.13,2.18.23,3.28.32l1.24.1c1.38.09,2.76.16,4.13.17.72,0,1.41,0,2.12,0s1.24,0,1.85,0,1.34-.09,2-.14,1.19-.06,1.77-.11,1.31-.16,2-.24,1.12-.12,1.67-.21,1.28-.23,1.92-.34,1.06-.18,1.57-.29,1.23-.29,1.84-.44l1.51-.37c.59-.16,1.16-.36,1.73-.54s1-.29,1.45-.45,1.14-.44,1.71-.66.89-.32,1.31-.5,1.1-.51,1.64-.76l1.22-.56c.51-.27,1-.55,1.49-.83s.8-.43,1.19-.66.93-.6,1.39-.91.75-.47,1.11-.72.91-.7,1.37-1.06.64-.47.94-.73.87-.77,1.3-1.17c.27-.25.57-.49.83-.75s.77-.81,1.15-1.22.54-.55.79-.84c.39-.46.75-.94,1.12-1.42.2-.25.42-.5.61-.76.41-.56.77-1.14,1.14-1.73.13-.19.27-.38.39-.58q.72-1.19,1.32-2.43l-5.2,10.64q-.62,1.25-1.32,2.43l-.4.59c-.36.58-.73,1.16-1.14,1.72-.19.26-.4.51-.6.76-.37.48-.73,1-1.13,1.42-.25.29-.53.56-.79.84s-.74.83-1.14,1.22-.59.52-.87.79-.82.77-1.26,1.13-.67.51-1,.77-.86.69-1.32,1-.74.48-1.1.72-.92.62-1.4.91-.79.44-1.19.66-1,.57-1.49.83-.85.39-1.27.59-1,.5-1.58.73-.94.36-1.4.54-1.07.43-1.62.62-1,.31-1.48.46-1.12.37-1.71.53-1,.26-1.57.38-1.16.31-1.77.43-1.12.21-1.68.31-1.2.23-1.82.32-1.15.15-1.73.22-1.26.17-1.91.23-1.21.08-1.82.12-1.3.1-2,.13-1.3,0-1.94,0-1.29,0-2,0h-.08c-1.38,0-2.75-.09-4.13-.18l-1.25-.1c-.54,0-1.07-.07-1.61-.13s-1.11-.13-1.67-.19L641,118c-1.09-.14-2.18-.29-3.27-.48l-.49-.1c-1-.17-2-.38-3-.59-.48-.1-1-.18-1.44-.29l-.61-.14c-1.18-.27-2.36-.58-3.53-.9l-.44-.11-.4-.13c-1.27-.36-2.53-.74-3.79-1.15l-.14,0-.36-.13c-1.13-.38-2.25-.78-3.37-1.2l-.43-.15-.23-.09c-1.19-.46-2.37-.94-3.55-1.44l-.3-.12-.43-.2c-1.16-.5-2.31-1-3.44-1.57l-.15-.07,0,0c-1.21-.58-2.4-1.2-3.59-1.82-.13-.08-.27-.14-.4-.21l-.3-.17q-1.79-1-3.54-2l-.24-.14-.34-.21c-1.27-.77-2.53-1.56-3.76-2.38l-.12-.07c-.07,0-.14-.11-.21-.15q-2.1-1.42-4.11-2.92l-.11-.08-.18-.14c-1.51-1.14-3-2.32-4.41-3.54l-.22-.18-.33-.29c-.91-.79-1.81-1.59-2.68-2.41l0,0c-.86-.81-1.69-1.63-2.51-2.47l-.33-.32-.31-.33c-.54-.57-1.08-1.14-1.6-1.72L581.7,87q-1-1.12-2-2.28c-.14-.18-.29-.36-.43-.55-.49-.59-1-1.2-1.42-1.81-.2-.25-.39-.51-.58-.77-.43-.58-.85-1.16-1.25-1.75-.16-.23-.33-.46-.48-.69-.55-.81-1.08-1.62-1.58-2.44l-.18-.3c-.44-.73-.86-1.45-1.26-2.19-.15-.26-.29-.53-.43-.79-.32-.6-.63-1.21-.93-1.81-.13-.27-.27-.54-.39-.8-.36-.76-.71-1.53-1-2.3a2.4,2.4,0,0,0-.11-.23v0c-.31-.75-.61-1.5-.88-2.25s-.49-1.4-.71-2.09c-.07-.24-.13-.48-.21-.72-.13-.45-.27-.9-.39-1.35,0,0,0,0,0-.06s-.06-.26-.1-.39c-.15-.59-.29-1.18-.41-1.76-.06-.26-.11-.52-.16-.77-.09-.48-.18-1-.25-1.42,0-.12,0-.24-.07-.36s0-.37-.07-.56c0-.34-.09-.68-.13-1S566.21,54.85,566.18,54.53Z"/><path class="cls-2" d="M618,4.35a85.18,85.18,0,0,1,18.23,2.28,100.76,100.76,0,0,1,29.95,12.45c15.56,9.62,28,23.14,33.37,38,3.94,10.86,3.55,20.88-.34,29.12-6.36,13.48-22.1,22.16-43.63,21.86a85.09,85.09,0,0,1-18.22-2.28C608.9,99.17,582.56,79,574,55.34,563.62,26.69,583.31,3.87,618,4.35Z"/></g><g class="cls-1"><path class="cls-2" d="M208.24,507c1.32-.13,3.95-.34,5.28-.52l1-.14c1-.14,2.07-.3,3.1-.48l1.2-.21c1.54-.28,3.08-.58,4.63-.93h.06c1.56-.35,3.12-.75,4.68-1.16l.94-.26q3.63-1,7.25-2.23l.46-.16c2.12-.73,4.24-1.53,6.33-2.38l.5-.19c1.84-.75,3.66-1.56,5.48-2.39l.83-.39q2.48-1.15,4.9-2.42l.95-.5q2.39-1.26,4.73-2.61l.25-.15c1.46-.85,2.91-1.74,4.34-2.65l.91-.57q2.16-1.39,4.28-2.87l.77-.55c1.31-.93,2.61-1.89,3.88-2.86l.57-.43q2.12-1.64,4.15-3.35l.9-.76c1.24-1.07,2.48-2.15,3.68-3.26.69-.64,1.34-1.31,2-2,1-1,2-1.94,3-2.94,1.19-1.24,2.36-2.49,3.5-3.77.22-.24.43-.49.64-.74,1-1.12,1.92-2.26,2.85-3.42.36-.44.71-.87,1.06-1.32,1.15-1.46,2.27-2.95,3.33-4.47.56-.8,1.06-1.59,1.59-2.39s.94-1.39,1.38-2.08.93-1.57,1.39-2.35.83-1.38,1.22-2.07.82-1.59,1.23-2.38.73-1.35,1.05-2,.73-1.61,1.09-2.42c.29-.66.61-1.31.88-2s.61-1.6.91-2.39.51-1.31.74-2,.49-1.57.72-2.35.43-1.31.61-2c.22-.81.39-1.61.58-2.41.15-.62.32-1.24.45-1.85.16-.81.27-1.61.41-2.41.1-.59.22-1.19.3-1.78.1-.78.16-1.53.23-2.3.06-.61.14-1.22.18-1.82.05-.76,0-1.51.06-2.26,0-.59.05-1.19,0-1.78,0-.79-.07-1.56-.11-2.33,0-.54,0-1.08-.08-1.61-.07-.8-.2-1.57-.31-2.35-.06-.49-.11-1-.19-1.49-.13-.75-.31-1.48-.47-2.21-.11-.5-.19-1-.32-1.52-.2-.79-.46-1.56-.7-2.34-.14-.41-.24-.85-.39-1.26-.3-.88-.66-1.73-1-2.58-.12-.29-.22-.6-.35-.89-.51-1.13-1.06-2.24-1.66-3.32L317.81,403c.61,1.08,1.16,2.19,1.67,3.32.13.29.23.59.35.88.36.86.72,1.71,1,2.59.15.41.25.84.38,1.26.25.77.5,1.54.71,2.34.12.49.21,1,.32,1.52.16.73.34,1.46.47,2.2.09.52.13,1.05.2,1.57.1.75.22,1.5.29,2.27,0,.56.06,1.13.09,1.69,0,.75.1,1.49.11,2.25,0,.59,0,1.19-.05,1.79s0,1.49-.05,2.25c0,.6-.13,1.22-.18,1.83s-.13,1.52-.23,2.29-.22,1.25-.32,1.88-.24,1.54-.4,2.32-.31,1.31-.47,2-.34,1.52-.55,2.28-.41,1.34-.62,2-.45,1.54-.71,2.31-.52,1.37-.78,2-.55,1.53-.87,2.3-.63,1.41-.95,2.11-.65,1.52-1,2.28-.72,1.39-1.08,2.09-.78,1.54-1.21,2.32-.83,1.41-1.25,2.12-.87,1.53-1.35,2.29-1,1.46-1.45,2.19-.94,1.46-1.45,2.19l-.07.09c-1.06,1.52-2.18,3-3.33,4.48L304,473.62c-.46.57-.9,1.14-1.37,1.7s-1,1.15-1.48,1.72c-.22.24-.43.49-.64.74-1,1.11-2,2.21-3,3.28-.15.17-.33.32-.48.48-1,1-2,2-3,2.94-.48.46-.93.94-1.41,1.4l-.62.57q-1.8,1.67-3.68,3.25l-.45.41-.44.35q-2,1.73-4.16,3.36l-.15.12-.41.3q-1.92,1.47-3.88,2.86l-.5.37-.28.18c-1.4,1-2.83,1.94-4.27,2.87l-.36.24-.55.34q-2.14,1.36-4.35,2.65a1.18,1.18,0,0,1-.19.11l-.05,0q-2.34,1.37-4.74,2.62l-.53.29-.41.2c-1.62.85-3.26,1.66-4.9,2.43l-.34.17-.49.21c-1.82.84-3.64,1.64-5.48,2.39l-.17.08-.33.12c-2.1.85-4.21,1.65-6.33,2.38l-.17.06-.29.09c-2.41.83-4.83,1.57-7.26,2.24l-.36.11-.57.14c-1.56.42-3.13.82-4.69,1.17h0c-1.55.34-3.1.65-4.64.92-.2,0-.39.09-.59.12l-.61.1-3.1.48-1,.14c-1.34.17-2.66.32-4,.44l-.93.08c-1,.08-2.05.16-3.07.21"/><path class="cls-2" d="M170.47,402.16q1.91-1.92,3.91-3.77a136.3,136.3,0,0,1,36.47-24c22.42-10,46.73-13.66,67.17-8.37,14.94,3.87,26,12.44,32.06,23"/></g><g class="cls-1"><path class="cls-2" d="M984.58,603.32l.51.73.22.32.11.19c.5.77,1,1.54,1.39,2.32l.09.15c0,.07.06.15.1.22.4.75.76,1.51,1.08,2.27a.43.43,0,0,0,0,.07l.06.18c.3.72.57,1.45.8,2.19,0,.06,0,.11.07.17s0,0,0,.07c.24.75.43,1.49.6,2.25,0,.07,0,.15.06.23l0,.2c.15.74.28,1.48.37,2.23a.77.77,0,0,1,0,.15c.05.36.08.71.11,1.06l.81,10.33c0-.4-.08-.81-.13-1.21-.09-.75-.22-1.5-.37-2.24l-.09-.43c-.17-.75-.36-1.5-.6-2.24a2.25,2.25,0,0,0-.08-.24c-.23-.74-.5-1.47-.8-2.2l-.09-.24c-.33-.76-.69-1.52-1.09-2.27-.06-.13-.12-.25-.19-.37-.42-.79-.89-1.56-1.39-2.32l-.33-.51-.51-.73c-.16-.23-.33-.45-.49-.67l-.56-.72-.51-.62c-.26-.32-.54-.64-.83-1-.15-.17-.29-.34-.45-.51-.35-.38-.72-.77-1.1-1.14-.1-.1-.18-.2-.28-.29-.29-.29-.59-.56-.89-.84l-.48-.45c-.47-.43-1-.85-1.46-1.26s-1.1-.88-1.66-1.31l-.22-.16c-.59-.43-1.19-.85-1.8-1.27L974,603c-.49-.32-1-.64-1.5-.95l-.68-.4c-.63-.38-1.27-.74-1.92-1.09l-.27-.15c-.74-.39-1.5-.77-2.27-1.13l-.67-.31-1.72-.76-.78-.33-1.87-.73-.58-.21c-.81-.3-1.64-.58-2.47-.85l-.61-.19-2-.58-.77-.21c-1-.26-2-.51-3-.74h0c-1-.23-2-.43-3.09-.62l-.62-.11c-1.62-.28-3.25-.52-4.9-.71l-.32,0c-1.45-.16-2.91-.28-4.39-.36l-.34,0c-1.3-.07-2.59-.11-3.89-.12h-.6c-1.18,0-2.37,0-3.56.06l-.69,0q-1.75.07-3.51.21l-.19,0c-1.09.1-2.19.21-3.29.35l-.69.09c-1.11.14-2.21.3-3.31.49l-.6.11c-1,.18-2.06.38-3.08.6l-.45.09c-1.13.25-2.25.52-3.36.82l-.74.19c-1,.28-2,.57-3.06.89-.58.18-1.15.4-1.73.59-.86.29-1.71.58-2.55.9-1.05.4-2.08.81-3.1,1.24l-.58.26c-.88.38-1.75.79-2.61,1.21l-1,.48c-1.08.55-2.15,1.11-3.19,1.7-.55.32-1.06.64-1.58,1l-1.39.84c-.5.33-1,.67-1.46,1l-1.28.87c-.47.35-.92.71-1.38,1.06s-.79.59-1.16.9-.87.74-1.3,1.11-.72.61-1.06.92-.79.77-1.18,1.15-.66.63-1,1-.71.78-1.07,1.17-.61.65-.89,1-.67.83-1,1.25-.52.64-.76,1-.6.87-.9,1.31-.45.63-.66,1-.51.85-.76,1.28-.41.68-.6,1-.43.87-.64,1.3-.36.69-.51,1-.38.93-.57,1.4-.27.65-.38,1c-.18.49-.31,1-.46,1.46-.09.31-.21.62-.29.94-.13.47-.22,1-.32,1.42s-.16.66-.22,1c-.1.52-.16,1-.22,1.56,0,.29-.09.57-.12.85-.05.6-.07,1.2-.09,1.81,0,.2,0,.41,0,.61,0,.81,0,1.61.08,2.42l-.81-10.33c-.06-.8-.09-1.61-.08-2.41,0-.21,0-.42,0-.62,0-.6,0-1.2.09-1.8,0-.29.08-.57.12-.85.06-.53.12-1.05.22-1.57.06-.33.15-.66.22-1s.19-1,.32-1.42.2-.65.3-1,.28-.94.44-1.41.28-.68.41-1,.35-.91.55-1.36.34-.69.51-1,.41-.88.64-1.31.41-.68.6-1,.49-.86.76-1.29.47-.67.7-1,.55-.84.86-1.25.55-.69.82-1,.61-.8.94-1.19.61-.67.91-1,.68-.78,1-1.16.67-.66,1-1,.74-.74,1.14-1.11.76-.65,1.13-1,.8-.7,1.23-1.05.8-.62,1.2-.93.88-.69,1.34-1,.88-.6,1.32-.9.93-.66,1.42-1,1-.59,1.45-.88,1-.6,1.45-.88l.07,0c1-.6,2.11-1.16,3.19-1.71l1-.47c.42-.21.84-.43,1.27-.63l1.34-.59.58-.26c.89-.37,1.78-.74,2.68-1.09l.41-.14c.85-.32,1.7-.61,2.56-.9.41-.14.8-.3,1.21-.43l.52-.17c1-.31,2-.61,3.06-.88l.38-.11.35-.09c1.12-.29,2.24-.57,3.37-.82l.12,0L915,584c1-.22,2.05-.42,3.08-.6l.39-.08a1.52,1.52,0,0,0,.21,0c1.1-.18,2.2-.35,3.31-.49l.28,0,.41,0c1.1-.13,2.19-.25,3.29-.34l.15,0h0c1.17-.1,2.34-.17,3.51-.22l.39,0h.3c1.19,0,2.38-.06,3.56-.06h.6c1.3,0,2.59,0,3.89.12h.11l.23,0c1.47.09,2.94.21,4.39.37h.12l.2,0c1.65.19,3.28.43,4.9.71l.24,0,.38.07c1,.19,2.07.39,3.09.62h0c1,.23,2,.48,3,.75l.39.09.38.12c.66.18,1.32.37,2,.58l.61.18c.83.27,1.66.55,2.47.85l.58.22c.63.23,1.25.47,1.87.73l.78.32,1.72.76.67.31c.77.37,1.52.74,2.27,1.14l.27.15q1,.53,1.92,1.08l.68.41c.51.31,1,.62,1.5,1,.22.14.44.28.65.43.61.41,1.21.83,1.8,1.27l.18.13,0,0c.56.42,1.12.86,1.66,1.3s1,.84,1.46,1.26l.48.45.89.84,0,0,.24.25c.38.38.75.76,1.1,1.14l.46.51.82,1,.21.24.3.39c.19.24.38.47.56.71S984.42,603.1,984.58,603.32Z"/><path class="cls-2" d="M967.89,664.13a74.77,74.77,0,0,1-14.74,6.38,88,88,0,0,1-28.08,3.94c-16-.33-31.36-5-42-13.79-7.8-6.43-12-14.15-12.7-22.08-1.2-13,6.8-26.51,23.14-35.86a75,75,0,0,1,14.74-6.38c24.34-7.64,53.16-4.14,70.11,9.85C998.89,623.14,994.2,649.08,967.89,664.13Z"/></g><g class="cls-1"><path class="cls-2" d="M946.94,184.41l.62-.63.27-.27.17-.15c.67-.63,1.35-1.22,2-1.78l.13-.11.2-.14c.67-.52,1.35-1,2-1.47l.06,0,.16-.1c.66-.42,1.33-.81,2-1.18l.16-.09.07,0c.69-.36,1.39-.68,2.1-1l.22-.1.19-.07c.7-.28,1.41-.54,2.13-.76l.14,0c.34-.11.69-.2,1-.29l10-2.64-1.17.34c-.72.23-1.43.48-2.14.77l-.4.17c-.71.29-1.41.62-2.11,1l-.22.12c-.68.36-1.35.76-2,1.18l-.21.14c-.7.45-1.38,1-2.05,1.47l-.33.25c-.7.56-1.38,1.15-2,1.78l-.44.42-.63.63-.57.6-.6.68c-.18.2-.36.4-.53.61s-.53.65-.8,1l-.42.54q-.46.63-.93,1.29l-.23.33c-.23.33-.45.68-.67,1l-.36.55c-.33.54-.66,1.1-1,1.66s-.68,1.24-1,1.87c0,.08-.07.16-.11.25q-.5,1-.93,2c-.11.24-.21.48-.31.72-.23.55-.46,1.1-.67,1.65-.09.25-.19.49-.28.74-.25.69-.5,1.38-.72,2.08,0,.1-.07.2-.1.3-.26.8-.49,1.61-.72,2.43l-.18.72c-.16.6-.31,1.21-.44,1.82-.07.28-.13.55-.19.83-.14.65-.26,1.31-.38,2l-.12.6c-.14.86-.27,1.72-.39,2.59,0,.21-.05.42-.07.63-.09.68-.16,1.36-.23,2,0,.26,0,.53-.07.79-.08,1-.15,2-.2,3.08v0c0,1-.06,2.09-.06,3.14V221q0,2.46.18,5c0,.1,0,.21,0,.31.11,1.46.25,2.92.42,4.39,0,.11,0,.23,0,.34.16,1.29.36,2.57.58,3.85,0,.2.06.39.1.59.2,1.17.43,2.33.69,3.49l.15.68c.26,1.14.53,2.28.84,3.42a1.54,1.54,0,0,0,0,.17c.28,1.07.6,2.12.92,3.18l.21.67c.34,1.06.7,2.12,1.07,3.16.07.2.15.39.22.58.36,1,.74,2,1.13,2.92l.18.42c.44,1.07.91,2.13,1.4,3.17.1.23.21.46.32.69.46,1,.93,1.92,1.42,2.86.28.54.59,1.06.89,1.59.44.79.87,1.58,1.34,2.36.57.95,1.16,1.9,1.77,2.82.11.18.23.35.35.53.54.79,1.1,1.58,1.66,2.35l.65.88c.72,1,1.47,1.92,2.24,2.84.4.48.82.92,1.23,1.39s.71.82,1.07,1.21.82.84,1.24,1.26.72.75,1.09,1.1.85.78,1.28,1.17.72.68,1.09,1,.89.72,1.33,1.08.72.6,1.08.87.9.65,1.35,1,.73.54,1.1.78.9.57,1.35.84.75.49,1.13.71.94.5,1.41.75.72.4,1.08.58,1,.44,1.44.66.71.33,1.07.48.93.34,1.4.51.74.29,1.11.41.93.27,1.4.41.74.22,1.11.31,1,.21,1.48.31l1,.21c.51.08,1,.13,1.52.19l1,.12c.49,0,1,0,1.46.06s.68,0,1,0c.53,0,1.06,0,1.58-.06.29,0,.58,0,.86,0,.6-.05,1.2-.14,1.79-.22l.61-.08q1.2-.21,2.37-.51l-10,2.63c-.78.2-1.57.37-2.36.51l-.62.08c-.59.09-1.19.18-1.79.23-.28,0-.57,0-.86,0-.52,0-1,.07-1.58.07-.33,0-.67,0-1,0-.49,0-1,0-1.46-.06s-.68-.09-1-.12-1-.11-1.47-.19-.72-.15-1.08-.22-.95-.18-1.43-.29l-1.11-.32c-.46-.13-.93-.25-1.4-.41s-.74-.27-1.11-.41-.93-.32-1.4-.51-.75-.34-1.12-.51-.93-.4-1.39-.62l-1.16-.62c-.44-.24-.89-.46-1.33-.72s-.77-.48-1.15-.72-.89-.53-1.33-.82-.76-.55-1.15-.82l-1.29-.93c-.39-.3-.78-.63-1.16-.94s-.84-.66-1.26-1-.75-.68-1.13-1-.83-.74-1.24-1.14-.75-.75-1.12-1.13-.81-.8-1.21-1.23-.75-.85-1.12-1.27-.76-.83-1.13-1.27l0-.06c-.77-.92-1.51-1.87-2.24-2.83-.22-.29-.43-.59-.65-.89s-.56-.75-.83-1.14l-.83-1.21c-.11-.18-.24-.35-.35-.53-.53-.8-1.05-1.61-1.55-2.44-.08-.12-.14-.25-.22-.38-.46-.77-.9-1.56-1.34-2.36-.21-.37-.43-.73-.64-1.11-.08-.16-.16-.32-.25-.48-.49-.94-1-1.89-1.42-2.85-.05-.12-.12-.24-.17-.36l-.15-.33c-.49-1.05-1-2.11-1.4-3.17a.61.61,0,0,1-.05-.12c0-.1-.08-.21-.12-.31-.4-1-.78-1.94-1.14-2.92,0-.12-.1-.25-.14-.37s0-.14-.07-.2c-.38-1-.74-2.11-1.08-3.17l-.09-.27c0-.13-.07-.27-.12-.4-.32-1-.63-2.11-.92-3.17,0-.05,0-.1,0-.14v0c-.31-1.14-.58-2.28-.84-3.42l-.09-.38-.06-.3c-.25-1.16-.49-2.32-.69-3.49a2,2,0,0,1,0-.24c0-.12,0-.23-.05-.35q-.33-1.92-.57-3.84a.5.5,0,0,1,0-.12c0-.08,0-.15,0-.23-.18-1.46-.32-2.93-.42-4.39,0,0,0-.08,0-.12v-.19q-.17-2.49-.18-4.95c0-.08,0-.17,0-.25s0-.25,0-.38q0-1.59.06-3.15v0c0-1,.12-2.06.21-3.08,0-.13,0-.27,0-.4s0-.26,0-.4c.06-.68.14-1.36.22-2,0-.2,0-.42.07-.62.12-.87.25-1.74.4-2.59,0-.21.07-.4.11-.61.12-.66.25-1.32.38-2,.06-.28.13-.55.19-.83.14-.61.28-1.22.44-1.82l.18-.72c.23-.82.46-1.63.72-2.43,0-.1.07-.2.1-.29.23-.71.47-1.4.72-2.09.09-.25.19-.49.28-.74.22-.55.44-1.1.67-1.65.1-.24.2-.48.31-.71.29-.68.6-1.34.93-2a2,2,0,0,1,.1-.21l0,0q.46-.94,1-1.86c.32-.57.64-1.12,1-1.66.11-.19.24-.37.35-.56.23-.34.44-.69.67-1l0-.05.21-.28q.45-.66.93-1.29c.13-.18.28-.36.42-.54.26-.33.52-.66.79-1l.2-.25.33-.36.6-.68Z"/><path class="cls-2" d="M1009.74,190a74.93,74.93,0,0,1,8.9,13.37,88.62,88.62,0,0,1,8.87,26.94c2.51,15.8.66,31.75-6.11,43.8-4.94,8.81-11.8,14.28-19.47,16.42-12.56,3.48-27.3-2-39.4-16.4a75.11,75.11,0,0,1-8.9-13.37c-11.85-22.6-13.52-51.58-2.76-70.75C963.9,166.81,990.26,166.81,1009.74,190Z"/></g><path class="cls-3" d="M706.77,1007.2l-266.79,47c-.83.15-1.66.26-2.5.36l-.81.08c-.57.06-1.14.11-1.72.14l-.94,0-1.64,0h-.94c-.59,0-1.19,0-1.79-.07l-.77,0c-.85-.06-1.69-.14-2.54-.24l-.42-.06c-.71-.1-1.43-.2-2.15-.33l-.89-.17c-.56-.11-1.12-.22-1.68-.35l-1-.23c-.55-.13-1.1-.28-1.65-.43l-.94-.26c-.61-.18-1.22-.37-1.83-.58l-.72-.23c-.84-.29-1.68-.59-2.51-.92l-.63-.26c-.63-.26-1.27-.52-1.89-.8l-.92-.41c-.54-.25-1.07-.5-1.61-.77l-1-.48-1.59-.84c-.3-.16-.6-.32-.89-.49-.62-.34-1.24-.71-1.85-1.07l-.59-.35c-.8-.49-1.6-1-2.38-1.53l-.69-.47c-.57-.38-1.13-.77-1.69-1.17l-.87-.64c-.5-.37-1-.74-1.48-1.13l-.89-.69-1.49-1.22-.79-.66c-.63-.54-1.25-1.1-1.87-1.66l-.35-.31c-.72-.67-1.44-1.35-2.15-2l-.66-.67c-.49-.49-1-1-1.46-1.5l-.77-.82c-.44-.48-.88-1-1.31-1.45l-.75-.86c-.46-.53-.9-1.06-1.35-1.6l-.62-.76c-.65-.8-1.28-1.61-1.9-2.43l0-.06c-.61-.81-1.2-1.63-1.78-2.45l-.56-.83c-.4-.58-.8-1.18-1.19-1.78l-.62-1-.84-1.38c-.6-1-1.18-2-1.74-3-.13-.25-.27-.48-.41-.73-.67-1.23-1.31-2.47-1.93-3.74l-.45-1c-.47-1-.93-2-1.37-3l-.48-1.12c-.55-1.32-1.08-2.66-1.56-4L88.66,230.64c-.33-.92-.64-1.83-.93-2.74-.09-.25-.16-.5-.23-.75-.21-.66-.42-1.32-.6-2-.09-.31-.17-.62-.26-.93-.16-.6-.32-1.19-.47-1.77-.09-.35-.16-.69-.24-1-.13-.55-.27-1.1-.39-1.65-.07-.37-.14-.73-.22-1.1-.1-.52-.21-1-.3-1.56s-.13-.76-.19-1.14l-.24-1.5-.15-1.17c-.06-.48-.12-1-.17-1.44s-.08-.8-.12-1.19L84,209.29c0-.31,0-.62,0-.92-.06-.93-.09-1.85-.11-2.76,0-.19,0-.39,0-.59,0-1.06,0-2.11,0-3.16,0-.25,0-.5,0-.75,0-.87.1-1.74.18-2.6,0-.21,0-.42.06-.64.1-1,.23-2,.38-3,0-.23.07-.46.11-.68.13-.83.29-1.64.45-2.45,0-.22.09-.44.14-.65.21-1,.45-1.9.71-2.82,0-.2.11-.39.17-.59.22-.77.47-1.54.73-2.3.07-.21.14-.42.22-.64.31-.88.65-1.76,1-2.61l.21-.49c.32-.72.65-1.43,1-2.13.1-.21.2-.41.31-.61.42-.81.86-1.61,1.32-2.39.08-.12.16-.24.23-.37.41-.67.84-1.32,1.28-2l.4-.57c.52-.72,1-1.44,1.62-2.13l.21-.25c.51-.61,1-1.2,1.58-1.78l.48-.5c.61-.63,1.24-1.25,1.9-1.84l.15-.13c.62-.55,1.26-1.07,1.92-1.58.18-.14.36-.28.55-.41q1.07-.81,2.19-1.53L71,184.23c-.76.48-1.48,1-2.2,1.53l-.54.42c-.66.51-1.3,1-1.92,1.58l-.15.13c-.66.58-1.29,1.2-1.91,1.84-.16.16-.31.33-.47.5-.54.57-1.07,1.17-1.58,1.78-.07.08-.15.16-.22.25q-.84,1-1.62,2.13L60,195c-.44.64-.87,1.3-1.28,2-.08.12-.16.24-.23.37-.46.77-.9,1.57-1.33,2.38l-.3.61c-.35.7-.68,1.41-1,2.14l-.22.48c-.36.86-.7,1.73-1,2.62l-.21.64c-.26.75-.51,1.52-.73,2.3l-.18.58c-.25.93-.49,1.87-.7,2.82,0,.22-.09.44-.14.65-.17.81-.32,1.63-.45,2.45l-.12.68c-.15,1-.27,2-.38,3,0,.21,0,.42-.05.64-.08.86-.14,1.72-.18,2.6,0,.25,0,.5,0,.75,0,1-.06,2.09,0,3.15,0,.2,0,.4,0,.6,0,.91.05,1.83.11,2.75,0,.17,0,.33,0,.49l0,.43.12,1.39c0,.4.07.79.11,1.19l.18,1.44.15,1.17c.07.5.16,1,.24,1.5s.12.76.19,1.14.2,1,.3,1.55.14.75.22,1.12c.12.54.25,1.08.38,1.62.08.36.16.71.25,1.06.14.58.3,1.15.46,1.73.09.33.17.65.27,1,.18.64.38,1.28.58,1.92l.24.81c.3.91.61,1.82.94,2.73l276.52,769.24c.49,1.36,1,2.69,1.57,4,.15.38.31.75.47,1.12.45,1,.91,2,1.38,3,.15.31.29.63.44.94.63,1.27,1.27,2.52,1.95,3.76l.37.66c.58,1,1.17,2,1.78,3l.3.53.51.79.65,1c.38.58.76,1.14,1.15,1.71l.6.89c.56.79,1.12,1.57,1.69,2.34l.16.21c.61.8,1.22,1.59,1.84,2.36l.66.8c.44.53.87,1.05,1.32,1.56.25.3.51.59.77.88.43.49.86,1,1.3,1.44.26.28.51.56.77.83.48.51,1,1,1.46,1.5l.66.66c.71.7,1.42,1.39,2.15,2l.32.29c.63.57,1.27,1.14,1.91,1.68l.76.65c.51.42,1,.84,1.53,1.25l.85.66c.5.4,1,.78,1.52,1.16l.84.61c.58.42,1.16.83,1.75,1.22l.62.43c.8.53,1.6,1,2.41,1.54l.49.29c.65.39,1.3.77,2,1.14.27.16.55.3.82.45.56.31,1.11.6,1.67.88l.9.45c.56.28,1.12.54,1.68.8l.85.39c.67.29,1.34.58,2,.85l.51.21c.84.33,1.69.64,2.54.93l.63.2c.64.22,1.29.42,1.93.61l.88.25c.57.16,1.14.3,1.71.44l.93.22c.58.13,1.17.25,1.75.36l.83.16c.76.13,1.51.25,2.26.35l.31,0c.86.11,1.71.19,2.57.25l.73,0c.61,0,1.22.07,1.83.08h.91c.56,0,1.12,0,1.67,0l.92-.05c.58,0,1.16-.08,1.74-.14l.8-.07c.84-.1,1.67-.22,2.5-.36l266.79-47a39.15,39.15,0,0,0,14.32-5.52l32.43-20.76A38.89,38.89,0,0,1,706.77,1007.2Z"/><path class="cls-3" d="M589.51,527.3,735.89,934.51c12.61,35.09-.43,67.63-29.12,72.69l-266.79,47c-28.69,5.06-62.18-19.28-74.79-54.36L88.66,230.64C76.05,195.55,89.09,163,117.78,158l266.79-47c28.7-5.06,62.18,19.28,74.8,54.36L527.91,356"/><g class="cls-1"><path class="cls-3" d="M572.37,525.15,720.89,938.3c7.43,20.69-.28,39.94-17.2,42.92l-274.26,48.36c-16.91,3-36.72-11.41-44.16-32.1L107,223.34c-7.43-20.69.28-39.94,17.2-42.92l40.46-7.14c4.13,9.48,13.47,15.87,21.49,14.46m0,0L342.87,160.1c8.09-1.43,12-10,9.17-19.86l46.4-8.18c16.92-3,36.72,11.41,44.16,32.1l70.61,196.42"/><path class="cls-3" d="M291.89,139.62l-71.81,12.66c-3.52.62-5.13,4.63-3.58,8.93s5.67,7.31,9.2,6.69l71.8-12.66c3.52-.62,5.13-4.63,3.58-8.94s-5.68-7.3-9.19-6.68"/></g><path class="cls-4" d="M214.6,436.75c-1.54-2.53-3.07-4.94-4.44-7.34-2.58-4.51-1-9.91,3.73-13.28,2.54-1.82,5.12-3.58,7.71-5.34,5.18-3.5,11-3.27,14.94.82a10.29,10.29,0,0,1,1.41,1.55c1.1,1.77,2.26,1.46,4,.21,4.6-3.26,7.94-3.54,10.55-1.05s1.88,5.45-3.27,8.73c-2.44,1.55-1.77,2.49-.22,4.13,5.58,5.91,6.42,11,2.58,16.16-2.78,3.72-6.47,4.64-10,2.55s-4.07-5.16-1.65-9.13c.73-1.19.26-1.68-.33-2.42-3.94-4.86-7.63-9.38-11-13.65-.75-1-1.26-1.12-2.56-.33-7.54,4.62-7.56,4.58-3,11.1,2.37,3.38,4.9,6.91,7.5,10.68,4.44,6.45,3.17,13.94-3.53,18.59-3.17,2.19-6.34,4.36-9.54,6.45-6.37,4.14-13,2-16.12-4.71a8.84,8.84,0,0,1-.74-1.7c-.78-3.41-2.35-3.28-4.67-1.28a9.61,9.61,0,0,1-2.49,1.62c-.75-2.12-2.21-6.7-3.36-10.16l.17-.15c1.43-1.2,3.85-1.64,4.14-3.54.23-1.5-1.15-2.95-1.71-4.43-1.53-4.09,0-9.3,3.51-12.42,2.25-2,4.75-2.4,6.5-1s1.88,4.12-.11,6.75c-.82,1.09-.91,1.69-.37,2.7q3.8,7,7.91,15.18c.76,1.51,1.34,1.8,2.9.83,8.24-5.13,8.27-5.07,3.42-13C215.85,438.8,215.22,437.77,214.6,436.75Z"/><path class="cls-4" d="M990,232.47c-1.74.43-3.57.92-5.51,1.36-4.18.94-8.09-1.16-9-5.17-.49-2.17-.93-4.34-1.34-6.52-.82-4.34,2-7.19,6.72-7.21a9.88,9.88,0,0,1,1.54,0c1.48.23,1.62-.36,1.36-1.54-.68-3.11.12-4.41,2.27-4.21s3.26,1.56,3.74,4.42c.22,1.36.8,1.43,1.84,1.43,3.3,0,5.2,1.15,6.38,3.58.83,1.69.69,3.06-.41,3.79s-2.4.32-3.56-1.5a.89.89,0,0,0-1-.49c-3,.22-6.24.47-9.85.7-.89.06-1.17.26-1,1.16.71,5.32.68,5.32,6,4.47,2.32-.37,4.48-.73,6.52-1,3-.44,5.23,1.32,5.88,4.45.31,1.48.62,3,.89,4.45a6.19,6.19,0,0,1-3.41,7,3.19,3.19,0,0,1-.74.32c-1.48.29-1.68,1.17-1.24,2.54a4,4,0,0,1-.86,4.23c-1.57,1.73-3.7,1.47-4.38-.6-.31-1,0-2.6-.95-2.81-.8-.17-2,.81-3.13,1.22-3.32,1.26-6.86.09-8.07-2.86a4.05,4.05,0,0,1,1.83-5.12,3.46,3.46,0,0,1,4.88.74,1.15,1.15,0,0,0,1.62.47c3.33-1.18,6.37-2.21,9.15-3.12.7-.22.89-.47.75-1.3-.71-4.37-.68-4.37-4.9-3.32Z"/><g class="cls-1"><path class="cls-2" d="M356.17,285.06l-.31-.56a2,2,0,0,0-.14-.25l-.06-.15c-.3-.59-.58-1.18-.82-1.78a.61.61,0,0,0,0-.12l-.06-.17c-.22-.57-.43-1.14-.6-1.72a.08.08,0,0,0,0-.05.5.5,0,0,0,0-.13c-.16-.55-.29-1.1-.4-1.65a.61.61,0,0,1,0-.13.09.09,0,0,1,0-.05c-.11-.56-.19-1.11-.25-1.67l0-.17v-.14a15.2,15.2,0,0,1-.09-1.65s0-.07,0-.11c0-.26,0-.51,0-.77l.24-7.52c0,.3,0,.59,0,.89,0,.54,0,1.09.09,1.64,0,.11,0,.21,0,.32.06.55.14,1.11.25,1.66a1.16,1.16,0,0,0,0,.18c.11.55.24,1.1.4,1.65,0,.06,0,.12.05.18.17.58.38,1.16.6,1.73,0,.09.07.19.11.28.24.6.51,1.2.81,1.79l.21.39c.1.19.2.38.31.57s.19.35.3.52l.34.56.32.49c.16.26.34.51.52.76l.29.4c.22.31.46.61.7.92l.18.23.57.67.32.37c.3.34.62.68.95,1s.72.72,1.09,1.08l.15.13c.39.36.78.71,1.19,1.06l.44.36c.33.27.66.54,1,.8l.45.35,1.3.94.19.13c.5.34,1,.67,1.54,1l.46.28,1.18.69.54.29c.42.24.86.46,1.29.68l.4.2c.56.28,1.14.55,1.72.81l.42.18,1.37.58.54.21q1,.4,2.1.78h0c.72.24,1.45.47,2.18.69l.44.13q1.72.5,3.48.9l.23.05c1,.23,2.08.44,3.13.61l.25.05c.93.15,1.86.28,2.8.39l.43.06c.85.09,1.71.17,2.57.24l.5,0q1.28.09,2.55.12H397c.8,0,1.6,0,2.4,0h.51c.81,0,1.61-.05,2.42-.09l.45,0c.75-.05,1.51-.11,2.26-.19l.33,0c.84-.09,1.67-.2,2.5-.32l.55-.08c.76-.12,1.52-.25,2.28-.4l1.29-.29c.64-.14,1.28-.28,1.91-.45.79-.2,1.56-.41,2.33-.64l.44-.14c.67-.21,1.33-.44,2-.67l.74-.27c.82-.31,1.64-.63,2.44-1,.41-.18.81-.38,1.22-.57s.72-.32,1.06-.5.76-.4,1.13-.6.68-.35,1-.53.72-.43,1.07-.65.62-.36.92-.55.68-.47,1-.71.57-.37.84-.57.63-.49.95-.74l.77-.6c.3-.25.58-.51.86-.77s.49-.42.72-.64.55-.55.82-.82l.63-.63c.26-.29.5-.58.75-.87s.38-.43.56-.65.43-.57.64-.86.36-.46.52-.69.38-.6.57-.89.31-.47.45-.71.35-.64.52-1,.25-.44.36-.67.3-.67.44-1,.2-.44.29-.65.23-.67.34-1,.17-.46.24-.69.19-.74.28-1.11c.05-.21.11-.4.15-.61.09-.43.15-.86.21-1.29,0-.15.06-.29.08-.44.06-.58.11-1.17.13-1.75l-.24,7.51c0,.59-.06,1.17-.13,1.75,0,.15-.05.3-.07.45-.07.43-.13.86-.22,1.29,0,.2-.1.4-.15.6-.09.37-.17.75-.28,1.12s-.16.46-.24.69-.21.67-.34,1-.2.45-.3.68-.27.66-.43,1l-.38.7c-.16.31-.32.63-.5.93s-.3.47-.45.71-.36.6-.57.89-.34.46-.51.69-.42.58-.65.87-.39.45-.59.67-.46.57-.72.84-.44.45-.67.68-.5.52-.77.78l-.74.65c-.28.25-.55.51-.85.75s-.54.42-.81.63-.59.48-.91.71l-.89.62c-.32.22-.63.45-1,.66s-.63.38-.94.57l-1.05.64-1,.54c-.37.2-.73.4-1.11.59s-.74.34-1.11.52l-1.12.52,0,0c-.8.35-1.61.67-2.43,1l-.75.26-1,.35-1,.32-.43.14c-.67.2-1.34.4-2,.58l-.31.07c-.64.16-1.28.3-1.92.44l-.91.22-.38.07c-.76.15-1.52.28-2.28.4l-.28.05-.27,0c-.83.13-1.66.24-2.49.32l-.09,0-.24,0c-.76.07-1.51.13-2.27.18l-.29,0h-.16c-.8.05-1.61.08-2.42.1h-.21c-.1,0-.2,0-.3,0-.8,0-1.6,0-2.4,0h-.13c-.86,0-1.71-.07-2.55-.12l-.29,0-.22,0c-.86-.06-1.71-.14-2.57-.24l-.18,0-.25,0c-.94-.11-1.87-.24-2.79-.4h-.09l-.16,0c-1.06-.18-2.11-.38-3.14-.61l-.09,0-.14,0q-1.76-.39-3.48-.9l-.17,0-.26-.09c-.74-.22-1.47-.44-2.19-.69h0c-.71-.24-1.4-.5-2.1-.77l-.27-.1-.26-.12c-.47-.18-.92-.37-1.38-.57l-.42-.18c-.58-.26-1.15-.53-1.72-.81l-.4-.2-1.29-.68-.54-.3-1.17-.68-.46-.28c-.53-.32-1-.66-1.55-1l-.18-.13c-.45-.3-.88-.61-1.31-.93l-.45-.35c-.34-.26-.68-.53-1-.81l-.44-.36c-.4-.34-.8-.7-1.19-1.06l-.12-.11,0,0c-.37-.35-.73-.71-1.09-1.07s-.65-.69-1-1l-.31-.36-.58-.68,0,0-.16-.2c-.24-.3-.48-.61-.7-.91l-.29-.41-.52-.75c0-.07-.09-.13-.13-.19s-.12-.2-.19-.31l-.34-.56Z"/><path class="cls-2" d="M373.05,242.52a54.52,54.52,0,0,1,11.14-3.43,64.05,64.05,0,0,1,20.58-.61c11.51,1.52,22.22,6.1,29.22,13.3,5.11,5.26,7.5,11.16,7.39,16.94-.16,9.46-7,18.59-19.54,24a54.91,54.91,0,0,1-11.14,3.43c-18.17,3.58-38.69-1.25-49.8-12.69C347.42,269.62,352.87,251.28,373.05,242.52Z"/></g><path class="cls-4" d="M398.51,265c-.06,1.3-.1,2.67-.2,4.12-.21,3.1-2.47,5.38-5.45,5.19-1.61-.1-3.21-.25-4.81-.41-3.19-.32-4.58-2.9-3.63-6.16a6.22,6.22,0,0,1,.33-1.06c.47-1,.09-1.21-.78-1.27-2.31-.17-3.05-1-2.46-2.45s1.75-1.95,3.84-1.69c1,.12,1.16-.26,1.38-1,.68-2.29,1.87-3.38,3.8-3.7,1.35-.22,2.27.16,2.56,1.07s-.27,1.74-1.78,2.17c-.47.13-.49.33-.56.63-.46,2.12-1,4.44-1.54,7-.15.63-.07.87.58,1,3.85.6,3.85.62,4.36-3.28.22-1.69.42-3.27.63-4.75.31-2.19,2-3.37,4.31-3.18l3.27.3a4.5,4.5,0,0,1,4.15,3.82,2.3,2.3,0,0,1,.07.58c-.1,1.08.47,1.41,1.51,1.38a2.93,2.93,0,0,1,2.77,1.48c.88,1.44.26,2.88-1.32,2.92-.74,0-1.81-.55-2.15.08s.14,1.58.2,2.43c.19,2.57-1.36,4.79-3.66,5a2.94,2.94,0,0,1-3.18-2.34,2.51,2.51,0,0,1,1.52-3.24c.54-.19.69-.41.66-1-.13-2.57-.23-4.89-.28-7,0-.53-.14-.71-.75-.79-3.18-.41-3.18-.43-3.33,2.72C398.55,264,398.53,264.5,398.51,265Z"/><path class="cls-4" d="M637,52.25c-.8-1.8-1.61-3.52-2.32-5.22a5.35,5.35,0,0,1,3.24-7.41c1.7-.64,3.42-1.25,5.13-1.85a7.65,7.65,0,0,1,9,3.06,8.08,8.08,0,0,1,.75,1.15c.56,1.23,1.27,1.24,2.38.8,2.91-1.14,4.89-.75,6.27,1.13s.8,3.49-2.4,4.58c-1.53.52-1.18,1.18-.36,2.4,3,4.35,3.17,7.5.62,10-1.86,1.8-4.12,1.8-6.12,0s-2.16-3.74-.45-5.73c.5-.6.25-1-.06-1.5-2.09-3.54-4.06-6.84-5.85-10-.4-.69-.7-.88-1.54-.62-5,1.49-5,1.46-2.54,6.16,1.25,2.43,2.59,5,3.95,7.67,2.33,4.6,1.09,9-3.35,10.81-2.12.88-4.26,1.75-6.44,2.57-4.36,1.65-8.49-.68-10.07-5.41a5.75,5.75,0,0,1-.37-1.18c-.26-2.27-1.3-2.44-3-1.55s-3.41,1.07-4.72-.62a3.86,3.86,0,0,1,1.61-5.79c1-.51,2.67-.39,3-1.53.26-.9-.54-2-.8-3.06a6.39,6.39,0,0,1,3.2-7.1,3.37,3.37,0,0,1,4.28.52c1,1.2.92,2.85-.55,4.13a1.19,1.19,0,0,0-.42,1.61q1.95,5,4,10.69c.38,1.06.74,1.33,1.8,1,5.55-1.87,5.57-1.83,3-7.49Z"/><path class="cls-4" d="M930.75,638.35c-1.85.73-3.62,1.48-5.39,2.14a8.87,8.87,0,0,1-9.71-2.68c-1.32-1.55-2.62-3.14-3.92-4.75-2.65-3.3-2.33-6.8,1-8.87a7.91,7.91,0,0,1,1.27-.73c1.43-.52,1.22-1.25.29-2.42-2.49-3.12-2.63-5.23-.54-6.61s4.4-.62,6.78,2.86c1.1,1.62,1.84,1.3,3.15.51,4.65-2.81,8.44-2.82,12-.09,2.48,1.93,2.93,4.13,1.3,6s-3.82,1.94-6.55.26a1.44,1.44,0,0,0-1.77,0c-3.73,1.93-7.25,3.78-10.6,5.47-.76.38-.9.66-.33,1.47,3.23,4.61,3.2,4.63,8.16,2.37,2.54-1.15,5.17-2.37,7.94-3.6,4.69-2.08,9.67-.9,12.35,3,1.24,1.8,2.44,3.58,3.57,5.35,2.2,3.44.51,6.72-3.86,8.14a7.2,7.2,0,0,1-1.12.33c-2.22.31-2.22,1.12-1.06,2.35s1.58,2.48.13,3.55c-1.63,1.21-4.49.79-6-.82-.72-.76-.89-2-2.14-2.2-1-.15-2,.54-3,.8a9.72,9.72,0,0,1-8.49-2.13c-1.36-1.27-1.56-2.64-.47-3.55s3-.89,4.8.27a1.76,1.76,0,0,0,1.86.28q5-1.81,10.61-3.7c1-.34,1.25-.64.69-1.5-3-4.64-3-4.65-8.63-2.39Z"/><path class="cls-4" d="M522.25,787.2c1.58-1.7,3.09-3.4,4.67-5,3.06-3.13,7.92-3.3,11.78-.5,2.07,1.5,4.11,3,6.13,4.59,4,3.1,4.87,7.48,2.08,11.17a8.12,8.12,0,0,1-1,1.3c-1.26,1.12-.8,1.86.54,2.83,3.51,2.54,4.31,4.74,2.7,6.9s-4.06,2.11-7.55-.68c-1.67-1.33-2.27-.73-3.25.54-3.38,4.42-6.94,5.67-11.37,4.1-3.17-1.13-4.59-3.24-3.88-5.75s2.82-3.45,6.25-2.58a1.36,1.36,0,0,0,1.73-.64c2.91-3.5,5.71-6.91,8.5-10.19.63-.75.67-1.15-.24-1.92-5.35-4.48-5.32-4.51-9.53.28-2.1,2.39-4.21,4.83-6.42,7.3-3.63,4.05-9.09,4.53-13.8,1.11-2.23-1.62-4.45-3.26-6.63-4.93-4.36-3.34-4.76-8.19-1.12-11.88a6,6,0,0,1,1-.92c2.16-1.38,1.65-2.48-.39-3.68s-3.36-2.8-2.52-5c1-2.52,4.43-3.22,7.19-1.53,1.28.77,2.25,2.5,3.74,2.22,1.19-.22,1.92-1.7,2.91-2.55a9.71,9.71,0,0,1,10.73-.74c2.2,1.24,3.11,3.13,2.36,4.91s-2.86,2.56-5.43,1.72a1.73,1.73,0,0,0-2.19.43q-4.41,4.62-9.22,9.4c-.87.86-.92,1.32.15,2.18,5.63,4.55,5.6,4.58,10.25-.43Z"/><path class="cls-4" d="M594.77,428.57c-2,3-4.1,6.16-6.38,9.36a15.83,15.83,0,0,1-20.91,4.73c-3.89-2.22-7.69-4.53-11.44-6.84-7.42-4.58-7.84-12-1.64-18.34a19,19,0,0,1,2.13-2.08c2.4-1.76,1.72-2.74-.43-3.94-5.61-3.15-6.48-6-3.25-8.83s6.9-2.67,12,.49c2.44,1.51,3.39.76,4.91-.78,4.91-5,9.63-6.28,15.38-4.72,4.05,1.1,6.05,3.24,5.49,5.93s-3.26,4.06-8,3.26a2.06,2.06,0,0,0-2.38.88c-4.15,4.64-8.55,9.64-13.38,14.94-1.17,1.29-1.28,1.94.26,3,9.13,6.17,9.08,6.22,15.71-2.25,3-3.77,5.72-7.38,8.43-10.77,4.08-5.1,10.6-6,16.88-2.51,3,1.64,6,3.31,8.94,5,6,3.46,8.33,9.43,5.73,15.08a6.68,6.68,0,0,1-.76,1.51c-2.06,2.51-1,4.06,2.07,5.4s5.4,3.47,5.5,7.27c.12,4.61-4,7.1-8.53,5.05-2.1-.95-4.18-3.7-6.14-2.7-1.59.82-2.07,3.81-3.2,5.82a14,14,0,0,1-17.17,6.23c-4.16-1.64-6.11-5.27-5.08-9.22,1-3.77,4.34-5.95,8.62-5.28,1.73.27,2.47,0,3.29-1.49q5.19-9.18,9.91-17c.81-1.33.72-2-.87-2.95-8.32-5.15-8.29-5.19-13.41,2.35Z"/><path class="cls-4" d="M738.39,504.87c-2.63-1.33-5.38-2.65-8.2-4.15a12.79,12.79,0,0,1-6-16.26c1.36-3.34,2.81-6.62,4.27-9.86,2.89-6.4,8.81-7.5,14.56-3.19a15.1,15.1,0,0,1,1.89,1.49c1.67,1.74,2.38,1.09,3.12-.75,1.93-4.82,4.14-5.81,6.75-3.51s2.87,5.25.88,9.67c-.95,2.11-.25,2.79,1.15,3.85,4.5,3.42,6.07,7.06,5.42,11.83-.45,3.35-2,5.17-4.18,5s-3.61-2.19-3.46-6.06a1.67,1.67,0,0,0-1-1.81c-4.16-2.84-8.64-5.85-13.41-9.18-1.17-.8-1.7-.82-2.37.52-4,7.94-4,7.91,3.48,12.34,3.34,2,6.53,3.83,9.54,5.65,4.53,2.74,5.93,7.87,3.81,13.25-1,2.56-2,5.12-3.09,7.68-2.14,5.11-6.69,7.63-11.5,6.14a5.57,5.57,0,0,1-1.3-.46c-2.23-1.39-3.36-.36-4.11,2.21s-2.22,4.68-5.26,5.15c-3.69.57-6.12-2.47-5-6.31.54-1.78,2.53-3.73,1.51-5.2-.82-1.18-3.27-1.26-5-2a11.33,11.33,0,0,1-6.84-13.1c.89-3.5,3.59-5.44,6.87-5s5.24,2.86,5.16,6.35a2.12,2.12,0,0,0,1.54,2.48c5.29,2.15,10.18,4.2,14.72,6.19,1.15.51,1.65.38,2.27-1,3.25-7.19,3.29-7.17-3.31-10.49Q739.91,505.62,738.39,504.87Z"/></svg>