<svg version="1.2" xmlns="http://www.w3.org/2000/svg" viewBox="0 0 997 241" width="997" height="241">
	<title>midd-background-desktop-capm-one-svg</title>
	<style>
		.s0 { fill: #131353 } 
		.s1 { fill: none;stroke: #1d1e65;stroke-width: 1.5 } 
		.s2 { fill: #1d1e65 } 
	</style>
	<path id="Layer" class="s0" d="m0 65c0-35.9 29.1-65 65-65h867c35.9 0 65 29.1 65 65v111c0 35.9-29.1 65-65 65h-867c-35.9 0-65-29.1-65-65z" />
	<path id="Layer" class="s0" d="m57.4 234.2c0 0 8.3-73 73.8-65.8c65.1 7.2 57.6 44.1 91 39.4c33.5-4.6 36.2-54.3 49.3-113.5c11.3-51.4 56.5-35.7 64.9-19.1c7.1 13.9 9.8 57.6 36.8 60.5c26.9 2.9 36.2-30.1 38.1-46.4c1.8-16.2 11.1-82.2 45-83.1c32-0.8 46 28.7 46 84.9c0 56.2 3.7 92.7 18.6 107.7c14.8 15.1 34.3 11.1 40.4 9c7.5-2.5 30.1-26.3 35.7-85.4c5.6-59.1 42.7-50.4 51.1-41.8c8.4 8.7 31.1 56.5 59 55.4c27.8-1.2 35.7-12.5 40.4-39.1c4.6-26.7 11.5-92.7 46.9-91.9c36.6 0.9 51.4 105.3 50.7 136.6c-0.7 39.6 46.8 86.5 76.5 86.5" />
	<path id="Layer" class="s1" d="m57.4 234.2c0 0 8.3-73 73.8-65.8c65.1 7.2 57.6 44.1 91 39.4c33.5-4.6 36.2-54.3 49.3-113.5c11.3-51.4 56.5-35.7 64.9-19.1c7.1 13.9 9.8 57.6 36.8 60.5c26.9 2.9 36.2-30.1 38.1-46.4c1.8-16.2 11.1-82.2 45-83.1c32-0.8 46 28.7 46 84.9c0 56.2 3.7 92.7 18.6 107.7c14.8 15.1 34.3 11.1 40.4 9c7.5-2.5 30.1-26.3 35.7-85.4c5.6-59.1 42.7-50.4 51.1-41.8c8.4 8.7 31.1 56.5 59 55.4c27.8-1.2 35.7-12.5 40.4-39.1c4.6-26.7 11.5-92.7 46.9-91.9c36.6 0.9 51.4 105.3 50.7 136.6c-0.7 39.6 46.8 86.5 76.5 86.5" />
	<path id="Layer" class="s2" d="m208 207.5c0-3.6 3.1-6.5 7-6.5c3.9 0 7 2.9 7 6.5c0 3.6-3.1 6.5-7 6.5c-3.9 0-7-2.9-7-6.5z" />
	<path id="Layer" class="s2" d="m50 231.5c0-3.6 3.1-6.5 7-6.5c3.9 0 7 2.9 7 6.5c0 3.6-3.1 6.5-7 6.5c-3.9 0-7-2.9-7-6.5z" />
	<path id="Layer" class="s2" d="m298 58.5c0-3.6 3.1-6.5 7-6.5c3.9 0 7 2.9 7 6.5c0 3.6-3.1 6.5-7 6.5c-3.9 0-7-2.9-7-6.5z" />
	<path id="Layer" class="s2" d="m453 6.5c0-3.6 3.1-6.5 7-6.5c3.9 0 7 2.9 7 6.5c0 3.6-3.1 6.5-7 6.5c-3.9 0-7-2.9-7-6.5z" />
	<path id="Layer" class="s2" d="m623 75.5c0-3.6 3.1-6.5 7-6.5c3.9 0 7 2.9 7 6.5c0 3.6-3.1 6.5-7 6.5c-3.9 0-7-2.9-7-6.5z" />
	<path id="Layer" class="s2" d="m786 6.5c0-3.6 3.1-6.5 7-6.5c3.9 0 7 2.9 7 6.5c0 3.6-3.1 6.5-7 6.5c-3.9 0-7-2.9-7-6.5z" />
	<path id="Layer" class="s2" d="m909 227.5c0-3.6 3.1-6.5 7-6.5c3.9 0 7 2.9 7 6.5c0 3.6-3.1 6.5-7 6.5c-3.9 0-7-2.9-7-6.5z" />
	<path id="Layer" class="s2" d="m540 209.5c0-3.6 3.1-6.5 7-6.5c3.9 0 7 2.9 7 6.5c0 3.6-3.1 6.5-7 6.5c-3.9 0-7-2.9-7-6.5z" />
</svg>