<svg width="99" height="53" viewBox="0 0 99 53" fill="none" xmlns="http://www.w3.org/2000/svg">
<path d="M49.5346 45.7198C47.8949 45.7253 46.2703 45.3995 44.7552 44.7614C43.2399 44.1235 41.8641 43.1857 40.7072 42.0026L6.4032 7.07446H17.6412L45.1204 35.0543C46.2917 36.2449 47.879 36.9135 49.534 36.9135C51.189 36.9135 52.7765 36.2449 53.9477 35.0543L81.4278 7.07446H92.6648L58.3619 42.0035C57.205 43.1866 55.829 44.1241 54.3137 44.762C52.7986 45.3999 51.1742 45.7254 49.5346 45.7198Z" fill="#48FB6F"/>
<path opacity="0.2" d="M27.8743 28.9373L33.4876 23.2165L39.101 28.9322L33.4876 34.6478L27.8743 28.9373ZM59.9625 28.9373L65.5809 23.2112L71.1944 28.9269L65.5809 34.653L59.9625 28.9373Z" fill="#48FB6F"/>
<path d="M17.6467 45.3994H6.41064L40.7137 10.4713C43.0564 8.08981 46.2315 6.7522 49.5419 6.7522C52.8525 6.7522 56.0276 8.08981 58.3703 10.4713L92.6683 45.3973H81.4333L53.9541 17.4195C52.7826 16.2295 51.1954 15.5611 49.5404 15.5611C47.8856 15.5611 46.2984 16.2295 45.1268 17.4195L17.6467 45.3994Z" fill="#48FB6F"/>
<path d="M7.17898 31.4C9.88742 31.4 12.083 28.9611 12.083 25.9525C12.083 22.9438 9.88742 20.5049 7.17898 20.5049C4.47054 20.5049 2.2749 22.9438 2.2749 25.9525C2.2749 28.9611 4.47054 31.4 7.17898 31.4Z" fill="#48FB6F"/>
<path d="M91.889 31.4C94.5973 31.4 96.793 28.9611 96.793 25.9525C96.793 22.9438 94.5973 20.5049 91.889 20.5049C89.1805 20.5049 86.9849 22.9438 86.9849 25.9525C86.9849 28.9611 89.1805 31.4 91.889 31.4Z" fill="#48FB6F"/>
</svg>
