<svg id="ic-location" xmlns="http://www.w3.org/2000/svg" width="59.898" height="59.898" viewBox="0 0 59.898 59.898">
  <g id="Location" transform="translate(8.735 4.992)">
    <path id="Location-2" data-name="Location" d="M21.225,49.915a3.389,3.389,0,0,1-1.831-.618A53.691,53.691,0,0,1,5.566,36.467,25.917,25.917,0,0,1,0,20.759,20.386,20.386,0,0,1,6.247,6.075,21.29,21.29,0,0,1,21.2,0,21.023,21.023,0,0,1,42.428,20.759a25.931,25.931,0,0,1-5.566,15.708A54.707,54.707,0,0,1,23.032,49.3,3.293,3.293,0,0,1,21.225,49.915Zm-.028-35.5a7,7,0,0,0-6.986,6.988,6.768,6.768,0,0,0,2.05,4.878,7.046,7.046,0,0,0,11.955-4.878A7.049,7.049,0,0,0,21.2,14.418Z" transform="translate(0 0)" fill="#48fb6f"/>
  </g>
</svg>
