<svg xmlns="http://www.w3.org/2000/svg" 
width="40" height="40" viewBox="0 0 40 40">
<defs>
    <style>.a{fill:none;}.b{opacity:0.2;}</style>
</defs>
<rect class="a" width="40" height="40"/>
    <g transform="translate(2 13)">
        <g transform="translate(1.716)">
            <path fill="#48fb6f" d="M16.284,14.211a4.966,4.966,0,0,1-3.535-1.462L0,0H4.242l9.92,9.92a3,3,0,0,0,4.243,0L28.325,0h4.242L19.819,12.749A4.966,4.966,0,0,1,16.284,14.211Z" transform="translate(0 0)"/>
            <path fill="#48fb6f" class="b" d="M0,2.123,2.122,0,4.243,2.122,2.121,4.244Zm12.114,0L14.236,0l2.121,2.121L14.236,4.243Z" transform="translate(8.106 5.983)"/>
            <path fill="#48fb6f" d="M4.241,14.211H0L12.748,1.462a5.005,5.005,0,0,1,7.07,0L32.566,14.209l-4.24,0L18.405,4.29a3,3,0,0,0-4.243,0L4.242,14.211Z" transform="translate(0.002)"/>
        </g>
        <circle fill="#48fb6f" cx="2" cy="2" r="2" transform="translate(0 5)"/>
        <circle fill="#48fb6f" cx="2" cy="2" r="2" transform="translate(32 5)"/>
    </g>
</svg>