<svg xmlns="http://www.w3.org/2000/svg" width="35" height="35" viewBox="0 0 35 35">
  <g id="ic-world" transform="translate(21583 -6761)">
    <path id="Path_4833" data-name="Path 4833" d="M29.884,5.615A17.352,17.352,0,0,0,17.534.5h-.068A17.466,17.466,0,0,0,5.116,30.315a17.352,17.352,0,0,0,12.35,5.116h.068a17.479,17.479,0,0,0,8.512-2.211,1.365,1.365,0,1,0-1.332-2.382q-.568.317-1.161.583a15.7,15.7,0,0,0,.826-1.46,26.6,26.6,0,0,0,2.475-10.631h5.354a14.668,14.668,0,0,1-2.21,6.5A1.365,1.365,0,1,0,32.3,27.291a17.471,17.471,0,0,0-2.42-21.676ZM11.348,4.559a15.747,15.747,0,0,0-.795,1.41A19.465,19.465,0,0,0,9.76,7.79c-.842-.162-1.639-.351-2.375-.564A14.791,14.791,0,0,1,11.348,4.559Zm.3,6.3c1.421.18,2.918.294,4.457.337V16.6H10.809A27.527,27.527,0,0,1,11.645,10.855ZM5.432,9.467a26.6,26.6,0,0,0,3.511.947A30.576,30.576,0,0,0,8.078,16.6H2.792A14.65,14.65,0,0,1,5.432,9.467Zm-2.64,9.862H8.078a30.618,30.618,0,0,0,.849,6.124,26.565,26.565,0,0,0-3.534.955A14.65,14.65,0,0,1,2.792,19.329ZM7.327,28.65c.748-.22,1.554-.413,2.407-.579a19.506,19.506,0,0,0,.819,1.889,15.774,15.774,0,0,0,.795,1.41A14.794,14.794,0,0,1,7.327,28.65Zm8.774,3.7a7.869,7.869,0,0,1-3.108-3.614q-.261-.523-.494-1.088c1.155-.131,2.363-.216,3.6-.252Zm0-7.684c-1.541.043-3.045.159-4.473.341a27.58,27.58,0,0,1-.819-5.682H16.1Zm0-16.209c-1.223-.037-2.423-.122-3.573-.253q.22-.527.465-1.019A7.868,7.868,0,0,1,16.1,3.576ZM18.83,3.576A7.869,7.869,0,0,1,21.938,7.19q.245.491.465,1.019c-1.149.13-2.349.216-3.573.252ZM21.938,28.74a7.87,7.87,0,0,1-3.108,3.614V27.4c1.233.036,2.437.12,3.6.253Q22.2,28.217,21.938,28.74ZM23.3,25.009c-1.44-.184-2.937-.3-4.474-.34v-5.34h5.292A27.579,27.579,0,0,1,23.3,25.009ZM18.83,16.6V11.192c1.54-.042,3.036-.156,4.457-.336a27.518,27.518,0,0,1,.835,5.745H18.83ZM24.379,5.969a15.731,15.731,0,0,0-.823-1.454,14.789,14.789,0,0,1,4.044,2.7c-.752.22-1.565.413-2.428.58A19.392,19.392,0,0,0,24.379,5.969ZM26.854,16.6a30.581,30.581,0,0,0-.865-6.186,26.457,26.457,0,0,0,3.565-.966A14.651,14.651,0,0,1,32.208,16.6H26.854Z" transform="translate(-21583 6760.501)" fill="#48fb6f"/>
    <rect id="Rectangle_423" data-name="Rectangle 423" width="35" height="35" transform="translate(-21583 6761)" fill="none"/>
  </g>
</svg>
