<svg xmlns="http://www.w3.org/2000/svg" xmlns:xlink="http://www.w3.org/1999/xlink" width="130.006" height="130" viewBox="0 0 130.006 130">
  <defs>
    <linearGradient id="linear-gradient" x1="0.5" x2="0.5" y2="1" gradientUnits="objectBoundingBox">
      <stop offset="0" stop-color="#1f206c"/>
      <stop offset="1" stop-color="#050846"/>
    </linearGradient>
  </defs>
  <g id="ic-invite-03" transform="translate(18917.018 -2998)">
    <g id="blob" transform="translate(-18834.145 3087.222)" fill="#48fb6f">
      <path d="M19.146-65.846A54.506,54.506,0,0,1,36.6-33.351c1.738,11.968-.756,24.215-6.574,35.905C24.284,14.314,15.292,25.517,3.5,29.275s-26.371-.07-39.217-5.5S-59.741,11.252-66.24,1.441A40.007,40.007,0,0,1-71.227-31.75c3.4-10.785,11.863-19.692,21.611-28.46s20.78-17.4,33.1-18.788C-4.2-80.459,9.322-74.614,19.146-65.846Z" stroke="none"/>
      <path d="M -12.67358207702637 -79.22160339355469 C -13.9643726348877 -79.22160339355469 -15.24935340881348 -79.1485595703125 -16.51980781555176 -78.99783325195313 C -28.83647346496582 -77.60614013671875 -39.86854553222656 -68.97776031494141 -49.61609268188477 -60.21018981933594 C -59.36361694335938 -51.4426383972168 -67.82659149169922 -42.53590393066406 -71.22689819335938 -31.75042533874512 C -74.5516357421875 -21.03452110290527 -72.73814392089844 -8.439853668212891 -66.23978424072266 1.441051483154297 C -59.74142456054688 11.25236129760742 -48.55821228027344 18.34990692138672 -35.71263885498047 23.77742767333984 C -26.44066619873047 27.69504547119141 -16.2652416229248 30.77838897705078 -6.887298583984375 30.77838897705078 C -3.272834777832031 30.77838897705078 0.2248725891113281 30.31988525390625 3.504192352294922 29.27455139160156 C 15.29190826416016 25.51702880859375 24.2838134765625 14.31404876708984 30.02655029296875 2.55438232421875 C 35.84483337402344 -9.135688781738281 38.33840942382813 -21.38245010375977 36.60047912597656 -33.35085296630859 C 34.86252593994141 -45.31925964355469 28.89311981201172 -57.07892608642578 19.14557266235352 -65.84647369384766 C 10.33572387695313 -73.70967102050781 -1.450572967529297 -79.22160339355469 -12.67358207702637 -79.22160339355469 M -12.67359352111816 -89.22161865234375 C 0.4481468200683594 -89.22161865234375 14.47283554077148 -83.42097473144531 25.8044319152832 -73.30699920654297 C 37.01397705078125 -63.22454452514648 44.35247802734375 -49.55395126342773 46.49668884277344 -34.78790283203125 C 48.45976257324219 -21.26902008056641 45.86019134521484 -6.815521240234375 38.97900390625 7.010120391845703 C 30.99009704589844 23.37002563476563 19.45831298828125 34.6846923828125 6.541286468505859 38.80219268798828 C 2.427619934082031 40.11350250244141 -2.090427398681641 40.77838134765625 -6.887308120727539 40.77838134765625 C -16.36402130126953 40.77838134765625 -27.37175941467285 38.15764617919922 -39.60471343994141 32.98892974853516 C -56.1754264831543 25.98745727539063 -67.61495208740234 17.47431182861328 -74.57692718505859 6.963027954101563 C -82.72323608398438 -5.423568725585938 -85.03462219238281 -20.99349784851074 -80.77775573730469 -34.71368789672852 C -76.55390167236328 -48.1118049621582 -66.51973724365234 -58.45602035522461 -56.30354309082031 -67.64511871337891 C -45.12899780273438 -77.69621276855469 -32.71121215820313 -87.23194885253906 -17.64259338378906 -88.93459320068359 C -16.03825950622559 -89.12506866455078 -14.35976028442383 -89.22161865234375 -12.67359352111816 -89.22161865234375 Z" stroke="none" fill="rgba(72,251,111,0.2)"/>
    </g>
    <g id="Group_1386" data-name="Group 1386" transform="translate(-19540 2988)">
      <rect id="Rectangle_404" data-name="Rectangle 404" width="110" height="110" transform="translate(633 20)" fill="none"/>
      <g id="Group_1383" data-name="Group 1383" transform="translate(638 25)">
        <rect id="Rectangle_386" data-name="Rectangle 386" width="100" height="100" fill="none"/>
        <g id="XMLID_997_">
          <g id="XMLID_323_">
            <path id="XMLID_324_" d="M359.078,492h-.023a1.953,1.953,0,0,0,0,3.906h.023a1.953,1.953,0,0,0,0-3.906Z" transform="translate(-287.356 -395.906)" fill="url(#linear-gradient)"/>
            <path id="XMLID_327_" d="M99.15,36.734,87.5,28.758V5.859A5.866,5.866,0,0,0,81.64,0H18.359A5.866,5.866,0,0,0,12.5,5.859V29.148L.887,36.709A1.953,1.953,0,0,0,0,38.346v54.7A6.966,6.966,0,0,0,6.958,100H63.887a1.953,1.953,0,0,0,0-3.906H10.447L35.073,71.468h0l5.8-5.8a12.9,12.9,0,0,1,18.25,0L89.551,96.094H79.512a1.953,1.953,0,1,0,0,3.906h13.53A6.966,6.966,0,0,0,100,93.042v-54.7A1.953,1.953,0,0,0,99.15,36.734ZM95,38.629l-7.5,7.5V33.492Zm-82.5,7.5L5.038,38.668,12.5,33.809ZM3.906,93.042V43.061L30.931,70.086,5.38,95.636l-.008.008A3.05,3.05,0,0,1,3.906,93.042ZM50,57.981A16.7,16.7,0,0,0,38.112,62.9l-4.419,4.419L16.405,50.036V5.859a1.955,1.955,0,0,1,1.953-1.953H81.64a1.955,1.955,0,0,1,1.953,1.953V50.038L66.306,67.324l-4.42-4.42A16.7,16.7,0,0,0,50,57.981ZM94.627,95.645,69.069,70.087,96.094,43.061V93.042A3.05,3.05,0,0,1,94.627,95.645Z" fill="url(#linear-gradient)"/>
            <path id="XMLID_332_" d="M219.1,199.254a1.953,1.953,0,0,0-2.741.342l-5.2,6.679-.458-.664a3.364,3.364,0,0,0-2.5-1.814,3.249,3.249,0,0,0-2.93,1.149l-2.537,2.988-1.09-1.284a3.51,3.51,0,0,0-5.346-.106l-2.463,2.694a1.953,1.953,0,0,0,2.883,2.636l2.2-2.4.961,1.132a3.762,3.762,0,0,0,2.858,1.357h0a3.762,3.762,0,0,0,2.858-1.357l2.1-2.476,1.767,2.56a1.953,1.953,0,0,0,3.149.09L219.441,202A1.953,1.953,0,0,0,219.1,199.254Z" transform="translate(-155.563 -160.006)" fill="url(#linear-gradient)"/>
            <path id="XMLID_826_" d="M183.543,143.953A1.953,1.953,0,0,0,181.589,142h-29.72a1.953,1.953,0,0,0,0,3.906h29.72A1.953,1.953,0,0,0,183.543,143.953Z" transform="translate(-120.636 -114.266)" fill="url(#linear-gradient)"/>
            <path id="XMLID_827_" d="M344.033,142a1.954,1.954,0,1,0,1.381.572A1.972,1.972,0,0,0,344.033,142Z" transform="translate(-275.268 -114.266)" fill="url(#linear-gradient)"/>
            <path id="XMLID_929_" d="M151.869,101.906H189.4a1.953,1.953,0,1,0,0-3.906H151.869a1.953,1.953,0,0,0,0,3.906Z" transform="translate(-120.636 -78.859)" fill="url(#linear-gradient)"/>
            <path id="XMLID_951_" d="M151.869,57.906h6.665a1.953,1.953,0,0,0,0-3.906h-6.665a1.953,1.953,0,0,0,0,3.906Z" transform="translate(-120.636 -43.453)" fill="url(#linear-gradient)"/>
          </g>
        </g>
      </g>
    </g>
  </g>
</svg>
