<svg xmlns="http://www.w3.org/2000/svg" xmlns:xlink="http://www.w3.org/1999/xlink" width="130.004" height="130" viewBox="0 0 130.004 130">
  <defs>
    <linearGradient id="linear-gradient" x1="0.5" x2="0.5" y2="1" gradientUnits="objectBoundingBox">
      <stop offset="0" stop-color="#1f206c"/>
      <stop offset="1" stop-color="#050846"/>
    </linearGradient>
  </defs>
  <g id="ic-invite-01" transform="translate(18149.016 -2998)">
    <g id="_01" data-name="01" transform="translate(-18065.965 3073.723)" fill="#48fb6f">
      <path d="M13.461-59.59A48.855,48.855,0,0,1,35.876-28.577c2.915,13.24-.208,28.135-7.148,40.8-6.94,12.736-17.7,23.242-30.6,28.422s-27.9,4.965-38.655-1.583C-51.219,32.513-57.673,19.561-63.5,7.113c-5.9-12.376-11.1-24.249-9.091-34.539,1.943-10.29,11.173-19.068,20.75-25.472A72.038,72.038,0,0,1-21.031-64.987C-9.788-66.642,2.773-65.779,13.461-59.59Z" stroke="none"/>
      <path d="M -11.21590614318848 -65.72338104248047 C -14.54469871520996 -65.72338104248047 -17.84132957458496 -65.45651245117188 -21.03076934814453 -64.98700714111328 C -32.27341461181641 -63.40396118164063 -42.19746017456055 -59.37445831298828 -51.84393692016602 -52.89846038818359 C -61.4210090637207 -46.49438858032227 -70.65105438232422 -37.71579360961914 -72.59422302246094 -27.42615127563477 C -74.60681915283203 -17.13648414611816 -69.40188598632813 -5.263792991638184 -63.50296020507813 7.112586975097656 C -57.6734619140625 19.56089782714844 -51.21934127807617 32.51292037963867 -40.53189086914063 39.06089782714844 C -34.73919296264648 42.58705520629883 -27.72091293334961 44.27661514282227 -20.45914649963379 44.27661514282227 C -14.23606872558594 44.27661514282227 -7.833621978759766 43.03479766845703 -1.876651763916016 40.6439208984375 C 11.03156280517578 35.46311187744141 21.78842163085938 24.95758819580078 28.72829818725586 12.22142028808594 C 35.66820907592773 -0.4427700042724609 38.79115676879883 -15.33757877349854 35.87639999389648 -28.57743644714355 C 33.03106307983398 -41.74531555175781 24.14796829223633 -53.33019638061523 13.46054077148438 -59.59033966064453 C 5.805027008056641 -64.02297973632813 -2.810844421386719 -65.72338104248047 -11.21590614318848 -65.72338104248047 M -11.21591377258301 -75.723388671875 C -0.08791351318359375 -75.723388671875 9.900325775146484 -73.20707702636719 18.4713249206543 -68.24436950683594 C 32.15506362915039 -60.22927093505859 42.29937362670898 -46.19953155517578 45.65079879760742 -30.68950653076172 C 48.92549514770508 -15.81507873535156 45.9568977355957 1.590778350830078 37.49787521362305 17.0270881652832 C 29.14182662963867 32.36232757568359 16.47708511352539 44.05289840698242 1.848110198974609 49.9243278503418 C -5.246007919311523 52.77161026000977 -12.9597225189209 54.27661514282227 -20.45915222167969 54.27661514282227 C -29.82003211975098 54.27661514282227 -38.55910491943359 51.96882247924805 -45.7315559387207 47.60275650024414 C -58.49303436279297 39.78411102294922 -65.70243835449219 25.99532699584961 -72.55912780761719 11.35356521606445 C -79.45479583740234 -3.113508224487305 -84.97776794433594 -16.20872116088867 -82.40824890136719 -29.34572219848633 C -80.24053192138672 -40.82567596435547 -71.82327270507813 -51.56826782226563 -57.40255737304688 -61.21119689941406 C -46.30555725097656 -68.6610107421875 -34.85936737060547 -73.13848876953125 -22.42507934570313 -74.88931274414063 C -18.6871509552002 -75.43977355957031 -14.89496040344238 -75.723388671875 -11.21591377258301 -75.723388671875 Z" stroke="none" fill="rgba(72,251,111,0.2)"/>
    </g>
    <rect id="Rectangle_386" data-name="Rectangle 386" width="110" height="110" transform="translate(-18139 3008)" fill="none"/>
    <g id="Group_1385" data-name="Group 1385" transform="translate(-18772 2988)">
      <rect id="Rectangle_403" data-name="Rectangle 403" width="110" height="110" transform="translate(633 20)" fill="none"/>
      <g id="log-in" transform="translate(585.965 20)">
        <path id="Union_7" data-name="Union 7" d="M21352.85-1677a2.146,2.146,0,0,1-2.146-2.147,2.146,2.146,0,0,1,2.146-2.147h28.09v-20.894h-75.609v20.894h28.1a2.145,2.145,0,0,1,2.146,2.147,2.145,2.145,0,0,1-2.146,2.147h-30.242a2.146,2.146,0,0,1-2.146-2.147v-25.187a2.151,2.151,0,0,1,2.146-2.152h79.908a2.151,2.151,0,0,1,2.148,2.152v25.187a2.147,2.147,0,0,1-2.148,2.147Zm-11.785-1.449a2.165,2.165,0,0,1,.7-2.378,2.173,2.173,0,0,1,2.441-.161,2.161,2.161,0,0,1,1,2.26,2.163,2.163,0,0,1-2.1,1.728A2.169,2.169,0,0,1,21341.064-1678.451Zm23.34-11.142a2.151,2.151,0,0,1-2.146-2.152,2.146,2.146,0,0,1,2.146-2.147h5.877a2.149,2.149,0,0,1,2.146,2.147,2.153,2.153,0,0,1-2.146,2.152Zm-16.133,0a2.156,2.156,0,0,1-2.152-2.152,2.151,2.151,0,0,1,2.152-2.147h5.871a2.146,2.146,0,0,1,2.146,2.147,2.151,2.151,0,0,1-2.146,2.152Zm-16.139,0a2.151,2.151,0,0,1-2.146-2.152,2.146,2.146,0,0,1,2.146-2.147H21338a2.15,2.15,0,0,1,2.152,2.147,2.155,2.155,0,0,1-2.152,2.152Zm-16.139,0a2.151,2.151,0,0,1-2.146-2.152,2.146,2.146,0,0,1,2.146-2.147h5.871a2.148,2.148,0,0,1,2.152,2.147,2.152,2.152,0,0,1-2.152,2.152Zm-.43-27.023a2.146,2.146,0,0,1-2.146-2.147v-12.806a18.227,18.227,0,0,1,17.127-18.173,20.73,20.73,0,0,1-8.17-16.5,20.782,20.782,0,0,1,20.76-20.76,20.784,20.784,0,0,1,20.766,20.76,20.742,20.742,0,0,1-8.168,16.5,18.226,18.226,0,0,1,17.125,18.173v12.806a2.146,2.146,0,0,1-2.146,2.147Zm2.152-14.953v10.654h50.842v-10.654a13.919,13.919,0,0,0-13.906-13.906h-23.029A13.919,13.919,0,0,0,21317.717-1731.568Zm8.953-34.671a16.486,16.486,0,0,0,16.465,16.466,16.482,16.482,0,0,0,16.467-16.466,16.486,16.486,0,0,0-16.467-16.466A16.489,16.489,0,0,0,21326.67-1766.238Z" transform="translate(-21241 1787)" fill="url(#linear-gradient)"/>
      </g>
    </g>
  </g>
</svg>
