<svg width="77" height="67" viewBox="0 0 77 67" fill="none" xmlns="http://www.w3.org/2000/svg">
<path d="M53.3428 49.5371H12.9223C10.5715 49.5371 8.66748 47.7398 8.66748 45.5208V23.4312C8.66748 21.2122 10.5715 19.4149 12.9223 19.4149H53.3428C55.6936 19.4149 57.5976 21.2122 57.5976 23.4312V45.5208C57.5976 47.7398 55.6936 49.5371 53.3428 49.5371Z" fill="#E6E8EA"/>
<path d="M12.9223 19.4149C10.5715 19.4149 8.66748 21.2122 8.66748 23.4312V45.5208C8.66748 47.7398 10.5715 49.5371 12.9223 49.5371H15.8347L47.7456 19.4149H12.9223Z" fill="#C7C9E4"/>
<path d="M53.3428 50.5412H12.9222C9.9907 50.5412 7.60376 48.2901 7.60376 45.5209V23.4313C7.60376 20.662 9.9907 18.4109 12.9222 18.4109H53.3428C56.2743 18.4109 58.6612 20.662 58.6612 23.4313V45.5209C58.6612 48.2901 56.2743 50.5412 53.3428 50.5412ZM12.9222 20.419C11.1629 20.419 9.73115 21.7705 9.73115 23.4313V45.5209C9.73115 47.1816 11.1629 48.5331 12.9222 48.5331H53.3428C55.1021 48.5331 56.5338 47.1816 56.5338 45.5209V23.4313C56.5338 21.7705 55.1021 20.419 53.3428 20.419H12.9222Z" fill="#6566B0"/>
<path d="M23.5593 19.4149H21.4319V49.5371H23.5593V19.4149Z" fill="#6566B0"/>
<path d="M15.0497 27.4475H8.66748V29.4557H15.0497V27.4475Z" fill="#6566B0"/>
<path d="M57.5977 27.4475H29.9415V29.4557H57.5977V27.4475Z" fill="#6566B0"/>
<path d="M53.3428 42.5086H49.0881C48.5009 42.5086 48.0244 42.0588 48.0244 41.5046C48.0244 40.9503 48.5009 40.5005 49.0881 40.5005H53.3428C53.93 40.5005 54.4065 40.9503 54.4065 41.5046C54.4065 42.0588 53.93 42.5086 53.3428 42.5086ZM53.3428 46.5249H44.8333C44.2461 46.5249 43.7696 46.0751 43.7696 45.5209C43.7696 44.9666 44.2461 44.5168 44.8333 44.5168H53.3428C53.93 44.5168 54.4065 44.9666 54.4065 45.5209C54.4065 46.0751 53.93 46.5249 53.3428 46.5249ZM18.2408 32.4659C17.1516 32.4659 16.0624 32.0763 15.2327 31.2931C13.5733 29.7268 13.5733 27.1785 15.2327 25.6121C16.8899 24.0478 19.5896 24.0478 21.249 25.6121L23.5061 27.7427C23.921 28.1343 23.921 28.7709 23.5061 29.1625L21.249 31.2952C20.4193 32.0743 19.33 32.4659 18.2408 32.4659ZM18.2408 26.4455C17.6962 26.4455 17.1516 26.6423 16.7368 27.0319C15.9071 27.817 15.9071 29.0882 16.7368 29.8734C17.5664 30.6546 18.9152 30.6546 19.7449 29.8734L21.249 28.4516L19.7449 27.0319C19.33 26.6403 18.7854 26.4455 18.2408 26.4455Z" fill="#6566B0"/>
<path d="M26.7504 32.4658C25.6612 32.4658 24.5719 32.0763 23.7422 31.2931L21.4851 29.1604C21.0702 28.7688 21.0702 28.1323 21.4851 27.7407L23.7422 25.61C25.3995 24.0457 28.0992 24.0457 29.7585 25.61C31.4179 27.1764 31.4179 29.7247 29.7585 31.2911C28.9288 32.0743 27.8396 32.4658 26.7504 32.4658ZM25.2463 29.8733C26.076 30.6545 27.4248 30.6545 28.2545 29.8733C29.0841 29.0881 29.0841 27.817 28.2545 27.0318C27.4248 26.2506 26.076 26.2506 25.2463 27.0318L23.7422 28.4516L25.2463 29.8733Z" fill="#6566B0"/>
<path d="M27.8141 36.4841C27.5503 36.4841 27.2865 36.3918 27.0801 36.207L21.7617 31.4316C21.3362 31.0501 21.3192 30.4135 21.7234 30.0119C22.1276 29.6102 22.8041 29.5962 23.2274 29.9757L28.5459 34.7511C28.9714 35.1327 28.9884 35.7692 28.5842 36.1709C28.3757 36.3797 28.0949 36.4841 27.8141 36.4841Z" fill="#6566B0"/>
<path d="M17.1771 36.4841C16.8963 36.4841 16.6155 36.3797 16.407 36.1729C16.0028 35.7712 16.0177 35.1346 16.4453 34.7531L21.7638 29.9777C22.1893 29.5962 22.8636 29.6102 23.2678 30.0139C23.672 30.4175 23.6572 31.0521 23.2295 31.4336L17.9111 36.209C17.7047 36.3917 17.4409 36.4841 17.1771 36.4841Z" fill="#6566B0"/>
<path d="M61.6977 2.77805C59.3601 2.77041 57.0727 3.41726 55.1246 4.63678C53.1765 5.8563 51.6553 7.59373 50.7533 9.62936C49.8513 11.665 49.609 13.9074 50.0571 16.073C50.5052 18.2386 51.6236 20.2301 53.2707 21.7958C54.9179 23.3614 57.0199 24.4308 59.311 24.8688C61.602 25.3067 63.9792 25.0936 66.1419 24.2562C68.3046 23.4189 70.1556 21.995 71.461 20.1646C72.7664 18.3342 73.4675 16.1795 73.4756 13.973C73.4864 11.0141 72.2516 8.1724 70.0429 6.07295C68.9492 5.0334 67.6493 4.20738 66.2174 3.64204C64.7856 3.0767 63.2498 2.78311 61.6977 2.77805ZM66.0103 16.0237L62.453 19.2028C62.4015 19.2498 62.3413 19.2875 62.2753 19.3138C62.2195 19.361 62.1554 19.3985 62.0858 19.4247C61.9441 19.4833 61.791 19.5133 61.6363 19.5128C61.4817 19.5123 61.3288 19.4813 61.1876 19.4218C61.0427 19.3682 60.9104 19.2882 60.7984 19.1862L57.265 15.8278C57.0432 15.617 56.9193 15.3316 56.9204 15.0345C56.9214 14.7374 57.0475 14.4529 57.2708 14.2436C57.4942 14.0342 57.7964 13.9172 58.1112 13.9182C58.4259 13.9192 58.7273 14.0382 58.9491 14.249L60.4684 15.7043L60.4913 9.46797C60.4924 9.17209 60.6179 8.88873 60.8403 8.68023C61.0627 8.47173 61.3638 8.35518 61.6772 8.3562C61.9907 8.35722 62.2909 8.47575 62.5118 8.68569C62.7326 8.89564 62.8561 9.17981 62.855 9.47569L62.8319 15.7902L64.3853 14.4007C64.6133 14.1973 64.9175 14.0877 65.2311 14.096C65.5447 14.1044 65.842 14.23 66.0575 14.4452C66.273 14.6604 66.3891 14.9476 66.3802 15.2437C66.3714 15.5397 66.2383 15.8203 66.0103 16.0237Z" fill="#6566B0"/>
</svg>
