<svg width="934" height="759" viewBox="0 0 934 759" fill="none" xmlns="http://www.w3.org/2000/svg">
<rect x="831" y="97" width="103" height="472" fill="#E6E8EA" fill-opacity="0.15"/>
<rect x="555" y="190" width="103" height="379" fill="#E6E8EA" fill-opacity="0.15"/>
<rect y="97" width="103" height="472" fill="#E6E8EA" fill-opacity="0.15"/>
<rect x="276" y="190" width="103" height="379" fill="#E6E8EA" fill-opacity="0.15"/>
<path d="M934 569C934 619.391 914.035 667.718 878.497 703.35C842.959 738.982 794.759 759 744.5 759C694.241 759 646.041 738.982 610.503 703.35C574.965 667.718 555 619.391 555 569L658.052 569C658.052 591.988 667.16 614.034 683.372 630.289C699.584 646.544 721.573 655.676 744.5 655.676C767.427 655.676 789.416 646.544 805.628 630.289C821.84 614.034 830.948 591.988 830.948 569H934Z" fill="#E6E8EA" fill-opacity="0.15"/>
<path d="M379 569C379 619.391 359.035 667.718 323.497 703.35C287.959 738.982 239.759 759 189.5 759C139.241 759 91.0414 738.982 55.5033 703.35C19.9651 667.718 7.58883e-06 619.391 0 569L103.209 569C103.209 591.946 112.3 613.952 128.483 630.178C144.666 646.403 166.614 655.519 189.5 655.519C212.386 655.519 234.334 646.403 250.517 630.178C266.7 613.952 275.791 591.946 275.791 569H379Z" fill="#E6E8EA" fill-opacity="0.15"/>
<path d="M658 190C658 139.609 637.877 91.2816 602.057 55.6497C566.238 20.0178 517.656 3.80443e-06 467 0C416.344 -3.80442e-06 367.762 20.0178 331.943 55.6497C296.123 91.2816 276 139.609 276 190L378.756 190C378.756 166.719 388.053 144.391 404.602 127.929C421.151 111.467 443.596 102.218 467 102.218C490.404 102.218 512.849 111.467 529.398 127.929C545.947 144.391 555.244 166.719 555.244 190H658Z" fill="#E6E8EA" fill-opacity="0.15"/>
<rect x="730" y="83" width="33" height="117" fill="#FAFAFA" fill-opacity="0.7"/>
<rect x="450" y="220" width="33" height="85" fill="#FAFAFA" fill-opacity="0.7"/>
<rect x="176" y="83" width="33" height="117" fill="#FAFAFA" fill-opacity="0.7"/>
<rect x="456" y="496" width="33" height="85" fill="#FAFAFA" fill-opacity="0.7"/>
<rect x="730" y="496" width="33" height="85" fill="#FAFAFA" fill-opacity="0.7"/>
<rect x="176" y="496" width="33" height="85" fill="#FAFAFA" fill-opacity="0.7"/>
</svg>
