<svg xmlns="http://www.w3.org/2000/svg" width="35" height="35" viewBox="0 0 35 35">
  <g id="ic-verification" transform="translate(18956 15540)">
    <g id="security" transform="translate(-18953.813 -15540)">
      <g id="Group_764" data-name="Group 764">
        <g id="Group_763" data-name="Group 763">
          <path id="Path_4754" data-name="Path 4754" d="M61.807,6.267,47.794.115a1.367,1.367,0,0,0-1.1,0L32.813,6.269A1.367,1.367,0,0,0,32,7.519v10.8a17.608,17.608,0,0,0,4.426,11.448,15.989,15.989,0,0,0,4.847,3.778A13.41,13.41,0,0,0,47.313,35,13.86,13.86,0,0,0,55.5,32.277a1.367,1.367,0,0,0-1.609-2.211,11.144,11.144,0,0,1-6.578,2.2c-6.583,0-12.578-6.647-12.578-13.945V8.409L47.247,2.861,59.891,8.412V18.32A14.474,14.474,0,0,1,57.8,25.688a1.367,1.367,0,0,0,2.351,1.4,17.209,17.209,0,0,0,2.475-8.765V7.519A1.367,1.367,0,0,0,61.807,6.267Z" transform="translate(-32 0)" fill="#48fb6f"/>
          <path id="Path_4755" data-name="Path 4755" d="M139.543,150.511,131.066,161.1l-4.752-4.571a1.367,1.367,0,0,0-1.9,1.971l4.818,4.635.006.006a2.636,2.636,0,0,0,1.829.732l.11,0a2.638,2.638,0,0,0,1.874-.883q.025-.028.049-.058l8.573-10.712a1.367,1.367,0,1,0-2.135-1.709Z" transform="translate(-117.71 -139.744)" fill="#48fb6f"/>
        </g>
      </g>
    </g>
    <path id="Path_4784" data-name="Path 4784" d="M0,0H35V35H0Z" transform="translate(-18956 -15540)" fill="none"/>
  </g>
</svg>
