<svg width="104" height="104" viewBox="0 0 104 104" fill="none" xmlns="http://www.w3.org/2000/svg">
<path d="M9.75 19.5C6.17709 19.5 3.25 22.4273 3.25 26V45.5C3.25 49.073 6.17709 52 9.75 52H13V60.125C12.9988 60.4454 13.0924 60.7589 13.2689 61.0263C13.4454 61.2936 13.697 61.5028 13.992 61.6276C14.2871 61.7524 14.6124 61.7873 14.9272 61.7277C15.242 61.6682 15.5322 61.5169 15.7612 61.293L25.2827 52H42.25C45.8229 52 48.75 49.073 48.75 45.5V26C48.75 22.4273 45.8229 19.5 42.25 19.5H9.75ZM9.75 22.75H42.25C44.0787 22.75 45.5 24.1715 45.5 26V45.5C45.5 47.3288 44.0787 48.75 42.25 48.75H24.6162C24.1937 48.7517 23.7884 48.9179 23.4863 49.2134L16.25 56.272V50.375C16.25 49.944 16.0787 49.5307 15.774 49.226C15.4693 48.9213 15.056 48.75 14.625 48.75H9.75C7.92135 48.75 6.5 47.3288 6.5 45.5V26C6.5 24.1715 7.92135 22.75 9.75 22.75ZM64.9429 24.3813C64.6195 24.3839 64.3042 24.4828 64.0374 24.6656C63.7706 24.8483 63.5643 25.1064 63.445 25.407C63.3257 25.7076 63.2988 26.037 63.3678 26.3529C63.4367 26.6689 63.5984 26.9571 63.832 27.1807L65.9331 29.2563H53.6504C53.5954 29.2536 53.5403 29.2536 53.4854 29.2563C53.2719 29.2671 53.0626 29.3198 52.8695 29.4114C52.6765 29.5031 52.5033 29.6319 52.36 29.7904C52.2167 29.949 52.106 30.1342 52.0343 30.3356C51.9626 30.5369 51.9313 30.7504 51.9422 30.9639C51.953 31.1774 52.0058 31.3866 52.0975 31.5796C52.1892 31.7727 52.3181 31.9458 52.4767 32.089C52.6354 32.2323 52.8207 32.3428 53.022 32.4144C53.2234 32.486 53.4369 32.5173 53.6504 32.5063H65.9331L63.832 34.582C63.6662 34.7282 63.5319 34.9067 63.4375 35.1066C63.343 35.3064 63.2903 35.5235 63.2826 35.7444C63.2749 35.9654 63.3123 36.1855 63.3926 36.3915C63.4729 36.5975 63.5944 36.7849 63.7497 36.9423C63.9049 37.0997 64.0906 37.2238 64.2955 37.3069C64.5003 37.3901 64.7199 37.4306 64.941 37.4259C65.162 37.4213 65.3797 37.3716 65.5809 37.2799C65.782 37.1882 65.9624 37.0564 66.1108 36.8926L71.043 32.0366C71.1967 31.8854 71.3188 31.7051 71.4021 31.5062C71.4854 31.3073 71.5283 31.0938 71.5283 30.8782C71.5283 30.6625 71.4854 30.4491 71.4021 30.2502C71.3188 30.0513 71.1967 29.871 71.043 29.7197L66.1108 24.8638C65.9582 24.7094 65.7763 24.5872 65.5757 24.5044C65.3751 24.4215 65.1599 24.3797 64.9429 24.3813ZM19.5 34.125C19.069 34.125 18.6557 34.2962 18.351 34.601C18.0462 34.9057 17.875 35.319 17.875 35.75C17.875 36.181 18.0462 36.5943 18.351 36.899C18.6557 37.2038 19.069 37.375 19.5 37.375C19.931 37.375 20.3443 37.2038 20.649 36.899C20.9538 36.5943 21.125 36.181 21.125 35.75C21.125 35.319 20.9538 34.9057 20.649 34.601C20.3443 34.2962 19.931 34.125 19.5 34.125ZM26 34.125C25.569 34.125 25.1557 34.2962 24.851 34.601C24.5462 34.9057 24.375 35.319 24.375 35.75C24.375 36.181 24.5462 36.5943 24.851 36.899C25.1557 37.2038 25.569 37.375 26 37.375C26.431 37.375 26.8443 37.2038 27.149 36.899C27.4538 36.5943 27.625 36.181 27.625 35.75C27.625 35.319 27.4538 34.9057 27.149 34.601C26.8443 34.2962 26.431 34.125 26 34.125ZM32.5 34.125C32.069 34.125 31.6557 34.2962 31.351 34.601C31.0462 34.9057 30.875 35.319 30.875 35.75C30.875 36.181 31.0462 36.5943 31.351 36.899C31.6557 37.2038 32.069 37.375 32.5 37.375C32.931 37.375 33.3443 37.2038 33.649 36.899C33.9538 36.5943 34.125 36.181 34.125 35.75C34.125 35.319 33.9538 34.9057 33.649 34.601C33.3443 34.2962 32.931 34.125 32.5 34.125ZM61.75 42.25C58.1771 42.25 55.25 45.1773 55.25 48.75V68.25C55.25 71.8231 58.1771 74.75 61.75 74.75H78.7173L88.2388 84.043C88.4678 84.2669 88.758 84.4182 89.0728 84.4777C89.3876 84.5373 89.7129 84.5024 90.008 84.3776C90.303 84.2528 90.5546 84.0436 90.7311 83.7763C90.9076 83.5089 91.0012 83.1954 91 82.875V74.75H94.25C97.8229 74.75 100.75 71.8231 100.75 68.25V48.75C100.75 45.1773 97.8229 42.25 94.25 42.25H61.75ZM61.75 45.5H94.25C96.0787 45.5 97.5 46.9216 97.5 48.75V68.25C97.5 70.0788 96.0787 71.5 94.25 71.5H89.375C88.944 71.5 88.5307 71.6713 88.226 71.976C87.9213 72.2807 87.75 72.694 87.75 73.125V79.022L80.5137 71.9634C80.2116 71.6679 79.8063 71.5017 79.3838 71.5H61.75C59.9213 71.5 58.5 70.0788 58.5 68.25V48.75C58.5 46.9216 59.9213 45.5 61.75 45.5ZM71.5 56.875C71.069 56.875 70.6557 57.0462 70.351 57.351C70.0462 57.6557 69.875 58.069 69.875 58.5C69.875 58.931 70.0462 59.3443 70.351 59.649C70.6557 59.9538 71.069 60.125 71.5 60.125C71.931 60.125 72.3443 59.9538 72.649 59.649C72.9538 59.3443 73.125 58.931 73.125 58.5C73.125 58.069 72.9538 57.6557 72.649 57.351C72.3443 57.0462 71.931 56.875 71.5 56.875ZM78 56.875C77.569 56.875 77.1557 57.0462 76.851 57.351C76.5462 57.6557 76.375 58.069 76.375 58.5C76.375 58.931 76.5462 59.3443 76.851 59.649C77.1557 59.9538 77.569 60.125 78 60.125C78.431 60.125 78.8443 59.9538 79.149 59.649C79.4538 59.3443 79.625 58.931 79.625 58.5C79.625 58.069 79.4538 57.6557 79.149 57.351C78.8443 57.0462 78.431 56.875 78 56.875ZM84.5 56.875C84.069 56.875 83.6557 57.0462 83.351 57.351C83.0462 57.6557 82.875 58.069 82.875 58.5C82.875 58.931 83.0462 59.3443 83.351 59.649C83.6557 59.9538 84.069 60.125 84.5 60.125C84.931 60.125 85.3443 59.9538 85.649 59.649C85.9538 59.3443 86.125 58.931 86.125 58.5C86.125 58.069 85.9538 57.6557 85.649 57.351C85.3443 57.0462 84.931 56.875 84.5 56.875ZM39.019 56.8813C38.5982 56.8914 38.1977 57.0643 37.9019 57.3638L32.9697 62.2197C32.816 62.371 32.6939 62.5513 32.6106 62.7502C32.5273 62.9491 32.4844 63.1625 32.4844 63.3782C32.4844 63.5938 32.5273 63.8073 32.6106 64.0062C32.6939 64.2051 32.816 64.3854 32.9697 64.5366L37.9019 69.3926C38.0503 69.5564 38.2307 69.6881 38.4318 69.7799C38.633 69.8716 38.8507 69.9213 39.0717 69.9259C39.2928 69.9306 39.5124 69.8901 39.7172 69.8069C39.9221 69.7238 40.1078 69.5997 40.263 69.4423C40.4183 69.2849 40.5398 69.0975 40.6201 68.8915C40.7004 68.6856 40.7378 68.4654 40.7301 68.2444C40.7224 68.0235 40.6697 67.8064 40.5752 67.6066C40.4808 67.4067 40.3465 67.2282 40.1807 67.082L38.0669 65H50.3623C50.5776 65.003 50.7914 64.9633 50.9912 64.883C51.1911 64.8027 51.3729 64.6835 51.5263 64.5323C51.6796 64.3811 51.8014 64.2009 51.8845 64.0022C51.9676 63.8036 52.0104 63.5904 52.0104 63.375C52.0104 63.1596 51.9676 62.9464 51.8845 62.7478C51.8014 62.5491 51.6796 62.3689 51.5263 62.2177C51.3729 62.0665 51.1911 61.9473 50.9912 61.867C50.7914 61.7867 50.5776 61.747 50.3623 61.75H38.0796L40.1807 59.6743C40.4153 59.4474 40.5761 59.155 40.6423 58.8353C40.7084 58.5157 40.6767 58.1835 40.5513 57.8821C40.426 57.5807 40.2127 57.324 39.9394 57.1455C39.6661 56.967 39.3454 56.875 39.019 56.8813Z" fill="#48FB6F"/>
</svg>
