<svg width="647" height="622" viewBox="0 0 647 622" fill="none" xmlns="http://www.w3.org/2000/svg">
<path opacity="0.55" d="M538.117 501.053C537.743 504.507 499.707 503.532 453.161 498.876C406.616 494.221 369.186 487.647 369.56 484.194C369.934 480.741 407.969 481.715 454.515 486.371C501.06 491.027 538.49 497.6 538.117 501.053Z" fill="url(#paint0_radial_3597_18508)"/>
<path opacity="0.55" d="M80.4157 501.053C80.7896 504.507 118.825 503.532 165.371 498.876C211.916 494.221 249.346 487.647 248.972 484.194C248.598 480.741 210.563 481.715 164.017 486.371C117.472 491.027 80.0417 497.6 80.4157 501.053Z" fill="url(#paint1_radial_3597_18508)"/>
<path d="M356.489 470.096L357.144 469.195C357.139 469.224 357.136 469.253 357.132 469.282C356.932 469.561 356.721 469.834 356.489 470.096Z" fill="url(#paint2_linear_3597_18508)"/>
<path d="M350.676 421.537C354.132 420.591 357.794 420.344 361.126 419.055C362.34 418.585 363.547 417.936 364.25 416.876C365.69 414.702 364.495 411.898 364.021 409.361C362.568 401.59 368.345 394.455 373.75 388.511C375.25 386.86 376.977 385.093 379.246 384.881C382.547 384.573 385.01 387.592 386.931 390.19C388.854 392.787 391.79 395.593 394.962 394.664C398.103 393.745 398.956 389.751 398.25 386.668C397.449 383.174 395.415 380.032 394.59 376.543C393.765 373.054 394.649 368.697 398.032 367.205C402.051 365.431 406.39 368.682 409.642 371.564C412.893 374.446 417.723 377.319 421.373 374.917C423.444 373.555 424.191 370.868 423.883 368.474C423.576 366.079 422.406 363.879 421.325 361.702C420.73 360.503 420.142 359.17 420.494 357.885C420.815 356.706 421.862 355.844 422.937 355.198C429.033 351.533 437.875 352.956 442.398 358.33C446.92 363.705 446.522 372.315 441.521 377.282C439.624 379.166 436.939 381.512 438.183 383.845C439.814 386.908 444.765 384.384 448.225 385.267C451.127 386.009 452.609 389.412 451.976 392.235C451.343 395.058 449.146 397.316 446.779 399.094C442.226 402.513 436.818 404.676 431.682 407.222C430.862 407.628 430.007 408.081 429.539 408.844C428.756 410.12 429.336 411.778 430.209 412.999C432.178 415.751 435.386 417.382 438.163 419.388C440.942 421.394 443.542 424.29 443.296 427.623C443.031 431.216 439.506 433.845 435.923 434.898C432.34 435.951 428.497 435.918 424.878 436.854C423.819 437.128 422.708 437.537 422.098 438.415C421.158 439.771 421.794 441.583 422.453 443.085C426.011 451.187 429.567 459.29 433.124 467.392C433.614 468.508 434.11 469.758 433.683 470.899C433.472 471.46 433.057 471.926 432.621 472.351C427.994 476.858 420.573 477.712 414.16 476.261C407.747 474.811 402.03 471.424 396.263 468.362C394.667 467.514 393.012 466.674 391.203 466.447C388.666 466.13 386.159 467.054 383.77 467.936C378.573 469.854 373.328 471.655 368.042 473.333C365.306 474.2 362.24 475.023 359.632 473.845C357.904 473.064 356.885 470.975 357.134 469.283C357.289 469.069 357.426 468.846 357.562 468.623L357.144 469.195C357.263 468.513 357.591 467.903 358.173 467.477C360.202 463.017 359.161 457.344 356.659 452.918C353.634 447.566 348.886 443.321 345.278 438.315C343.025 435.19 341.17 431.254 342.504 427.674C343.714 424.422 347.221 422.484 350.676 421.537Z" fill="url(#paint3_linear_3597_18508)"/>
<path d="M363.703 442.071C368.742 443.47 372.717 446.75 374.904 451.3C379.007 446.549 383.516 442.261 388.001 437.861C387.977 437.829 387.95 437.802 387.933 437.76C385.6 432.078 383.599 426.3 381.923 420.407C381.74 419.767 382.757 419.411 382.94 420.058C384.583 425.83 386.541 431.491 388.813 437.06C389.268 436.61 389.725 436.163 390.179 435.71C395.408 430.491 399.405 424.383 403.32 418.231C403.3 418.194 403.274 418.163 403.262 418.115C401.927 412.831 401.228 407.505 401.185 402.065C401.179 401.401 402.257 401.317 402.262 401.988C402.303 407.07 402.911 412.059 404.1 417.003C404.366 416.584 404.632 416.165 404.898 415.747C409.592 408.372 414.142 400.914 418.574 393.39C418.916 392.811 419.895 393.251 419.551 393.835C416.515 398.989 413.399 404.098 410.245 409.185C411.822 409.309 413.4 409.433 414.978 409.558C416.478 409.676 420.483 410.583 421.528 409.292C421.957 408.763 422.782 409.434 422.356 409.961C421.364 411.187 419.862 410.978 418.396 410.865C415.474 410.637 412.551 410.404 409.628 410.174C408.379 412.18 407.145 414.195 405.875 416.19C403.195 420.403 400.549 424.694 397.56 428.733C402.647 430.008 407.733 431.284 412.82 432.561C413.489 432.729 413.296 433.751 412.622 433.582C407.4 432.272 402.179 430.961 396.958 429.652C396.929 429.646 396.911 429.629 396.885 429.619C395.395 431.578 393.824 433.477 392.108 435.261C388.366 439.15 384.43 442.792 380.673 446.619C387.512 446.414 394.13 447.761 400.299 450.659C400.924 450.952 400.463 451.893 399.837 451.599C393.564 448.652 386.885 447.332 379.913 447.671C379.828 447.676 379.751 447.663 379.685 447.639C378 449.388 376.353 451.18 374.79 453.064C369.386 459.582 364.542 466.502 359.705 473.414C359.317 473.969 358.493 473.294 358.877 472.745C363.568 466.043 368.263 459.331 373.472 452.986C373.694 452.716 373.925 452.456 374.15 452.19C374.145 452.18 374.135 452.175 374.13 452.164C372.163 447.711 368.342 444.438 363.505 443.094C362.843 442.909 363.034 441.885 363.703 442.071Z" fill="#4256CB"/>
<path d="M360.418 477.976L359.48 476.789C359.516 476.807 359.555 476.822 359.592 476.839C359.883 477.204 360.162 477.578 360.418 477.976Z" fill="url(#paint4_linear_3597_18508)"/>
<path d="M292.826 465.015C292.992 460.335 294.183 455.69 293.836 451.02C293.71 449.32 293.34 447.552 292.209 446.24C289.888 443.551 285.629 443.869 282.027 443.403C270.993 441.978 263.816 431.847 258.082 422.673C256.491 420.127 254.836 417.251 255.494 414.348C256.452 410.126 261.527 408.324 265.812 407.02C270.097 405.715 275.082 403.237 275.153 398.917C275.223 394.638 270.218 391.92 265.786 391.516C260.765 391.058 255.702 392.275 250.677 391.85C245.652 391.425 240.17 388.517 239.572 383.702C238.86 377.979 245.027 373.946 250.246 371.111C255.465 368.274 261.328 363.477 259.62 357.952C258.651 354.817 255.355 352.774 252.015 352.161C248.673 351.548 245.234 352.084 241.862 352.521C240.006 352.761 237.972 352.936 236.394 351.967C234.944 351.079 234.224 349.423 233.803 347.82C231.416 338.736 236.999 328.358 246.091 324.979C255.183 321.602 266.574 325.673 271.164 333.94C272.904 337.075 274.938 341.38 278.586 340.806C283.375 340.054 282.044 332.865 284.666 328.94C286.867 325.647 292.051 325.223 295.577 327.181C299.103 329.139 301.221 332.802 302.623 336.476C305.321 343.545 305.979 351.152 307.261 358.58C307.465 359.766 307.719 361.014 308.55 361.913C309.937 363.414 312.403 363.383 314.404 362.808C318.916 361.509 322.437 358.207 326.284 355.596C330.131 352.981 335.098 350.959 339.469 352.648C344.181 354.47 346.245 359.935 346.17 364.816C346.095 369.699 344.455 374.452 344.207 379.329C344.134 380.758 344.222 382.305 345.147 383.426C346.577 385.157 349.273 385.12 351.563 384.927C363.915 383.879 376.268 382.834 388.62 381.787C390.322 381.642 392.206 381.546 393.559 382.55C394.225 383.044 394.678 383.753 395.067 384.471C399.194 392.083 397.257 401.644 392.646 408.997C388.036 416.349 381.115 422.034 374.61 427.916C372.808 429.544 370.993 431.248 369.937 433.398C368.458 436.413 368.657 439.907 368.848 443.237C369.264 450.48 369.502 457.735 369.558 464.989C369.587 468.744 369.416 472.889 366.751 475.635C364.986 477.453 361.759 477.85 359.592 476.838C359.367 476.558 359.126 476.295 358.883 476.033L359.479 476.788C358.613 476.358 357.93 475.697 357.6 474.799C352.458 470.43 344.41 469.363 337.431 470.629C328.99 472.158 321.32 476.284 313.102 478.681C307.971 480.178 301.917 480.844 297.666 477.702C293.807 474.849 292.662 469.694 292.826 465.015Z" fill="url(#paint5_linear_3597_18508)"/>
<path d="M325.799 457.384C329.771 451.714 335.823 448.146 342.839 447.323C338.166 440.26 334.284 432.885 330.241 425.494C330.187 425.51 330.139 425.533 330.077 425.538C321.481 426.07 312.894 426.152 304.289 425.783C303.353 425.744 303.299 424.336 304.241 424.376C312.671 424.736 321.082 424.659 329.502 424.155C329.087 423.403 328.677 422.651 328.257 421.899C323.424 413.244 316.886 405.749 310.255 398.337C310.197 398.347 310.144 398.365 310.075 398.36C302.429 397.822 294.989 396.476 287.67 394.27C286.776 394.002 287.111 392.629 288.015 392.901C294.852 394.962 301.802 396.281 308.931 396.86C308.479 396.356 308.028 395.851 307.577 395.348C299.628 386.462 291.508 377.719 283.25 369.097C282.614 368.432 283.612 367.4 284.253 368.069C289.91 373.976 295.473 379.963 300.99 385.99C301.812 384.085 302.635 382.179 303.458 380.273C304.24 378.461 307.121 373.87 305.823 372.037C305.29 371.286 306.534 370.54 307.064 371.288C308.296 373.029 307.393 374.806 306.633 376.576C305.113 380.107 303.585 383.635 302.062 387.166C304.237 389.549 306.429 391.915 308.579 394.32C313.12 399.395 317.781 404.46 321.96 409.846C325.785 404.065 329.611 398.285 333.437 392.506C333.94 391.746 335.233 392.409 334.725 393.176C330.797 399.11 326.87 405.042 322.943 410.975C322.922 411.008 322.892 411.024 322.868 411.051C324.878 413.714 326.775 416.451 328.457 419.321C332.122 425.578 335.375 431.973 338.951 438.223C341.517 429.655 346.074 422.004 352.526 415.556C353.18 414.902 354.25 415.864 353.595 416.519C347.034 423.078 342.489 430.813 340.047 439.603C340.018 439.711 339.969 439.799 339.909 439.872C341.557 442.689 343.277 445.476 345.156 448.197C351.661 457.609 358.937 466.492 366.205 475.363C366.789 476.076 365.541 476.817 364.964 476.112C357.916 467.51 350.858 458.898 344.506 449.8C344.236 449.412 343.983 449.018 343.718 448.629C343.703 448.631 343.692 448.64 343.675 448.642C336.881 449.232 330.902 452.613 327.089 458.056C326.565 458.8 325.271 458.137 325.799 457.384Z" fill="#4256CB"/>
<path d="M241.079 386.011L241.044 385.945C240.817 385.551 240.703 385.312 240.703 385.312C241.147 385.061 241.58 384.847 242.001 384.652L242.094 384.604L242.1 384.611C252.756 379.776 257.246 391.316 257.246 391.316C247.278 394.909 242.397 388.252 241.079 386.011Z" fill="url(#paint6_linear_3597_18508)"/>
<path d="M247.137 407.314C247.494 406.969 247.846 406.662 248.2 406.375L248.297 406.288L248.303 406.292C253.537 402.074 258.224 403.672 261.232 405.771C258.919 400.893 257.593 395.741 257.207 390.372C257.175 390.365 257.15 390.366 257.124 390.358C257.124 390.358 257.139 390.263 257.182 390.108C256.977 387.038 257.071 383.893 257.467 380.692C257.793 378.005 258.311 375.353 258.95 372.731C247.691 373.876 245.747 363.917 245.747 363.917C246.19 363.785 246.616 363.68 247.029 363.592L247.16 363.556L247.173 363.561C255.855 361.748 258.529 368.86 259.232 371.623C260.594 366.4 262.481 361.3 264.542 356.278C253.131 357.54 251.169 347.478 251.169 347.478C251.612 347.345 252.038 347.238 252.457 347.149L252.589 347.116L252.596 347.122C261.897 345.178 264.307 353.501 264.775 355.714C265.955 352.867 267.185 350.048 268.411 347.249C268.501 347.026 268.654 346.906 268.829 346.846C268.864 344.836 269.575 335.844 279.3 336.238L279.312 336.228L279.471 336.242C279.89 336.266 280.316 336.295 280.768 336.355C280.768 336.355 280.768 336.61 280.713 337.045L280.709 337.088C280.434 339.389 278.841 346.374 269.801 347.184C269.989 347.416 270.075 347.725 269.932 348.057C269.288 349.535 268.644 351.018 268 352.508C270.427 350.196 274.384 348.212 279.732 351.189L279.745 351.185L279.856 351.256C280.22 351.462 280.592 351.689 280.971 351.947C280.971 351.947 280.843 352.165 280.594 352.523L280.564 352.568L280.558 352.568C279.213 354.467 274.505 359.875 266.228 356.721C265.135 359.375 264.092 362.052 263.154 364.759C264.693 363.464 266.906 362.607 270.065 362.734L270.071 362.728L270.229 362.739C270.649 362.763 271.074 362.798 271.527 362.854C271.527 362.854 271.526 363.107 271.477 363.529L271.474 363.591H271.468C271.187 365.895 269.589 372.902 260.503 373.686C259.596 377.464 258.978 381.295 258.786 385.187C258.761 385.572 258.772 385.943 258.759 386.32C260.594 383.152 264.246 379.587 271.031 381.514V381.511L271.063 381.522C271.532 381.659 272.02 381.811 272.524 382.004C272.524 382.004 269.826 391.803 258.879 390.625C259.312 395.913 260.775 400.899 263.088 405.528C262.911 401.863 264.026 396.651 271.202 395.004L271.208 394.991L271.334 394.97C271.785 394.874 272.249 394.78 272.752 394.709C272.752 394.709 272.821 394.953 272.898 395.369L272.916 395.481C273.325 397.915 273.818 405.471 264.968 408.91C267.517 413.048 270.785 416.861 274.642 420.292C274.649 420.298 274.656 420.303 274.662 420.31C273.801 416.769 273.998 411.69 280.46 408.759L280.46 408.75L280.553 408.712C280.98 408.523 281.428 408.339 281.906 408.168C281.906 408.168 286.603 417.034 277.972 423.162C284.697 428.815 291.792 434.14 296.88 441.134C297.106 436.641 299.041 429.671 308.68 428.807L308.692 428.798L308.895 428.789C309.444 428.746 310.018 428.715 310.62 428.712C310.62 428.712 312.194 441.098 299.075 444.497C299.558 445.316 300.016 446.15 300.431 447.018C302.077 450.416 303.017 454.011 303.499 457.691C304.849 453.138 308.39 447.541 317.621 448.066L317.627 448.056L317.799 448.073C318.402 448.113 319.025 448.17 319.669 448.264C319.669 448.264 319.662 448.645 319.573 449.281V449.284C319.127 452.494 316.722 462.2 304.1 463.166C303.369 462.846 302.513 462.835 301.852 463.306C289.071 464.118 285.274 454.747 284.369 451.613L284.361 451.595C284.186 450.982 284.124 450.613 284.124 450.613C284.749 450.437 285.35 450.297 285.945 450.179L286.12 450.138L286.133 450.146C295.468 448.36 299.758 453.804 301.662 458.207C301.065 453.578 299.745 449.087 297.326 444.886C297.231 444.902 297.156 444.918 297.062 444.935C297.062 444.935 297.019 444.687 296.972 444.254C296.842 444.038 296.692 443.825 296.555 443.612C281.672 447.449 277.208 434.495 277.208 434.495C277.772 434.242 278.319 434.028 278.848 433.837L278.984 433.783L278.997 433.788C282.309 432.626 285.063 432.613 287.329 433.263C283.808 430.115 280.04 427.204 276.416 424.146C276.348 424.185 276.281 424.228 276.213 424.265C276.213 424.265 276.096 424.073 275.92 423.727C275.775 423.602 275.63 423.481 275.485 423.36C266.822 429.216 260.359 424.006 258.49 422.16L258.491 422.163L258.484 422.154C258.125 421.799 257.937 421.573 257.937 421.573C258.294 421.231 258.646 420.924 258.999 420.634L259.097 420.553L259.103 420.555C263.942 416.65 268.312 417.721 271.326 419.564C269.712 417.999 268.176 416.364 266.774 414.6C265.541 413.055 264.445 411.472 263.455 409.855C255.409 414.46 249.466 409.656 247.69 407.9C247.684 407.903 247.684 407.903 247.684 407.903V407.897C247.325 407.543 247.137 407.314 247.137 407.314Z" fill="url(#paint7_linear_3597_18508)"/>
<path d="M348.047 132.921C380.923 132.921 405.798 142.756 422.669 162.417C436.078 177.935 442.785 196.154 442.785 217.079C442.785 252.08 423.78 285.364 385.774 316.931C372.523 327.938 365.466 340.745 364.599 355.357C364.163 360.228 363.945 365.64 363.945 371.593V391.889L345.948 399.789L302.625 391.889V371.593C302.625 339.662 312.033 315.942 330.851 300.425C351.18 283.648 365.131 266.423 372.704 248.74C377.028 238.457 379.192 227.633 379.192 216.268C379.192 204.543 376.055 195.342 369.784 188.666C362.859 180.912 352.801 177.753 339.61 179.195C327.282 180.46 318.41 187.584 313.006 200.573C310.624 205.985 309.001 212.302 308.14 219.515L290.143 227.416L249.092 210.855C251.251 189.749 259.687 171.982 274.398 157.546C284.344 147.805 298.189 140.769 315.927 136.44C325.226 134.097 335.931 132.921 348.047 132.921ZM302.626 427.337H363.945V478.752L345.948 486.652L302.625 478.752L284.628 435.238L302.626 427.337Z" fill="#131353"/>
<path d="M423.926 212.418C423.663 210.469 423.328 208.549 422.923 206.648C420.094 193.226 414.011 181.121 404.673 170.321C401.956 167.153 399.036 164.248 395.903 161.597C379.59 147.737 357.63 140.817 330.053 140.817C317.937 140.817 307.231 141.996 297.934 144.336C280.191 148.673 266.352 155.701 256.406 165.448C241.695 179.882 233.26 197.651 231.1 218.753L290.147 227.418C291.009 220.205 292.631 213.88 295.014 208.47C300.418 195.487 309.289 188.363 321.617 187.095C334.808 185.653 344.865 188.811 351.789 196.569C353.543 198.43 355.044 200.497 356.301 202.758C359.566 208.587 361.198 215.721 361.198 224.163C361.198 235.537 359.029 246.356 354.709 256.639C347.136 274.32 333.185 291.543 312.857 308.327C301.369 317.801 293.381 330.335 288.909 345.93C288.078 348.835 287.359 351.857 286.781 354.975C285.341 362.52 284.631 370.697 284.631 379.488V399.791H345.95V379.488C345.95 373.543 346.162 368.124 346.599 363.26C347.47 348.64 354.527 335.842 367.778 324.828C401.955 296.455 420.762 266.678 424.209 235.517C424.595 232.018 424.787 228.509 424.787 224.981C424.787 220.684 424.504 216.492 423.926 212.418ZM284.631 435.241V486.655H345.95V435.241H284.631Z" fill="#48FB6F"/>
<g opacity="0.2">
<path opacity="0.2" d="M422.922 206.648L288.91 345.93C293.381 330.336 301.371 317.801 312.857 308.327C333.186 291.543 347.136 274.32 354.71 256.639C359.029 246.356 361.199 235.537 361.199 224.163C361.199 215.721 359.566 208.587 356.302 202.758L395.903 161.597C399.036 164.248 401.956 167.153 404.673 170.321C414.01 181.121 420.093 193.227 422.922 206.648ZM424.787 224.982C424.787 228.51 424.594 232.019 424.209 235.518L284.631 380.6V379.488C284.631 370.696 285.341 362.519 286.781 354.975L423.925 212.418C424.504 216.492 424.787 220.684 424.787 224.982Z" fill="white"/>
</g>
<path opacity="0.1" d="M376.975 313.366L352.557 331.136L336.481 318.992L336.015 318.973C335.167 317.609 333.363 314.847 332.324 314.284C330.931 313.531 327.801 313.395 327.801 313.395C327.801 313.395 323.82 310.215 323.687 311.361C323.554 312.508 325.088 314.158 325.088 314.158C325.088 314.158 316.985 311.857 316.746 312.982C316.507 314.108 317.835 319.591 323.697 318.878C329.558 318.164 329.386 318.717 329.386 318.717C329.386 318.717 339.632 339.038 351.908 340.941C361.433 342.417 382.502 326.485 382.502 326.485C382.502 326.485 390.771 315.224 376.975 313.366Z" fill="#231F20"/>
<path d="M376.975 309.76L352.557 327.531L336.481 315.386L336.015 315.368C335.167 314.004 333.363 311.242 332.324 310.679C330.931 309.926 327.801 309.79 327.801 309.79C327.801 309.79 323.82 306.61 323.687 307.756C323.554 308.903 325.088 310.553 325.088 310.553C325.088 310.553 316.985 308.251 316.746 309.377C316.507 310.502 317.835 315.986 323.697 315.273C329.558 314.559 329.386 315.111 329.386 315.111C329.386 315.111 339.632 335.433 351.908 337.336C361.433 338.812 382.502 322.88 382.502 322.88C382.502 322.88 390.771 311.619 376.975 309.76Z" fill="#F7BAAC"/>
<path d="M386.091 301.946C386.091 301.946 366.772 314.433 364.366 317.146C361.324 320.576 364.609 333.873 369.689 333.177C374.768 332.481 383.544 326.424 383.544 326.424L386.091 301.946Z" fill="#1D1E65"/>
<path d="M438.895 336.659C438.256 327.731 417.281 307.508 417.281 307.508C405.127 300.962 411.031 316.847 411.031 316.847C411.031 316.847 424.132 344.288 433.311 345.086C435.899 345.311 439.131 339.963 438.895 336.659Z" fill="#E8AAA0"/>
<path d="M409.555 302.057C416.98 298.596 434.741 323.381 431.775 325.522C428.81 327.663 422.179 338.384 418.573 334.874C414.967 331.365 410.666 321.753 410.666 321.753C410.666 321.753 404.94 304.208 409.555 302.057Z" fill="#1D1E65"/>
<path d="M421.45 471.616L423.927 480.739L416.892 482.128L413.98 471.724L421.45 471.616Z" fill="#E9C3B7"/>
<path d="M427.751 482.541L424.216 477.282H415.057C415.057 477.282 414.379 481.165 415.979 483.795C417.585 486.411 421.45 486.333 421.45 486.333L427.751 482.541Z" fill="#222B5E"/>
<path d="M421.45 486.333C421.45 486.333 421.617 481.246 427.752 481.246C433.883 481.246 432.879 486.333 432.879 486.333H421.45ZM423.657 474.862C423.657 474.862 421.68 475.476 418.932 475.691C417.441 475.818 415.728 475.818 413.984 475.545C411.358 475.135 405.691 449.832 401.848 428.555C399.801 417.22 398.047 406.741 397.103 401.088C397.134 401.078 397.154 401.01 397.154 400.883C397.316 399.216 396.018 387.783 393.22 382.696C391.577 379.714 389.479 377.063 387.502 374.275C385.281 371.127 384.134 371.668 383.12 367.974C382.846 366.999 382.644 366.015 382.501 365.021C393.927 362.925 398.791 364.128 398.791 364.128C398.791 364.128 416.678 361.886 416.896 366.481C417.098 370.746 419.501 395.025 419.501 395.025L423.657 474.862Z" fill="#004A87"/>
<path d="M378.868 471.616L376.391 480.739L383.426 482.128L386.337 471.724L378.868 471.616Z" fill="#E9C3B7"/>
<path d="M400.705 368.94C400.705 368.94 388.186 365.054 376.902 364.128C376.771 365.095 378.142 414.689 378.868 417.898C379.502 420.7 375.508 474.166 377.431 474.934C379.997 475.96 386.017 475.989 386.749 474.442C393.171 460.869 392.103 437.67 395.639 417.898C400.67 389.766 400.705 368.94 400.705 368.94Z" fill="#004A87"/>
<path d="M372.566 482.541L376.102 477.282H385.261C385.261 477.282 385.938 481.165 384.339 483.795C382.732 486.411 378.868 486.333 378.868 486.333L372.566 482.541Z" fill="#222B5E"/>
<path d="M378.868 486.333C378.868 486.333 378.701 481.246 372.566 481.246C366.435 481.246 367.439 486.333 367.439 486.333H378.868Z" fill="#004A87"/>
<path d="M418.932 475.802C417.442 475.929 415.728 475.929 413.985 475.656C411.359 475.247 405.692 449.944 401.849 428.666C399.801 417.331 398.047 406.853 397.104 401.199L397.154 400.995L402.771 380.147C402.771 380.147 401.859 406.463 402.771 413.139C403.654 419.67 418.243 473.287 418.932 475.802Z" fill="#222B5E"/>
<path opacity="0.3" d="M376.902 364.128L376.893 369.196C376.893 369.196 392.463 377.159 400.443 376.728C408.423 376.298 413.973 376.548 417.281 371.514L416.896 366.481L376.902 364.128Z" fill="#222B5E"/>
<path d="M395.782 300.469C391.638 300.689 381.991 299.645 380.314 306.261C378.302 314.2 371.176 362.456 376.902 366.532C390.401 376.14 414.185 373.367 417.157 368.152C422.869 358.127 416.832 307.447 412.913 302.46C412.056 301.369 402.364 300.12 395.782 300.469Z" fill="#1D1E65"/>
<path d="M403.604 301.878C403.604 301.878 402.8 292.823 402.8 291.167C402.8 289.511 405.672 285.756 403.202 281.339C400.732 276.922 390.395 277.694 388.097 282.774C385.8 287.854 386.029 300.332 389.705 299.67C393.381 299.007 393.266 298.345 393.266 298.345L392.807 305.191C392.807 305.191 394.07 309.498 398.894 306.406C403.72 303.314 403.604 301.878 403.604 301.878Z" fill="#F7B9AC"/>
<path d="M393.267 298.345L398.738 294.849C398.738 294.849 395.568 300.828 393.025 301.946L393.267 298.345ZM386.945 287.097L386.78 288.373C386.78 288.373 388.952 288.906 392.47 287.735C395.987 286.565 397.652 283.362 397.652 283.362C397.652 283.362 397.073 288.266 398.376 288.495C399.68 288.723 401.055 285.242 401.055 285.242L401.855 290.462L402.431 282.944L398.738 280.438L386.945 287.097Z" fill="#E8A89E"/>
<path d="M397.517 281.78C397.517 281.78 391.535 288.216 386.945 287.097C382.354 285.977 377.99 281.629 380.631 278.448C383.273 275.266 384.766 264.444 394.415 267.204C394.415 267.204 402.686 268.088 401.766 271.07C401.766 271.07 408.429 271.07 407.854 276.259C407.279 281.449 406.131 290.063 403.719 290.946C401.307 291.829 401.881 289.621 401.881 289.621L401.536 284.651C401.536 284.651 400.617 283.547 400.272 285.756C399.928 287.964 398.664 288.516 398.434 285.976C398.206 283.437 400.044 282.112 397.517 281.78Z" fill="#232B57"/>
<path d="M406.81 311.438L401.742 313.816C401.198 314.071 400.907 314.66 401.035 315.248L404.505 331.214C404.689 332.062 405.636 332.531 406.421 332.162L411.488 329.784C412.032 329.529 412.323 328.941 412.195 328.353L408.726 312.386C408.541 311.539 407.594 311.07 406.81 311.438Z" fill="#FFDE6E"/>
<path d="M407.418 312.534L402.532 314.827C402.007 315.073 401.72 315.629 401.835 316.179L404.953 331.127C405.119 331.92 406.02 332.349 406.777 331.994L411.663 329.701C412.189 329.455 412.475 328.899 412.36 328.348L409.242 313.401C409.076 312.607 408.175 312.179 407.418 312.534Z" fill="#1F265A"/>
<path d="M409.731 317.927C409.731 317.927 409.102 315.015 409.993 315.508C410.884 316 412.688 320.017 412.967 322.621C413.247 325.225 411.993 328.805 411.993 328.805C411.993 328.805 404.57 329.03 402.286 325.318C400.003 321.606 400.875 317.474 400.875 317.474C400.875 317.474 405.709 320.488 407.56 319.574C409.41 318.661 409.731 317.927 409.731 317.927Z" fill="#F7BAAC"/>
<path d="M412.967 322.621C412.967 322.621 421.579 329.718 425.368 330.617C429.157 331.515 432.371 332.78 432.371 332.78C432.371 332.78 441.02 338.53 437.406 343.084C433.793 347.638 427.625 343.486 424.353 340.139C421.081 336.792 411.993 328.805 411.993 328.805C411.993 328.805 411.341 322.861 412.967 322.621Z" fill="#F7BAAC"/>
<path opacity="0.1" d="M422.389 280.81L484.287 280.419C486.155 280.408 487.679 281.854 487.692 283.65L487.839 305.111C487.851 306.907 486.347 308.372 484.479 308.384L435.515 308.693C432.437 312.2 428.724 316.786 428.724 316.786L426.847 308.748L422.581 308.774C420.713 308.786 419.189 307.34 419.176 305.544L419.03 284.083C419.017 282.287 420.522 280.822 422.389 280.81Z" fill="#231F20"/>
<path d="M423.644 276.623L485.542 276.232C487.41 276.22 488.934 277.666 488.946 279.463L489.093 300.924C489.106 302.72 487.601 304.185 485.733 304.197L436.77 304.506C433.692 308.013 429.978 312.599 429.978 312.599L428.101 304.56L423.835 304.588C421.967 304.6 420.443 303.153 420.43 301.357L420.284 279.896C420.271 278.101 421.776 276.635 423.644 276.623Z" fill="#6566B0"/>
<path d="M483.422 282.509H446.643V285.172H483.422V282.509Z" fill="white"/>
<path d="M483.422 293.693H446.643V296.356H483.422V293.693Z" fill="white"/>
<path d="M483.422 288.101H446.643V290.764H483.422V288.101Z" fill="white"/>
<path d="M432.486 293.287C432.386 293.054 432.334 292.803 432.334 292.454C432.334 289.491 435.373 289.219 435.373 285.849C435.373 284.881 434.866 284.513 433.979 284.513C433.092 284.513 432.587 284.881 432.587 285.849V287.322H429.953V285.985C429.953 283.816 431.346 282.576 434.055 282.576C436.766 282.576 438.159 283.816 438.159 285.985C438.159 289.509 434.866 290.052 434.866 292.531C434.866 292.782 434.89 293.035 434.966 293.286H432.486V293.287ZM435.043 294.235V296.288H432.358V294.235H435.043Z" fill="white"/>
<path d="M236.268 470.437L236.636 478.144C236.636 478.144 229.415 479.253 229.57 478.796C229.725 478.338 229.8 465.708 229.8 465.708L236.268 470.437Z" fill="#FFB092"/>
<path d="M237.212 477.608C237.212 477.608 230.362 478.918 229.432 477.909C229.432 477.909 228.704 475.53 228.011 478.349C227.317 481.169 227.173 483.274 228.153 483.877C229.133 484.48 248.445 484.716 248.445 484.716C248.445 484.716 250.698 482.344 246.207 481.483C241.717 480.623 237.212 477.608 237.212 477.608Z" fill="#6566B0"/>
<path d="M184.026 468.209L181.791 475.619C181.791 475.619 174.584 474.433 174.884 474.048C175.184 473.663 179.487 461.729 179.487 461.729L184.026 468.209Z" fill="#FFB092"/>
<path d="M182.517 475.29C182.517 475.29 175.594 474.409 175.051 473.165C175.051 473.165 175.159 470.687 173.558 473.142C171.956 475.595 171.114 477.545 171.84 478.419C172.566 479.293 190.769 485.498 190.769 485.498C190.769 485.498 193.696 483.95 189.734 481.745C185.771 479.54 182.517 475.29 182.517 475.29Z" fill="#6566B0"/>
<path d="M228.326 358.211C228.326 358.211 236.533 419.479 237.376 421.101C238.22 422.723 238.871 475 238.871 475C238.871 475 226.638 477.433 227.06 474.189C227.482 470.945 213.975 399.256 213.975 399.256C213.975 399.256 199.642 371.188 205.547 360.239C211.454 349.29 228.326 358.211 228.326 358.211Z" fill="#1D1E65"/>
<path d="M224.264 358.066C210.037 420.243 205.328 428.6 205.328 428.6L182.881 473.884C182.881 473.884 170.519 472.154 172.068 469.244C173.617 466.333 189.896 408.711 189.896 408.711C189.896 408.711 182.893 363.433 192.332 355.082C201.773 346.73 224.264 358.066 224.264 358.066Z" fill="#1D1E65"/>
<path d="M279.437 311.047L252.032 314.456L235.664 307.445C234.666 307.901 231.649 317.644 229.578 319.868C236.042 325.027 240.511 320.959 246.201 323.585C246.201 323.585 278.268 315.873 279.652 317.104C278.927 309.417 279.437 311.047 279.437 311.047Z" fill="#E9C3B7"/>
<path d="M290.561 315.548C290.926 316.852 289.595 318.273 288.614 319.116C283.094 318.759 278.67 319.704 274.459 320.926C274.289 318.312 273.708 315.751 272.709 313.354C277.353 312.094 280.986 310.597 281.245 309.821C281.666 308.562 282.868 306.773 284.134 307.703C285.207 308.493 284.391 310.208 284.391 310.208C284.391 310.208 290.014 313.569 290.561 315.548Z" fill="#E9C3B7"/>
<path d="M238.298 306.765C238.62 302.697 227.693 294.67 227.693 294.67C222.23 289.384 211.185 294.669 214.019 303.772C214.944 306.743 220.967 312.849 228.31 318.844C230.524 316.495 238.231 307.607 238.298 306.765Z" fill="#131353"/>
<path d="M231.417 359.263C227.602 360.188 223.727 360.836 219.941 361.27C205.408 362.947 192.101 361.513 188.642 360.266C188.586 360.244 188.531 360.223 188.493 360.203C188.01 360.012 187.756 359.816 187.767 359.652L187.77 359.598C196.597 336.376 192.514 341.231 197.835 316.905C200.793 303.39 202.26 300.073 205.139 296.011C208.45 291.37 213.473 288.105 217.434 288.105C217.434 288.105 223.609 289.756 226.457 293.653C227.248 294.736 229.334 298.967 230.124 300.398C232.145 304.141 233.019 314.815 232.784 324.663C232.457 338.303 231.417 359.263 231.417 359.263Z" fill="#131353"/>
<path d="M191.302 329.23L275.797 309.802C278.347 309.215 280.908 310.728 281.518 313.179L288.807 342.476C289.417 344.927 287.844 347.389 285.294 347.976L200.799 367.403C198.249 367.989 195.688 366.477 195.078 364.026L187.79 334.73C187.18 332.279 188.753 329.815 191.302 329.23Z" fill="#6566B0"/>
<path d="M261.94 346.923C270.173 346.923 276.847 340.507 276.847 332.591C276.847 324.676 270.173 318.26 261.94 318.26C253.707 318.26 247.032 324.676 247.032 332.591C247.032 340.507 253.707 346.923 261.94 346.923Z" fill="#E6E8EA"/>
<path d="M254.038 330.35C254.246 331.194 255.126 331.716 256.004 331.517C256.881 331.317 257.424 330.472 257.217 329.628C257.01 328.784 256.13 328.261 255.252 328.461C254.375 328.66 253.831 329.506 254.038 330.35ZM264.697 328.006C264.905 328.85 265.785 329.373 266.662 329.173C267.54 328.973 268.084 328.127 267.876 327.283C267.669 326.439 266.789 325.917 265.912 326.116C265.034 326.317 264.49 327.163 264.697 328.006Z" fill="#6566B0"/>
<path opacity="0.4" d="M257.599 335.472C257.912 336.885 256.974 338.275 255.504 338.576C254.034 338.877 252.589 337.975 252.276 336.562C251.963 335.149 252.9 333.759 254.37 333.458C255.839 333.157 257.285 334.059 257.599 335.472ZM272.448 332.43C272.762 333.843 271.824 335.232 270.354 335.533C268.884 335.834 267.439 334.933 267.126 333.52C266.812 332.107 267.75 330.717 269.22 330.416C270.689 330.115 272.135 331.016 272.448 332.43Z" fill="#6566B0"/>
<path d="M263.373 339.083C266.82 338.423 269.065 335.191 268.378 331.877C268.337 331.677 268.134 331.547 267.925 331.586C267.716 331.626 267.581 331.821 267.623 332.022C268.226 334.935 266.252 337.777 263.222 338.357C260.192 338.938 257.236 337.04 256.633 334.127C256.591 333.927 256.389 333.797 256.18 333.837C255.971 333.877 255.836 334.072 255.878 334.272C256.565 337.585 259.926 339.743 263.373 339.083Z" fill="#6566B0"/>
<path d="M200.121 341.352L238.897 332.753C239.704 332.574 240.162 331.604 239.918 330.587C239.674 329.57 238.821 328.891 238.014 329.07L199.238 337.669C198.43 337.849 197.973 338.818 198.218 339.835C198.461 340.852 199.314 341.531 200.121 341.352ZM239.777 336.42L201.001 345.02C200.193 345.199 199.736 346.168 199.981 347.185C200.224 348.202 201.077 348.882 201.885 348.702L240.661 340.103C241.468 339.924 241.926 338.954 241.682 337.938C241.438 336.921 240.584 336.241 239.777 336.42ZM241.541 343.77L202.765 352.369C201.957 352.548 201.5 353.518 201.744 354.535C201.988 355.552 202.84 356.231 203.648 356.052L242.424 347.453C243.231 347.274 243.689 346.304 243.444 345.287C243.201 344.271 242.348 343.591 241.541 343.77Z" fill="white"/>
<path d="M265.561 348.539C265.561 348.539 269.508 345.756 268.995 344.554C268.39 343.137 266.272 344.301 263.048 346.68C262.611 346.986 261.076 349.483 254.072 346.744L233.65 338.169L222.594 313.911C216.416 314.991 215.045 315.381 209.086 317.313C212.087 326.043 219.642 343.151 223.801 349.065C223.801 349.065 255.965 353.07 256.514 354.803C256.572 354.685 256.618 354.583 256.673 354.468C259.233 355.346 261.837 356.52 264.534 358.279C265.823 358.026 267.718 357.444 268.086 356.141C268.652 354.167 274.731 357.292 274.731 357.292C274.731 357.292 275.034 357.318 275.52 357.356C275.784 356.546 275.823 355.977 275.823 355.977C271.996 350.499 265.561 348.539 265.561 348.539Z" fill="#E9C3B7"/>
<path d="M226.192 318.845C228.841 316.77 221.335 303.451 221.335 303.451C219.391 296.238 207.08 295.446 204.751 304.682C204.109 307.229 204.164 316.641 210.293 323.579C215.413 323.686 221.497 322.522 226.192 318.845Z" fill="#131353"/>
<path d="M282.569 312.041C282.569 312.041 277.54 320.398 280.689 321.122C283.838 321.845 288.614 319.117 288.614 319.117C288.614 319.117 288.772 312.041 282.569 312.041Z" fill="#E9C3B7"/>
<path d="M219.96 282.08C219.298 284.275 218.991 287.129 216.372 289.545C213.755 291.959 214.11 291.158 213.755 291.959C212.557 294.654 220.833 300.53 223.991 298.333C225.538 297.257 225.384 293.328 227.683 291.904C229.978 290.486 219.96 282.08 219.96 282.08Z" fill="#DDAC9E"/>
<path d="M239.979 283.175C239.994 283.132 240.005 283.089 240.018 283.045C241.477 278.582 243.405 275.244 242.369 271.817C242.276 271.503 241.081 270.552 240.586 270.039C237.513 262.926 219.96 264.49 218.949 269.437C214.635 290.518 223.277 293.489 227.345 294.45C229.407 294.909 230.498 295.29 232.286 294.49C233.883 293.778 235.792 292.048 237.294 289.207C238.669 289.139 240.149 289.303 240.403 288.558C240.466 288.458 240.509 288.343 240.51 288.199C239.996 286.738 240.165 284.202 239.979 283.175Z" fill="#E9C3B7"/>
<path d="M244.416 270.182C242.274 271.301 239.027 264.356 232.77 261.833C230.795 261.038 228.857 260.329 227.175 260.414C222.923 259.855 221.357 261.896 219.6 263.441C219.132 263.868 211.226 265.514 212.888 275.714C213.344 278.507 214.027 279.799 214.191 281.509C214.632 286.11 213.533 286.703 213.533 286.703C213.533 286.703 217.331 288.393 218.411 286.889C222.831 280.695 227.448 279.983 227.448 279.983C227.448 279.983 227.615 279.517 227.884 278.861C229.38 278.628 230.478 279.14 230.478 279.14C230.478 279.14 231.9 276.486 233.912 274.869C236.279 272.955 236.561 273.054 237.963 273.036C239.358 273.017 242.558 275.11 242.558 275.11C242.558 275.11 247.941 268.34 244.416 270.182Z" fill="#222B5E"/>
<path d="M229.229 278.609C229.106 275.884 227.008 275.724 225.82 276.768C224.667 277.835 224.994 281.967 225.832 282.496C228.161 283.968 229.229 278.609 229.229 278.609Z" fill="#DDAC9E"/>
<path d="M465.551 233.383L465.884 232.85L467.557 233.817L467.224 234.35C466.666 235.242 466.352 235.715 466.352 235.715L466.004 236.239L464.357 235.227L464.708 234.702C464.728 234.673 465.03 234.216 465.551 233.383ZM470.344 225.138C470.826 224.254 471.327 223.317 471.843 222.333L472.134 221.777L473.877 222.621L473.587 223.176C473.066 224.171 472.56 225.116 472.073 226.009L471.773 226.56L470.044 225.688L470.344 225.138ZM467.201 230.672C467.681 229.862 468.217 228.941 468.799 227.918L469.109 227.371L470.821 228.272L470.511 228.816C469.924 229.851 469.382 230.781 468.897 231.6L468.577 232.14L466.882 231.212L467.201 230.672ZM473.295 219.504C473.757 218.586 474.226 217.635 474.7 216.653L474.973 216.09L476.743 216.879L476.471 217.444C475.992 218.435 475.518 219.395 475.053 220.321L474.772 220.881L473.015 220.065L473.295 219.504ZM478.617 207.978C479.021 207.018 479.422 206.041 479.819 205.047L480.051 204.466L481.873 205.139L481.641 205.72C481.24 206.724 480.834 207.712 480.426 208.682L480.183 209.259L478.375 208.554L478.617 207.978ZM446.758 104.233C447.771 104.6 448.812 105.008 449.853 105.445L450.447 105.694L449.665 107.413L449.072 107.165C448.06 106.741 447.05 106.345 446.068 105.989L445.463 105.769L446.152 104.013L446.758 104.233ZM458.74 109.83C459.675 110.357 460.63 110.916 461.579 111.49L462.127 111.822L461.088 113.41L460.54 113.078C459.608 112.515 458.671 111.966 457.753 111.448L457.194 111.133L458.182 109.516L458.74 109.83ZM480.966 202.094C481.335 201.117 481.699 200.126 482.056 199.123L482.265 198.536L484.111 199.141L483.902 199.729C483.543 200.744 483.174 201.746 482.801 202.735L482.581 203.319L480.746 202.679L480.966 202.094ZM452.881 106.793C453.86 107.254 454.856 107.747 455.843 108.259L456.413 108.555L455.483 110.205L454.915 109.91C453.943 109.406 452.969 108.925 452.022 108.478L451.441 108.204L452.3 106.52L452.881 106.793ZM464.364 113.228C464.994 113.633 465.631 114.051 466.272 114.479C466.551 114.665 466.829 114.854 467.104 115.044L467.629 115.408L466.488 116.93L465.963 116.567C465.699 116.384 465.432 116.203 465.159 116.022C464.526 115.598 463.9 115.188 463.28 114.789L462.743 114.444L463.826 112.884L464.364 113.228ZM474.747 121.279C475.537 122.043 476.307 122.834 477.036 123.629L477.463 124.095L475.999 125.336L475.571 124.869C474.872 124.106 474.129 123.343 473.361 122.6L472.905 122.158L474.29 120.837L474.747 121.279ZM469.766 116.985C470.641 117.659 471.5 118.358 472.318 119.064L472.801 119.48L471.498 120.876L471.016 120.461C470.216 119.772 469.385 119.096 468.545 118.449L468.04 118.061L469.26 116.596L469.766 116.985ZM476.055 213.783C476.49 212.842 476.926 211.877 477.361 210.891L477.613 210.318L479.41 211.051L479.157 211.624C478.718 212.62 478.277 213.594 477.838 214.545L477.575 215.113L475.792 214.351L476.055 213.783ZM485.41 140.805C485.043 139.841 484.639 138.871 484.21 137.92L483.951 137.351L485.74 136.602L485.999 137.172C486.439 138.144 486.858 139.149 487.243 140.16L487.466 140.744L485.633 141.39L485.41 140.805ZM487.285 146.76C487.028 145.743 486.742 144.733 486.435 143.756L486.247 143.161L488.115 142.617L488.302 143.212C488.622 144.226 488.917 145.271 489.18 146.317L489.332 146.921L487.436 147.364L487.285 146.76ZM488.483 152.885C488.334 151.837 488.16 150.801 487.965 149.807L487.844 149.195L489.763 148.848L489.883 149.459C490.083 150.484 490.263 151.551 490.416 152.631L490.504 153.248L488.57 153.501L488.483 152.885ZM483.084 196.134C483.414 195.141 483.736 194.137 484.048 193.125L484.232 192.53L486.103 193.062L485.919 193.658C485.603 194.684 485.278 195.699 484.943 196.705L484.747 197.298L482.887 196.726L483.084 196.134ZM479.534 129.773C478.934 128.926 478.295 128.082 477.632 127.263L477.235 126.772L478.775 125.62L479.173 126.112C479.855 126.956 480.52 127.832 481.147 128.716L481.511 129.23L479.897 130.288L479.534 129.773ZM482.827 135.112C482.339 134.193 481.814 133.278 481.268 132.394L480.937 131.859L482.616 130.901L482.946 131.435C483.512 132.352 484.056 133.301 484.565 134.257L484.861 134.812L483.121 135.666L482.827 135.112ZM489.065 159.107C489.015 158.055 488.941 157.005 488.847 155.988L488.79 155.369L490.733 155.201L490.791 155.821C490.889 156.872 490.964 157.949 491.015 159.022L491.044 159.643L489.096 159.729L489.065 159.107ZM484.945 190.098C485.231 189.091 485.506 188.076 485.769 187.055L485.924 186.451L487.82 186.902L487.664 187.506C487.397 188.541 487.117 189.57 486.828 190.591L486.659 191.192L484.774 190.699L484.945 190.098ZM489.096 165.364C489.133 164.331 489.149 163.277 489.146 162.234L489.143 161.613L491.094 161.604L491.097 162.226C491.101 163.265 491.085 164.342 491.046 165.429L491.025 166.051L489.073 165.986L489.096 165.364ZM486.516 183.998C486.752 182.979 486.974 181.954 487.183 180.925L487.307 180.314L489.221 180.674L489.098 181.283C488.896 182.284 488.669 183.334 488.422 184.404L488.283 185.011L486.376 184.606L486.516 183.998ZM488.64 171.617C488.741 170.692 488.829 169.741 488.902 168.792L488.97 167.876L490.918 168.003L490.849 168.929C490.775 169.888 490.685 170.858 490.582 171.812L490.515 172.431L488.573 172.235L488.64 171.617ZM487.764 177.835C487.944 176.792 488.109 175.748 488.251 174.733L488.338 174.118L490.273 174.368L490.185 174.985C490.042 176.001 489.875 177.063 489.689 178.144L489.583 178.758L487.657 178.449L487.764 177.835ZM410.633 103.347L411.26 103.192L411.748 105.009L411.121 105.163C410.071 105.424 409.017 105.697 407.957 105.978L407.333 106.143L406.814 104.334L407.438 104.169C408.509 103.886 409.574 103.61 410.633 103.347ZM355.913 109.97C356.967 110.064 358.054 110.154 359.178 110.238L359.823 110.287L359.672 112.158L359.027 112.109C357.893 112.024 356.797 111.934 355.733 111.839L355.088 111.781L355.27 109.913L355.913 109.97ZM330.171 105.664C331.199 105.918 332.253 106.174 333.349 106.429L333.977 106.576L333.517 108.399L332.889 108.253C331.785 107.996 330.722 107.737 329.685 107.482L329.057 107.327L329.544 105.509L330.171 105.664ZM349.409 109.28C350.453 109.41 351.534 109.534 352.658 109.652L353.301 109.721L353.087 111.586L352.444 111.518C351.309 111.398 350.215 111.271 349.159 111.14L348.518 111.061L348.767 109.2L349.409 109.28ZM342.944 108.347C343.976 108.518 345.049 108.686 346.169 108.846L346.809 108.938L346.521 110.795L345.88 110.702C344.746 110.539 343.658 110.37 342.612 110.197L341.974 110.091L342.306 108.242L342.944 108.347ZM323.799 104.077C324.859 104.333 325.917 104.597 326.992 104.868L327.618 105.025L327.124 106.84L326.498 106.682C325.429 106.414 324.376 106.15 323.323 105.895L322.695 105.744L323.171 103.925L323.799 104.077ZM336.533 107.137C337.557 107.355 338.62 107.568 339.732 107.778L340.367 107.899L339.989 109.739L339.355 109.619C338.229 109.406 337.151 109.189 336.113 108.969L335.481 108.836L335.9 107.002L336.533 107.137ZM294.174 101.204L294.821 101.187L294.876 103.061L294.23 103.079C293.176 103.108 292.085 103.147 290.955 103.197L290.309 103.225L290.22 101.351L290.866 101.323C292.007 101.272 293.108 101.233 294.174 101.204ZM440.374 102.298C441.433 102.553 442.518 102.849 443.598 103.178L444.215 103.366L443.627 105.155L443.009 104.967C441.966 104.649 440.919 104.363 439.899 104.118L439.271 103.966L439.746 102.147L440.374 102.298ZM307.319 101.421L308.084 101.475L307.941 103.346L307.176 103.292C306.146 103.219 305.091 103.161 304.039 103.118L303.393 103.092L303.475 101.217L304.122 101.244C305.201 101.288 306.276 101.347 307.319 101.421ZM310.75 101.724C311.862 101.843 312.972 101.983 314.05 102.14L314.689 102.234L314.397 104.087L313.758 103.995C312.698 103.841 311.613 103.705 310.535 103.59L309.892 103.521L310.107 101.656L310.75 101.724ZM317.326 102.68C318.374 102.872 319.438 103.086 320.579 103.335L321.209 103.472L320.779 105.302L320.147 105.165C319.035 104.922 317.993 104.712 316.961 104.524L316.325 104.408L316.691 102.564L317.326 102.68ZM300.803 101.153L301.45 101.162L301.421 103.038L300.774 103.029C299.726 103.014 298.636 103.011 297.504 103.02L296.858 103.025L296.84 101.149L297.487 101.143C298.636 101.134 299.74 101.137 300.803 101.153ZM423.726 101.03L424.371 100.976L424.538 102.846L423.894 102.899C422.846 102.986 421.764 103.106 420.678 103.255L420.037 103.343L419.763 101.486L420.402 101.398C421.526 101.244 422.644 101.119 423.726 101.03Z" fill="#6566B0"/>
<path d="M404.884 104.866L400.469 106.067L401.001 107.872L405.415 106.671L404.884 104.866Z" fill="#6566B0"/>
<path d="M417.111 101.928L417.746 101.811L418.113 103.654L417.477 103.771C416.472 103.955 415.431 104.166 414.294 104.417L413.664 104.556L413.227 102.729L413.857 102.589C414.996 102.337 416.06 102.121 417.111 101.928ZM430.426 100.886L431.072 100.913L430.986 102.788L430.34 102.761C429.281 102.716 428.196 102.705 427.116 102.73L426.469 102.744L426.425 100.868L427.072 100.854C428.196 100.829 429.325 100.839 430.426 100.886ZM433.773 101.14C434.887 101.262 436.004 101.421 437.095 101.614L437.731 101.726L437.38 103.572L436.744 103.459C435.685 103.273 434.612 103.12 433.553 103.004L432.91 102.934L433.13 101.068L433.773 101.14ZM397.93 106.728L398.554 106.566L399.066 108.377L398.44 108.539C397.387 108.813 396.321 109.083 395.24 109.346L394.613 109.499L394.134 107.679L394.761 107.527C395.832 107.266 396.887 106.999 397.93 106.728ZM365.056 110.612L366.368 110.676L366.275 112.551L364.951 112.486C364.055 112.438 363.179 112.388 362.323 112.334L361.678 112.294L361.804 110.422L362.45 110.462C363.299 110.515 364.168 110.565 365.056 110.612ZM378.729 110.331L379.372 110.27L379.563 112.136L378.919 112.197C377.809 112.303 376.693 112.389 375.604 112.453L374.959 112.491L374.838 110.619L375.483 110.58C376.556 110.518 377.647 110.433 378.729 110.331ZM372.231 110.716L372.879 110.7L372.926 112.577L372.279 112.593C371.179 112.619 370.061 112.626 368.954 112.613L368.308 112.606L368.329 110.73L368.977 110.737C370.066 110.749 371.161 110.742 372.231 110.716ZM391.583 108.266L392.213 108.127L392.651 109.955L392.02 110.094C390.927 110.335 389.835 110.562 388.775 110.766L388.141 110.889L387.757 109.05L388.392 108.927C389.431 108.726 390.505 108.504 391.583 108.266ZM385.184 109.498L385.823 109.394L386.148 111.244L385.51 111.348C384.396 111.529 383.291 111.691 382.222 111.828L381.581 111.91L381.322 110.051L381.963 109.968C383.027 109.831 384.111 109.673 385.184 109.498ZM285.764 101.602C286.321 101.566 286.87 101.533 287.411 101.5L288.057 101.462L288.177 103.334L287.531 103.373C286.994 103.405 286.45 103.439 285.896 103.475L285.251 103.517L285.118 101.645L285.764 101.602Z" fill="#6566B0"/>
<path d="M281.936 108.058L278.243 111.66C278.243 111.66 255.12 107.976 256.824 108.106C258.528 108.235 280.529 100.644 280.529 100.644L281.936 108.058Z" fill="#48FB6F"/>
<path d="M284.478 110.212L283.102 104.09L260.807 107.567L281.229 102.315L279.469 98.1118L256.824 108.106L284.478 110.212Z" fill="#5ABE37"/>
<defs>
<radialGradient id="paint0_radial_3597_18508" cx="0" cy="0" r="1" gradientUnits="userSpaceOnUse" gradientTransform="translate(580.13 533.23) rotate(5.71295) scale(229.043 114.928)">
<stop stop-color="white"/>
<stop offset="0.224" stop-color="#FCFEFF"/>
<stop offset="0.36" stop-color="#F4F9FE"/>
<stop offset="0.473" stop-color="#E6F1FD"/>
<stop offset="0.574" stop-color="#D1E6FC"/>
<stop offset="0.666" stop-color="#B7D8FA"/>
<stop offset="0.751" stop-color="#96C7F7"/>
<stop offset="0.833" stop-color="#6FB2F5"/>
<stop offset="0.91" stop-color="#429AF2"/>
<stop offset="0.982" stop-color="#117FEE"/>
<stop offset="1" stop-color="#0378ED"/>
</radialGradient>
<radialGradient id="paint1_radial_3597_18508" cx="0" cy="0" r="1" gradientUnits="userSpaceOnUse" gradientTransform="translate(38.4027 533.23) rotate(174.287) scale(229.042 114.928)">
<stop stop-color="white"/>
<stop offset="0.224" stop-color="#FCFEFF"/>
<stop offset="0.36" stop-color="#F4F9FE"/>
<stop offset="0.473" stop-color="#E6F1FD"/>
<stop offset="0.574" stop-color="#D1E6FC"/>
<stop offset="0.666" stop-color="#B7D8FA"/>
<stop offset="0.751" stop-color="#96C7F7"/>
<stop offset="0.833" stop-color="#6FB2F5"/>
<stop offset="0.91" stop-color="#429AF2"/>
<stop offset="0.982" stop-color="#117FEE"/>
<stop offset="1" stop-color="#0378ED"/>
</radialGradient>
<linearGradient id="paint2_linear_3597_18508" x1="356.828" y1="469.607" x2="356.732" y2="469.547" gradientUnits="userSpaceOnUse">
<stop offset="0.268" stop-color="#8DC63F"/>
<stop offset="1" stop-color="#009444"/>
</linearGradient>
<linearGradient id="paint3_linear_3597_18508" x1="481.857" y1="381.426" x2="332.72" y2="475.037" gradientUnits="userSpaceOnUse">
<stop stop-color="#9463D3"/>
<stop offset="1" stop-color="#3F53C4"/>
</linearGradient>
<linearGradient id="paint4_linear_3597_18508" x1="360.127" y1="477.16" x2="360.014" y2="477.263" gradientUnits="userSpaceOnUse">
<stop offset="0.268" stop-color="#8DC63F"/>
<stop offset="1" stop-color="#009444"/>
</linearGradient>
<linearGradient id="paint5_linear_3597_18508" x1="293.403" y1="285.643" x2="344.77" y2="512.327" gradientUnits="userSpaceOnUse">
<stop stop-color="#9463D3"/>
<stop offset="1" stop-color="#3F53C4"/>
</linearGradient>
<linearGradient id="paint6_linear_3597_18508" x1="407.1" y1="423.692" x2="249.74" y2="385.058" gradientUnits="userSpaceOnUse">
<stop stop-color="#9463D3"/>
<stop offset="1" stop-color="#3F53C4"/>
</linearGradient>
<linearGradient id="paint7_linear_3597_18508" x1="406.437" y1="426.39" x2="249.078" y2="387.757" gradientUnits="userSpaceOnUse">
<stop stop-color="#9463D3"/>
<stop offset="1" stop-color="#3F53C4"/>
</linearGradient>
</defs>
</svg>
