<svg xmlns="http://www.w3.org/2000/svg" width="35" height="35" viewBox="0 0 35 35">
  <g id="ic-question" transform="translate(21734 -6761)">
    <rect id="Rectangle_424" data-name="Rectangle 424" width="35" height="35" transform="translate(-21734 6761)" fill="none"/>
    <path id="communication" d="M32.9,28.18A10.607,10.607,0,0,0,35,21.842a11.052,11.052,0,0,0-5.113-9.2,13.288,13.288,0,0,0-4.374-8.636A15.538,15.538,0,0,0,14.97,0,15.537,15.537,0,0,0,4.428,4.005,13.215,13.215,0,0,0,0,13.818,12.952,12.952,0,0,0,2.671,21.7L.1,28.062a1.367,1.367,0,0,0,1.819,1.763l7.335-3.233a15.735,15.735,0,0,0,2.84.79,11.77,11.77,0,0,0,4.136,4.028,12.94,12.94,0,0,0,6.432,1.744c.034,0,.067.005.1.005a13.012,13.012,0,0,0,4.56-.812l5.758,2.538A1.367,1.367,0,0,0,34.9,33.12Zm-2.833.288L31.1,31.024l-3.2-1.411a1.367,1.367,0,0,0-1.088-.006,10.254,10.254,0,0,1-3.995.817l-.055,0a10.048,10.048,0,0,1-7.018-2.8,15.941,15.941,0,0,0,6.435-1.684,1.367,1.367,0,0,0-1.238-2.438,13.386,13.386,0,0,1-11.176.357,1.367,1.367,0,0,0-1.088.006L3.9,25.965l1.61-3.983a1.367,1.367,0,0,0-.227-1.4,10.327,10.327,0,0,1-2.545-6.765c0-6.112,5.489-11.083,12.236-11.083S27.206,7.706,27.206,13.818a10.283,10.283,0,0,1-1.678,5.6,1.367,1.367,0,0,0,2.294,1.488,13.115,13.115,0,0,0,1.926-4.882,8.133,8.133,0,0,1,2.517,5.814A7.98,7.98,0,0,1,30.3,27.069,1.367,1.367,0,0,0,30.07,28.469Zm-13.8-7.619A1.367,1.367,0,0,1,14.9,22.217h0a1.367,1.367,0,0,1,0-2.734h0A1.367,1.367,0,0,1,16.269,20.85ZM20.1,10.606c0,.019,0,.038,0,.057a5.122,5.122,0,0,1-3.115,4.718,1.083,1.083,0,0,0-.645,1v.088a1.367,1.367,0,1,1-2.734,0v-.088a3.813,3.813,0,0,1,2.306-3.52A2.391,2.391,0,0,0,17.362,10.7c0-.013,0-.026,0-.04a2.392,2.392,0,0,0-4.784,0,1.367,1.367,0,1,1-2.734,0A5.127,5.127,0,0,1,20.1,10.606Z" transform="translate(-21734 6761)" fill="#48fb6f"/>
  </g>
</svg>
