<svg width="56" height="56" viewBox="0 0 56 56" fill="none" xmlns="http://www.w3.org/2000/svg">
<path d="M45.92 8.72485V27.3504C41.9272 25.0936 36.7696 24.556 32.2336 26.0232C30.9064 26.4544 29.6464 27.0424 28.42 27.608C26.8856 28.3192 25.4296 28.9968 23.9008 29.3608C20.524 30.1728 17.3768 29.3216 14.56 28.0112V9.17285C17.472 10.3824 20.832 11.1216 24.4216 10.2592C26.1688 9.83925 27.7928 9.08885 29.3664 8.36085C30.5816 7.79525 31.724 7.26325 32.9224 6.87685C37.3184 5.45445 42.3528 6.18245 45.92 8.72485ZM11.2 2.80005C10.5784 2.80005 10.08 3.30405 10.08 3.92005V52.08C10.08 52.696 10.5784 53.2001 11.2 53.2001C11.816 53.2001 12.32 52.696 12.32 52.08V3.92005C12.32 3.30405 11.816 2.80005 11.2 2.80005Z" fill="#E6E8EA"/>
</svg>
