<svg width="40" height="56" viewBox="0 0 40 56" fill="none" xmlns="http://www.w3.org/2000/svg">
<g clip-path="url(#clip0_6509_19818)">
<path d="M12.731 3.02293C11.6564 2.88822 10.6492 3.47414 10.4794 4.33362C8.28162 15.4756 13.5977 20.1994 15.9603 21.7057V34.2976C15.9603 34.3218 15.9635 34.3452 15.9648 34.3691L14.1465 53.3791C14.0183 54.7204 15.2728 55.8902 16.9479 55.9929C18.6232 56.0955 20.0856 55.0922 20.2141 53.751L21.929 35.8198H23.3022L25.0171 53.751C25.1453 55.0922 26.608 56.0957 28.2833 55.9929C29.9582 55.8902 31.2129 54.7204 31.0847 53.3791L29.2667 34.3703C29.2682 34.346 29.2714 34.3222 29.2714 34.2978V24.0511C30.3713 25.8824 31.3512 29.5714 30.8455 36.4916C30.782 37.3603 31.6104 38.1058 32.6958 38.1566C32.7349 38.1584 32.7738 38.1594 32.8127 38.1594C33.8475 38.1594 34.7149 37.5132 34.7762 36.6757C35.3845 28.3551 34.084 22.9266 30.9112 20.5407C29.53 19.5018 28.1805 19.3236 27.4878 19.3106C27.4484 19.3086 27.4095 19.3059 27.3696 19.3059H23.1693V21.4183H22.0619V19.3057H18.5036C17.0999 18.469 12.3907 14.8507 14.3684 4.82501C14.538 3.96533 13.8049 3.15863 12.731 3.02293ZM8.34338 10.9728C8.14725 11.1624 3.57704 15.6968 2.64414 26.3757L0 26.2893L2.82673 29.7394L6.28516 26.4951L3.62822 26.408C4.54241 16.0379 9.04422 11.5313 9.1018 11.4752C9.2748 11.3076 9.24552 11.0596 9.03635 10.921C8.82718 10.7823 8.51711 10.8052 8.34338 10.9728Z" fill="#E6E8EA"/>
<path d="M17.079 13.7519C17.079 16.1994 19.558 18.1833 22.6158 18.1833C25.6741 18.1833 28.1526 16.1994 28.1526 13.7519C28.1526 11.3044 25.6741 9.32056 22.6158 9.32056C19.558 9.32056 17.079 11.3046 17.079 13.7519ZM25.4996 15.9077C25.4996 16.3699 25.0313 16.7447 24.4538 16.7447C23.8762 16.7447 23.4079 16.3699 23.4079 15.9077C23.4079 15.8795 23.4148 15.853 23.4183 15.8256H21.8239V15.0707H24.454C25.0313 15.0707 25.4996 15.4455 25.4996 15.9077Z" fill="#E6E8EA"/>
<path d="M24.2877 7.97642L24.5338 8.17337L31.3933 0.393897L30.8704 0L24.2877 7.97642Z" fill="#E6E8EA"/>
<path d="M39.5843 6.40625L29.0134 10.7746L29.2233 10.9967L40 6.87499L39.5843 6.40625Z" fill="#E6E8EA"/>
</g>
<defs>
<clipPath id="clip0_6509_19818">
<rect width="40" height="56" fill="white"/>
</clipPath>
</defs>
</svg>
