<svg id="Layer_1" data-name="Layer 1" xmlns="http://www.w3.org/2000/svg" viewBox="0 0 512 512"><defs><style>.cls-1{fill:#1d1e65;}.cls-2{fill:#48fb6f;}</style></defs><title>Web_SVG</title><path class="cls-1" d="M256.08,497H19.87a43,43,0,0,1-7.19-.14c-6.2-1.06-9.84-4.81-10.17-11.18A11,11,0,0,1,13,474.1a134.29,134.29,0,0,1,18.71,0c4.7.34,5.65-1.4,5.39-5.65a168.81,168.81,0,0,1,0-17.28c.27-6.89,4.9-11.56,11.17-11.72,6.55-.17,11.49,4.65,11.76,11.87.22,6,.29,12,0,18-.21,3.85,1.1,4.81,4.81,4.74,12-.22,24-.32,36,0,4.57.14,5.5-1.23,5.47-5.58-.22-26.89-.11-53.77-.11-80.66,0-1.92-.08-3.85,0-5.76.41-6.9,4.87-11.59,11.13-11.79,6.54-.21,11.42,4.61,11.85,11.8.12,1.91,0,3.84,0,5.76,0,26.89.1,53.77-.11,80.66,0,4.37.93,5.71,5.48,5.57,11.75-.36,23.53-.34,35.28,0,4.42.13,5.6-1,5.56-5.5-.25-24-.14-48-.11-72,0-9.58,4.35-14.93,11.8-14.74,7.18.19,11.21,5.37,11.23,14.61,0,24,.11,48-.09,72,0,4.23.72,5.81,5.4,5.65,11.27-.4,22.57-.42,33.84,0,5.43.2,7.16-1.06,7.11-6.89-.32-33.84-.16-67.69-.16-101.54,0-1.44,0-2.88,0-4.32.11-9,4.48-14.24,11.74-14.1,7,.14,11.17,5.25,11.3,13.82,0,1.44,0,2.88,0,4.32,0,33.61.23,67.22-.2,100.82-.08,6.91,2.12,8.2,8.31,7.89a264.1,264.1,0,0,1,29.51,0c6.65.41,8.75-1,8.68-8.28-.43-41.53-.21-83.06-.21-124.59,0-1.92-.1-3.85.05-5.76.53-6.77,5.31-11.38,11.61-11.3s10.88,4.72,11.35,11.58c.13,1.92,0,3.84,0,5.76,0,42,.12,84-.15,126,0,5.58,1.53,6.72,6.74,6.53,11.27-.42,22.57-.41,33.84,0,4.94.18,5.78-1.53,5.76-6-.18-34.57-.1-69.14-.1-103.71,0-1.92-.09-3.85.05-5.76.51-6.79,5.23-11.41,11.53-11.37s10.94,4.67,11.43,11.5c.13,1.91,0,3.84,0,5.76,0,34.57.1,69.14-.12,103.71,0,4.73,1.24,6,5.91,5.86,11.27-.35,22.58-.45,33.84,0,5.49.23,6.61-1.37,6.59-6.68-.21-57.37-.13-114.75-.12-172.12a41,41,0,0,1,.16-7.19c1.13-6.2,5-9.92,11.33-9.93s10.21,3.72,11.37,9.9a40,40,0,0,1,.17,7.19c0,57.37.08,114.75-.12,172.12,0,5.25,1,7.25,6.57,6.68a114.12,114.12,0,0,1,16.54-.05c6.85.31,11.49,5.06,11.54,11.35s-4.57,11.06-11.35,11.57c-2.15.17-4.32.06-6.48.06Z"/><path class="cls-1" d="M470.28,197.39c-10.65,0-19.47.08-28.29,0-8-.09-13-4.46-13.15-11.21-.18-7.05,5-11.74,13.3-11.78q27-.13,54,0c8.94,0,13.25,4.32,13.3,13.24q.15,27,0,54c0,8.33-4.74,13.51-11.75,13.35-6.75-.15-11.15-5.17-11.24-13.13-.11-8.82,0-17.64,0-26.46l-1.75-1.44a51.9,51.9,0,0,1-4.49,6Q431.63,268.6,383,317.2c-9.54,9.54-14.06,9.58-23.42.21-17.64-17.65-35.38-35.2-52.8-53.08-3.72-3.83-5.59-3.95-9.43-.06-29,29.39-58.23,58.52-87.42,87.71-9.36,9.37-13.89,9.32-23.41-.21-13.9-13.92-27.91-27.75-41.62-41.87-3.3-3.4-5-3.37-8.37,0q-49.41,49.84-99.16,99.38a36.11,36.11,0,0,1-5.28,4.86c-5.32,3.52-10.62,3.05-15-1.54-4.13-4.35-4.31-9.47-1-14.48A28.68,28.68,0,0,1,20,393.91q54.72-54.75,109.45-109.47c8.8-8.8,13.66-8.84,22.38-.13,14.09,14.08,28.28,28.06,42.11,42.4,3.63,3.75,5.5,3.26,8.91-.18q43.8-44.26,87.94-88.2c8.79-8.79,13.65-8.82,22.39-.09q27,27,53.91,54c2.21,2.21,3.67,4.68,7.29,1C405.82,261.63,437.45,230.17,470.28,197.39Z"/><path class="cls-2" d="M2.5,141c0-69.54,57.18-126.15,127.4-126.09C199.23,15,256.2,72.21,256,141.6c-.2,70.14-56.89,126.89-126.69,126.81A126.78,126.78,0,0,1,2.5,141Zm230.44,1.21C233,85.07,186.85,38.2,130.31,38A103.82,103.82,0,0,0,25.56,141.53c-.19,57.11,46.35,103.71,103.71,103.86C186.05,245.53,232.89,198.93,232.94,142.23Z"/><path class="cls-2" d="M83.14,141.41c0-14.39,0-28.78,0-43.18,0-9.94,4.08-14,13.83-14.16,2.15,0,4.31,0,6.47,0,4.32,0,9.5,1.43,12.73-.45,3.76-2.2,1-7.84,1.55-11.94.9-6.24,5.57-10.65,11.57-10.61S140,65.51,140.7,71.83a13.93,13.93,0,0,1,.05,3.59c-.82,5.53.16,8.73,6.91,10.1,9.5,1.93,15.63,10.81,16.1,20.55.21,4.31,0,8.64.07,13,.1,7.45-.53,14.19,6.47,20.55,8.36,7.6,7.25,41.74.19,50.7-5.31,6.74-12.43,9.81-20.86,9-6.76-.69-10.5.83-8.9,8.54a11.53,11.53,0,0,1-.07,4.3c-1.12,6.19-4.82,9.83-11.16,10.21-6,.35-10.9-4.18-11.71-10.4-.52-4,1.78-10-.93-11.54-3.65-2.08-9.2-.86-13.94-1-2.16-.07-4.32,0-6.48,0-8.93-.2-13.21-4.36-13.27-13.28C83.07,171.16,83.14,156.29,83.14,141.41Zm45.41,34.84h5.75c18.92,0,18.92,0,18-18.73a4.33,4.33,0,0,1,0-.72c.41-2.84-.87-3.65-3.64-3.63q-19.41.18-38.84,0c-2.83,0-3.45.94-3.68,3.67-1.57,19.42-1.64,19.41,17.39,19.41Zm-4.4-69.12c-18.91,0-18.79,0-18.05,18.76.14,3.51,1.11,4.44,4.49,4.34,7.91-.23,15.85-.48,23.72.07,5.52.38,6.69-1.39,6.59-6.68C140.59,107.14,140.83,107.13,124.15,107.13Z"/></svg>