<svg id="Layer_1" data-name="Layer 1" xmlns="http://www.w3.org/2000/svg" viewBox="0 0 512 512"><defs><style>.cls-1{fill:#1d1e65;}.cls-2{fill:#48fb6f;}</style></defs><title>Web_SVG</title><path class="cls-1" d="M510.8,16.87a31.39,31.39,0,0,0-.7-7.46,11.28,11.28,0,0,0-1.72-3.93,9.3,9.3,0,0,0-5.08-3.39,29.61,29.61,0,0,0-8.24-.89H18.36a42.22,42.22,0,0,0-8.48.64,11.77,11.77,0,0,0-4.3,1.7A9,9,0,0,0,2.06,8.92a37,37,0,0,0-.85,9.18V451.83c0,.9,0,1.81,0,2.74,0,.64,0,1.28.05,1.93.18,3.62,1.3,6.58,3.38,8.65s5.05,3.16,8.71,3.27c2.85.08,5.72.14,8.59.14,2.66,0,5.33-.05,8-.17l.51,0a4.6,4.6,0,0,1,1.41.18,1.54,1.54,0,0,1,.56.29,1.62,1.62,0,0,1,.46.8,6.58,6.58,0,0,1,.17,1.67v.31q-.15,7-.15,13.91,0,6.62.13,13.23a12.74,12.74,0,0,0,3.11,8.63,11,11,0,0,0,8.28,3.31q26.35.1,52.71.1,26.53,0,53.08-.1a11.13,11.13,0,0,0,8.08-3.15,12.21,12.21,0,0,0,3.29-8.11c.07-1.43.09-2.86.09-4.29,0-2.19-.05-4.36-.05-6.52,0-1.25,0-2.5.07-3.74h0c0-.26,0-.52,0-.79,0-3.3-.79-7-.78-10a10.2,10.2,0,0,1,.37-3,4.35,4.35,0,0,1,1.27-2.07,4.87,4.87,0,0,1,2.12-1,14,14,0,0,1,3.05-.29c3.14,0,6.93.64,10.22.64h63.81q51.74,0,103.47-.13h.11a14.94,14.94,0,0,1,2.64.18,4,4,0,0,1,1.24.4,2.12,2.12,0,0,1,1,1.09,6.5,6.5,0,0,1,.36,2.42c0,.32,0,.66,0,1-.22,3.76-.29,7.52-.29,11.29,0,4.64.11,9.28.21,13.9a12.63,12.63,0,0,0,3.22,8.82,11.84,11.84,0,0,0,8.71,3.25q26.47.09,52.93.09,25.77,0,51.54-.08c3.81,0,6.86-1.13,9-3.32s3.15-5.33,3.25-9.2c0-1,0-1.92,0-2.87,0-2.28-.05-4.55-.05-6.8,0-1.41,0-2.81.08-4.2h0c0-.26,0-.51,0-.76,0-3.21-.77-6.74-.76-9.62a10,10,0,0,1,.34-2.82,4.34,4.34,0,0,1,1.2-2,4.58,4.58,0,0,1,2-1,12.94,12.94,0,0,1,3-.29c2.93,0,6.47.56,9.54.57h.13a36.23,36.23,0,0,0,7.77-.71,11.85,11.85,0,0,0,4.05-1.71A9.11,9.11,0,0,0,509.9,461a30,30,0,0,0,.9-8.37q0-108.93,0-217.86T510.8,16.87Zm-116.67,471c-5.76,0-11.52,0-17.28.09h-.28a9,9,0,0,1-1.73-.13,2.43,2.43,0,0,1-.76-.28,1.53,1.53,0,0,1-.64-.86,7,7,0,0,1-.31-2.11c-.06-2.43-.11-4.5-.11-6.27a24.59,24.59,0,0,1,.5-6,4.36,4.36,0,0,1,1.21-2.21,4.56,4.56,0,0,1,1.67-.93,18.06,18.06,0,0,1,4.57-.66c2-.1,4.45-.1,7.47-.1h0l32.34,0q15.56,0,31.13-.1h.26a11.13,11.13,0,0,1,2.13.16,2.61,2.61,0,0,1,.94.34,1.74,1.74,0,0,1,.76,1,8.16,8.16,0,0,1,.3,2.53v1.13a78.44,78.44,0,0,1-.27,8.69,7.81,7.81,0,0,1-1,3.35,3.57,3.57,0,0,1-1.46,1.27,12.29,12.29,0,0,1-4.5.91c-2.07.14-4.73.14-8.11.14H414.54C407.74,487.92,400.94,487.89,394.13,487.89ZM60.22,488H60a9.36,9.36,0,0,1-2.33-.23,2.71,2.71,0,0,1-1-.45,2.22,2.22,0,0,1-.73-1.23,10,10,0,0,1-.25-2.55v-.14h0c0-4,0-6.91.28-9.05a8.65,8.65,0,0,1,1-3.51,3.46,3.46,0,0,1,1.41-1.32,11.47,11.47,0,0,1,4.43-.94c2.05-.15,4.72-.15,8.12-.15H97.35c7,0,13.94.05,20.92.05,5.59,0,11.18,0,16.78-.14h.3a6.76,6.76,0,0,1,1.93.22,1.8,1.8,0,0,1,1.36,1.47,9.89,9.89,0,0,1,.22,2.26c0,1.65,0,3.14,0,4.47a34.91,34.91,0,0,1-.43,6.76,5.15,5.15,0,0,1-1.14,2.52,4,4,0,0,1-1.57,1,15.9,15.9,0,0,1-4.5.73c-2,.11-4.48.11-7.58.11-11.11,0-22.22,0-33.33,0-10,0-20.09,0-30.14.15Zm422.34-42.3q-118-.14-235.93-.13-108.48,0-217,.09h0a16.39,16.39,0,0,1-2.86-.18,4.36,4.36,0,0,1-1.35-.44,2.41,2.41,0,0,1-1.09-1.34,9.05,9.05,0,0,1-.41-3.09v-.32q.25-17.49.23-35,0-19.22-.16-38.44h0v-.22a11.48,11.48,0,0,1,.15-2.15,3,3,0,0,1,.34-1,1.8,1.8,0,0,1,1-.76,7.86,7.86,0,0,1,2.53-.3h1a82.9,82.9,0,0,1,8.76.26,8.08,8.08,0,0,1,3.38,1,3.65,3.65,0,0,1,1.28,1.46,12.26,12.26,0,0,1,.92,4.5c.14,2.07.14,4.74.14,8.13,0,6.87,0,13.75,0,20.63q0,6.87,0,13.76a21.88,21.88,0,0,0,.78,6.12,9.82,9.82,0,0,0,4.4,5.91,16.33,16.33,0,0,0,8.37,1.83l195.58,0,202.44,0a19.08,19.08,0,0,0,5.83-.79,9.74,9.74,0,0,0,5.7-4.43,16.09,16.09,0,0,0,1.81-8.2q0-88.92,0-177.85t0-177.85a19.75,19.75,0,0,0-.78-5.88,9.81,9.81,0,0,0-4.38-5.75,15.84,15.84,0,0,0-8.13-1.82q-102.14,0-204.27,0H57.14a20.6,20.6,0,0,0-6,.79,9.55,9.55,0,0,0-5.77,4.5,17.43,17.43,0,0,0-1.79,8.52c0,8-.08,16-.08,24.07,0,7.19,0,14.38.18,21.57h0c0,.12,0,.23,0,.34a7.62,7.62,0,0,1-.24,2.14,2,2,0,0,1-.42.82,2.18,2.18,0,0,1-1.2.63,11.37,11.37,0,0,1-2.46.2c-.37,0-.73,0-1.08,0a79,79,0,0,1-8.58-.27,7.73,7.73,0,0,1-3.31-1,3.37,3.37,0,0,1-1.25-1.41,11.61,11.61,0,0,1-.9-4.36c-.14-2-.14-4.59-.14-7.87,0-11.24,0-22.48,0-33.72,0-9.92,0-19.84-.17-29.76h0v-.29a9.4,9.4,0,0,1,.26-2.49,2.54,2.54,0,0,1,.49-1,2.46,2.46,0,0,1,1.38-.76,12.25,12.25,0,0,1,2.8-.24H29q72.72.14,145.45.11H343.25q69.63,0,139.26-.13h.07a12.73,12.73,0,0,1,2.94.26,3.36,3.36,0,0,1,1.26.54,2.64,2.64,0,0,1,1,1.53,12.14,12.14,0,0,1,.32,3.21v.05q-.12,103.68-.11,207.36,0,101.61.1,203.21v0a14.44,14.44,0,0,1-.23,2.93,3.62,3.62,0,0,1-.49,1.29,2.55,2.55,0,0,1-1.48,1,11.18,11.18,0,0,1-3.25.36ZM445.61,236q0,80.75.14,161.5h0v.06a14.61,14.61,0,0,1-.25,3.12A3.61,3.61,0,0,1,445,402a2.63,2.63,0,0,1-1.57,1.06,12.22,12.22,0,0,1-3.4.36h-.11q-52.84-.21-105.68-.16h-156q-53,0-105.93.15h-.14a16.35,16.35,0,0,1-3-.21,5,5,0,0,1-1.4-.46,2.41,2.41,0,0,1-1.12-1.3,7.8,7.8,0,0,1-.4-2.8c0-.32,0-.67,0-1,.23-4.66.31-9.32.31-14,0-5.94-.13-11.88-.23-17.8h0v-.26a7.16,7.16,0,0,1,.14-1.56,2.24,2.24,0,0,1,.26-.68,1.21,1.21,0,0,1,.68-.53,4.45,4.45,0,0,1,1.59-.22h.44c1.6.06,3.21.12,4.83.12a38.42,38.42,0,0,0,10.52-1.25,32.92,32.92,0,0,0,24-31.42,32.34,32.34,0,0,0-.21-3.66,32.85,32.85,0,0,0-31-28.87c-3-.13-5.21-.23-6.81-.48a6.54,6.54,0,0,1-2.58-.82,2.74,2.74,0,0,1-.94-1.05,8.8,8.8,0,0,1-.69-3.29c-.11-1.54-.11-3.54-.11-6.08,0-18.18,0-36.37,0-54.55,0-17.31,0-34.61-.22-51.92h0v-.41a16.34,16.34,0,0,1,.29-3.53,4.8,4.8,0,0,1,.63-1.62,3.22,3.22,0,0,1,1.8-1.31,11.86,11.86,0,0,1,3.69-.44h1.9c9.46,0,17.7-3.13,23.73-8.47A31.18,31.18,0,0,0,108.65,142c0-.77.08-1.54.08-2.3a32.12,32.12,0,0,0-9.53-23A34.08,34.08,0,0,0,75.49,107a56.28,56.28,0,0,1-5.65-.22,5,5,0,0,1-2.08-.58,1.74,1.74,0,0,1-.71-.76,6.7,6.7,0,0,1-.56-2.59c-.09-1.23-.09-2.86-.09-4.92,0-5.32,0-10.65,0-16,0-4.15,0-8.31-.11-12.47h0c0-.09,0-.19,0-.28a4,4,0,0,1,.49-2.34,1.22,1.22,0,0,1,.54-.42,2.84,2.84,0,0,1,1.06-.16,6.47,6.47,0,0,1,1,.08,10.39,10.39,0,0,0,1.35.08c.73,0,1.43-.05,2.08-.05H193.67q122.75,0,245.5-.15h.06a16,16,0,0,1,3.44.29,4.27,4.27,0,0,1,1.51.62,3.14,3.14,0,0,1,1.2,1.82,13.67,13.67,0,0,1,.38,3.76v.07Q445.61,154.37,445.61,236ZM27.07,130.72a15.27,15.27,0,0,1,4.48-.74c2-.11,4.47-.11,7.57-.11h12l14.28,0c3.09,0,6.19,0,9.28,0a12.37,12.37,0,0,1,8.11,2.67,9,9,0,0,1,3,6.82v.28a8.83,8.83,0,0,1-3,6.94,12.62,12.62,0,0,1-8.36,2.7c-3.07,0-6.14,0-9.22,0l-18.2,0q-9.67,0-19.35.12h-.23a6.49,6.49,0,0,1-2-.24,1.89,1.89,0,0,1-.74-.4,2.13,2.13,0,0,1-.57-1.13,11,11,0,0,1-.19-2.25c0-1.57,0-3,0-4.27a36.73,36.73,0,0,1,.42-6.84,5.36,5.36,0,0,1,1.13-2.56A4.11,4.11,0,0,1,27.07,130.72Zm-1.15,41.64a9.29,9.29,0,0,1,2.76-.31h.49c3.8.07,6.64.11,8.7.37a8.39,8.39,0,0,1,3.37.94,3.24,3.24,0,0,1,1.26,1.33,10.89,10.89,0,0,1,.9,4.17c.14,1.95.14,4.47.14,7.7V235.5c0,10.17,0,20.35,0,30.53,0,9,0,18,.14,27h0a2.72,2.72,0,0,1,0,.28,9.75,9.75,0,0,1-.22,2.29,2.78,2.78,0,0,1-.43,1,2.16,2.16,0,0,1-1.2.76,9.35,9.35,0,0,1-2.56.27h-.15c-4,0-6.93,0-9.08-.28a8.76,8.76,0,0,1-3.52-1,3.46,3.46,0,0,1-1.32-1.41,11.51,11.51,0,0,1-1-4.41c-.14-2-.14-4.71-.14-8.1q0-25.41,0-50.81,0-27.15-.15-54.32h0v-.19a12.74,12.74,0,0,1,.22-2.67,3.54,3.54,0,0,1,.46-1.16A2.27,2.27,0,0,1,25.92,172.36Zm-.29,149.56c.87-.72,2.31-1.16,4.61-1.38s5.37-.22,9.42-.22H52.2v0h.59c4.43,0,8.86,0,13.28,0q4.59,0,9.17.07a11.48,11.48,0,0,1,7.62,2.71,9.14,9.14,0,0,1,3,6.69c0,.12,0,.24,0,.35A9.17,9.17,0,0,1,83,337a11.28,11.28,0,0,1-7.73,2.78q-7.89.06-15.77.05H45.17q-9,0-18,.08H27a5.81,5.81,0,0,1-1.66-.18,1.55,1.55,0,0,1-.62-.31,1.58,1.58,0,0,1-.5-.86A8.46,8.46,0,0,1,24,336.6c-.1-2.81-.19-5.15-.19-7.09a19.56,19.56,0,0,1,.55-5.55A4.08,4.08,0,0,1,25.63,321.92Z"/><path class="cls-2" d="M362.74,183.32a13.09,13.09,0,0,0-2-7.17,18.07,18.07,0,0,0-5.45-5.3q-45.66-30.24-91.14-60.75a14.64,14.64,0,0,0-8.17-2.84,14.21,14.21,0,0,0-8,2.75q-45.74,30.72-91.67,61.14a14.43,14.43,0,0,0-7.06,13.12v.25a374.38,374.38,0,0,0,4.09,52.76q6.81,44.5,31,75.51t65.79,48.35a15.45,15.45,0,0,0,6,1.41,10.73,10.73,0,0,0,4.19-.86c35.46-14.93,64.74-37.08,82.19-72.53,14.8-30.06,18.73-62.39,20.06-96.42h0v0c0-1.18-.08-2.8-.08-4.59,0-1.08,0-2.22.12-3.34C362.72,184.28,362.74,183.8,362.74,183.32Zm-40,95C309.1,306.76,286,324.84,258,337.86a4.32,4.32,0,0,1-1.79.44,5,5,0,0,1-1.74-.38c-.59-.24-1.21-.56-1.9-.87-21.92-9.89-39.12-23.28-51.79-40.1s-20.8-37.09-24.53-60.77c-2.05-13-3-26.16-4.05-41.06V195l0-.1a7.94,7.94,0,0,1-.38-2.36,7.63,7.63,0,0,1,2-5,25.93,25.93,0,0,1,5.7-4.65c24.22-15.63,48.13-31.75,72-47.88a14.5,14.5,0,0,1,2.49-1.4,5.4,5.4,0,0,1,2.11-.46,7.56,7.56,0,0,1,4.23,1.65c25.11,17.06,50.46,33.77,75.73,50.59a16.14,16.14,0,0,1,2.72,2,4,4,0,0,1,1.07,2.93v.26h0C338.77,220.88,336,250.66,322.74,278.34Z"/><path class="cls-2" d="M292.38,229.76a12.25,12.25,0,0,1-3-3.85,9.76,9.76,0,0,1-.88-4.28c0-.45,0-.91.06-1.39.08-.94.11-1.88.11-2.81,0-1.53-.07-3-.07-4.53h0v-.24c0-1.83,0-3.68,0-5.53q0-1.74,0-3.48a23.56,23.56,0,0,0-4.7-14.13,21.72,21.72,0,0,0-12.44-7.79,8,8,0,0,1-3.22-1.39,7,7,0,0,1-2-2.88,11.87,11.87,0,0,0-4.62-5.34,12,12,0,0,0-6.32-1.87,9.08,9.08,0,0,0-4.69,1.22,8,8,0,0,0-3.28,3.84c-1.14,2.73-2.45,4.12-3.88,4.88a10.07,10.07,0,0,1-5,.93c-1.08,0-2.21-.05-3.4-.05h-1.78c-1.71,0-3.43,0-5.16,0-1.35,0-2.72,0-4.08.09a11.93,11.93,0,0,0-7.31,2.62,11.2,11.2,0,0,0-3.67,6.72,13.37,13.37,0,0,0-.25,2.56,10.22,10.22,0,0,0,1.89,6.12,10.63,10.63,0,0,0,5.5,3.77,6.23,6.23,0,0,1,1.84.85,2.82,2.82,0,0,1,1.14,1.59,9.31,9.31,0,0,1,.25,2.58c0,.11,0,.22,0,.34q-.09,13.25-.08,26.5,0,13.51.07,27a2.09,2.09,0,0,0,0,.24A6.16,6.16,0,0,1,223,265a2.52,2.52,0,0,1-.82.89,6,6,0,0,1-1.73.77,10.61,10.61,0,0,0-5.63,3.76,10.23,10.23,0,0,0-2,6.22,13.68,13.68,0,0,0,.21,2.35,11.3,11.3,0,0,0,3.8,7,12.19,12.19,0,0,0,7.68,2.57c2.91.07,5.84.14,8.77.14,2.38,0,4.77,0,7.15-.18h0l.8,0a6.85,6.85,0,0,1,1.63.17,3,3,0,0,1,1.58.95,6.4,6.4,0,0,1,1.16,2.34,9.71,9.71,0,0,0,3.91,5.38,11.67,11.67,0,0,0,6.45,1.77h.13a12,12,0,0,0,6.27-1.67,8.33,8.33,0,0,0,3.75-5.15,7.36,7.36,0,0,1,.79-2,3.25,3.25,0,0,1,1.57-1.4,6.21,6.21,0,0,1,2.31-.35c.5,0,1,0,1.62.07,1,.06,2,.1,2.93.1a27.6,27.6,0,0,0,9.13-1.4,21.4,21.4,0,0,0,8.09-5.07c2.51-2.5,4.31-6.43,5.53-11.07a62.41,62.41,0,0,0,1.81-15.32,59.85,59.85,0,0,0-1.83-15.2C296.86,236,295,232.17,292.38,229.76Zm-46.21,20.86a11.86,11.86,0,0,1,.17-2.27,3.63,3.63,0,0,1,.36-1.06,1.87,1.87,0,0,1,1-.85,5.74,5.74,0,0,1,2.15-.32l.8,0c3.42.18,6.84.25,10.26.25,4.1,0,8.19-.1,12.27-.21h.39a5.87,5.87,0,0,1,1.5.15,1.6,1.6,0,0,1,.6.28,1.52,1.52,0,0,1,.52.83,6.81,6.81,0,0,1,.27,1.89c.12,2.95.22,5.39.22,7.4a18.66,18.66,0,0,1-.56,5.42,3.91,3.91,0,0,1-1.29,2c-.88.71-2.34,1.14-4.64,1.35s-5.37.22-9.41.22h0a87.79,87.79,0,0,1-8.81-.24,8.21,8.21,0,0,1-3.38-1,3.45,3.45,0,0,1-1.27-1.4,11.79,11.79,0,0,1-.9-4.38c-.15-2-.16-4.65-.17-8h0Zm19.41-31.1a6,6,0,0,1-.63,2.34,2.1,2.1,0,0,1-.86.81,7.28,7.28,0,0,1-2.89.62c-1.38.1-3.17.1-5.46.1-2.58,0-4.5,0-5.87-.15a5.37,5.37,0,0,1-2.17-.58,2,2,0,0,1-.75-.79,6.91,6.91,0,0,1-.58-2.69c-.09-1.29-.09-3-.09-5.13,0-2.74,0-4.78.16-6.25a5.9,5.9,0,0,1,.63-2.33,2.1,2.1,0,0,1,.86-.81,7.43,7.43,0,0,1,2.89-.63c1.38-.1,3.17-.1,5.46-.1,2.58,0,4.5,0,5.87.16a5.37,5.37,0,0,1,2.17.58,2,2,0,0,1,.75.79,6.91,6.91,0,0,1,.58,2.69c.09,1.29.09,3,.09,5.13C265.74,216,265.74,218.06,265.58,219.52Z"/></svg>