<svg id="Layer_1" data-name="Layer 1" xmlns="http://www.w3.org/2000/svg" viewBox="0 0 512 512"><defs><style>.cls-1{fill:#1d1e65;}.cls-2{fill:#48fb6f;}</style></defs><title>Web_SVG</title><path class="cls-1" d="M119.07,235.65A117.08,117.08,0,0,0,235.62,119.4a117.31,117.31,0,0,0-33.87-82.92A114.37,114.37,0,0,0,120,1.77h-.41A117.58,117.58,0,0,0,36.23,35.81,116.25,116.25,0,0,0,1.75,118.68C1.57,183,54,235.42,118.65,235.65ZM24.37,119.12c0-52.08,41.9-94.57,93.39-94.72h.29c52.25,0,94.82,42.27,94.89,94.23S170.68,212.89,118.56,213h-.21A94,94,0,0,1,24.37,119.12Z"/><path class="cls-1" d="M476.1,310.79a115.48,115.48,0,0,0-82.19-34.4h-.1a117.19,117.19,0,0,0-83,34.12,114.91,114.91,0,0,0-34.44,82.21,117,117,0,0,0,117,117.52h.13a116.88,116.88,0,0,0,82.6-199.45Zm11.51,83c-.05,51.72-42.24,93.8-94,93.8h-.24A94.44,94.44,0,0,1,299,393.18c.17-51.91,42.75-94.15,94.91-94.15h.35C445.79,299.21,487.65,341.74,487.61,393.83Z"/><path class="cls-1" d="M321.34,130c15.33,0,35.57,0,56.11-.12h.12c2,0,3.07.26,3.67.86s.86,1.74.85,3.78c-.14,16.71-.13,33.69-.13,50.12,0,9.31,0,18.94,0,28.41,0,.44,0,.88.07,1.3a5.68,5.68,0,0,1-.53,3.7l-3.17-3.39c-2.88-3.11-5.6-6-8.58-8.83a12,12,0,0,0-8.24-3.5,11.06,11.06,0,0,0-7.63,3.15,11.23,11.23,0,0,0-3.66,7.91,11.82,11.82,0,0,0,3.55,8.47c9.82,10.13,20.34,20.65,31.26,31.28a12.09,12.09,0,0,0,8.33,3.84,11.65,11.65,0,0,0,8-3.63c9.95-9.6,20.19-19.83,31.3-31.26,4.85-5,5-11.72.33-16.38a10.87,10.87,0,0,0-7.76-3.35,12.61,12.61,0,0,0-8.61,3.71c-2.84,2.65-5.52,5.38-8.62,8.55l-3.36,3.42V186.66q0-32.15,0-64.3c0-11.19-3.75-15-14.84-15H267.92a18.67,18.67,0,0,0-2.28.11,11.31,11.31,0,0,0-10.37,11.34c.06,5.94,4.41,10.52,10.59,11.13a26.85,26.85,0,0,0,2.73.12l1.65,0,1.62,0h49.48Z"/><path class="cls-1" d="M245.89,382.07c-.7-.06-1.46-.09-2.4-.09L242,382H190.66c-15.22,0-35.31,0-55.69.13h-.18c-2.22,0-3.39-.26-4-.9s-.92-1.87-.9-4c.17-17.57.17-35.43.16-52.71,0-8.89,0-18.09,0-27.13a7.44,7.44,0,0,0-.09-1.05c-.12-.93-.22-1.65.49-2.29,1,1,2,2.09,3,3.15,2.57,2.7,5.24,5.49,8,8.13s6.08,4.25,9.27,4.25a11.49,11.49,0,0,0,11-10.94,13,13,0,0,0-4.1-9.16c-10.74-11-20.67-20.91-30.34-30.33-2.81-2.74-5.71-4.13-8.6-4.13s-5.84,1.41-8.69,4.2c-9.82,9.6-20,19.81-30.33,30.33a12.79,12.79,0,0,0-4,9.13,11.54,11.54,0,0,0,11.14,10.93,12.74,12.74,0,0,0,8.74-3.85c2.79-2.65,5.42-5.43,8.47-8.65,1.07-1.13,2.19-2.32,3.38-3.56v95c0,12.93,3.22,16.08,16.39,16.08h96.42l7.19,0,7.2,0c4.42,0,8,0,11.28-.17A11,11,0,0,0,256.71,393C256.52,387.1,252.07,382.62,245.89,382.07Z"/><path class="cls-2" d="M161.76,129.85a23,23,0,0,0-6.42-16.11,22.62,22.62,0,0,0-16-6.43q-5-.07-9.92-.07c-5.28,0-10.56,0-15.83,0-3.93,0-6.89,0-9.07-.22a10.2,10.2,0,0,1-3.62-.89,3.61,3.61,0,0,1-1.39-1.29,9.3,9.3,0,0,1-1-4c-.17-1.85-.19-4.25-.19-7.31V91.79a8.82,8.82,0,0,1,.24-2.29,2.64,2.64,0,0,1,.42-.89A1.93,1.93,0,0,1,100,88a8.51,8.51,0,0,1,2.11-.19h.6c5,.1,10,.13,15.08.13q8.64,0,17.27-.1h.35a5.65,5.65,0,0,1,2.8.47,2.62,2.62,0,0,1,.88.83,6.5,6.5,0,0,1,.78,1.7,10.78,10.78,0,0,0,3.86,5.65A10.48,10.48,0,0,0,150,98.39a15.55,15.55,0,0,0,2.83-.27A10.46,10.46,0,0,0,159.37,94a13,13,0,0,0,2.39-7.74q0-.45,0-.9a21.25,21.25,0,0,0-6.47-13.86,22.27,22.27,0,0,0-14.17-6.41q-.53,0-1.05,0c-1.93,0-3.95.26-5.7.26a10.44,10.44,0,0,1-2.11-.18,4,4,0,0,1-1.53-.64,2.31,2.31,0,0,1-.8-1.13,5.31,5.31,0,0,1-.24-1.76c0-1.69.45-3.83.45-5.87a10.81,10.81,0,0,0-.07-1.27,12.38,12.38,0,0,0-3.75-7.56,11.06,11.06,0,0,0-7.62-3h0a11.15,11.15,0,0,0-7.63,3,12,12,0,0,0-3.65,7.61,29.8,29.8,0,0,0-.2,3.17,15.09,15.09,0,0,0,.17,2.32,12.7,12.7,0,0,1,.17,1.91,5.35,5.35,0,0,1-.2,1.57,2.24,2.24,0,0,1-.94,1.31,3.85,3.85,0,0,1-2,.47,11.3,11.3,0,0,1-1.94-.2,8.57,8.57,0,0,0-1.66-.13c-.86,0-1.69.07-2.46.08a23.25,23.25,0,0,0-16.18,6.35,22.59,22.59,0,0,0-6.46,16c-.06,3.69-.11,7.39-.11,11.1q0,5,.13,10A21.86,21.86,0,0,0,97,130.07c2.44.08,4.88.11,7.32.11,3.81,0,7.62-.06,11.42-.06h7.7c3.53,0,6.33,0,8.51.15a17.71,17.71,0,0,1,3.89.6,5,5,0,0,1,1.7.87,4.29,4.29,0,0,1,1.34,2.36,19.79,19.79,0,0,1,.4,4.58c0,2.09-.13,4.68-.29,7.87a11.58,11.58,0,0,1-.16,1.58,2.29,2.29,0,0,1-.22.71,1.12,1.12,0,0,1-.58.53,4.28,4.28,0,0,1-1.59.23h-.14q-8.41-.12-16.82-.11c-6.27,0-12.55,0-18.83.08h0a4.37,4.37,0,0,1-1.08-.11,1.59,1.59,0,0,1-.86-.54,6,6,0,0,1-.8-1.48,15.49,15.49,0,0,0-4.53-6.3,9.84,9.84,0,0,0-6.21-2.2,11.47,11.47,0,0,0-3.65.62,11.28,11.28,0,0,0-5.85,4.35,12.58,12.58,0,0,0-2,7.14,17.94,17.94,0,0,0,.65,4.69,21.71,21.71,0,0,0,8,12.13,24.35,24.35,0,0,0,14.68,4.4l1,0,1.46,0a15.7,15.7,0,0,1,2.84.2,5.12,5.12,0,0,1,1.49.48,2.88,2.88,0,0,1,1.33,1.4,7.12,7.12,0,0,1,.51,3q0,.81-.09,1.8c-.07.71-.1,1.4-.1,2.06a12.78,12.78,0,0,0,3,8.92,10.9,10.9,0,0,0,7.92,3.38h.46A10.51,10.51,0,0,0,126.9,190c2-2.24,3.09-5.47,3.09-9.41,0-.48,0-1-.05-1.48s-.06-1.12-.06-1.62a7.17,7.17,0,0,1,.93-4.22,2.79,2.79,0,0,1,1.18-.92,5.15,5.15,0,0,1,2-.33,14,14,0,0,1,2.64.3h0a4.7,4.7,0,0,0,.9.08c.47,0,.89,0,1.25,0,6.75-.1,12.47-2.39,16.51-6.37s6.38-9.64,6.48-16.33c.05-3.32.08-6.63.08-9.95S161.82,133.14,161.76,129.85Z"/><path class="cls-2" d="M435.86,399.88a27.55,27.55,0,0,0-1.74-5.33,11.73,11.73,0,0,0-2.61-3.79,15.55,15.55,0,0,1-5.08-8.59,49.66,49.66,0,0,1-.57-9.63c0-.55,0-1.11,0-1.67,0-1.89,0-3.8,0-5.71,0-1.5,0-3-.09-4.52a22.76,22.76,0,0,0-4.44-12.57,18.3,18.3,0,0,0-11-7.06c-2.42-.49-3.88-1.23-4.7-2.13a4.08,4.08,0,0,1-.89-1.55,7,7,0,0,1-.28-2.1,17.08,17.08,0,0,1,.21-2.52,9.92,9.92,0,0,0,.1-1.43,17.57,17.57,0,0,0-.14-2.08,12.18,12.18,0,0,0-3.66-7.62,11.07,11.07,0,0,0-7.62-3h-.08a11,11,0,0,0-7.59,2.95,12.6,12.6,0,0,0-3.78,7.51,8.16,8.16,0,0,0-.09,1.31c0,2.05.5,4.17.49,5.87a5,5,0,0,1-.3,1.9,2.55,2.55,0,0,1-1.11,1.25,7.55,7.55,0,0,1-3.76.77c-2.27,0-4.93-.47-7.41-.47h-6a21.21,21.21,0,0,0-6,.84A9.65,9.65,0,0,0,352,345a17.29,17.29,0,0,0-1.78,8.49q0,8,0,15.9,0,11.83,0,23.69,0,12,0,24.09,0,8.41.05,16.81a18.23,18.23,0,0,0,.82,5.59,9.81,9.81,0,0,0,4.33,5.53,16,16,0,0,0,7.85,1.9h1.33l3,0,1.62,0,.81,0c2.12,0,4.31-.22,6.32-.22a10.63,10.63,0,0,1,5.25,1,1.3,1.3,0,0,1,.6.78,5.2,5.2,0,0,1,.21,1.63c0,1.73-.45,4.06-.46,6.19a10,10,0,0,0,.08,1.35,12.24,12.24,0,0,0,3.64,7.34,10.61,10.61,0,0,0,7.34,2.95l.65,0a11.63,11.63,0,0,0,7.44-2.91A12.54,12.54,0,0,0,404.6,458a13.07,13.07,0,0,0,.24-2.46,9.24,9.24,0,0,0-.17-1.81,13.48,13.48,0,0,1-.32-2.72,5.36,5.36,0,0,1,.35-2.07,2.92,2.92,0,0,1,1.63-1.62,8.14,8.14,0,0,1,3.26-.52,21.45,21.45,0,0,1,2.31.13c.87.08,1.73.13,2.57.13a21.39,21.39,0,0,0,17.31-8.66c1.81-2.32,3.11-6.05,4-10.48a74.75,74.75,0,0,0,1.38-14.62A62.22,62.22,0,0,0,435.86,399.88ZM388.6,362.5h0c3.83,0,6.67,0,8.72.24a8.07,8.07,0,0,1,3.35.91,3.32,3.32,0,0,1,1.24,1.33,11,11,0,0,1,.94,4.17c.16,1.94.2,4.45.26,7.64v.52a12.25,12.25,0,0,1-.19,2.4,3.78,3.78,0,0,1-.41,1.13,2.13,2.13,0,0,1-1.08.91,6.3,6.3,0,0,1-2.29.33c-.35,0-.74,0-1.16,0-3.23-.22-6.46-.3-9.69-.3-4.06,0-8.11.12-12.14.24h-.38a5.29,5.29,0,0,1-1.5-.16,1.43,1.43,0,0,1-1.1-1.12,7.27,7.27,0,0,1-.26-1.88c-.11-2.92-.21-5.34-.21-7.33a18.68,18.68,0,0,1,.55-5.42,3.9,3.9,0,0,1,1.29-2c.88-.71,2.33-1.14,4.63-1.35S384.56,362.5,388.6,362.5ZM373,407.29a8.92,8.92,0,0,1,.21-1.41,2.16,2.16,0,0,1,.25-.58,1,1,0,0,1,.56-.42,4.15,4.15,0,0,1,1.39-.18h.1q8.86.09,17.74.09t17.88-.08h.11a3.6,3.6,0,0,1,2,.37.86.86,0,0,1,.33.4,2.09,2.09,0,0,1,.14.84,5.35,5.35,0,0,1-.06.74h0a2.75,2.75,0,0,0,0,.4c0,.16,0,.31,0,.43h0c.16,3.14.29,5.69.29,7.75a16.31,16.31,0,0,1-.58,5.14,3.83,3.83,0,0,1-1.32,1.89c-.9.68-2.38,1.1-4.68,1.3s-5.35.2-9.34.2H388c-3.37,0-6.08,0-8.21-.13a19.07,19.07,0,0,1-3.87-.53,5.28,5.28,0,0,1-1.75-.78,3.66,3.66,0,0,1-1.38-2,14.06,14.06,0,0,1-.43-3.95C372.38,414.4,372.63,411.3,373,407.29Z"/></svg>