<svg id="Layer_1" data-name="Layer 1" xmlns="http://www.w3.org/2000/svg" viewBox="0 0 512 512"><defs><style>.cls-1{fill:#1d1e65;}.cls-2{fill:#48fb6f;}</style></defs><title>Web_SVG</title><path class="cls-1" d="M411.67,335.64a14.16,14.16,0,0,0-1.3-3.86,10.25,10.25,0,0,0-3.94-4.26,11.49,11.49,0,0,0-5.92-1.51h-.09a12.34,12.34,0,0,0-4.13.69,10,10,0,0,0-4.71,3.47,13.2,13.2,0,0,0-2.31,5.58,15.2,15.2,0,0,0-.21,2.7c0,1,.05,1.95.05,2.77v0q0,25.18,0,50.38,0,29,.13,58v.12a9.39,9.39,0,0,1-.16,2,1.54,1.54,0,0,1-.15.41l0,0a1.66,1.66,0,0,1-.62.19,9.84,9.84,0,0,1-1.78.12h-.1q-36.66-.15-73.33-.12H199q-36.66,0-73.33.12h-.1a8.85,8.85,0,0,1-2-.16,1.71,1.71,0,0,1-.43-.15l0,0a1.48,1.48,0,0,1-.19-.6,10.63,10.63,0,0,1-.12-1.77v-.12q.15-29,.13-57.94,0-25.21,0-50.42v-.06c0-.81,0-1.72,0-2.71a14.67,14.67,0,0,0-.22-2.73,14.44,14.44,0,0,0-1.27-3.89,10.46,10.46,0,0,0-3.93-4.3,11.47,11.47,0,0,0-5.86-1.53h-.17a12.57,12.57,0,0,0-4.12.66,10,10,0,0,0-4.71,3.43,13.26,13.26,0,0,0-2.34,5.54,14.31,14.31,0,0,0-.23,2.77c0,1,.06,1.91.06,2.73v0q0,36.25,0,72.52,0,23.55,0,47.11a57.53,57.53,0,0,0,3.58,20.58,44.5,44.5,0,0,0,17.57,21.89c8,5.15,17.92,7.93,29.16,7.93l105.53,0,105.53,0a57.09,57.09,0,0,0,20.54-3.59A44.36,44.36,0,0,0,403.92,490c5.15-8,7.93-18,7.93-29.21q0-23.61,0-47.23V341.11c0-.8.05-1.7.05-2.68A13.79,13.79,0,0,0,411.67,335.64ZM221.22,488.46l-72.42,0A26.54,26.54,0,0,1,133.63,484a21,21,0,0,1-7.3-8.69H385.67a21.23,21.23,0,0,1-7.16,8.6,25.61,25.61,0,0,1-14.72,4.52q-12.27,0-24.55,0l-35.25,0Z"/><path class="cls-1" d="M100.15,174.3a11.62,11.62,0,0,0,.23,2.58,12,12,0,0,0,2.57,5.28,11.56,11.56,0,0,0,5,3.3,11.1,11.1,0,0,0,3.76.67,10.27,10.27,0,0,0,4-.82,12.57,12.57,0,0,0,3.45-2.2,10.37,10.37,0,0,0,3.28-5.4,22.49,22.49,0,0,0,.53-5.57V172q0-35-.05-70.06,0-26.48.05-52.95a25.34,25.34,0,0,1,7.16-18.23,25.76,25.76,0,0,1,18.29-7.2q5,0,10.06,0l16.44,0c2.19,0,3.8,0,4.81.12a3.34,3.34,0,0,1,1.21.28L181,24a2,2,0,0,1,.16.48,11.27,11.27,0,0,1,.22,2c0,.9.07,2,.09,3.4A30.57,30.57,0,0,0,189.92,51a29,29,0,0,0,20.81,8.65q23.06.12,46.11.14,22.38,0,44.77-.19h0a27.16,27.16,0,0,0,12.73-3,28.86,28.86,0,0,0,12.22-13,39.66,39.66,0,0,0,4-17.45,12.86,12.86,0,0,1,.11-1.93,2.71,2.71,0,0,1,.15-.54v0a1.29,1.29,0,0,1,.34-.11,6.6,6.6,0,0,1,1.24-.1h.49c4,.15,8.08.19,12.1.19,5.4,0,10.78-.08,16.13-.08h.63a34.71,34.71,0,0,1,11.75,1.89A22,22,0,0,1,385,34.6c2.64,4.24,4.11,9.74,4.12,16.45v86.87q0,16.38,0,32.76c0,.86,0,1.79,0,2.78a18,18,0,0,0,.25,3.28,11.41,11.41,0,0,0,4,6.83,11.35,11.35,0,0,0,16.24-2.14,11.57,11.57,0,0,0,1.92-4.6,23.87,23.87,0,0,0,.37-4.66h0v-.07h0q0-26.92,0-53.84V94.4q0-21.81,0-43.62c0-14.78-5-27.34-13.89-36.15S376.49.84,361.65.84H255.29q-31.92,0-63.85,0-21.83,0-43.68.09A47.75,47.75,0,0,0,114,14.66a47.35,47.35,0,0,0-13.83,33.62q-.12,25.65-.1,51.3,0,36.72,0,73.42C100.16,173.39,100.15,173.82,100.15,174.3Zm207.55-148a19.34,19.34,0,0,1-.94,3.78,10.92,10.92,0,0,1-3.23,4.82,8.8,8.8,0,0,1-2.73,1.49,12.34,12.34,0,0,1-3.93.58H214.09a10,10,0,0,1-5-1.11,7,7,0,0,1-2.27-2,13.27,13.27,0,0,1-2.08-5.2,33.22,33.22,0,0,1-.57-5.1c8.58,0,37.24.08,51.77.08,14.2,0,43.42-.06,52-.08A24.18,24.18,0,0,1,307.7,26.28Z"/><path class="cls-1" d="M375.71,199.5a20.45,20.45,0,0,0-5.42.69,11.46,11.46,0,0,0-6,3.81,10.84,10.84,0,0,0-2.22,6.68h0v0h0a1.56,1.56,0,0,0,0,.2,11.37,11.37,0,0,0,1,4.71,10.25,10.25,0,0,0,4.82,5,16.86,16.86,0,0,0,7.64,1.64c3.91,0,7.82,0,11.74,0h35.34c3.86,0,7.72,0,11.58,0a22,22,0,0,0,6-.72,10.82,10.82,0,0,0,3.58-1.73,9.73,9.73,0,0,0,3.36-4.79,21.15,21.15,0,0,0,.91-6.67c0-2.7,0-5.39,0-8.09V190c0-6.67,0-13.34.07-20v0h0v-.09c0-.4,0-.79,0-1.15,0-.18,0-.35,0-.5.86,0,1.69-.06,2.47-.06a9.48,9.48,0,0,1,3.49.5,4,4,0,0,1,1.2.75,5.15,5.15,0,0,1,1.07,1.42h0a26.86,26.86,0,0,0,10.54,11.32,29.08,29.08,0,0,0,14.74,4,28.54,28.54,0,0,0,6.29-.7,30.74,30.74,0,0,0,16-9.33,28.44,28.44,0,0,0,7.26-16.61c.08-.89.11-1.77.11-2.65a29.29,29.29,0,0,0-18.55-27.47,31.4,31.4,0,0,0-11.59-2.25,27.86,27.86,0,0,0-12.64,2.94,23.92,23.92,0,0,0-9.67,9,15.65,15.65,0,0,1-3.4,4.12,9.47,9.47,0,0,1-3.57,1.85c-.07,0-.43.08-.89.13-1.42.14-3.86.19-6.17.19s-4.58,0-5.7,0h-.29a21.07,21.07,0,0,0-5.8.75,11,11,0,0,0-3.49,1.72,9.73,9.73,0,0,0-3.31,4.68,19.78,19.78,0,0,0-.93,6.47c0,6.76-.06,13.53-.06,20.3,0,6,0,12.06.14,18.09v.3a6.6,6.6,0,0,1-.13,1.49.53.53,0,0,1-.09.24,1,1,0,0,1-.37.12,7.26,7.26,0,0,1-1.39.11h-.23c-7.55-.11-15.1-.14-22.64-.14C392.21,199.45,384,199.49,375.71,199.5ZM481.77,150h0a6.71,6.71,0,0,1,6.6,6.6h0v.06a6.73,6.73,0,0,1-6.5,6.66h-.16a6.7,6.7,0,0,1-6.65-6.4h0a1.77,1.77,0,0,1,0-.24,6.71,6.71,0,0,1,6.68-6.67Z"/><path class="cls-1" d="M136.6,312.53a14.93,14.93,0,0,0,9.57-2.95,10,10,0,0,0,2.83-3.67,11.44,11.44,0,0,0,1-4.69,2.81,2.81,0,0,0,0-.29,11.38,11.38,0,0,0-1-4.61,10.36,10.36,0,0,0-4.74-4.89,16.24,16.24,0,0,0-7.41-1.62q-6,0-12,0H89.1l-11.53,0a20.42,20.42,0,0,0-5.81.74,10.66,10.66,0,0,0-3.49,1.73A9.63,9.63,0,0,0,65,297a19.84,19.84,0,0,0-.93,6.48q0,5.38,0,10.77v8.53q0,9.79-.06,19.59h0v.11c0,.23,0,.45,0,.66a7.1,7.1,0,0,1,0,.88l-.59.07c-.51,0-1.11.06-1.72.06s-1.52,0-2.14-.06a5.64,5.64,0,0,1-1.11-.17,3.08,3.08,0,0,1-1.32-.74,6.6,6.6,0,0,1-1.43-2.09,25.86,25.86,0,0,0-10.53-11.24,29.55,29.55,0,0,0-14.74-4,27.87,27.87,0,0,0-5.89.63,30.62,30.62,0,0,0-16.1,9.18A28.43,28.43,0,0,0,.9,352.18,29.76,29.76,0,0,0,19,382.51a32.1,32.1,0,0,0,12.12,2.41,27.26,27.26,0,0,0,12.2-2.76,22.11,22.11,0,0,0,9.28-8.61,17.27,17.27,0,0,1,2.79-3.67,10.49,10.49,0,0,1,4.37-2.65,18.46,18.46,0,0,1,5.37-.66c1.16,0,2.39.06,3.7.13.67,0,1.32.05,2,.05.94,0,1.85,0,2.72,0a19.79,19.79,0,0,0,5.61-.79,10.76,10.76,0,0,0,3.41-1.73,9.91,9.91,0,0,0,3.27-4.57,18.73,18.73,0,0,0,1-6.27c0-6.74.06-13.49.06-20.24,0-6.24,0-12.47-.14-18.71v0h0v-.25a6.32,6.32,0,0,1,.11-1.38l0-.13a1.27,1.27,0,0,1,.37-.1,8.64,8.64,0,0,1,1.2-.07h.22c7.81.1,15.62.13,23.43.13Q124.34,312.58,136.6,312.53ZM30.44,362h-.22a6.73,6.73,0,0,1-6.63-6.67v-.1h0a6.66,6.66,0,0,1,13.32,0v.1A6.75,6.75,0,0,1,30.44,362Z"/><path class="cls-1" d="M508.46,342.61a31.62,31.62,0,0,0-8.11-10,28.44,28.44,0,0,0-18.38-6.8c-10.45,0-20.7,5.85-26.24,16.41h0a2.26,2.26,0,0,1-.61.74,4.3,4.3,0,0,1-1.72.67,13.94,13.94,0,0,1-2.71.21c-.78,0-1.58,0-2.38,0a7,7,0,0,1-.13-.95c-.06-.66-.06-1.37-.07-2-.12-6.2-.14-12.42-.14-18.64q0-6.25,0-12.51,0-3.3,0-6.58a19.17,19.17,0,0,0-.74-5.66,10.75,10.75,0,0,0-1.7-3.42,9.87,9.87,0,0,0-4.56-3.3,18.36,18.36,0,0,0-6.25-1c-4,0-7.95,0-11.92,0H387.17l-11.67,0a19.19,19.19,0,0,0-5.36.73,11.38,11.38,0,0,0-5.94,3.87,10.85,10.85,0,0,0-2.15,6.73v.15h0a11.53,11.53,0,0,0,1,4.72,10.18,10.18,0,0,0,4.9,4.94,17.44,17.44,0,0,0,7.73,1.59q12.29,0,24.58.05c7.6,0,15.2,0,22.81-.13h.23a7.15,7.15,0,0,1,1.54.13.38.38,0,0,1,.38.46,6.73,6.73,0,0,1,.11,1.34,2.53,2.53,0,0,1,0,.28q-.17,9.66-.15,19.31,0,10.11.09,20.21a16.32,16.32,0,0,0,.78,5.12,10.71,10.71,0,0,0,1.68,3.17,10.16,10.16,0,0,0,4.22,3.16,15.67,15.67,0,0,0,5.63,1.07c2.49.06,5,.13,7.55.13,2.05,0,4.12-.05,6.19-.19h0l.71,0a5.48,5.48,0,0,1,1.43.16,3,3,0,0,1,1.37.78,9,9,0,0,1,1.55,2.14A29.5,29.5,0,0,0,467,380.92a28.44,28.44,0,0,0,14.69,3.79c1.06,0,2.14,0,3.23-.14a28.15,28.15,0,0,0,15.85-6.68A29.21,29.21,0,0,0,510,363.34a33.14,33.14,0,0,0,1.23-8.75A26.54,26.54,0,0,0,508.46,342.61ZM481.85,362h-.13a6.71,6.71,0,0,1-6.63-6.66v-.2a6.73,6.73,0,0,1,6.65-6.47h.1a6.65,6.65,0,0,1,4.63,2,6.54,6.54,0,0,1,0,9.3A6.65,6.65,0,0,1,481.85,362Z"/><path class="cls-1" d="M17.48,183.19a29.78,29.78,0,0,0,12.89,3A28.5,28.5,0,0,0,45.2,182a29.59,29.59,0,0,0,10.9-11.89l0,0h0a3.36,3.36,0,0,1,.73-1,3.61,3.61,0,0,1,1.56-.81,9.15,9.15,0,0,1,2.34-.26,28.39,28.39,0,0,1,3,.21,5.07,5.07,0,0,1,.09.56,16.6,16.6,0,0,1,.07,1.8v1.32c.1,5.6.13,11.21.13,16.83s0,11.46,0,17.2v.32h0a36,36,0,0,0,.6,7.37,11.69,11.69,0,0,0,1.7,4.18,8.54,8.54,0,0,0,2.35,2.29,12.34,12.34,0,0,0,4.81,1.74,37.59,37.59,0,0,0,6.26.42h44.4q6,0,12,0a20.5,20.5,0,0,0,5.43-.67,11.53,11.53,0,0,0,6.06-3.71,10.76,10.76,0,0,0,2.33-6.63h0c0-.14,0-.29,0-.44a11.19,11.19,0,0,0-1-4.74,10.37,10.37,0,0,0-5-4.94,18,18,0,0,0-7.85-1.59c-8.2,0-16.41-.05-24.63-.05-7.39,0-14.79,0-22.2.14H89a8.84,8.84,0,0,1-1.66-.12,1.83,1.83,0,0,1-.39-.13h0s-.06-.07-.13-.35a6,6,0,0,1-.12-1.43v-.36h0c.14-5.72.18-11.44.18-17.15,0-6.9-.06-13.8-.08-20.68a23,23,0,0,0-.7-6.15,10.74,10.74,0,0,0-1.75-3.65,9,9,0,0,0-2.17-2.05,11.89,11.89,0,0,0-4.29-1.71,25.86,25.86,0,0,0-5.36-.48h-.41c-2.77,0-5.5.09-8.16.09q-1.34,0-2.64,0a16.72,16.72,0,0,1-2.17-.18,4,4,0,0,1-1.88-.74,6.25,6.25,0,0,1-1.66-2.21,27.36,27.36,0,0,0-10.67-11.07,29.27,29.27,0,0,0-14.61-4,26.74,26.74,0,0,0-5.35.53,30.94,30.94,0,0,0-16.23,8.92A28.71,28.71,0,0,0,1,153a29.58,29.58,0,0,0,16.52,30.16Zm19.43-26.3a6.73,6.73,0,0,1-6.65,6.46h-.11A6.67,6.67,0,0,1,30.27,150h.3a6.72,6.72,0,0,1,6.35,6.65Z"/><path class="cls-1" d="M114.34,267.41q7.11,0,14.23-.05a13.13,13.13,0,0,0,8.86-3.14,10.86,10.86,0,0,0,3.5-8.19h0v0h0a11.57,11.57,0,0,0-1-4.65,10.33,10.33,0,0,0-4.67-5,15.67,15.67,0,0,0-7.39-1.67q-15.9,0-31.79,0-17.92,0-35.84.08H60.2a8.78,8.78,0,0,1-1.62-.12,2.68,2.68,0,0,1-1.33-.56,5.42,5.42,0,0,1-1.3-1.78A28.46,28.46,0,0,0,30.59,226.6a28.77,28.77,0,0,0-7.15.9A30.3,30.3,0,0,0,7.11,237.81a28.77,28.77,0,0,0-6.29,17.9h0v0h0v.19A29.15,29.15,0,0,0,23,284.42a30.16,30.16,0,0,0,7.54,1,28.5,28.5,0,0,0,14.77-4.08A28.84,28.84,0,0,0,56,269.71a6.86,6.86,0,0,1,.9-1.37,2.44,2.44,0,0,1,1.14-.77,7,7,0,0,1,2.1-.23h.23c5.13.06,10.25.07,15.37.07l18.47,0h.23Zm-83.88-4.73h-.21a6.72,6.72,0,0,1-6.65-6.36h0a2.62,2.62,0,0,1,0-.29,6.73,6.73,0,0,1,6.68-6.66h0a6.59,6.59,0,0,1,4.63,1.93,6.66,6.66,0,0,1,2,4.63v.1a6.73,6.73,0,0,1-6.45,6.66Z"/><path class="cls-1" d="M418.18,244.64h-.32c-6.8,0-13.6,0-20.41,0q-7.11,0-14.24.08a12.91,12.91,0,0,0-8.69,3.24,10.6,10.6,0,0,0-3.48,7.83,11.53,11.53,0,0,0,1,4.7,11.86,11.86,0,0,0,2.18,3.37,10.73,10.73,0,0,0,4.65,2.88,17.91,17.91,0,0,0,5.33.71h.08c22.53-.06,45.07,0,67.62-.08H452a8.8,8.8,0,0,1,1.51.1,2.43,2.43,0,0,1,1.2.48,4.68,4.68,0,0,1,1.16,1.57,29.56,29.56,0,0,0,10.79,11.75,28.24,28.24,0,0,0,14.85,4.14,31.16,31.16,0,0,0,7.83-1A29.24,29.24,0,0,0,511.19,256v-.22A29.09,29.09,0,0,0,505,237.94a29.63,29.63,0,0,0-16.17-10.39,30.24,30.24,0,0,0-7.37-.92,28.21,28.21,0,0,0-14.79,4.15,29.46,29.46,0,0,0-10.76,11.72,6.53,6.53,0,0,1-.82,1.26,2.19,2.19,0,0,1-1,.71,5.84,5.84,0,0,1-1.89.23H452q-7.72-.09-15.43-.08Zm63.67,18h-.13a6.59,6.59,0,0,1-4.59-1.89,6.69,6.69,0,0,1-2-4.56V256a6.76,6.76,0,0,1,6.35-6.66h.32a6.63,6.63,0,0,1,4.72,11.32A6.61,6.61,0,0,1,481.85,262.67Z"/><path class="cls-2" d="M256.42,154.16h-.08a102.38,102.38,0,0,0-72.21,29.75,100.68,100.68,0,0,0-30,71.64v.13h0A101.86,101.86,0,0,0,256.24,357.84h.09a101,101,0,0,0,71.72-29.91,102.24,102.24,0,0,0,29.82-72.16v-.13C357.85,200,312.1,154.17,256.42,154.16Zm-.16,181.1h-.1a79.5,79.5,0,0,1-56-23.14,78.28,78.28,0,0,1-23.37-55.54v0h0v-.15a79.32,79.32,0,0,1,79.77-79.63h.18a78.07,78.07,0,0,1,55.46,23.42,79.75,79.75,0,0,1,23.08,56.1v0a79.33,79.33,0,0,1-79,78.92Z"/><path class="cls-2" d="M288.54,250.71c-3.77-3.82-9.15-5.94-15.36-6l-8.27,0-13.23,0h-.05c-2.95,0-5.29,0-7-.12a13.55,13.55,0,0,1-3-.43,2.59,2.59,0,0,1-1-.45,1.31,1.31,0,0,1-.33-.37,3.82,3.82,0,0,1-.43-1.32,17.16,17.16,0,0,1-.17-2.7c0-1.83.15-4.25.34-7.32a4.11,4.11,0,0,1,.12-.9,5.86,5.86,0,0,1,.78,0h.13c4.66,0,9.3.06,13.95.06l15.12,0h1.25l.63,0h0a3.05,3.05,0,0,1,.29.52,16.69,16.69,0,0,0,4.37,6.23,9.68,9.68,0,0,0,2.91,1.72,9,9,0,0,0,3.26.59,11.57,11.57,0,0,0,4.64-1,11.35,11.35,0,0,0,5.12-4.24,11.67,11.67,0,0,0,1.77-6.38,18.21,18.21,0,0,0-.93-5.53,22.08,22.08,0,0,0-3.1-6.35,17.65,17.65,0,0,0-8-6.17,31.36,31.36,0,0,0-11.73-1.92h-1.11a11.29,11.29,0,0,1-1.64-.09,1.55,1.55,0,0,1-.48-.13l0,0h0l0,0a1.53,1.53,0,0,1-.14-.46,6.2,6.2,0,0,1-.09-1.14c0-.13,0-.27,0-.41h0c0-.47,0-.92,0-1.37a25.5,25.5,0,0,0-.63-6,13.43,13.43,0,0,0-1.4-3.59,9.34,9.34,0,0,0-3.83-3.7,11.35,11.35,0,0,0-5.25-1.18H256a11.61,11.61,0,0,0-4.85,1,9,9,0,0,0-2.93,2.12,12.12,12.12,0,0,0-2.64,5.06,26.4,26.4,0,0,0-.78,6.89c0,.24,0,.48,0,.72h0v.34a9.29,9.29,0,0,1-.1,1.49,2.26,2.26,0,0,1-.15.53l0,.07h0l-.12,0a2.3,2.3,0,0,1-.47,0,5.83,5.83,0,0,1-1-.1h0a11.66,11.66,0,0,0-1.9-.14c-.93,0-1.76.07-2.47.08a20.33,20.33,0,0,0-21,21.17c0,3-.06,6-.06,9,0,2.69,0,5.37.07,8.06a21.06,21.06,0,0,0,5.9,14.59,20.84,20.84,0,0,0,14.49,6c2,0,4.05.06,6.06.06,3.24,0,6.47,0,9.68,0h6.39c3.07,0,5.47,0,7.26.13a12.61,12.61,0,0,1,3,.46,2.54,2.54,0,0,1,.91.47,1.6,1.6,0,0,1,.34.44,4.89,4.89,0,0,1,.44,1.57,20.94,20.94,0,0,1,.17,3.06c0,1.67-.09,3.77-.2,6.33a4.75,4.75,0,0,1-.14,1.14h0a5.61,5.61,0,0,1-1,.07h-.18q-7.23-.11-14.46-.1-7.5,0-15,.1h-.11a4.24,4.24,0,0,1-.83-.07.4.4,0,0,1-.17-.07s-.07,0-.19-.2a5.15,5.15,0,0,1-.48-1,12.94,12.94,0,0,0-4.21-5.73,10.29,10.29,0,0,0-6.23-2.08,11.61,11.61,0,0,0-9.38,4.9,12.34,12.34,0,0,0-2.06,7.07,16.09,16.09,0,0,0,.18,2.38,20.28,20.28,0,0,0,6.53,12,20.65,20.65,0,0,0,12.67,5.31h.74c1,0,1.95-.09,2.84-.17s1.72-.15,2.4-.15a5.29,5.29,0,0,1,1.17.1,1.51,1.51,0,0,1,.56.21.65.65,0,0,1,.28.37,3.09,3.09,0,0,1,.14,1.07c0,.59-.08,1.34-.17,2.16a22.1,22.1,0,0,0-.21,2.7,9.69,9.69,0,0,0,.06,1.06,12.43,12.43,0,0,0,3.64,7.73,10.65,10.65,0,0,0,7.45,3,11.41,11.41,0,0,0,4.58-1,11.23,11.23,0,0,0,5.46-4.72,12.8,12.8,0,0,0,1.53-6.41,20.1,20.1,0,0,0-.15-2.44,14,14,0,0,1-.1-1.6,5.12,5.12,0,0,1,.14-1.34,1.63,1.63,0,0,1,.18-.47.58.58,0,0,1,.27-.24,2.49,2.49,0,0,1,1-.16,9.23,9.23,0,0,1,1.72.2,7,7,0,0,0,1.51.14c.74,0,1.35-.06,1.82-.07a20.38,20.38,0,0,0,20.67-20.9q.06-3.9.06-7.78,0-4.35,0-8.68C294.41,259.93,292.32,254.52,288.54,250.71Z"/></svg>