<svg width="144" height="23" viewBox="0 0 144 23" fill="none" xmlns="http://www.w3.org/2000/svg">
<path fill-rule="evenodd" clip-rule="evenodd" d="M0.308993 22.402C0.261468 21.5127 0.301072 20.6233 0.427805 19.734C0.554537 18.8447 0.752557 17.9707 1.02186 17.112C1.30701 16.2533 1.67137 15.433 2.11493 14.651C2.54266 13.8537 3.04167 13.1023 3.61196 12.397C4.05553 11.8297 4.53078 11.293 5.03771 10.787C5.54464 10.281 6.07533 9.79799 6.62979 9.33799C7.18424 8.89332 7.76246 8.47166 8.36444 8.07299C8.98226 7.68966 9.61592 7.33699 10.2654 7.01499C10.6219 6.83099 10.6932 6.71599 10.4555 6.34799C9.40998 4.85299 8.41196 3.31199 7.39018 1.79399C7.31097 1.71732 7.25553 1.63299 7.22384 1.54099C7.17632 1.44899 7.15256 1.34932 7.15256 1.24199C7.15256 1.13466 7.17632 1.03499 7.22384 0.94299C7.25553 0.85099 7.31097 0.766657 7.39018 0.68999C7.77038 0.29899 8.31691 0.41399 8.69711 0.96599C9.67929 2.40732 10.6535 3.84866 11.6199 5.28999C12.1664 6.11799 12.1427 6.09499 13.0932 5.79599C14.4238 5.33599 15.7545 4.99099 17.1328 4.78399C18.511 4.55399 19.913 4.43899 21.3149 4.46199C22.6931 4.48499 24.0951 4.59999 25.4733 4.85299C26.8278 5.10599 28.1823 5.47399 29.4892 5.95699C29.8219 6.09499 29.9882 6.07199 30.2258 5.74999C31.2714 4.13999 32.3407 2.57599 33.3862 1.01199C33.7664 0.45999 34.1466 0.29899 34.6219 0.59799C35.0733 0.89699 35.0971 1.31099 34.7407 1.83999C33.7189 3.35799 32.6971 4.87599 31.6753 6.39399C31.4377 6.71599 31.509 6.80799 31.8417 6.99199C32.7922 7.45199 33.6951 7.98099 34.5506 8.57899C35.406 9.19232 36.1981 9.86699 36.9268 10.603C37.6714 11.339 38.3446 12.1287 38.9466 12.972C39.5328 13.8153 40.0476 14.7047 40.4912 15.64C40.7446 16.1767 40.9664 16.7287 41.1565 17.296C41.3466 17.8787 41.4971 18.4613 41.608 19.044C41.7189 19.6267 41.7902 20.217 41.8219 20.815C41.8694 21.413 41.8694 22.011 41.8219 22.609C41.7585 22.6703 41.6951 22.7163 41.6318 22.747C41.5684 22.7777 41.4971 22.8007 41.4179 22.816C41.3387 22.8467 41.2674 22.862 41.204 22.862C41.1248 22.862 41.0456 22.862 40.9664 22.862H1.35454C0.926815 22.862 0.522854 22.885 0.308993 22.402ZM32.5545 14.191C32.5545 13.685 32.3407 13.202 31.9842 12.857C31.6278 12.512 31.1288 12.305 30.6298 12.305C30.107 12.305 29.608 12.512 29.2516 12.857C28.8951 13.202 28.6813 13.685 28.6813 14.191C28.6813 14.674 28.8951 15.157 29.2516 15.502C29.608 15.847 30.107 16.054 30.6298 16.054C31.1288 16.054 31.6278 15.847 31.9842 15.502C32.3407 15.157 32.5545 14.674 32.5545 14.191ZM9.55256 14.191C9.55256 14.927 10.004 15.617 10.7169 15.916C11.4298 16.215 12.2615 16.077 12.8318 15.548C13.3783 15.019 13.5684 14.214 13.2833 13.524C12.9981 12.811 12.309 12.351 11.5248 12.328C11.2634 12.328 11.0258 12.374 10.7882 12.466C10.5506 12.535 10.3367 12.673 10.1466 12.834C9.95652 13.018 9.81394 13.225 9.71889 13.432C9.62385 13.662 9.55256 13.915 9.55256 14.145V14.191Z" fill="#BABEC2"/>
<path fill-rule="evenodd" clip-rule="evenodd" d="M68.1504 22.54L66.8435 18.515H60.0712L58.788 22.54H56.2217L61.9484 5.42798H64.9662L70.7167 22.54H68.1504ZM60.594 16.744H66.2494L63.4217 8.07298L60.594 16.744Z" fill="#BABEC2"/>
<path d="M78.9147 9.93602C79.1999 9.90536 79.4929 9.90536 79.7939 9.93602C80.0791 9.98202 80.3642 10.0434 80.6494 10.12C80.9345 10.212 81.2118 10.327 81.4811 10.465C81.7345 10.603 81.9722 10.764 82.1939 10.948C82.3999 11.132 82.5741 11.339 82.7167 11.569C82.8751 11.7837 83.0019 12.0214 83.0969 12.282C83.192 12.5274 83.2632 12.7804 83.3108 13.041C83.3425 13.3017 83.3504 13.57 83.3345 13.846V22.54H81.0533V13.846C81.0692 13.6774 81.0613 13.5164 81.0296 13.363C80.9979 13.225 80.9504 13.0794 80.887 12.926C80.8236 12.788 80.7444 12.6577 80.6494 12.535C80.5543 12.4124 80.4434 12.2974 80.3167 12.19C80.1741 12.098 80.0316 12.0137 79.889 11.937C79.7306 11.845 79.5642 11.776 79.39 11.73C79.2316 11.684 79.0652 11.6457 78.891 11.615C78.7167 11.5997 78.5424 11.592 78.3682 11.592C78.1939 11.592 78.0197 11.5997 77.8454 11.615C77.6712 11.6457 77.4969 11.684 77.3226 11.73C77.1642 11.776 77.0058 11.845 76.8474 11.937C76.7048 12.0137 76.5623 12.098 76.4197 12.19C76.2929 12.2974 76.1821 12.4124 76.087 12.535C75.992 12.6577 75.9127 12.788 75.8494 12.926C75.786 13.0794 75.7385 13.225 75.7068 13.363C75.6751 13.5164 75.6672 13.6774 75.683 13.846V22.54H73.2593V10.028H75.6593V11.316C75.8494 11.086 76.0712 10.879 76.3246 10.695C76.5623 10.511 76.8236 10.3577 77.1088 10.235C77.3939 10.1124 77.687 10.028 77.988 9.98203C78.289 9.93603 78.5979 9.92069 78.9147 9.93602Z" fill="#BABEC2"/>
<path fill-rule="evenodd" clip-rule="evenodd" d="M95.1208 5.42798H97.5208V22.54H95.1208V21.137C94.9307 21.3976 94.7089 21.6353 94.4555 21.85C94.1862 22.0646 93.901 22.241 93.6 22.379C93.299 22.517 92.9901 22.6166 92.6733 22.678C92.3406 22.7393 92.0079 22.7623 91.6753 22.747C91.3743 22.7623 91.0812 22.7546 90.796 22.724C90.4951 22.678 90.2099 22.6166 89.9406 22.54C89.6555 22.448 89.3861 22.333 89.1327 22.195C88.8792 22.057 88.6416 21.896 88.4198 21.712C88.2139 21.5126 88.0396 21.3056 87.897 21.091C87.7386 20.861 87.6119 20.6233 87.5168 20.378C87.4218 20.1326 87.3505 19.8796 87.303 19.619C87.2554 19.3583 87.2396 19.09 87.2555 18.814V13.846C87.2396 13.57 87.2554 13.3016 87.303 13.041C87.3505 12.7803 87.4218 12.5273 87.5168 12.282C87.6119 12.0213 87.7386 11.7836 87.897 11.569C88.0554 11.339 88.2297 11.132 88.4198 10.948C88.6416 10.764 88.8792 10.603 89.1327 10.465C89.3861 10.327 89.6475 10.212 89.9168 10.12C90.202 10.028 90.4871 9.96664 90.7723 9.93598C91.0574 9.88998 91.3426 9.87464 91.6277 9.88998C91.9762 9.87464 92.3168 9.89764 92.6495 9.95898C92.9822 10.0203 93.299 10.12 93.6 10.258C93.901 10.396 94.1782 10.5723 94.4317 10.787C94.701 11.0016 94.9307 11.2393 95.1208 11.5V5.42798ZM94.9307 18.837V13.846C94.9465 13.6926 94.9386 13.5393 94.9069 13.386C94.8753 13.2326 94.8277 13.0793 94.7644 12.926C94.701 12.788 94.6218 12.65 94.5267 12.512C94.4317 12.3893 94.3208 12.2743 94.1941 12.167C94.0515 12.075 93.901 11.983 93.7426 11.891C93.5842 11.8143 93.4258 11.753 93.2673 11.707C93.0931 11.661 92.9188 11.6303 92.7446 11.615C92.5703 11.5843 92.3961 11.5766 92.2218 11.592C92.0475 11.5766 91.8733 11.5843 91.699 11.615C91.5248 11.6303 91.3584 11.6686 91.2 11.73C91.0416 11.776 90.8832 11.8373 90.7248 11.914C90.5663 11.9906 90.4238 12.0826 90.297 12.19C90.1703 12.282 90.0594 12.397 89.9644 12.535C89.8693 12.6576 89.7822 12.788 89.703 12.926C89.6396 13.0793 89.6 13.2326 89.5842 13.386C89.5525 13.5393 89.5366 13.6926 89.5366 13.846V18.837C89.5366 18.9903 89.5525 19.1436 89.5842 19.297C89.6158 19.4503 89.6634 19.596 89.7267 19.734C89.7901 19.872 89.8693 20.0023 89.9644 20.125C90.0594 20.263 90.1703 20.378 90.297 20.47C90.4238 20.5773 90.5663 20.6693 90.7248 20.746C90.8832 20.838 91.0416 20.907 91.2 20.953C91.3743 20.999 91.5485 21.0373 91.7228 21.068C91.897 21.0833 92.0713 21.091 92.2456 21.091C92.4198 21.091 92.5941 21.0833 92.7683 21.068C92.9426 21.0373 93.1089 20.999 93.2673 20.953C93.4258 20.8916 93.5842 20.8226 93.7426 20.746C93.901 20.6693 94.0436 20.5773 94.1703 20.47C94.297 20.378 94.4079 20.2706 94.503 20.148C94.598 20.0253 94.6772 19.8873 94.7406 19.734C94.8198 19.596 94.8673 19.4503 94.8832 19.297C94.9149 19.1436 94.9307 18.9903 94.9307 18.837Z" fill="#BABEC2"/>
<path d="M107.406 10.074C107.533 10.074 107.667 10.0817 107.81 10.097C107.953 10.1123 108.087 10.1353 108.214 10.166C108.357 10.1967 108.491 10.235 108.618 10.281C108.745 10.3423 108.864 10.4037 108.974 10.465L108.547 12.627C108.42 12.5657 108.293 12.5197 108.166 12.489C108.024 12.443 107.889 12.4123 107.763 12.397C107.62 12.3663 107.477 12.351 107.335 12.351C107.192 12.351 107.05 12.3663 106.907 12.397C106.733 12.397 106.559 12.42 106.384 12.466C106.21 12.512 106.036 12.5733 105.862 12.65C105.703 12.7267 105.553 12.8187 105.41 12.926C105.252 13.018 105.117 13.133 105.006 13.271C104.864 13.409 104.745 13.5547 104.65 13.708C104.539 13.8767 104.444 14.0453 104.365 14.214C104.301 14.398 104.246 14.582 104.198 14.766C104.166 14.95 104.151 15.134 104.151 15.318V22.54H101.774V10.028H104.151V12.604C104.911 10.9327 105.996 10.0893 107.406 10.074Z" fill="#BABEC2"/>
<path fill-rule="evenodd" clip-rule="evenodd" d="M120.238 21.551C119.691 21.942 119.073 22.241 118.432 22.448C117.79 22.655 117.125 22.747 116.459 22.747C115.77 22.747 115.105 22.655 114.463 22.448C113.822 22.241 113.228 21.942 112.681 21.551C112.443 21.367 112.23 21.16 112.04 20.93C111.849 20.7153 111.691 20.4776 111.564 20.217C111.438 19.941 111.342 19.665 111.279 19.389C111.216 19.0976 111.184 18.8063 111.184 18.515V14.099C111.184 13.8076 111.216 13.524 111.279 13.248C111.342 12.972 111.438 12.7036 111.564 12.443C111.691 12.1823 111.849 11.9446 112.04 11.73C112.23 11.5 112.443 11.3006 112.681 11.132C113.204 10.741 113.798 10.442 114.44 10.258C115.081 10.051 115.723 9.93597 116.388 9.93597C117.077 9.93597 117.719 10.051 118.36 10.258C119.002 10.442 119.596 10.741 120.119 11.132C120.356 11.3006 120.57 11.5 120.76 11.73C120.95 11.96 121.109 12.1976 121.236 12.443C121.362 12.7036 121.457 12.9796 121.521 13.271C121.584 13.547 121.616 13.8306 121.616 14.122V18.515C121.616 18.8063 121.592 19.09 121.544 19.366C121.481 19.6573 121.394 19.9333 121.283 20.194C121.156 20.4546 121.006 20.7 120.832 20.93C120.657 21.16 120.459 21.367 120.238 21.551ZM114.273 20.194C114.416 20.3166 114.574 20.424 114.748 20.516C114.923 20.608 115.105 20.6846 115.295 20.746C115.485 20.8073 115.675 20.8533 115.865 20.884C116.055 20.9146 116.253 20.9223 116.459 20.907C116.649 20.9223 116.847 20.9146 117.053 20.884C117.243 20.8533 117.434 20.8073 117.624 20.746C117.798 20.6846 117.972 20.608 118.146 20.516C118.321 20.424 118.479 20.3166 118.622 20.194C118.748 20.0713 118.867 19.941 118.978 19.803C119.073 19.6803 119.16 19.5346 119.24 19.366C119.303 19.2126 119.35 19.0516 119.382 18.883C119.414 18.7296 119.43 18.561 119.43 18.377V14.237C119.43 14.0683 119.414 13.9073 119.382 13.754C119.335 13.5853 119.279 13.4243 119.216 13.271C119.137 13.1176 119.049 12.9796 118.954 12.857C118.843 12.719 118.725 12.5963 118.598 12.489C118.455 12.3663 118.297 12.259 118.123 12.167C117.964 12.075 117.79 11.9983 117.6 11.937C117.426 11.8756 117.243 11.8296 117.053 11.799C116.863 11.7683 116.673 11.7606 116.483 11.776C116.293 11.7606 116.103 11.7683 115.913 11.799C115.723 11.8296 115.533 11.8756 115.342 11.937C115.168 11.9983 114.994 12.075 114.82 12.167C114.661 12.259 114.503 12.3663 114.344 12.489C114.218 12.5963 114.099 12.719 113.988 12.857C113.877 12.9796 113.782 13.1176 113.703 13.271C113.624 13.4243 113.568 13.5776 113.537 13.731C113.489 13.8996 113.465 14.0683 113.465 14.237V18.377C113.465 18.561 113.481 18.7296 113.513 18.883C113.544 19.0516 113.6 19.2126 113.679 19.366C113.742 19.5193 113.822 19.665 113.917 19.803C114.028 19.941 114.146 20.0713 114.273 20.194Z" fill="#BABEC2"/>
<path d="M128.697 7.72797C128.618 7.80464 128.539 7.87364 128.46 7.93497C128.365 7.98097 128.269 8.02697 128.174 8.07297C128.079 8.11897 127.976 8.14964 127.865 8.16497C127.77 8.18031 127.667 8.18797 127.557 8.18797C127.335 8.18797 127.121 8.14964 126.915 8.07297C126.725 7.98097 126.551 7.86597 126.392 7.72797C126.234 7.57464 126.115 7.39831 126.036 7.19897C125.957 6.99964 125.917 6.79264 125.917 6.57797C125.917 6.48597 125.925 6.38631 125.941 6.27897C125.957 6.18697 125.988 6.08731 126.036 5.97997C126.083 5.88797 126.131 5.80364 126.178 5.72697C126.242 5.63497 126.313 5.55831 126.392 5.49697C126.471 5.42031 126.559 5.35131 126.654 5.28997C126.733 5.24397 126.82 5.19797 126.915 5.15197C127.026 5.12131 127.129 5.09831 127.224 5.08297C127.335 5.05231 127.446 5.04464 127.557 5.05997C127.652 5.05997 127.755 5.06764 127.865 5.08297C127.976 5.09831 128.079 5.12131 128.174 5.15197C128.269 5.19797 128.357 5.24397 128.436 5.28997C128.531 5.35131 128.618 5.42031 128.697 5.49697C128.776 5.55831 128.84 5.63497 128.887 5.72697C128.951 5.80364 129.006 5.88797 129.054 5.97997C129.085 6.08731 129.117 6.18697 129.149 6.27897C129.165 6.38631 129.172 6.48597 129.172 6.57797C129.172 6.68531 129.157 6.79264 129.125 6.89997C129.109 7.00731 129.085 7.10697 129.054 7.19897C129.006 7.29097 128.951 7.38297 128.887 7.47497C128.84 7.56697 128.776 7.65131 128.697 7.72797ZM126.297 22.54V10.028H128.697V22.54H126.297Z" fill="#BABEC2"/>
<path fill-rule="evenodd" clip-rule="evenodd" d="M140.911 5.42798H143.263V22.54H140.863V21.137C140.673 21.3976 140.451 21.6353 140.198 21.85C139.944 22.0646 139.667 22.241 139.366 22.379C139.065 22.517 138.748 22.6166 138.416 22.678C138.083 22.7393 137.75 22.7623 137.418 22.747C137.117 22.7623 136.824 22.7546 136.538 22.724C136.253 22.678 135.968 22.6166 135.683 22.54C135.398 22.448 135.129 22.333 134.875 22.195C134.622 22.057 134.384 21.896 134.162 21.712C133.956 21.5126 133.782 21.3056 133.639 21.091C133.497 20.861 133.37 20.6233 133.259 20.378C133.164 20.1326 133.093 19.8796 133.045 19.619C133.014 19.3583 133.006 19.09 133.022 18.814V13.846C133.006 13.57 133.022 13.3016 133.069 13.041C133.101 12.7803 133.172 12.5273 133.283 12.282C133.378 12.0213 133.497 11.7836 133.639 11.569C133.798 11.339 133.972 11.132 134.162 10.948C134.384 10.764 134.622 10.603 134.875 10.465C135.129 10.327 135.398 10.212 135.683 10.12C135.952 10.028 136.23 9.96664 136.515 9.93598C136.8 9.88998 137.093 9.87464 137.394 9.88998C137.727 9.87464 138.059 9.89764 138.392 9.95898C138.725 10.0203 139.041 10.12 139.342 10.258C139.659 10.396 139.944 10.5723 140.198 10.787C140.451 11.0016 140.673 11.2393 140.863 11.5L140.911 5.42798ZM140.744 18.837V13.846C140.744 13.6926 140.729 13.5393 140.697 13.386C140.681 13.2326 140.633 13.0793 140.554 12.926C140.491 12.788 140.412 12.65 140.317 12.512C140.222 12.3893 140.111 12.2743 139.984 12.167C139.841 12.075 139.691 11.9906 139.532 11.914C139.39 11.822 139.232 11.753 139.057 11.707C138.883 11.661 138.709 11.6303 138.534 11.615C138.36 11.5843 138.186 11.5766 138.012 11.592C137.837 11.5766 137.671 11.5843 137.513 11.615C137.338 11.6303 137.164 11.6686 136.99 11.73C136.831 11.776 136.673 11.8373 136.515 11.914C136.372 11.9906 136.23 12.0826 136.087 12.19C135.96 12.282 135.849 12.397 135.754 12.535C135.659 12.6576 135.58 12.788 135.517 12.926C135.453 13.0793 135.406 13.2326 135.374 13.386C135.342 13.5393 135.334 13.6926 135.35 13.846V18.837C135.334 18.9903 135.342 19.1436 135.374 19.297C135.406 19.4503 135.453 19.596 135.517 19.734C135.58 19.872 135.659 20.0023 135.754 20.125C135.849 20.263 135.96 20.378 136.087 20.47C136.23 20.5773 136.372 20.6693 136.515 20.746C136.673 20.838 136.839 20.907 137.014 20.953C137.172 20.999 137.338 21.0373 137.513 21.068C137.687 21.0833 137.861 21.091 138.035 21.091C138.21 21.091 138.384 21.0833 138.558 21.068C138.732 21.0373 138.899 20.999 139.057 20.953C139.232 20.8916 139.39 20.8226 139.532 20.746C139.691 20.6693 139.841 20.5773 139.984 20.47C140.095 20.378 140.206 20.2706 140.317 20.148C140.412 20.0253 140.491 19.8873 140.554 19.734C140.618 19.596 140.665 19.4503 140.697 19.297C140.729 19.1436 140.744 18.9903 140.744 18.837Z" fill="#BABEC2"/>
</svg>
