<svg width="159" height="38" viewBox="0 0 159 38" fill="none" xmlns="http://www.w3.org/2000/svg">
<path fill-rule="evenodd" clip-rule="evenodd" d="M17.2132 37.544C15.6516 37.544 14.09 37.278 12.5994 36.746C11.1442 36.252 9.72458 35.492 8.48239 34.504C7.20471 33.554 6.10449 32.338 5.18172 31.008C4.25896 29.678 3.51364 28.196 3.01677 26.6C2.78016 25.7893 2.55539 24.9787 2.34244 24.168C2.12949 23.3573 1.92838 22.534 1.73909 21.698C1.57347 20.862 1.4315 20.026 1.3132 19.19C1.17123 18.354 1.05293 17.518 0.958287 16.682C0.816323 15.58 0.709849 14.516 0.532394 13.414C0.508733 13.3127 0.508733 13.1987 0.532394 13.072C0.532394 12.9707 0.556055 12.8567 0.603376 12.73C0.650698 12.6287 0.709849 12.54 0.780831 12.464C0.875474 12.388 0.970117 12.3247 1.06476 12.274C1.39601 12.0967 1.73909 11.9193 2.094 11.742C2.44891 11.59 2.81565 11.4507 3.19422 11.324C3.54913 11.1973 3.91588 11.096 4.29445 11.02C4.67302 10.9187 5.05159 10.8427 5.43016 10.792C5.76141 10.716 6.08083 10.6527 6.38842 10.602C6.69601 10.5513 7.01543 10.5007 7.34668 10.45C7.65427 10.3993 7.96186 10.3613 8.26945 10.336C8.6007 10.2853 8.92012 10.2473 9.22771 10.222C9.61811 10.222 9.72458 9.95601 9.86654 9.69001C10.3989 8.32201 10.9313 6.95401 11.4636 5.58601C11.5819 5.30734 11.7003 5.02868 11.8186 4.75001C11.9369 4.49668 12.067 4.23067 12.209 3.95201C12.3509 3.69868 12.5047 3.45801 12.6703 3.23001C12.836 2.97668 13.0016 2.73601 13.1672 2.50801C15.6161 -0.569991 19.4136 -0.417991 21.5786 2.85001C21.8152 3.20468 22.0282 3.55934 22.2174 3.91401C22.4067 4.29401 22.596 4.67401 22.7853 5.05401C22.9509 5.40868 23.1165 5.78867 23.2822 6.19401C23.4478 6.57401 23.5898 6.95401 23.7081 7.33401C23.992 8.13201 24.3469 8.89201 24.6308 9.69001C24.6545 9.76601 24.69 9.84201 24.7373 9.91801C24.7846 9.99401 24.8319 10.0573 24.8793 10.108C24.9503 10.1587 25.0212 10.1967 25.0922 10.222C25.1869 10.2473 25.2697 10.26 25.3407 10.26C25.9322 10.2853 26.5237 10.336 27.1152 10.412C27.7067 10.488 28.2982 10.5893 28.8898 10.716C29.4813 10.8427 30.0728 10.982 30.6643 11.134C31.2322 11.3113 31.8 11.5013 32.3679 11.704C34.0005 12.388 34.036 12.426 33.823 14.25C33.7284 15.086 33.6337 15.9093 33.5391 16.72C33.4208 17.556 33.3025 18.3793 33.1842 19.19C33.0422 20.0007 32.8884 20.8113 32.7228 21.622C32.5572 22.4327 32.3915 23.2433 32.2259 24.054C31.4096 27.322 30.1674 30.324 27.9315 32.794C27.2217 33.554 26.4527 34.2253 25.6246 34.808C24.7965 35.416 23.921 35.9227 22.9982 36.328C22.0755 36.7333 21.129 37.0373 20.159 37.24C19.1889 37.4427 18.2069 37.544 17.2132 37.544ZM17.2132 9.95601H21.0462C21.2237 9.95601 21.5076 10.032 21.3657 9.65201C20.7268 8.09401 20.2654 6.46001 19.3427 5.05401C18.0295 2.96401 16.3969 2.96401 15.0837 5.09201C14.8944 5.44667 14.7052 5.81401 14.5159 6.19401C14.3503 6.57401 14.1846 6.95401 14.019 7.33401C13.8534 7.71401 13.6996 8.09401 13.5576 8.47401C13.392 8.85401 13.25 9.24667 13.1317 9.65201C12.9898 9.99401 13.2027 9.95601 13.4157 9.95601H17.2132Z" fill="#6566B0"/>
<path d="M53.2013 29.488C52.87 29.5133 52.5388 29.488 52.2075 29.412C51.8526 29.3613 51.5095 29.2727 51.1783 29.146C50.8707 29.0447 50.5631 28.8927 50.2555 28.69C49.9479 28.5127 49.664 28.2973 49.4037 28.044C49.1671 27.8413 48.966 27.6133 48.8004 27.36C48.6111 27.1067 48.4455 26.8407 48.3035 26.562C48.1852 26.2833 48.0905 25.9793 48.0196 25.65C47.9486 25.346 47.9131 25.0293 47.9131 24.7V17.974C47.9131 17.6447 47.9486 17.328 48.0196 17.024C48.0905 16.6947 48.1852 16.378 48.3035 16.074C48.4218 15.7953 48.5756 15.5293 48.7649 15.276C48.9542 14.9973 49.1671 14.7567 49.4037 14.554C49.9361 14.098 50.5749 13.718 51.2138 13.49C51.8526 13.262 52.5624 13.11 53.2367 13.11C53.9111 13.11 54.6209 13.262 55.2597 13.49C55.8986 13.718 56.5019 14.098 57.0698 14.554C57.2827 14.7567 57.4838 14.9973 57.6731 15.276C57.8624 15.5293 58.0162 15.7953 58.1345 16.074C58.2765 16.378 58.3711 16.682 58.4184 16.986C58.4894 17.3153 58.5249 17.6447 58.5249 17.974V18.392L56.4664 18.506V17.746C56.4664 17.5687 56.4428 17.3787 56.3954 17.176C56.3481 16.9987 56.289 16.834 56.218 16.682C56.1234 16.5047 56.0287 16.3527 55.9341 16.226C55.8158 16.074 55.6975 15.9347 55.5792 15.808C55.4135 15.656 55.2361 15.5293 55.0468 15.428C54.8575 15.3267 54.6682 15.238 54.4789 15.162C54.266 15.086 54.053 15.0353 53.8401 15.01C53.6271 14.9593 53.4142 14.9467 53.2013 14.972C53.012 14.9467 52.8109 14.9593 52.5979 15.01C52.385 15.0353 52.1838 15.086 51.9946 15.162C51.7816 15.238 51.5805 15.3267 51.3912 15.428C51.2256 15.5547 51.06 15.6813 50.8943 15.808C50.7524 15.9347 50.6222 16.074 50.5039 16.226C50.4093 16.3527 50.3146 16.5047 50.22 16.682C50.149 16.834 50.0899 16.9987 50.0426 17.176C49.9952 17.3787 49.9716 17.5687 49.9716 17.746V24.776C49.9716 24.9533 49.9952 25.1433 50.0426 25.346C50.0899 25.5233 50.149 25.7007 50.22 25.878C50.3146 26.03 50.4093 26.182 50.5039 26.334C50.6222 26.486 50.7524 26.6253 50.8943 26.752C51.06 26.904 51.2256 27.0307 51.3912 27.132C51.5805 27.2587 51.7698 27.36 51.9591 27.436C52.172 27.512 52.385 27.5627 52.5979 27.588C52.8109 27.6387 53.012 27.664 53.2013 27.664C53.4142 27.664 53.6271 27.6513 53.8401 27.626C54.053 27.6007 54.266 27.55 54.4789 27.474C54.6682 27.398 54.8575 27.3093 55.0468 27.208C55.2361 27.0813 55.4135 26.9547 55.5792 26.828C55.6975 26.7013 55.8158 26.5747 55.9341 26.448C56.0287 26.296 56.1234 26.144 56.218 25.992C56.289 25.84 56.3481 25.6753 56.3954 25.498C56.4428 25.3207 56.4664 25.1433 56.4664 24.966V24.244L58.4894 24.282V24.7C58.4894 25.004 58.4658 25.3207 58.4184 25.65C58.3475 25.954 58.2528 26.258 58.1345 26.562C58.0162 26.866 57.8624 27.1447 57.6731 27.398C57.5075 27.6513 57.3064 27.892 57.0698 28.12C56.8095 28.348 56.5256 28.5507 56.218 28.728C55.9104 28.9307 55.591 29.0827 55.2597 29.184C54.9285 29.3107 54.5972 29.3993 54.266 29.45C53.9111 29.5007 53.5562 29.5133 53.2013 29.488Z" fill="#6566B0"/>
<path fill-rule="evenodd" clip-rule="evenodd" d="M66.0842 17.518C66.3681 17.4927 66.6402 17.4927 66.9005 17.518C67.1844 17.5687 67.4565 17.632 67.7168 17.708C68.0007 17.8094 68.261 17.9234 68.4976 18.05C68.7579 18.202 68.9945 18.3667 69.2074 18.544C69.3967 18.696 69.5623 18.886 69.7043 19.114C69.8699 19.3167 70.0001 19.5447 70.0947 19.798C70.1893 20.026 70.2603 20.2667 70.3077 20.52C70.355 20.7987 70.3786 21.0647 70.3786 21.318V29.184H68.3911V27.322C67.8943 28.6647 66.7822 29.336 65.055 29.336C64.842 29.3614 64.6172 29.3614 64.3806 29.336C64.1677 29.3107 63.9429 29.26 63.7063 29.184C63.4934 29.108 63.2922 29.0194 63.103 28.918C62.89 28.8167 62.6889 28.7027 62.4996 28.576C62.334 28.424 62.192 28.2594 62.0737 28.082C61.9317 27.9047 61.8134 27.7147 61.7188 27.512C61.6478 27.3094 61.5887 27.094 61.5413 26.866C61.5177 26.638 61.5059 26.41 61.5059 26.182C61.5059 25.9287 61.5295 25.688 61.5768 25.46C61.6242 25.2067 61.6951 24.966 61.7898 24.738C61.8844 24.5354 62.0027 24.3327 62.1447 24.13C62.2867 23.9274 62.4523 23.7627 62.6416 23.636C62.8782 23.4587 63.1266 23.3067 63.3869 23.18C63.6472 23.0534 63.9074 22.952 64.1677 22.876C64.4516 22.8 64.7355 22.7494 65.0195 22.724C65.2797 22.6987 65.5518 22.686 65.8358 22.686H68.3556V21.622C68.3556 21.47 68.3438 21.318 68.3201 21.166C68.3201 21.014 68.2847 20.862 68.2137 20.71C68.1664 20.5834 68.1072 20.4567 68.0362 20.33C67.9652 20.178 67.8824 20.0514 67.7878 19.95C67.6695 19.8487 67.5393 19.76 67.3974 19.684C67.2554 19.608 67.1134 19.5447 66.9715 19.494C66.8295 19.4434 66.6876 19.4054 66.5456 19.38C66.38 19.3547 66.2262 19.342 66.0842 19.342C65.9422 19.342 65.8003 19.3547 65.6583 19.38C65.54 19.38 65.4099 19.4054 65.2679 19.456C65.1496 19.4814 65.0195 19.5194 64.8775 19.57C64.7592 19.646 64.6409 19.722 64.5226 19.798C64.428 19.8487 64.3451 19.912 64.2742 19.988C64.1795 20.064 64.1085 20.1527 64.0612 20.254C63.9902 20.3554 63.9429 20.4694 63.9193 20.596C63.8719 20.6974 63.8364 20.8114 63.8128 20.938L61.8253 20.672C61.8489 20.444 61.8963 20.216 61.9672 19.988C62.0146 19.7854 62.0974 19.5827 62.2157 19.38C62.334 19.1774 62.4641 19 62.6061 18.848C62.7717 18.6707 62.9373 18.5187 63.103 18.392C63.3159 18.24 63.5407 18.1134 63.7773 18.012C64.0139 17.8854 64.2623 17.784 64.5226 17.708C64.7829 17.632 65.0431 17.5687 65.3034 17.518C65.5637 17.4927 65.8239 17.4927 66.0842 17.518ZM65.5873 27.854C65.7766 27.854 65.9541 27.8414 66.1197 27.816C66.2853 27.7907 66.4509 27.7527 66.6166 27.702C66.7822 27.6514 66.9478 27.588 67.1135 27.512C67.2554 27.436 67.3974 27.3474 67.5393 27.246C67.6813 27.1447 67.7996 27.0434 67.8943 26.942C68.0126 26.8154 68.1072 26.676 68.1782 26.524C68.2492 26.372 68.2965 26.2074 68.3201 26.03C68.3438 25.878 68.3556 25.7134 68.3556 25.536V23.864H66.2617C66.0724 23.8387 65.8949 23.8387 65.7293 23.864C65.5637 23.8894 65.3862 23.9274 65.1969 23.978C65.0313 24.0287 64.8657 24.0794 64.7001 24.13C64.5581 24.206 64.4043 24.2947 64.2387 24.396C64.1204 24.4974 64.0257 24.5987 63.9547 24.7C63.8601 24.8267 63.7773 24.9534 63.7063 25.08C63.6353 25.232 63.588 25.3714 63.5643 25.498C63.5407 25.65 63.5289 25.802 63.5289 25.954C63.5289 26.0807 63.5407 26.2074 63.5643 26.334C63.588 26.4607 63.6235 26.5874 63.6708 26.714C63.7181 26.8154 63.7773 26.9167 63.8483 27.018C63.8956 27.1194 63.9666 27.2207 64.0612 27.322C64.1795 27.398 64.2978 27.474 64.4161 27.55C64.5344 27.626 64.6527 27.6894 64.771 27.74C64.913 27.7907 65.055 27.816 65.1969 27.816C65.3389 27.8414 65.469 27.854 65.5873 27.854Z" fill="#6566B0"/>
<path d="M77.761 14.706C77.619 14.706 77.4889 14.706 77.3706 14.706C77.2523 14.7313 77.134 14.7693 77.0157 14.82C76.8974 14.8707 76.7791 14.934 76.6608 15.01C76.5661 15.086 76.4715 15.1747 76.3769 15.276C76.3295 15.3773 76.2704 15.4913 76.1994 15.618C76.1521 15.77 76.1166 15.9093 76.0929 16.036C76.0693 16.1627 76.0456 16.302 76.0219 16.454C76.0219 16.5807 76.0219 16.72 76.0219 16.872V19.038H78.6128V20.672H76.0219V29.184H74.0344V20.672H72.4019V19.038H74.0344V16.682C74.0108 16.454 74.0108 16.2133 74.0344 15.96C74.0581 15.732 74.1054 15.504 74.1764 15.276C74.2474 15.048 74.342 14.82 74.4603 14.592C74.5786 14.3893 74.7088 14.1993 74.8507 14.022C75.4186 13.4647 76.3887 13.1987 77.761 13.224H78.6128V14.706H77.761Z" fill="#6566B0"/>
<path fill-rule="evenodd" clip-rule="evenodd" d="M89.6506 24.244L82.5879 24.282V25.08C82.5642 25.2574 82.576 25.422 82.6234 25.574C82.647 25.7514 82.6943 25.916 82.7653 26.068C82.8363 26.22 82.9191 26.372 83.0138 26.524C83.1084 26.6507 83.2149 26.7647 83.3332 26.866C83.4515 26.9927 83.5816 27.094 83.7236 27.17C83.8656 27.2714 84.0193 27.3474 84.185 27.398C84.3269 27.4487 84.4807 27.4867 84.6464 27.512C84.812 27.5374 84.9776 27.55 85.1432 27.55C85.2852 27.55 85.4272 27.5374 85.5691 27.512C85.7111 27.4867 85.8531 27.4614 85.995 27.436C86.137 27.3854 86.2789 27.322 86.4209 27.246C86.5392 27.1954 86.6575 27.132 86.7758 27.056C86.8941 26.98 87.0006 26.8914 87.0952 26.79C87.1899 26.6887 87.2845 26.5874 87.3792 26.486C87.4502 26.3594 87.5093 26.2327 87.5566 26.106C87.6039 25.9794 87.6394 25.84 87.6631 25.688L89.4377 26.106C89.3903 26.334 89.3193 26.5494 89.2247 26.752C89.1537 26.98 89.0591 27.1954 88.9408 27.398C88.7988 27.6007 88.6568 27.778 88.5149 27.93C88.3493 28.1074 88.1718 28.2594 87.9825 28.386C87.7696 28.5634 87.5566 28.7027 87.3437 28.804C87.1071 28.9307 86.8705 29.032 86.6339 29.108C86.3973 29.184 86.1488 29.2474 85.8885 29.298C85.6519 29.3234 85.4035 29.336 85.1432 29.336C84.8593 29.3614 84.5872 29.3487 84.3269 29.298C84.043 29.2474 83.7709 29.1714 83.5106 29.07C83.2504 28.9687 83.0019 28.8547 82.7653 28.728C82.5287 28.576 82.3039 28.4114 82.091 28.234C81.8781 28.0567 81.6888 27.8414 81.5231 27.588C81.3339 27.36 81.1919 27.1194 81.0972 26.866C80.9789 26.5874 80.8961 26.3087 80.8488 26.03C80.8015 25.726 80.7778 25.422 80.7778 25.118V21.698C80.7778 21.394 80.8015 21.1027 80.8488 20.824C80.8961 20.5454 80.9789 20.2667 81.0972 19.988C81.1919 19.7347 81.322 19.494 81.4877 19.266C81.6533 19.0127 81.8426 18.7974 82.0555 18.62C82.2448 18.4174 82.4696 18.24 82.7298 18.088C82.9664 17.9107 83.2149 17.7714 83.4752 17.67C83.7354 17.5687 84.0075 17.4927 84.2914 17.442C84.5754 17.3914 84.8593 17.3787 85.1432 17.404C85.4272 17.3787 85.7111 17.3914 85.995 17.442C86.3026 17.4927 86.5865 17.5687 86.8468 17.67C87.1307 17.7714 87.391 17.898 87.6276 18.05C87.8879 18.2274 88.1363 18.4047 88.3729 18.582C88.5622 18.7847 88.7397 19 88.9053 19.228C89.0709 19.456 89.2129 19.7094 89.3312 19.988C89.4495 20.2414 89.5323 20.52 89.5796 20.824C89.6269 21.1027 89.6506 21.394 89.6506 21.698V24.244ZM85.1432 19.19C85.0013 19.19 84.8475 19.2027 84.6819 19.228C84.5162 19.2787 84.3624 19.3294 84.2205 19.38C84.0548 19.4307 83.901 19.5067 83.7591 19.608C83.6171 19.7094 83.487 19.8107 83.3687 19.912C83.2504 20.0387 83.1439 20.1654 83.0493 20.292C82.9546 20.4187 82.8718 20.5707 82.8008 20.748C82.7298 20.9 82.6825 21.0647 82.6589 21.242C82.6115 21.394 82.5997 21.5587 82.6234 21.736V22.686H87.8051V21.736C87.8051 21.5587 87.7932 21.3814 87.7696 21.204C87.7223 21.052 87.6749 20.8874 87.6276 20.71C87.5566 20.558 87.4738 20.4187 87.3792 20.292C87.2845 20.14 87.1662 20.0134 87.0243 19.912C86.906 19.7854 86.7758 19.684 86.6339 19.608C86.4682 19.5067 86.3144 19.4307 86.1725 19.38C86.0069 19.304 85.8412 19.2534 85.6756 19.228C85.51 19.2027 85.3325 19.19 85.1432 19.19Z" fill="#6566B0"/>
<path fill-rule="evenodd" clip-rule="evenodd" d="M100.511 20.938C100.889 21.0647 101.232 21.2547 101.54 21.508C101.871 21.7613 102.143 22.0653 102.356 22.42C102.593 22.7747 102.759 23.1547 102.853 23.56C102.948 23.9653 102.983 24.3833 102.96 24.814C102.983 25.118 102.972 25.4093 102.924 25.688C102.877 25.992 102.794 26.2833 102.676 26.562C102.557 26.8407 102.416 27.1067 102.25 27.36C102.084 27.6133 101.895 27.8413 101.682 28.044C101.445 28.2213 101.185 28.386 100.901 28.538C100.641 28.69 100.369 28.8167 100.085 28.918C99.801 29.0193 99.5052 29.0827 99.1976 29.108C98.89 29.1587 98.5943 29.1713 98.3104 29.146H92.8447V13.224H98.1329C98.4405 13.224 98.7481 13.2367 99.0557 13.262C99.3633 13.3127 99.659 13.376 99.943 13.452C100.227 13.5533 100.511 13.6673 100.795 13.794C101.055 13.946 101.315 14.1233 101.576 14.326C101.788 14.5033 101.966 14.7187 102.108 14.972C102.274 15.2 102.415 15.4533 102.534 15.732C102.628 16.0107 102.699 16.302 102.747 16.606C102.794 16.8847 102.806 17.176 102.782 17.48C102.806 17.86 102.77 18.24 102.676 18.62C102.581 18.9747 102.427 19.3167 102.214 19.646C102.001 19.95 101.753 20.216 101.469 20.444C101.185 20.672 100.866 20.8367 100.511 20.938ZM94.8677 15.086V20.14H98.1684C98.3577 20.14 98.5351 20.1273 98.7008 20.102C98.8664 20.0767 99.032 20.0387 99.1976 19.988C99.3633 19.9373 99.5289 19.8613 99.6945 19.76C99.8365 19.684 99.9784 19.5827 100.12 19.456C100.239 19.3547 100.345 19.228 100.44 19.076C100.534 18.9493 100.605 18.81 100.653 18.658C100.724 18.506 100.771 18.3413 100.795 18.164C100.818 18.012 100.818 17.8473 100.795 17.67C100.818 17.4927 100.807 17.3153 100.759 17.138C100.736 16.9607 100.7 16.796 100.653 16.644C100.582 16.492 100.499 16.34 100.404 16.188C100.31 16.0613 100.203 15.9347 100.085 15.808C99.9429 15.6813 99.801 15.58 99.659 15.504C99.4934 15.4027 99.3278 15.3267 99.1621 15.276C98.9965 15.2253 98.8191 15.1873 98.6298 15.162C98.4642 15.1367 98.2985 15.124 98.1329 15.124L94.8677 15.086ZM98.2749 27.246C98.4642 27.2713 98.6416 27.2713 98.8072 27.246C98.9965 27.2207 99.174 27.17 99.3396 27.094C99.5052 27.0433 99.659 26.9673 99.801 26.866C99.9666 26.7647 100.109 26.6633 100.227 26.562C100.345 26.4353 100.452 26.296 100.546 26.144C100.641 25.992 100.724 25.8273 100.795 25.65C100.866 25.4727 100.913 25.2953 100.937 25.118C100.96 24.9407 100.972 24.7633 100.972 24.586C100.972 24.4087 100.96 24.2313 100.937 24.054C100.913 23.8767 100.866 23.6993 100.795 23.522C100.724 23.3447 100.641 23.18 100.546 23.028C100.452 22.876 100.345 22.7493 100.227 22.648C100.085 22.5213 99.943 22.4073 99.801 22.306C99.6354 22.2047 99.4697 22.1287 99.3041 22.078C99.1385 22.002 98.961 21.9513 98.7717 21.926C98.6061 21.9007 98.4287 21.9007 98.2394 21.926H94.8322V27.284L98.2749 27.246Z" fill="#6566B0"/>
<path fill-rule="evenodd" clip-rule="evenodd" d="M110.129 17.518C110.413 17.4927 110.685 17.4927 110.945 17.518C111.229 17.5687 111.513 17.632 111.797 17.708C112.057 17.8094 112.305 17.9234 112.542 18.05C112.802 18.202 113.039 18.3667 113.252 18.544C113.441 18.7214 113.619 18.9114 113.784 19.114C113.926 19.3167 114.044 19.5447 114.139 19.798C114.257 20.026 114.34 20.2667 114.388 20.52C114.435 20.7987 114.447 21.0647 114.423 21.318V29.184H112.436V27.322C111.939 28.6647 110.827 29.336 109.099 29.336C108.886 29.3614 108.662 29.3614 108.425 29.336C108.212 29.3107 107.999 29.26 107.786 29.184C107.55 29.108 107.337 29.0194 107.147 28.918C106.934 28.8167 106.733 28.7027 106.544 28.576C106.378 28.424 106.236 28.2594 106.118 28.082C105.976 27.9047 105.858 27.7147 105.763 27.512C105.692 27.3094 105.633 27.094 105.586 26.866C105.562 26.638 105.55 26.41 105.55 26.182C105.55 25.9287 105.574 25.688 105.621 25.46C105.669 25.2067 105.74 24.966 105.834 24.738C105.929 24.5354 106.047 24.3327 106.189 24.13C106.331 23.9274 106.497 23.7627 106.686 23.636C106.923 23.4587 107.171 23.3067 107.431 23.18C107.692 23.0534 107.952 22.952 108.212 22.876C108.496 22.8 108.78 22.7494 109.064 22.724C109.348 22.6987 109.632 22.686 109.916 22.686H112.4V21.622C112.424 21.47 112.424 21.318 112.4 21.166C112.376 21.014 112.341 20.862 112.294 20.71C112.246 20.5834 112.175 20.4567 112.081 20.33C112.01 20.178 111.927 20.0514 111.832 19.95C111.714 19.8487 111.584 19.76 111.442 19.684C111.323 19.608 111.182 19.5447 111.016 19.494C110.874 19.4434 110.732 19.4054 110.59 19.38C110.448 19.3547 110.294 19.342 110.129 19.342C109.987 19.342 109.857 19.3547 109.738 19.38C109.596 19.38 109.454 19.4054 109.312 19.456C109.194 19.4814 109.076 19.5194 108.957 19.57C108.815 19.646 108.685 19.722 108.567 19.798C108.496 19.8487 108.413 19.912 108.319 19.988C108.248 20.064 108.177 20.1527 108.106 20.254C108.058 20.3554 108.011 20.4567 107.964 20.558C107.94 20.6847 107.916 20.7987 107.893 20.9L105.905 20.634C105.905 20.406 105.941 20.1907 106.012 19.988C106.083 19.76 106.165 19.5447 106.26 19.342C106.378 19.1647 106.509 18.9874 106.651 18.81C106.792 18.658 106.958 18.5187 107.147 18.392C107.36 18.24 107.585 18.1007 107.822 17.974C108.058 17.8474 108.307 17.746 108.567 17.67C108.827 17.6194 109.088 17.5687 109.348 17.518C109.608 17.4927 109.868 17.4927 110.129 17.518ZM109.632 27.854C109.821 27.854 109.998 27.8414 110.164 27.816C110.33 27.7907 110.495 27.7527 110.661 27.702C110.827 27.6514 110.992 27.588 111.158 27.512C111.323 27.436 111.477 27.3474 111.619 27.246C111.738 27.1447 111.844 27.0434 111.939 26.942C112.057 26.8154 112.152 26.676 112.223 26.524C112.294 26.372 112.341 26.2074 112.365 26.03C112.388 25.878 112.4 25.7134 112.4 25.536V23.864H110.306C110.14 23.8387 109.963 23.8387 109.774 23.864C109.608 23.8894 109.442 23.9274 109.277 23.978C109.088 24.0287 108.922 24.0794 108.78 24.13C108.614 24.206 108.449 24.2947 108.283 24.396C108.165 24.4974 108.07 24.5987 107.999 24.7C107.905 24.8267 107.822 24.9534 107.751 25.08C107.68 25.232 107.632 25.3714 107.609 25.498C107.585 25.65 107.573 25.802 107.573 25.954C107.573 26.0807 107.585 26.2074 107.609 26.334C107.632 26.4607 107.668 26.5874 107.715 26.714C107.763 26.8154 107.822 26.9167 107.893 27.018C107.964 27.1194 108.035 27.2207 108.106 27.322C108.224 27.398 108.342 27.474 108.461 27.55C108.579 27.626 108.709 27.6894 108.851 27.74C108.969 27.7907 109.099 27.816 109.241 27.816C109.383 27.8414 109.513 27.854 109.632 27.854Z" fill="#6566B0"/>
<path d="M117.44 29.184V27.17L123.225 19.456H117.546V17.556H125.567V19.57L119.676 27.246H125.603V29.184H117.44Z" fill="#6566B0"/>
<path fill-rule="evenodd" clip-rule="evenodd" d="M132.843 17.518C133.127 17.4927 133.411 17.4927 133.695 17.518C133.955 17.5687 134.227 17.632 134.511 17.708C134.772 17.8094 135.032 17.9234 135.292 18.05C135.529 18.202 135.754 18.3667 135.966 18.544C136.179 18.696 136.357 18.886 136.499 19.114C136.641 19.3167 136.771 19.5447 136.889 19.798C136.984 20.026 137.055 20.2667 137.102 20.52C137.15 20.7987 137.173 21.0647 137.173 21.318V29.184H135.15V27.322C134.677 28.6647 133.577 29.336 131.85 29.336C131.613 29.3614 131.388 29.3614 131.175 29.336C130.939 29.3107 130.714 29.26 130.501 29.184C130.288 29.108 130.075 29.0194 129.862 28.918C129.673 28.8167 129.483 28.7027 129.294 28.576C129.129 28.424 128.975 28.2594 128.833 28.082C128.714 27.9047 128.608 27.7147 128.513 27.512C128.419 27.3094 128.36 27.094 128.336 26.866C128.289 26.638 128.277 26.41 128.3 26.182C128.277 25.9287 128.289 25.688 128.336 25.46C128.383 25.2067 128.454 24.966 128.549 24.738C128.643 24.5354 128.762 24.3327 128.904 24.13C129.046 23.9274 129.211 23.7627 129.401 23.636C129.637 23.4587 129.886 23.3067 130.146 23.18C130.406 23.0534 130.666 22.952 130.927 22.876C131.211 22.8 131.495 22.7494 131.779 22.724C132.062 22.6987 132.346 22.686 132.63 22.686H135.115V21.622C135.138 21.47 135.138 21.318 135.115 21.166C135.091 21.014 135.056 20.862 135.008 20.71C134.961 20.5834 134.902 20.4567 134.831 20.33C134.736 20.178 134.641 20.0514 134.547 19.95C134.429 19.8487 134.298 19.76 134.156 19.684C134.038 19.608 133.908 19.5447 133.766 19.494C133.624 19.4434 133.47 19.4054 133.305 19.38C133.163 19.3547 133.009 19.342 132.843 19.342C132.725 19.342 132.595 19.3547 132.453 19.38C132.311 19.38 132.181 19.4054 132.062 19.456C131.92 19.4814 131.79 19.5194 131.672 19.57C131.554 19.646 131.435 19.722 131.317 19.798C131.223 19.8487 131.128 19.912 131.033 19.988C130.962 20.064 130.903 20.1527 130.856 20.254C130.785 20.3554 130.737 20.4567 130.714 20.558C130.666 20.6847 130.631 20.7987 130.607 20.9L128.62 20.634C128.62 20.406 128.655 20.1907 128.726 19.988C128.797 19.76 128.892 19.5447 129.01 19.342C129.105 19.1647 129.223 18.9874 129.365 18.81C129.531 18.658 129.696 18.5187 129.862 18.392C130.075 18.24 130.3 18.1007 130.536 17.974C130.797 17.8474 131.045 17.746 131.282 17.67C131.542 17.6194 131.802 17.5687 132.062 17.518C132.323 17.4927 132.583 17.4927 132.843 17.518ZM132.382 27.854C132.548 27.854 132.713 27.8414 132.879 27.816C133.044 27.7907 133.21 27.7527 133.376 27.702C133.541 27.6514 133.707 27.588 133.873 27.512C134.038 27.436 134.192 27.3474 134.334 27.246C134.452 27.1447 134.57 27.0434 134.689 26.942C134.783 26.8154 134.866 26.676 134.937 26.524C135.008 26.372 135.056 26.2074 135.079 26.03C135.127 25.878 135.138 25.7134 135.115 25.536V23.864H133.021C132.855 23.8387 132.678 23.8387 132.488 23.864C132.323 23.8894 132.157 23.9274 131.991 23.978C131.826 24.0287 131.66 24.0794 131.495 24.13C131.329 24.206 131.175 24.2947 131.033 24.396C130.915 24.4974 130.808 24.5987 130.714 24.7C130.619 24.8267 130.536 24.9534 130.465 25.08C130.394 25.2067 130.347 25.346 130.323 25.498C130.276 25.65 130.264 25.802 130.288 25.954C130.264 26.0807 130.264 26.2074 130.288 26.334C130.312 26.4607 130.347 26.5874 130.394 26.714C130.442 26.8154 130.501 26.9167 130.572 27.018C130.643 27.1194 130.726 27.2207 130.82 27.322C130.915 27.398 131.033 27.474 131.175 27.55C131.293 27.626 131.412 27.6894 131.53 27.74C131.672 27.7907 131.814 27.816 131.956 27.816C132.098 27.8414 132.24 27.854 132.382 27.854Z" fill="#6566B0"/>
<path fill-rule="evenodd" clip-rule="evenodd" d="M144.626 17.518C144.91 17.4927 145.194 17.4927 145.478 17.518C145.738 17.5687 146.01 17.632 146.294 17.708C146.555 17.8094 146.803 17.9234 147.04 18.05C147.3 18.202 147.536 18.3667 147.749 18.544C147.939 18.696 148.116 18.886 148.282 19.114C148.424 19.3167 148.542 19.5447 148.637 19.798C148.755 20.026 148.838 20.2667 148.885 20.52C148.932 20.7987 148.944 21.0647 148.921 21.318V29.184H146.933V27.322C146.436 28.6647 145.324 29.336 143.597 29.336C143.384 29.3614 143.159 29.3614 142.923 29.336C142.71 29.3107 142.497 29.26 142.284 29.184C142.071 29.108 141.858 29.0194 141.645 28.918C141.432 28.8167 141.231 28.7027 141.042 28.576C140.876 28.424 140.734 28.2594 140.616 28.082C140.474 27.9047 140.367 27.7147 140.296 27.512C140.202 27.3094 140.131 27.094 140.083 26.866C140.06 26.638 140.048 26.41 140.048 26.182C140.048 25.9287 140.072 25.688 140.119 25.46C140.166 25.2067 140.237 24.966 140.332 24.738C140.426 24.5354 140.545 24.3327 140.687 24.13C140.829 23.9274 140.994 23.7627 141.184 23.636C141.42 23.4587 141.669 23.3067 141.929 23.18C142.189 23.0534 142.449 22.952 142.71 22.876C142.994 22.8 143.278 22.7494 143.561 22.724C143.845 22.6987 144.129 22.686 144.413 22.686H146.898V21.622C146.921 21.47 146.921 21.318 146.898 21.166C146.874 21.014 146.838 20.862 146.791 20.71C146.744 20.5834 146.673 20.4567 146.578 20.33C146.507 20.178 146.424 20.0514 146.33 19.95C146.211 19.8487 146.081 19.76 145.939 19.684C145.797 19.608 145.655 19.5447 145.513 19.494C145.371 19.4434 145.23 19.4054 145.088 19.38C144.922 19.3547 144.768 19.342 144.626 19.342C144.484 19.342 144.354 19.3547 144.236 19.38C144.094 19.38 143.952 19.4054 143.81 19.456C143.692 19.4814 143.573 19.5194 143.455 19.57C143.313 19.646 143.195 19.722 143.1 19.798C143.005 19.8487 142.911 19.912 142.816 19.988C142.745 20.064 142.674 20.1527 142.603 20.254C142.556 20.3554 142.509 20.4567 142.461 20.558C142.438 20.6847 142.414 20.7987 142.39 20.9L140.367 20.634C140.391 20.406 140.438 20.1907 140.509 19.988C140.58 19.76 140.675 19.5447 140.793 19.342C140.888 19.1394 141.018 18.962 141.184 18.81C141.326 18.658 141.491 18.5187 141.68 18.392C141.893 18.24 142.118 18.1007 142.355 17.974C142.591 17.8727 142.84 17.784 143.1 17.708C143.337 17.632 143.585 17.5687 143.845 17.518C144.106 17.4927 144.366 17.4927 144.626 17.518ZM144.165 27.854C144.33 27.854 144.496 27.8414 144.662 27.816C144.827 27.7907 144.993 27.7527 145.159 27.702C145.324 27.6514 145.49 27.588 145.655 27.512C145.821 27.436 145.975 27.3474 146.117 27.246C146.235 27.1447 146.342 27.0434 146.436 26.942C146.555 26.8154 146.649 26.676 146.72 26.524C146.791 26.372 146.838 26.2074 146.862 26.03C146.909 25.878 146.921 25.7134 146.898 25.536V23.864H144.804C144.638 23.8387 144.461 23.8387 144.271 23.864C144.106 23.8894 143.94 23.9274 143.774 23.978C143.609 24.0287 143.443 24.0794 143.278 24.13C143.112 24.206 142.958 24.2947 142.816 24.396C142.698 24.4974 142.591 24.5987 142.497 24.7C142.402 24.8267 142.319 24.9534 142.248 25.08C142.177 25.232 142.13 25.3714 142.106 25.498C142.083 25.65 142.071 25.802 142.071 25.954C142.071 26.0807 142.083 26.2074 142.106 26.334C142.13 26.4607 142.165 26.5874 142.213 26.714C142.26 26.8154 142.319 26.9167 142.39 27.018C142.461 27.1194 142.532 27.2207 142.603 27.322C142.721 27.398 142.84 27.474 142.958 27.55C143.076 27.626 143.207 27.6894 143.349 27.74C143.467 27.7907 143.597 27.816 143.739 27.816C143.881 27.8414 144.023 27.854 144.165 27.854Z" fill="#6566B0"/>
<path d="M157.403 17.556C157.521 17.556 157.639 17.5687 157.758 17.594C157.876 17.594 157.982 17.6067 158.077 17.632C158.195 17.6827 158.314 17.7334 158.432 17.784C158.527 17.8094 158.621 17.86 158.716 17.936L158.361 19.95C158.266 19.8994 158.16 19.8487 158.042 19.798C157.923 19.7727 157.805 19.7474 157.687 19.722C157.568 19.6967 157.45 19.684 157.332 19.684C157.213 19.684 157.095 19.6967 156.977 19.722C156.835 19.722 156.693 19.7474 156.551 19.798C156.385 19.8487 156.243 19.8994 156.125 19.95C155.983 20.026 155.853 20.1147 155.735 20.216C155.593 20.3174 155.474 20.4314 155.38 20.558C155.261 20.6847 155.155 20.8114 155.06 20.938C154.989 21.09 154.918 21.2547 154.847 21.432C154.776 21.584 154.729 21.7487 154.705 21.926C154.682 22.1034 154.67 22.2807 154.67 22.458V29.184H152.647V17.556H154.67V19.95C155.309 18.392 156.196 17.556 157.403 17.556Z" fill="#6566B0"/>
</svg>
