<svg width="119" height="39" viewBox="0 0 119 39" fill="none" xmlns="http://www.w3.org/2000/svg">
<path d="M11.0498 9.28198C11.3898 9.30798 11.7298 9.33398 12.0698 9.35998C12.4098 9.38598 12.7498 9.43798 13.0898 9.51598C13.4015 9.56798 13.7273 9.63298 14.0673 9.71098C14.4073 9.81498 14.7331 9.91898 15.0448 10.023C15.8098 10.296 16.5748 10.53 17.3823 10.725C17.7223 10.803 18.0623 10.855 18.4023 10.881C18.7706 10.907 19.1248 10.907 19.4648 10.881C19.8331 10.855 20.1873 10.816 20.5273 10.764C20.8673 10.686 21.2073 10.582 21.5473 10.452C21.774 10.374 22.0148 10.283 22.2698 10.179C22.4965 10.101 22.7373 10.023 22.9923 9.94498C23.219 9.86698 23.4598 9.80198 23.7148 9.74998C23.9698 9.67198 24.2106 9.60698 24.4373 9.55498C25.174 9.39898 25.9106 9.30798 26.6473 9.28198C27.4123 9.28198 28.149 9.35998 28.8573 9.51598C29.594 9.67198 30.3023 9.89298 30.9823 10.179C31.634 10.491 32.2573 10.855 32.8523 11.271C32.994 11.401 33.1498 11.531 33.3198 11.661C33.4898 11.791 33.6456 11.921 33.7873 12.051C33.929 12.181 34.0706 12.311 34.2123 12.441C34.354 12.571 34.4956 12.714 34.6373 12.87C34.8498 13.104 34.8498 13.182 34.5523 13.338C33.9573 13.65 33.4048 14.027 32.8948 14.469C32.3565 14.911 31.9031 15.405 31.5348 15.951C31.1665 16.497 30.869 17.082 30.6423 17.706C30.4156 18.33 30.274 18.967 30.2173 19.617C30.1606 20.215 30.1606 20.813 30.2173 21.411C30.3023 22.035 30.4581 22.633 30.6848 23.205C30.9115 23.777 31.1948 24.323 31.5348 24.843C31.9031 25.363 32.314 25.844 32.7673 26.286C32.9656 26.494 33.1923 26.676 33.4473 26.832C33.674 27.014 33.9006 27.183 34.1273 27.339C34.3823 27.495 34.6515 27.638 34.9348 27.768C35.1898 27.898 35.459 28.015 35.7423 28.119C36.0398 28.236 36.0398 28.275 35.9123 28.548C35.6006 29.224 35.2606 29.887 34.8923 30.537C34.5523 31.161 34.1698 31.785 33.7448 32.409C33.3198 33.033 32.8665 33.631 32.3848 34.203C31.9315 34.801 31.4356 35.373 30.8973 35.919C30.7273 36.101 30.5573 36.283 30.3873 36.465C30.189 36.621 29.9906 36.777 29.7923 36.933C29.594 37.089 29.3815 37.245 29.1548 37.401C28.9281 37.531 28.7015 37.661 28.4748 37.791C28.1348 37.973 27.7665 38.116 27.3698 38.22C26.9731 38.324 26.5765 38.376 26.1798 38.376C25.7831 38.402 25.3865 38.376 24.9898 38.298C24.5931 38.22 24.2106 38.103 23.8423 37.947C23.1623 37.674 22.5673 37.401 21.9298 37.206C21.3915 37.024 20.8531 36.907 20.3148 36.855C19.7765 36.777 19.2381 36.751 18.6998 36.777C18.1615 36.803 17.6231 36.868 17.0848 36.972C16.5465 37.076 16.0365 37.232 15.5548 37.44C15.0023 37.635 14.4498 37.869 13.8973 38.025C13.444 38.207 12.9623 38.311 12.4523 38.337C11.9706 38.389 11.489 38.376 11.0073 38.298C10.5256 38.22 10.0581 38.09 9.60479 37.908C9.17979 37.7 8.76896 37.453 8.37229 37.167C8.08896 36.959 7.81979 36.725 7.56479 36.465C7.30979 36.231 7.05479 35.997 6.79979 35.763C6.54479 35.503 6.30396 35.243 6.07729 34.983C5.85063 34.697 5.63813 34.424 5.43979 34.164C5.04313 33.644 4.67479 33.124 4.33479 32.604C3.96646 32.058 3.62646 31.512 3.31479 30.966C3.00313 30.394 2.71979 29.822 2.46479 29.25C2.18146 28.678 1.94063 28.093 1.74229 27.495C1.57229 27.027 1.41646 26.572 1.27479 26.13C1.13313 25.662 1.01979 25.194 0.934792 24.726C0.821458 24.232 0.736458 23.751 0.679792 23.283C0.594792 22.815 0.538125 22.334 0.509792 21.84C0.453125 21.32 0.438958 20.8 0.467292 20.28C0.495625 19.734 0.538125 19.201 0.594792 18.681C0.679792 18.161 0.807292 17.654 0.977292 17.16C1.11896 16.64 1.30313 16.133 1.52979 15.639C1.84146 14.911 2.25229 14.209 2.76229 13.533C3.24396 12.883 3.81063 12.298 4.46229 11.778C5.11396 11.232 5.82229 10.777 6.58729 10.413C7.32396 10.023 8.11729 9.72398 8.96729 9.51598C9.13729 9.46398 9.30729 9.42498 9.47729 9.39898C9.64729 9.37298 9.81729 9.34698 9.98729 9.32098C10.1573 9.32098 10.3273 9.30798 10.4973 9.28198C10.6673 9.28198 10.8515 9.28198 11.0498 9.28198Z" fill="#BABEC2"/>
<path d="M26.1802 1.32597C26.1802 1.66397 26.1519 2.00197 26.0952 2.33997C26.0386 2.70397 25.9677 3.04197 25.8827 3.35397C25.7694 3.69197 25.6419 4.01697 25.5002 4.32897C25.3585 4.66697 25.2027 4.97897 25.0327 5.26497C24.806 5.62897 24.5652 5.97997 24.3102 6.31797C24.0269 6.65597 23.7294 6.96797 23.4177 7.25397C23.106 7.56597 22.766 7.83897 22.3977 8.07297C22.0294 8.30697 21.6469 8.52797 21.2502 8.73597C20.9952 8.86597 20.7402 8.96997 20.4852 9.04797C20.2302 9.15197 19.9752 9.24297 19.7202 9.32097C19.4369 9.37297 19.1535 9.42497 18.8702 9.47697C18.6152 9.50297 18.346 9.52897 18.0627 9.55497C17.6802 9.55497 17.6802 9.55497 17.6377 9.16497C17.6094 8.85297 17.5952 8.54097 17.5952 8.22897C17.6235 7.91697 17.666 7.60497 17.7227 7.29297C17.8077 6.98097 17.9069 6.66897 18.0202 6.35697C18.1052 6.07097 18.2327 5.78497 18.4027 5.49897C18.686 4.95297 19.026 4.43297 19.4227 3.93897C19.8194 3.44497 20.2727 2.98997 20.7827 2.57397C21.2927 2.15797 21.831 1.79397 22.3977 1.48197C22.9927 1.19597 23.6019 0.948974 24.2252 0.740974C24.3669 0.714974 24.4944 0.675974 24.6077 0.623974C24.7494 0.597974 24.891 0.571974 25.0327 0.545974C25.146 0.519974 25.2735 0.493974 25.4152 0.467974C25.5569 0.467974 25.6985 0.454974 25.8402 0.428974C26.0527 0.389974 26.0952 0.545974 26.1377 0.701974C26.1377 0.857974 26.1802 1.16997 26.1802 1.32597Z" fill="#BABEC2"/>
<path d="M53.7624 16.302C53.7057 16.354 53.6349 16.406 53.5499 16.458C53.4649 16.51 53.3799 16.549 53.2949 16.575C53.2099 16.627 53.1249 16.653 53.0399 16.653C52.9549 16.679 52.8557 16.692 52.7424 16.692C52.6574 16.692 52.5582 16.679 52.4449 16.653C52.3599 16.653 52.2749 16.627 52.1899 16.575C52.1049 16.549 52.0199 16.51 51.9349 16.458C51.8499 16.406 51.779 16.354 51.7224 16.302C51.6374 16.224 51.5665 16.146 51.5099 16.068C51.4815 16.016 51.439 15.938 51.3824 15.834C51.354 15.756 51.3257 15.678 51.2974 15.6C51.2974 15.496 51.2974 15.405 51.2974 15.327C51.2974 15.249 51.2974 15.158 51.2974 15.054C51.3257 14.976 51.354 14.898 51.3824 14.82C51.4107 14.742 51.4532 14.664 51.5099 14.586C51.5665 14.534 51.6374 14.469 51.7224 14.391C51.779 14.339 51.8499 14.287 51.9349 14.235C52.0199 14.183 52.1049 14.144 52.1899 14.118C52.2749 14.092 52.3599 14.066 52.4449 14.04C52.5582 14.014 52.6574 14.001 52.7424 14.001C52.8557 14.001 52.9549 14.014 53.0399 14.04C53.1249 14.066 53.2099 14.092 53.2949 14.118C53.3799 14.144 53.4649 14.183 53.5499 14.235C53.6349 14.287 53.7057 14.339 53.7624 14.391C53.8474 14.469 53.9182 14.534 53.9749 14.586C54.0032 14.664 54.0457 14.742 54.1024 14.82C54.1307 14.898 54.159 14.976 54.1874 15.054C54.1874 15.158 54.1874 15.249 54.1874 15.327C54.1874 15.405 54.1874 15.496 54.1874 15.6C54.159 15.678 54.1307 15.756 54.1024 15.834C54.0457 15.938 54.0032 16.016 53.9749 16.068C53.9182 16.146 53.8474 16.224 53.7624 16.302ZM51.6374 28.899V18.252H53.8049V28.899H51.6374Z" fill="#BABEC2"/>
<path fill-rule="evenodd" clip-rule="evenodd" d="M64.3027 14.352C64.6144 14.326 64.9119 14.339 65.1952 14.391C65.5069 14.417 65.8044 14.482 66.0877 14.586C66.3711 14.69 66.6402 14.82 66.8952 14.976C67.1502 15.132 67.3911 15.301 67.6177 15.483C67.8444 15.691 68.0427 15.912 68.2127 16.146C68.3544 16.38 68.4819 16.627 68.5952 16.887C68.7085 17.147 68.7936 17.42 68.8502 17.706C68.8786 17.992 68.8927 18.278 68.8927 18.564C68.8927 18.824 68.8786 19.097 68.8502 19.383C68.7936 19.643 68.7085 19.903 68.5952 20.163C68.4819 20.423 68.3402 20.67 68.1702 20.904C68.0002 21.138 67.8161 21.359 67.6177 21.567C67.3627 21.749 67.1077 21.918 66.8527 22.074C66.5977 22.204 66.3144 22.321 66.0027 22.425C65.7194 22.529 65.4219 22.594 65.1102 22.62C64.7985 22.672 64.4869 22.685 64.1752 22.659H60.1377V28.899H57.9702V14.352H64.3027ZM64.0052 21.06C64.2036 21.06 64.3877 21.047 64.5577 21.021C64.7277 20.995 64.8977 20.956 65.0677 20.904C65.2661 20.852 65.4361 20.774 65.5777 20.67C65.7477 20.592 65.8894 20.488 66.0027 20.358C66.1444 20.254 66.2577 20.124 66.3427 19.968C66.4561 19.838 66.541 19.695 66.5977 19.539C66.6827 19.383 66.7394 19.214 66.7677 19.032C66.7961 18.876 66.8102 18.707 66.8102 18.525C66.8102 18.187 66.7394 17.862 66.5977 17.55C66.4844 17.212 66.2861 16.926 66.0027 16.692C65.7477 16.458 65.4361 16.276 65.0677 16.146C64.7277 16.016 64.3736 15.964 64.0052 15.99H60.1377V21.06H64.0052Z" fill="#BABEC2"/>
<path d="M76.2875 18.174C76.5708 18.174 76.84 18.187 77.095 18.213C77.35 18.239 77.605 18.291 77.86 18.369C78.115 18.447 78.3558 18.538 78.5825 18.642C78.8091 18.772 79.0216 18.915 79.22 19.071C79.4183 19.227 79.5742 19.396 79.6875 19.578C79.8292 19.76 79.9425 19.968 80.0275 20.202C80.1125 20.41 80.1833 20.618 80.24 20.826C80.2683 21.06 80.2683 21.294 80.24 21.528V28.938H78.2V21.489C78.2 21.333 78.1858 21.203 78.1575 21.099C78.1291 20.969 78.0867 20.839 78.03 20.709C77.9733 20.579 77.9025 20.462 77.8175 20.358C77.7325 20.254 77.6333 20.163 77.52 20.085C77.4066 20.007 77.2792 19.929 77.1375 19.851C76.9958 19.773 76.8542 19.721 76.7125 19.695C76.5708 19.643 76.415 19.604 76.245 19.578C76.1033 19.578 75.9475 19.578 75.7775 19.578C75.6358 19.578 75.48 19.578 75.31 19.578C75.1683 19.604 75.0125 19.643 74.8425 19.695C74.7008 19.721 74.5592 19.773 74.4175 19.851C74.2758 19.929 74.1483 20.007 74.035 20.085C73.9216 20.163 73.8225 20.254 73.7375 20.358C73.6525 20.462 73.5816 20.579 73.525 20.709C73.4683 20.839 73.4258 20.969 73.3975 21.099C73.3691 21.203 73.355 21.333 73.355 21.489V28.899H71.23V14.352H73.355V19.344C73.5533 19.136 73.7516 18.954 73.95 18.798C74.1766 18.668 74.4175 18.551 74.6725 18.447C74.9275 18.343 75.1967 18.265 75.48 18.213C75.7633 18.187 76.0325 18.174 76.2875 18.174Z" fill="#BABEC2"/>
<path fill-rule="evenodd" clip-rule="evenodd" d="M91.8426 28.041C91.3609 28.379 90.8226 28.626 90.2276 28.782C89.6609 28.964 89.0659 29.055 88.4426 29.055C87.8476 29.055 87.2668 28.964 86.7001 28.782C86.1051 28.626 85.5667 28.379 85.0851 28.041C84.8584 27.885 84.6742 27.716 84.5326 27.534C84.3626 27.326 84.2209 27.118 84.1076 26.91C83.9659 26.676 83.8667 26.442 83.8101 26.208C83.7534 25.974 83.7393 25.727 83.7676 25.467V21.723C83.7393 21.463 83.7534 21.216 83.8101 20.982C83.8951 20.748 83.9942 20.527 84.1076 20.319C84.2209 20.085 84.3626 19.877 84.5326 19.695C84.6742 19.513 84.8584 19.344 85.0851 19.188C85.5667 18.85 86.0909 18.603 86.6576 18.447C87.2242 18.265 87.8051 18.174 88.4001 18.174C89.0234 18.174 89.6184 18.265 90.1851 18.447C90.7518 18.603 91.2759 18.85 91.7576 19.188C91.9559 19.344 92.1401 19.513 92.3101 19.695C92.4801 19.877 92.6218 20.085 92.7351 20.319C92.8484 20.527 92.9334 20.761 92.9901 21.021C93.0468 21.255 93.0751 21.489 93.0751 21.723V25.467C93.0751 25.727 93.0609 25.974 93.0326 26.208C92.9759 26.442 92.8909 26.663 92.7776 26.871C92.6643 27.105 92.5368 27.313 92.3951 27.495C92.2251 27.703 92.0409 27.885 91.8426 28.041ZM86.4876 26.871C86.7709 27.079 87.0826 27.235 87.4226 27.339C87.7626 27.443 88.1026 27.495 88.4426 27.495C88.8109 27.495 89.1651 27.443 89.5051 27.339C89.8168 27.235 90.1143 27.079 90.3976 26.871C90.5109 26.767 90.6101 26.663 90.6951 26.559C90.7801 26.429 90.8509 26.299 90.9076 26.169C90.9643 26.039 91.0068 25.909 91.0351 25.779C91.0634 25.623 91.0776 25.48 91.0776 25.35V21.84C91.0776 21.71 91.0634 21.58 91.0351 21.45C91.0068 21.294 90.9501 21.164 90.8651 21.06C90.8084 20.93 90.7376 20.8 90.6526 20.67C90.5676 20.566 90.4684 20.475 90.3551 20.397C90.2134 20.293 90.0718 20.202 89.9301 20.124C89.7601 20.02 89.6043 19.942 89.4626 19.89C89.2926 19.838 89.1226 19.812 88.9526 19.812C88.7826 19.786 88.6126 19.773 88.4426 19.773C88.2726 19.773 88.1026 19.786 87.9326 19.812C87.7626 19.812 87.5926 19.838 87.4226 19.89C87.2526 19.942 87.0968 20.02 86.9551 20.124C86.8134 20.202 86.6718 20.293 86.5301 20.397C86.4168 20.475 86.3176 20.566 86.2326 20.67C86.1476 20.8 86.0767 20.93 86.0201 21.06C85.9634 21.19 85.9209 21.32 85.8926 21.45C85.8643 21.58 85.8501 21.71 85.8501 21.84V25.389C85.8501 25.519 85.8643 25.662 85.8926 25.818C85.9209 25.948 85.9634 26.078 86.0201 26.208C86.0767 26.338 86.1476 26.455 86.2326 26.559C86.3176 26.689 86.4168 26.793 86.5301 26.871H86.4876Z" fill="#BABEC2"/>
<path d="M101.787 18.174C102.042 18.174 102.312 18.187 102.595 18.213C102.85 18.239 103.105 18.291 103.36 18.369C103.587 18.447 103.827 18.538 104.082 18.642C104.309 18.772 104.522 18.915 104.72 19.071C104.89 19.227 105.046 19.396 105.187 19.578C105.329 19.786 105.442 19.994 105.527 20.202C105.612 20.41 105.669 20.618 105.697 20.826C105.726 21.06 105.74 21.294 105.74 21.528V28.938H103.7V21.489C103.7 21.333 103.686 21.203 103.657 21.099C103.629 20.969 103.587 20.839 103.53 20.709C103.473 20.579 103.402 20.462 103.317 20.358C103.232 20.254 103.133 20.163 103.02 20.085C102.907 20.007 102.779 19.929 102.637 19.851C102.496 19.773 102.354 19.721 102.212 19.695C102.042 19.643 101.887 19.604 101.745 19.578C101.575 19.578 101.419 19.578 101.277 19.578C101.107 19.578 100.952 19.578 100.81 19.578C100.64 19.604 100.484 19.643 100.342 19.695C100.201 19.721 100.059 19.773 99.9175 19.851C99.7758 19.929 99.6483 20.007 99.535 20.085C99.4216 20.163 99.3225 20.254 99.2375 20.358C99.1525 20.462 99.0816 20.579 99.025 20.709C98.9683 20.839 98.9258 20.969 98.8975 21.099C98.8691 21.203 98.855 21.333 98.855 21.489V28.899H96.73V18.252H98.855V19.344C99.025 19.136 99.2233 18.954 99.45 18.798C99.6766 18.668 99.9175 18.551 100.172 18.447C100.427 18.343 100.697 18.265 100.98 18.213C101.235 18.187 101.504 18.174 101.787 18.174Z" fill="#BABEC2"/>
<path fill-rule="evenodd" clip-rule="evenodd" d="M118.703 24.375H111.18V25.077C111.18 25.233 111.194 25.389 111.223 25.545C111.251 25.701 111.308 25.857 111.393 26.013C111.449 26.143 111.534 26.273 111.648 26.403C111.733 26.533 111.846 26.65 111.988 26.754C112.129 26.858 112.271 26.949 112.413 27.027C112.554 27.105 112.71 27.17 112.88 27.222C113.05 27.274 113.22 27.313 113.39 27.339C113.56 27.365 113.73 27.378 113.9 27.378C114.07 27.378 114.226 27.365 114.368 27.339C114.538 27.313 114.693 27.287 114.835 27.261C114.977 27.209 115.118 27.157 115.26 27.105C115.402 27.053 115.543 26.988 115.685 26.91C115.798 26.832 115.898 26.754 115.983 26.676C116.096 26.598 116.195 26.507 116.28 26.403C116.365 26.299 116.436 26.195 116.493 26.091C116.549 25.961 116.592 25.831 116.62 25.701L118.49 26.052C118.433 26.286 118.363 26.494 118.278 26.676C118.193 26.884 118.079 27.079 117.938 27.261C117.796 27.443 117.64 27.612 117.47 27.768C117.328 27.924 117.158 28.054 116.96 28.158C116.478 28.444 115.968 28.665 115.43 28.821C114.892 28.951 114.339 29.003 113.773 28.977C113.206 28.977 112.653 28.886 112.115 28.704C111.605 28.548 111.123 28.314 110.67 28.002C110.443 27.82 110.245 27.625 110.075 27.417C109.877 27.209 109.721 26.975 109.608 26.715C109.494 26.481 109.409 26.234 109.353 25.974C109.296 25.714 109.268 25.441 109.268 25.155V22.035C109.268 21.775 109.296 21.515 109.353 21.255C109.409 20.995 109.494 20.735 109.608 20.475C109.721 20.241 109.863 20.02 110.033 19.812C110.203 19.604 110.401 19.409 110.628 19.227C110.854 19.045 111.095 18.876 111.35 18.72C111.605 18.59 111.874 18.473 112.158 18.369C112.441 18.291 112.724 18.226 113.008 18.174C113.291 18.122 113.588 18.109 113.9 18.135C114.212 18.109 114.523 18.122 114.835 18.174C115.147 18.226 115.444 18.291 115.728 18.369C116.011 18.473 116.294 18.59 116.578 18.72C116.833 18.876 117.088 19.045 117.343 19.227C117.541 19.383 117.739 19.565 117.938 19.773C118.108 20.007 118.249 20.241 118.363 20.475C118.476 20.709 118.561 20.956 118.618 21.216C118.674 21.476 118.703 21.749 118.703 22.035V24.375ZM113.9 19.773C113.73 19.773 113.56 19.786 113.39 19.812C113.22 19.838 113.05 19.877 112.88 19.929C112.71 19.981 112.554 20.059 112.413 20.163C112.271 20.241 112.129 20.332 111.988 20.436C111.874 20.54 111.761 20.657 111.648 20.787C111.534 20.891 111.449 21.021 111.393 21.177C111.308 21.307 111.251 21.45 111.223 21.606C111.194 21.762 111.18 21.918 111.18 22.074V22.932H116.705V22.074C116.705 21.918 116.691 21.762 116.663 21.606C116.634 21.45 116.578 21.307 116.493 21.177C116.436 21.021 116.351 20.878 116.238 20.748C116.153 20.618 116.039 20.501 115.898 20.397C115.756 20.293 115.614 20.202 115.473 20.124C115.303 20.046 115.133 19.981 114.963 19.929C114.793 19.877 114.623 19.838 114.453 19.812C114.254 19.786 114.07 19.773 113.9 19.773Z" fill="#BABEC2"/>
</svg>
