<svg width="119" height="39" viewBox="0 0 119 39" fill="none" xmlns="http://www.w3.org/2000/svg">
<path fill-rule="evenodd" clip-rule="evenodd" d="M20.6073 38.571C12.3975 38.571 4.97559 33.891 1.86583 26.754C-1.24392 19.617 0.49754 11.427 6.30242 5.967C12.1488 0.546 20.8975 -1.053 28.4439 1.911C36.0317 4.914 40.9658 11.895 40.9244 19.617C40.8829 22.113 40.3439 24.57 39.3488 26.871C38.3122 29.172 36.8195 31.278 34.9122 33.033C33.0463 34.788 30.8073 36.192 28.361 37.128C25.8732 38.103 23.261 38.571 20.6073 38.571ZM33.4195 20.202V16.653C33.4195 16.497 33.4195 16.328 33.4195 16.146C33.3918 15.964 33.3642 15.795 33.3366 15.639C33.3089 15.457 33.2813 15.288 33.2536 15.132C33.226 14.95 33.1845 14.781 33.1292 14.625C32.7561 13.455 32.0927 12.402 31.1805 11.583C30.2683 10.725 29.1073 10.14 27.8634 9.828C26.6195 9.555 25.3341 9.594 24.0902 9.906C22.8878 10.257 21.7683 10.881 20.8561 11.739C20.6073 11.973 20.6488 11.973 20.4 11.739C19.8748 11.245 19.2943 10.829 18.6585 10.491C18.0227 10.153 17.3455 9.919 16.6268 9.789C15.9081 9.659 15.1756 9.62 14.4292 9.672C13.7105 9.75 13.0057 9.932 12.3146 10.218C11.6788 10.452 11.0845 10.777 10.5317 11.193C9.97884 11.609 9.4951 12.077 9.08047 12.597C8.69348 13.143 8.38941 13.741 8.16827 14.391C7.97478 15.015 7.87803 15.652 7.87803 16.302C7.75364 18.876 7.87803 21.489 7.87803 24.063C7.85039 24.219 7.86421 24.362 7.91949 24.492C7.97478 24.648 8.04388 24.791 8.12681 24.921C8.20974 25.051 8.30648 25.168 8.41705 25.272C8.55526 25.376 8.69348 25.467 8.83169 25.545C8.9699 25.623 9.12193 25.675 9.28778 25.701C9.45364 25.753 9.63331 25.779 9.82681 25.779C9.99266 25.753 10.1585 25.714 10.3244 25.662C10.4626 25.61 10.6008 25.532 10.739 25.428C10.8772 25.35 11.0016 25.259 11.1122 25.155C11.2227 25.051 11.3057 24.921 11.361 24.765C11.4439 24.635 11.4992 24.492 11.5268 24.336C11.5545 24.206 11.5683 24.063 11.5683 23.907C11.5683 21.541 11.5683 19.175 11.5683 16.809C11.5683 16.705 11.5683 16.601 11.5683 16.497C11.5683 16.419 11.5683 16.328 11.5683 16.224C11.5959 16.12 11.6236 16.029 11.6512 15.951C11.6512 15.847 11.665 15.756 11.6927 15.678C11.8585 15.093 12.1902 14.547 12.6463 14.118C13.1439 13.728 13.6829 13.416 14.3049 13.26C14.9268 13.104 15.5902 13.143 16.2122 13.299C16.8341 13.455 17.3732 13.806 17.8292 14.235C17.9951 14.391 18.1471 14.573 18.2853 14.781C18.4236 14.963 18.5341 15.158 18.6171 15.366C18.7 15.574 18.7553 15.795 18.7829 16.029C18.8382 16.263 18.852 16.497 18.8244 16.731V22.854C18.8244 23.01 18.8382 23.153 18.8658 23.283C18.8935 23.413 18.9488 23.53 19.0317 23.634C19.087 23.764 19.1561 23.881 19.239 23.985C19.3496 24.089 19.4601 24.18 19.5707 24.258C19.7089 24.336 19.8471 24.414 19.9853 24.492C20.1512 24.544 20.3171 24.583 20.4829 24.609C20.6488 24.609 20.8146 24.596 20.9805 24.57C21.1463 24.544 21.3122 24.492 21.478 24.414C21.6162 24.362 21.7545 24.284 21.8927 24.18C22.0309 24.05 22.1414 23.92 22.2244 23.79C22.3073 23.66 22.3764 23.517 22.4317 23.361C22.4593 23.205 22.4732 23.036 22.4732 22.854C22.4732 20.826 22.4732 18.785 22.4732 16.731C22.4455 16.471 22.4593 16.211 22.5146 15.951C22.5699 15.691 22.6528 15.444 22.7634 15.21C22.8463 14.976 22.9707 14.755 23.1366 14.547C23.3024 14.339 23.4821 14.144 23.6756 13.962C24.0073 13.676 24.3805 13.468 24.7951 13.338C25.2097 13.182 25.652 13.104 26.1219 13.104C26.5642 13.104 26.9927 13.182 27.4073 13.338C27.8496 13.468 28.2366 13.676 28.5683 13.962C28.7618 14.144 28.9414 14.339 29.1073 14.547C29.2455 14.781 29.3699 15.015 29.4805 15.249C29.591 15.483 29.674 15.73 29.7292 15.99C29.7569 16.25 29.7707 16.51 29.7707 16.77C29.7707 19.188 29.7707 21.606 29.7707 24.024C29.7707 24.076 29.7707 24.128 29.7707 24.18C29.7707 24.258 29.7845 24.323 29.8122 24.375C29.8122 24.427 29.826 24.479 29.8536 24.531C29.8536 24.583 29.8675 24.648 29.8951 24.726C29.978 24.908 30.0886 25.077 30.2268 25.233C30.365 25.389 30.5309 25.519 30.7244 25.623C30.9179 25.701 31.1252 25.766 31.3463 25.818C31.5675 25.844 31.7886 25.831 32.0097 25.779C32.2032 25.753 32.3967 25.688 32.5902 25.584C32.7561 25.48 32.9081 25.35 33.0463 25.194C33.1845 25.038 33.2951 24.856 33.378 24.648C33.4333 24.466 33.461 24.284 33.461 24.102C33.4195 22.776 33.4195 21.489 33.4195 20.202ZM20.6902 29.289C20.9666 29.289 21.2292 29.276 21.478 29.25C21.7545 29.224 22.0309 29.185 22.3073 29.133C22.5561 29.081 22.8049 29.016 23.0536 28.938C23.3301 28.86 23.5927 28.769 23.8414 28.665C24.0626 28.561 24.2837 28.444 24.5049 28.314C24.726 28.184 24.9471 28.041 25.1683 27.885C25.3618 27.703 25.5414 27.521 25.7073 27.339C25.9008 27.157 26.0666 26.962 26.2049 26.754C26.3292 26.637 26.4122 26.481 26.2878 26.325C26.1219 26.208 25.9975 26.403 25.9146 26.481C25.804 26.585 25.6797 26.689 25.5414 26.793C25.4309 26.897 25.3065 26.988 25.1683 27.066C25.0301 27.144 24.8919 27.222 24.7536 27.3C24.6154 27.352 24.4772 27.417 24.339 27.495C23.8967 27.651 23.4545 27.781 23.0122 27.885C22.5699 27.989 22.1276 28.067 21.6853 28.119C21.2431 28.171 20.787 28.184 20.3171 28.158C19.8748 28.132 19.4187 28.08 18.9488 28.002C18.6171 27.976 18.2853 27.924 17.9536 27.846C17.6496 27.742 17.3455 27.625 17.0414 27.495C16.7374 27.365 16.4333 27.209 16.1292 27.027C15.8528 26.871 15.5902 26.676 15.3414 26.442C15.2585 26.364 15.1756 26.247 15.0097 26.364C14.8853 26.481 15.0097 26.598 15.0097 26.715C15.0374 26.715 15.0512 26.715 15.0512 26.715C15.0512 26.715 15.0512 26.728 15.0512 26.754C15.0788 26.754 15.0927 26.754 15.0927 26.754C15.1756 26.884 15.2585 27.001 15.3414 27.105C15.452 27.209 15.5488 27.313 15.6317 27.417C15.7423 27.521 15.8528 27.625 15.9634 27.729C16.074 27.807 16.1845 27.898 16.2951 28.002C16.6268 28.21 16.9585 28.405 17.2902 28.587C17.6496 28.743 18.0089 28.873 18.3683 28.977C18.7553 29.107 19.1423 29.198 19.5292 29.25C19.9162 29.302 20.3032 29.315 20.6902 29.289Z" fill="#6566B0"/>
<path d="M67.7096 11.427H69.9901V27.651H67.6682V14.274L63.895 20.748H62.5682L58.7535 14.352V27.651H56.3901V11.427H58.7535L63.2316 18.213L67.7096 11.427Z" fill="#6566B0"/>
<path d="M73.3489 32.604V30.771H73.5977C73.7912 30.797 73.9708 30.797 74.1367 30.771C74.3302 30.745 74.5237 30.706 74.7172 30.654C74.883 30.628 75.0627 30.576 75.2562 30.498C75.422 30.42 75.5741 30.329 75.7123 30.225C75.8781 30.069 76.0164 29.9 76.1269 29.718C76.2375 29.536 76.3481 29.354 76.4586 29.172C76.5416 28.99 76.6245 28.795 76.7074 28.587C76.7627 28.405 76.818 28.21 76.8733 28.002L72.6025 16.146H75.1318L78.0757 25.311L80.9781 16.146H83.466L78.905 28.782C78.822 29.068 78.7115 29.354 78.5733 29.64C78.4627 29.9 78.3245 30.16 78.1586 30.42C78.0204 30.68 77.8546 30.927 77.6611 31.161C77.4676 31.421 77.2603 31.655 77.0391 31.863C76.3757 32.383 75.2286 32.63 73.5977 32.604H73.3489Z" fill="#6566B0"/>
<path d="M86.1611 27.612V11.427H88.4831V20.787L93.3343 15.912H95.988L92.5465 19.656L96.4855 27.612H93.9977L90.9294 21.021L88.4831 23.595V27.612H86.1611Z" fill="#6566B0"/>
<path fill-rule="evenodd" clip-rule="evenodd" d="M108.883 22.62H100.673V23.439C100.673 23.621 100.701 23.79 100.756 23.946C100.784 24.128 100.839 24.297 100.922 24.453C100.977 24.609 101.06 24.752 101.171 24.882C101.281 25.012 101.405 25.142 101.544 25.272C101.71 25.376 101.875 25.467 102.041 25.545C102.207 25.649 102.373 25.727 102.539 25.779C102.732 25.831 102.926 25.87 103.119 25.896C103.285 25.922 103.465 25.935 103.658 25.935C103.824 25.935 103.99 25.922 104.156 25.896C104.349 25.896 104.515 25.87 104.653 25.818C104.819 25.766 104.985 25.714 105.151 25.662C105.289 25.584 105.427 25.506 105.566 25.428C105.704 25.35 105.828 25.272 105.939 25.194C106.049 25.09 106.146 24.986 106.229 24.882C106.34 24.778 106.423 24.661 106.478 24.531C106.533 24.401 106.588 24.271 106.644 24.141L108.675 24.531C108.62 24.765 108.551 24.999 108.468 25.233C108.358 25.467 108.233 25.688 108.095 25.896C107.957 26.078 107.791 26.26 107.597 26.442C107.404 26.598 107.21 26.754 107.017 26.91C106.768 27.066 106.506 27.196 106.229 27.3C105.98 27.43 105.718 27.534 105.441 27.612C105.137 27.69 104.847 27.742 104.571 27.768C104.266 27.82 103.976 27.833 103.7 27.807C103.368 27.833 103.05 27.82 102.746 27.768C102.414 27.716 102.097 27.638 101.792 27.534C101.516 27.456 101.226 27.339 100.922 27.183C100.645 27.027 100.383 26.858 100.134 26.676C99.8852 26.494 99.664 26.286 99.4705 26.052C99.277 25.818 99.1112 25.558 98.973 25.272C98.8348 25.012 98.738 24.726 98.6827 24.414C98.6274 24.128 98.6136 23.842 98.6413 23.556V20.007C98.6136 19.721 98.6274 19.435 98.6827 19.149C98.7657 18.863 98.8624 18.577 98.973 18.291C99.1112 18.031 99.2632 17.784 99.4291 17.55C99.6226 17.29 99.8437 17.069 100.092 16.887C100.314 16.679 100.576 16.497 100.88 16.341C101.157 16.185 101.447 16.055 101.751 15.951C102.055 15.847 102.373 15.769 102.705 15.717C103.009 15.665 103.327 15.639 103.658 15.639C103.99 15.639 104.322 15.665 104.653 15.717C104.985 15.769 105.303 15.847 105.607 15.951C105.939 16.055 106.243 16.185 106.519 16.341C106.823 16.497 107.1 16.679 107.349 16.887C107.597 17.069 107.819 17.277 108.012 17.511C108.205 17.745 108.371 18.005 108.51 18.291C108.62 18.551 108.717 18.824 108.8 19.11C108.855 19.422 108.869 19.721 108.841 20.007L108.883 22.62ZM103.658 17.511C103.465 17.511 103.285 17.524 103.119 17.55C102.926 17.576 102.732 17.628 102.539 17.706C102.373 17.758 102.207 17.823 102.041 17.901C101.875 18.005 101.723 18.122 101.585 18.252C101.447 18.356 101.323 18.473 101.212 18.603C101.101 18.759 101.005 18.915 100.922 19.071C100.839 19.227 100.784 19.396 100.756 19.578C100.701 19.734 100.687 19.903 100.714 20.085V21.06H106.727V20.085C106.727 19.903 106.713 19.734 106.685 19.578C106.658 19.396 106.602 19.227 106.519 19.071C106.436 18.915 106.34 18.759 106.229 18.603C106.119 18.473 105.994 18.343 105.856 18.213C105.69 18.109 105.524 18.005 105.358 17.901C105.192 17.823 105.013 17.745 104.819 17.667C104.626 17.615 104.432 17.576 104.239 17.55C104.045 17.524 103.852 17.511 103.658 17.511Z" fill="#6566B0"/>
<path d="M118.544 17.706H115.558V23.946C115.531 24.076 115.531 24.206 115.558 24.336C115.558 24.466 115.586 24.583 115.641 24.687C115.669 24.817 115.71 24.934 115.766 25.038C115.849 25.168 115.932 25.285 116.015 25.389C116.097 25.467 116.194 25.532 116.305 25.584C116.443 25.636 116.567 25.688 116.678 25.74C116.816 25.766 116.941 25.792 117.051 25.818C117.189 25.818 117.328 25.818 117.466 25.818H118.419V27.651C117.756 27.703 117.286 27.729 117.01 27.729C116.761 27.755 116.512 27.755 116.263 27.729C116.015 27.703 115.78 27.664 115.558 27.612C115.31 27.534 115.075 27.456 114.854 27.378C114.605 27.274 114.384 27.157 114.19 27.027C114.024 26.897 113.872 26.741 113.734 26.559C113.623 26.377 113.527 26.182 113.444 25.974C113.361 25.792 113.306 25.597 113.278 25.389C113.25 25.155 113.25 24.934 113.278 24.726V17.706H111.412V16.068H113.278V12.831H115.517V16.068H118.544V17.706Z" fill="#6566B0"/>
</svg>
